G04 ================== begin FILE IDENTIFICATION RECORD ==================*
G04 Layout Name:  D:/0_Working/1_Hardware/42_Adaptor/2_Layout/Adaptor_V100.brd*
G04 Film Name:    ADAPTOR_ver1.0.0_ASSY_TOP.art*
G04 File Format:  Gerber RS274X*
G04 File Origin:  Cadence Allegro 17.2-S052*
G04 Origin Date:  Fri Oct 11 14:19:24 2024*
G04 *
G04 Layer:  BOARD GEOMETRY/DESIGN_OUTLINE*
G04 Layer:  REF DES/ASSEMBLY_TOP*
G04 Layer:  PACKAGE GEOMETRY/ASSEMBLY_TOP*
G04 Layer:  DRAWING FORMAT/OUTLINE*
G04 *
G04 Offset:    (0.0000 0.0000)*
G04 Mirror:    No*
G04 Mode:      Positive*
G04 Rotation:  0*
G04 FullContactRelief:  No*
G04 UndefLineWidth:     0.1016*
G04 ================== end FILE IDENTIFICATION RECORD ====================*
%FSLAX25Y25*MOMM*%
%IR0*IPPOS*OFA0.00000B0.00000*MIA0B0*SFA1.00000B1.00000*%
%ADD10C,.1*%
%ADD11C,.2*%
%ADD12C,.15*%
%ADD13C,.2032*%
%ADD14C,.127*%
%ADD15C,.1524*%
%ADD16C,.2499*%
%ADD17C,.1999*%
%ADD18C,.1016*%
G75*
%LPD*%
G75*
G36*
G01X930310Y2558900D02*
X904910Y2584300D01*
Y2533500D01*
X930310Y2558900D01*
G37*
G36*
G01X1988700Y1672500D02*
X2039500D01*
Y1634400D01*
X2077600D01*
Y1583600D01*
X2039500D01*
Y1545500D01*
X1988700D01*
Y1583600D01*
X1950600D01*
Y1634400D01*
X1988700D01*
Y1672500D01*
G37*
G36*
G01X1984600Y2403500D02*
X2035400D01*
Y2365400D01*
X2073500D01*
Y2314600D01*
X2035400D01*
Y2276500D01*
X1984600D01*
Y2314600D01*
X1946500D01*
Y2365400D01*
X1984600D01*
Y2403500D01*
G37*
G36*
G01X2115700Y1583600D02*
Y1659800D01*
X2217300D01*
Y1583600D01*
X2115700D01*
G37*
G36*
G01Y2015400D02*
Y1939200D01*
X2217300D01*
Y2015400D01*
X2115700D01*
G37*
G36*
G01Y2083600D02*
Y2159800D01*
X2217300D01*
Y2083600D01*
X2115700D01*
G37*
G36*
G01Y2515400D02*
Y2439200D01*
X2217300D01*
Y2515400D01*
X2115700D01*
G37*
G36*
G01X3450310Y7218900D02*
X3424910Y7244300D01*
Y7193500D01*
X3450310Y7218900D01*
G37*
G36*
G01X4498700Y6382500D02*
X4549500D01*
Y6344400D01*
X4587600D01*
Y6293600D01*
X4549500D01*
Y6255500D01*
X4498700D01*
Y6293600D01*
X4460600D01*
Y6344400D01*
X4498700D01*
Y6382500D01*
G37*
G36*
G01X4625700Y6293600D02*
Y6369800D01*
X4727300D01*
Y6293600D01*
X4625700D01*
G37*
G36*
G01Y6725400D02*
Y6649200D01*
X4727300D01*
Y6725400D01*
X4625700D01*
G37*
G36*
G01X4504600Y7093500D02*
X4555400D01*
Y7055400D01*
X4593500D01*
Y7004600D01*
X4555400D01*
Y6966500D01*
X4504600D01*
Y7004600D01*
X4466500D01*
Y7055400D01*
X4504600D01*
Y7093500D01*
G37*
G36*
G01X4625700Y6793600D02*
Y6869800D01*
X4727300D01*
Y6793600D01*
X4625700D01*
G37*
G36*
G01Y7225400D02*
Y7149200D01*
X4727300D01*
Y7225400D01*
X4625700D01*
G37*
G36*
G01X5840310Y2558900D02*
X5814910Y2584300D01*
Y2533500D01*
X5840310Y2558900D01*
G37*
G36*
G01X6898700Y1662500D02*
X6949500D01*
Y1624400D01*
X6987600D01*
Y1573600D01*
X6949500D01*
Y1535500D01*
X6898700D01*
Y1573600D01*
X6860600D01*
Y1624400D01*
X6898700D01*
Y1662500D01*
G37*
G36*
G01X7025700Y1573600D02*
Y1649800D01*
X7127300D01*
Y1573600D01*
X7025700D01*
G37*
G36*
G01Y2005400D02*
Y1929200D01*
X7127300D01*
Y2005400D01*
X7025700D01*
G37*
G36*
G01X6904600Y2383500D02*
X6955400D01*
Y2345400D01*
X6993500D01*
Y2294600D01*
X6955400D01*
Y2256500D01*
X6904600D01*
Y2294600D01*
X6866500D01*
Y2345400D01*
X6904600D01*
Y2383500D01*
G37*
G36*
G01X7025700Y2073600D02*
Y2149800D01*
X7127300D01*
Y2073600D01*
X7025700D01*
G37*
G36*
G01Y2505400D02*
Y2429200D01*
X7127300D01*
Y2505400D01*
X7025700D01*
G37*
G54D10*
G01X1027510Y2530000D02*
G02I-20000J0D01*
G01X965010Y2365000D02*
Y2575000D01*
G01X1175010Y2365000D02*
Y2575000D01*
G01X965010D02*
X1175010D01*
G01X965010Y2365000D02*
X1175010D01*
G01X1560000Y2820000D02*
X1740000D01*
Y2960000D01*
X1560000D01*
Y2820000D01*
G01X3547510Y7190000D02*
G02I-20000J0D01*
G01X3485010Y7025000D02*
Y7235000D01*
G01X3695010Y7025000D02*
Y7235000D01*
G01X3485010D02*
X3695010D01*
G01X3485010Y7025000D02*
X3695010D01*
G01X4090000Y7470000D02*
X4270000D01*
Y7610000D01*
X4090000D01*
Y7470000D01*
G01X5937510Y2530000D02*
G02I-20000J0D01*
G01X5875010Y2365000D02*
Y2575000D01*
G01D02*
X6085010D01*
G01X5875010Y2365000D02*
X6085010D01*
G01D02*
Y2575000D01*
G01X6450000Y2810000D02*
X6630000D01*
Y2950000D01*
X6450000D01*
Y2810000D01*
G54D11*
G01X3231200Y1105400D02*
X3481200D01*
Y985400D01*
G01X5085700Y755400D02*
G03I-10000J0D01*
G01X5391200Y1105400D02*
X5141200D01*
Y985400D01*
G54D12*
G01X1439000Y2114500D02*
Y2324500D01*
G01X1649000D02*
X1439000D01*
G01X1649000Y2114500D02*
Y2324500D01*
G01Y2114500D02*
X1439000D01*
G01X3949000Y6764500D02*
Y6974500D01*
G01X4159000D02*
X3949000D01*
G01X4159000Y6764500D02*
X3949000D01*
G01X4159000D02*
Y6974500D01*
G01X6349000Y2104500D02*
Y2314500D01*
G01X6559000D02*
X6349000D01*
G01X6559000Y2104500D02*
Y2314500D01*
G01Y2104500D02*
X6349000D01*
G54D13*
G01X666330Y801900D02*
Y878100D01*
X714590D01*
G01X696810Y841270D02*
X666330D01*
G01X761580Y878100D02*
X792060D01*
G01X776820D02*
Y801900D01*
G01X761580D02*
X792060D01*
G01X835240D02*
Y878100D01*
X860640D01*
X870800Y874290D01*
X878420Y869210D01*
X884770Y861590D01*
X889850Y852700D01*
X891120Y840000D01*
X889850Y827300D01*
X884770Y818410D01*
X878420Y810790D01*
X870800Y805710D01*
X860640Y801900D01*
X835240D01*
G01X921600Y817140D02*
X929220Y808250D01*
X939380Y803170D01*
X950810Y801900D01*
X960970Y803170D01*
X971130Y809520D01*
X977480Y817140D01*
X978750Y824760D01*
X976210Y833650D01*
X967320Y840000D01*
X958430Y842540D01*
X947000D01*
G01X958430D02*
X966050Y846350D01*
X972400Y852700D01*
X974940Y860320D01*
X972400Y867940D01*
X966050Y874290D01*
X954620Y878100D01*
X943190Y876830D01*
X931760Y871750D01*
G01X413640Y6652700D02*
Y6576500D01*
G01X384430Y6652700D02*
X442850D01*
G01X474600Y6576500D02*
Y6652700D01*
X505080D01*
X515240Y6648890D01*
X522860Y6640000D01*
X525400Y6629840D01*
X522860Y6619680D01*
X516510Y6612060D01*
X505080Y6608250D01*
X474600D01*
G01X586360Y6576500D02*
Y6652700D01*
X571120Y6637460D01*
G01Y6576500D02*
X601600D01*
G01X519830Y7758250D02*
Y7834450D01*
X568090D01*
G01X550310Y7797620D02*
X519830D01*
G01X615080Y7834450D02*
X645560D01*
G01X630320D02*
Y7758250D01*
G01X615080D02*
X645560D01*
G01X688740D02*
Y7834450D01*
X714140D01*
X724300Y7830640D01*
X731920Y7825560D01*
X738270Y7817940D01*
X743350Y7809050D01*
X744620Y7796350D01*
X743350Y7783650D01*
X738270Y7774760D01*
X731920Y7767140D01*
X724300Y7762060D01*
X714140Y7758250D01*
X688740D01*
G01X803040D02*
Y7834450D01*
X787800Y7819210D01*
G01Y7758250D02*
X818280D01*
G01X1203800Y1705400D02*
Y1781600D01*
X1235550D01*
X1245710Y1777790D01*
X1252060Y1772710D01*
X1254600Y1762550D01*
X1252060Y1752390D01*
X1244440Y1746040D01*
X1235550Y1742230D01*
X1203800D01*
G01X1235550D02*
X1254600Y1705400D01*
G01X1315560D02*
Y1781600D01*
X1300320Y1766360D01*
G01Y1705400D02*
X1330800D01*
G01X1373980Y1716830D02*
X1381600Y1710480D01*
X1390490Y1706670D01*
X1401920Y1705400D01*
X1413350Y1707940D01*
X1422240Y1713020D01*
X1428590Y1721910D01*
X1429860Y1732070D01*
X1427320Y1742230D01*
X1420970Y1748580D01*
X1412080Y1753660D01*
X1403190Y1754930D01*
X1394300Y1753660D01*
X1382870Y1748580D01*
X1386680Y1781600D01*
X1420970D01*
G01X1041580Y2281750D02*
X1033960Y2285560D01*
X1025070Y2288100D01*
X1014910D01*
X1003480Y2284290D01*
X994590Y2277940D01*
X988240Y2270320D01*
X983160Y2257620D01*
X981890Y2246190D01*
X984430Y2234760D01*
X988240Y2227140D01*
X995860Y2219520D01*
X1004750Y2214440D01*
X1013640Y2211900D01*
X1022530D01*
X1031420Y2214440D01*
X1039040Y2218250D01*
X1045390Y2223330D01*
G01X1100000Y2211900D02*
Y2288100D01*
X1084760Y2272860D01*
G01Y2211900D02*
X1115240D01*
G01X1186360Y2288100D02*
X1176200Y2285560D01*
X1168580Y2279210D01*
X1163500Y2271590D01*
X1159690Y2261430D01*
X1158420Y2250000D01*
X1159690Y2238570D01*
X1163500Y2228410D01*
X1168580Y2220790D01*
X1176200Y2214440D01*
X1186360Y2211900D01*
X1196520Y2214440D01*
X1204140Y2220790D01*
X1209220Y2228410D01*
X1213030Y2238570D01*
X1214300Y2250000D01*
X1213030Y2261430D01*
X1209220Y2271590D01*
X1204140Y2279210D01*
X1196520Y2285560D01*
X1186360Y2288100D01*
G01X1369450Y2513540D02*
X1365640Y2505920D01*
X1363100Y2497030D01*
Y2486870D01*
X1366910Y2475440D01*
X1373260Y2466550D01*
X1380880Y2460200D01*
X1393580Y2455120D01*
X1405010Y2453850D01*
X1416440Y2456390D01*
X1424060Y2460200D01*
X1431680Y2467820D01*
X1436760Y2476710D01*
X1439300Y2485600D01*
Y2494490D01*
X1436760Y2503380D01*
X1432950Y2511000D01*
X1427870Y2517350D01*
G01X1439300Y2571960D02*
X1363100D01*
X1378340Y2556720D01*
G01X1439300D02*
Y2587200D01*
G01Y2658320D02*
X1363100D01*
X1378340Y2643080D01*
G01X1439300D02*
Y2673560D01*
G01X1008880Y2478100D02*
Y2423490D01*
X1013960Y2412060D01*
X1024120Y2404440D01*
X1036820Y2401900D01*
X1049520Y2404440D01*
X1059680Y2412060D01*
X1064760Y2423490D01*
Y2478100D01*
G01X1099050Y2433650D02*
X1107940Y2442540D01*
X1115560Y2447620D01*
X1125720Y2450160D01*
X1134610Y2447620D01*
X1140960Y2442540D01*
X1146040Y2434920D01*
X1147310Y2426030D01*
X1146040Y2418410D01*
X1140960Y2410790D01*
X1133340Y2404440D01*
X1124450Y2401900D01*
X1114290Y2404440D01*
X1105400Y2412060D01*
X1100320Y2423490D01*
X1099050Y2436190D01*
X1101590Y2452700D01*
X1105400Y2461590D01*
X1111750Y2470480D01*
X1120640Y2476830D01*
X1129530Y2478100D01*
X1138420Y2475560D01*
X1144770Y2469210D01*
G01X1999400Y1980280D02*
X1923200D01*
Y2012030D01*
X1927010Y2022190D01*
X1932090Y2028540D01*
X1942250Y2031080D01*
X1952410Y2028540D01*
X1958760Y2020920D01*
X1962570Y2012030D01*
Y1980280D01*
G01Y2012030D02*
X1999400Y2031080D01*
G01Y2092040D02*
X1923200D01*
X1938440Y2076800D01*
G01X1999400D02*
Y2107280D01*
G01X1967650Y2154270D02*
X1958760Y2163160D01*
X1953680Y2170780D01*
X1951140Y2180940D01*
X1953680Y2189830D01*
X1958760Y2196180D01*
X1966380Y2201260D01*
X1975270Y2202530D01*
X1982890Y2201260D01*
X1990510Y2196180D01*
X1996860Y2188560D01*
X1999400Y2179670D01*
X1996860Y2169510D01*
X1989240Y2160620D01*
X1977810Y2155540D01*
X1965110Y2154270D01*
X1948600Y2156810D01*
X1939710Y2160620D01*
X1930820Y2166970D01*
X1924470Y2175860D01*
X1923200Y2184750D01*
X1925740Y2193640D01*
X1932090Y2199990D01*
G01X1483200Y1705400D02*
Y1781600D01*
X1514950D01*
X1525110Y1777790D01*
X1531460Y1772710D01*
X1534000Y1762550D01*
X1531460Y1752390D01*
X1523840Y1746040D01*
X1514950Y1742230D01*
X1483200D01*
G01X1514950D02*
X1534000Y1705400D01*
G01X1594960D02*
Y1781600D01*
X1579720Y1766360D01*
G01Y1705400D02*
X1610200D01*
G01X1681320D02*
X1690210Y1706670D01*
X1700370Y1710480D01*
X1706720Y1716830D01*
X1709260Y1725720D01*
X1706720Y1734610D01*
X1699100Y1742230D01*
X1687670Y1746040D01*
X1674970D01*
X1667350Y1748580D01*
X1661000Y1754930D01*
X1658460Y1763820D01*
X1662270Y1772710D01*
X1671160Y1779060D01*
X1681320Y1781600D01*
X1691480Y1779060D01*
X1700370Y1772710D01*
X1704180Y1763820D01*
X1701640Y1754930D01*
X1695290Y1748580D01*
X1687670Y1746040D01*
X1674970D01*
X1663540Y1742230D01*
X1655920Y1734610D01*
X1653380Y1725720D01*
X1655920Y1716830D01*
X1662270Y1710480D01*
X1672430Y1706670D01*
X1681320Y1705400D01*
G01X1869400Y1980280D02*
X1793200D01*
Y2012030D01*
X1797010Y2022190D01*
X1802090Y2028540D01*
X1812250Y2031080D01*
X1822410Y2028540D01*
X1828760Y2020920D01*
X1832570Y2012030D01*
Y1980280D01*
G01Y2012030D02*
X1869400Y2031080D01*
G01Y2092040D02*
X1793200D01*
X1808440Y2076800D01*
G01X1869400D02*
Y2107280D01*
G01X1860510Y2156810D02*
X1866860Y2165700D01*
X1869400Y2175860D01*
X1866860Y2186020D01*
X1859240Y2194910D01*
X1847810Y2201260D01*
X1836380Y2203800D01*
X1822410D01*
X1810980Y2201260D01*
X1800820Y2194910D01*
X1795740Y2187290D01*
X1793200Y2178400D01*
X1795740Y2168240D01*
X1800820Y2160620D01*
X1808440Y2155540D01*
X1818600Y2153000D01*
X1827490Y2155540D01*
X1836380Y2161890D01*
X1841460Y2169510D01*
X1842730Y2178400D01*
X1840190Y2188560D01*
X1833840Y2196180D01*
X1822410Y2203800D01*
G01X1762600Y1705400D02*
Y1781600D01*
X1794350D01*
X1804510Y1777790D01*
X1810860Y1772710D01*
X1813400Y1762550D01*
X1810860Y1752390D01*
X1803240Y1746040D01*
X1794350Y1742230D01*
X1762600D01*
G01X1794350D02*
X1813400Y1705400D01*
G01X1850230Y1768900D02*
X1857850Y1776520D01*
X1866740Y1780330D01*
X1876900Y1781600D01*
X1889600Y1779060D01*
X1898490Y1772710D01*
X1901030Y1765090D01*
X1899760Y1757470D01*
X1894680Y1751120D01*
X1869280Y1738420D01*
X1857850Y1729530D01*
X1850230Y1716830D01*
X1847690Y1705400D01*
X1901030D01*
G01X1960720Y1781600D02*
X1950560Y1779060D01*
X1942940Y1772710D01*
X1937860Y1765090D01*
X1934050Y1754930D01*
X1932780Y1743500D01*
X1934050Y1732070D01*
X1937860Y1721910D01*
X1942940Y1714290D01*
X1950560Y1707940D01*
X1960720Y1705400D01*
X1970880Y1707940D01*
X1978500Y1714290D01*
X1983580Y1721910D01*
X1987390Y1732070D01*
X1988660Y1743500D01*
X1987390Y1754930D01*
X1983580Y1765090D01*
X1978500Y1772710D01*
X1970880Y1779060D01*
X1960720Y1781600D01*
G01X1794950Y2358540D02*
X1791140Y2350920D01*
X1788600Y2342030D01*
Y2331870D01*
X1792410Y2320440D01*
X1798760Y2311550D01*
X1806380Y2305200D01*
X1819080Y2300120D01*
X1830510Y2298850D01*
X1841940Y2301390D01*
X1849560Y2305200D01*
X1857180Y2312820D01*
X1862260Y2321710D01*
X1864800Y2330600D01*
Y2339490D01*
X1862260Y2348380D01*
X1858450Y2356000D01*
X1853370Y2362350D01*
G01X1864800Y2416960D02*
X1788600D01*
X1803840Y2401720D01*
G01X1864800D02*
Y2432200D01*
G01X1801300Y2479190D02*
X1793680Y2486810D01*
X1789870Y2495700D01*
X1788600Y2505860D01*
X1791140Y2518560D01*
X1797490Y2527450D01*
X1805110Y2529990D01*
X1812730Y2528720D01*
X1819080Y2523640D01*
X1831780Y2498240D01*
X1840670Y2486810D01*
X1853370Y2479190D01*
X1864800Y2476650D01*
Y2529990D01*
G01X1569300Y2460200D02*
X1493100D01*
Y2491950D01*
X1496910Y2502110D01*
X1501990Y2508460D01*
X1512150Y2511000D01*
X1522310Y2508460D01*
X1528660Y2500840D01*
X1532470Y2491950D01*
Y2460200D01*
G01Y2491950D02*
X1569300Y2511000D01*
G01X1505800Y2547830D02*
X1498180Y2555450D01*
X1494370Y2564340D01*
X1493100Y2574500D01*
X1495640Y2587200D01*
X1501990Y2596090D01*
X1509610Y2598630D01*
X1517230Y2597360D01*
X1523580Y2592280D01*
X1536280Y2566880D01*
X1545170Y2555450D01*
X1557870Y2547830D01*
X1569300Y2545290D01*
Y2598630D01*
G01Y2658320D02*
X1493100D01*
X1508340Y2643080D01*
G01X1569300D02*
Y2673560D01*
G01X1468880Y2238100D02*
Y2183490D01*
X1473960Y2172060D01*
X1484120Y2164440D01*
X1496820Y2161900D01*
X1509520Y2164440D01*
X1519680Y2172060D01*
X1524760Y2183490D01*
Y2238100D01*
G01X1555240Y2173330D02*
X1562860Y2166980D01*
X1571750Y2163170D01*
X1583180Y2161900D01*
X1594610Y2164440D01*
X1603500Y2169520D01*
X1609850Y2178410D01*
X1611120Y2188570D01*
X1608580Y2198730D01*
X1602230Y2205080D01*
X1593340Y2210160D01*
X1584450Y2211430D01*
X1575560Y2210160D01*
X1564130Y2205080D01*
X1567940Y2238100D01*
X1602230D01*
G01X1581420Y2867140D02*
X1587770Y2859520D01*
X1595390Y2854440D01*
X1604280Y2851900D01*
X1614440Y2854440D01*
X1622060Y2859520D01*
X1629680Y2867140D01*
X1632220Y2877300D01*
Y2928100D01*
G01X1690640Y2851900D02*
X1693180Y2868410D01*
X1696990Y2882380D01*
X1702070Y2895080D01*
X1708420Y2909050D01*
X1718580Y2928100D01*
X1667780D01*
G01X2468760Y1805850D02*
X2461140Y1809660D01*
X2452250Y1812200D01*
X2442090D01*
X2430660Y1808390D01*
X2421770Y1802040D01*
X2415420Y1794420D01*
X2410340Y1781720D01*
X2409070Y1770290D01*
X2411610Y1758860D01*
X2415420Y1751240D01*
X2423040Y1743620D01*
X2431930Y1738540D01*
X2440820Y1736000D01*
X2449710D01*
X2458600Y1738540D01*
X2466220Y1742350D01*
X2472570Y1747430D01*
G01X2505590Y1744890D02*
X2514480Y1738540D01*
X2524640Y1736000D01*
X2534800Y1738540D01*
X2543690Y1746160D01*
X2550040Y1757590D01*
X2552580Y1769020D01*
Y1782990D01*
X2550040Y1794420D01*
X2543690Y1804580D01*
X2536070Y1809660D01*
X2527180Y1812200D01*
X2517020Y1809660D01*
X2509400Y1804580D01*
X2504320Y1796960D01*
X2501780Y1786800D01*
X2504320Y1777910D01*
X2510670Y1769020D01*
X2518290Y1763940D01*
X2527180Y1762670D01*
X2537340Y1765210D01*
X2544960Y1771560D01*
X2552580Y1782990D01*
G01X2425580Y2305850D02*
X2417960Y2309660D01*
X2409070Y2312200D01*
X2398910D01*
X2387480Y2308390D01*
X2378590Y2302040D01*
X2372240Y2294420D01*
X2367160Y2281720D01*
X2365890Y2270290D01*
X2368430Y2258860D01*
X2372240Y2251240D01*
X2379860Y2243620D01*
X2388750Y2238540D01*
X2397640Y2236000D01*
X2406530D01*
X2415420Y2238540D01*
X2423040Y2242350D01*
X2429390Y2247430D01*
G01X2484000Y2236000D02*
Y2312200D01*
X2468760Y2296960D01*
G01Y2236000D02*
X2499240D01*
G01X2542420Y2251240D02*
X2550040Y2242350D01*
X2560200Y2237270D01*
X2571630Y2236000D01*
X2581790Y2237270D01*
X2591950Y2243620D01*
X2598300Y2251240D01*
X2599570Y2258860D01*
X2597030Y2267750D01*
X2588140Y2274100D01*
X2579250Y2276640D01*
X2567820D01*
G01X2579250D02*
X2586870Y2280450D01*
X2593220Y2286800D01*
X2595760Y2294420D01*
X2593220Y2302040D01*
X2586870Y2308390D01*
X2575440Y2312200D01*
X2564010Y2310930D01*
X2552580Y2305850D01*
G01X2408880Y2731900D02*
Y2808100D01*
X2434280D01*
X2444440Y2804290D01*
X2452060Y2799210D01*
X2458410Y2791590D01*
X2463490Y2782700D01*
X2464760Y2770000D01*
X2463490Y2757300D01*
X2458410Y2748410D01*
X2452060Y2740790D01*
X2444440Y2735710D01*
X2434280Y2731900D01*
X2408880D01*
G01X2495240Y2743330D02*
X2502860Y2736980D01*
X2511750Y2733170D01*
X2523180Y2731900D01*
X2534610Y2734440D01*
X2543500Y2739520D01*
X2549850Y2748410D01*
X2551120Y2758570D01*
X2548580Y2768730D01*
X2542230Y2775080D01*
X2533340Y2780160D01*
X2524450Y2781430D01*
X2515560Y2780160D01*
X2504130Y2775080D01*
X2507940Y2808100D01*
X2542230D01*
G01X3088240Y171900D02*
Y248100D01*
X3119990D01*
X3130150Y244290D01*
X3136500Y239210D01*
X3139040Y229050D01*
X3136500Y218890D01*
X3128880Y212540D01*
X3119990Y208730D01*
X3088240D01*
G01X3119990D02*
X3139040Y171900D01*
G01X3200000D02*
Y248100D01*
X3184760Y232860D01*
G01Y171900D02*
X3215240D01*
G01X3283820D02*
X3286360Y188410D01*
X3290170Y202380D01*
X3295250Y215080D01*
X3301600Y229050D01*
X3311760Y248100D01*
X3260960D01*
G01X3439230Y170240D02*
Y246440D01*
X3464630D01*
X3474790Y242630D01*
X3482410Y237550D01*
X3488760Y229930D01*
X3493840Y221040D01*
X3495110Y208340D01*
X3493840Y195640D01*
X3488760Y186750D01*
X3482410Y179130D01*
X3474790Y174050D01*
X3464630Y170240D01*
X3439230D01*
G01X3529400Y201990D02*
X3538290Y210880D01*
X3545910Y215960D01*
X3556070Y218500D01*
X3564960Y215960D01*
X3571310Y210880D01*
X3576390Y203260D01*
X3577660Y194370D01*
X3576390Y186750D01*
X3571310Y179130D01*
X3563690Y172780D01*
X3554800Y170240D01*
X3544640Y172780D01*
X3535750Y180400D01*
X3530670Y191830D01*
X3529400Y204530D01*
X3531940Y221040D01*
X3535750Y229930D01*
X3542100Y238820D01*
X3550990Y245170D01*
X3559880Y246440D01*
X3568770Y243900D01*
X3575120Y237550D01*
G01X3713800Y6365400D02*
Y6441600D01*
X3745550D01*
X3755710Y6437790D01*
X3762060Y6432710D01*
X3764600Y6422550D01*
X3762060Y6412390D01*
X3754440Y6406040D01*
X3745550Y6402230D01*
X3713800D01*
G01X3745550D02*
X3764600Y6365400D01*
G01X3825560D02*
X3834450Y6366670D01*
X3844610Y6370480D01*
X3850960Y6376830D01*
X3853500Y6385720D01*
X3850960Y6394610D01*
X3843340Y6402230D01*
X3831910Y6406040D01*
X3819210D01*
X3811590Y6408580D01*
X3805240Y6414930D01*
X3802700Y6423820D01*
X3806510Y6432710D01*
X3815400Y6439060D01*
X3825560Y6441600D01*
X3835720Y6439060D01*
X3844610Y6432710D01*
X3848420Y6423820D01*
X3845880Y6414930D01*
X3839530Y6408580D01*
X3831910Y6406040D01*
X3819210D01*
X3807780Y6402230D01*
X3800160Y6394610D01*
X3797620Y6385720D01*
X3800160Y6376830D01*
X3806510Y6370480D01*
X3816670Y6366670D01*
X3825560Y6365400D01*
G01X3993200D02*
Y6441600D01*
X4024950D01*
X4035110Y6437790D01*
X4041460Y6432710D01*
X4044000Y6422550D01*
X4041460Y6412390D01*
X4033840Y6406040D01*
X4024950Y6402230D01*
X3993200D01*
G01X4024950D02*
X4044000Y6365400D01*
G01X4104960D02*
Y6441600D01*
X4089720Y6426360D01*
G01Y6365400D02*
X4120200D01*
G01X4191320D02*
Y6441600D01*
X4176080Y6426360D01*
G01Y6365400D02*
X4206560D01*
G01X3594760Y6931750D02*
X3587140Y6935560D01*
X3578250Y6938100D01*
X3568090D01*
X3556660Y6934290D01*
X3547770Y6927940D01*
X3541420Y6920320D01*
X3536340Y6907620D01*
X3535070Y6896190D01*
X3537610Y6884760D01*
X3541420Y6877140D01*
X3549040Y6869520D01*
X3557930Y6864440D01*
X3566820Y6861900D01*
X3575710D01*
X3584600Y6864440D01*
X3592220Y6868250D01*
X3598570Y6873330D01*
G01X3629050Y6893650D02*
X3637940Y6902540D01*
X3645560Y6907620D01*
X3655720Y6910160D01*
X3664610Y6907620D01*
X3670960Y6902540D01*
X3676040Y6894920D01*
X3677310Y6886030D01*
X3676040Y6878410D01*
X3670960Y6870790D01*
X3663340Y6864440D01*
X3654450Y6861900D01*
X3644290Y6864440D01*
X3635400Y6872060D01*
X3630320Y6883490D01*
X3629050Y6896190D01*
X3631590Y6912700D01*
X3635400Y6921590D01*
X3641750Y6930480D01*
X3650640Y6936830D01*
X3659530Y6938100D01*
X3668420Y6935560D01*
X3674770Y6929210D01*
G01X3879450Y7163540D02*
X3875640Y7155920D01*
X3873100Y7147030D01*
Y7136870D01*
X3876910Y7125440D01*
X3883260Y7116550D01*
X3890880Y7110200D01*
X3903580Y7105120D01*
X3915010Y7103850D01*
X3926440Y7106390D01*
X3934060Y7110200D01*
X3941680Y7117820D01*
X3946760Y7126710D01*
X3949300Y7135600D01*
Y7144490D01*
X3946760Y7153380D01*
X3942950Y7161000D01*
X3937870Y7167350D01*
G01X3949300Y7219420D02*
X3932790Y7221960D01*
X3918820Y7225770D01*
X3906120Y7230850D01*
X3892150Y7237200D01*
X3873100Y7247360D01*
Y7196560D01*
G01X4079300Y7110200D02*
X4003100D01*
Y7141950D01*
X4006910Y7152110D01*
X4011990Y7158460D01*
X4022150Y7161000D01*
X4032310Y7158460D01*
X4038660Y7150840D01*
X4042470Y7141950D01*
Y7110200D01*
G01Y7141950D02*
X4079300Y7161000D01*
G01Y7221960D02*
X4003100D01*
X4018340Y7206720D01*
G01X4079300D02*
Y7237200D01*
G01Y7323560D02*
X4003100D01*
X4057710Y7276570D01*
Y7340070D01*
G01X3978880Y6898100D02*
Y6843490D01*
X3983960Y6832060D01*
X3994120Y6824440D01*
X4006820Y6821900D01*
X4019520Y6824440D01*
X4029680Y6832060D01*
X4034760Y6843490D01*
Y6898100D01*
G01X4065240Y6837140D02*
X4072860Y6828250D01*
X4083020Y6823170D01*
X4094450Y6821900D01*
X4104610Y6823170D01*
X4114770Y6829520D01*
X4121120Y6837140D01*
X4122390Y6844760D01*
X4119850Y6853650D01*
X4110960Y6860000D01*
X4102070Y6862540D01*
X4090640D01*
G01X4102070D02*
X4109690Y6866350D01*
X4116040Y6872700D01*
X4118580Y6880320D01*
X4116040Y6887940D01*
X4109690Y6894290D01*
X4098260Y6898100D01*
X4086830Y6896830D01*
X4075400Y6891750D01*
G01X3528880Y7138100D02*
Y7083490D01*
X3533960Y7072060D01*
X3544120Y7064440D01*
X3556820Y7061900D01*
X3569520Y7064440D01*
X3579680Y7072060D01*
X3584760Y7083490D01*
Y7138100D01*
G01X3640640Y7061900D02*
X3643180Y7078410D01*
X3646990Y7092380D01*
X3652070Y7105080D01*
X3658420Y7119050D01*
X3668580Y7138100D01*
X3617780D01*
G01X4439230Y170240D02*
Y246440D01*
X4464630D01*
X4474790Y242630D01*
X4482410Y237550D01*
X4488760Y229930D01*
X4493840Y221040D01*
X4495110Y208340D01*
X4493840Y195640D01*
X4488760Y186750D01*
X4482410Y179130D01*
X4474790Y174050D01*
X4464630Y170240D01*
X4439230D01*
G01X4529400Y233740D02*
X4537020Y241360D01*
X4545910Y245170D01*
X4556070Y246440D01*
X4568770Y243900D01*
X4577660Y237550D01*
X4580200Y229930D01*
X4578930Y222310D01*
X4573850Y215960D01*
X4548450Y203260D01*
X4537020Y194370D01*
X4529400Y181670D01*
X4526860Y170240D01*
X4580200D01*
G01X4141420Y171900D02*
Y248100D01*
X4173170D01*
X4183330Y244290D01*
X4189680Y239210D01*
X4192220Y229050D01*
X4189680Y218890D01*
X4182060Y212540D01*
X4173170Y208730D01*
X4141420D01*
G01X4173170D02*
X4192220Y171900D01*
G01X4225240Y187140D02*
X4232860Y178250D01*
X4243020Y173170D01*
X4254450Y171900D01*
X4264610Y173170D01*
X4274770Y179520D01*
X4281120Y187140D01*
X4282390Y194760D01*
X4279850Y203650D01*
X4270960Y210000D01*
X4262070Y212540D01*
X4250640D01*
G01X4262070D02*
X4269690Y216350D01*
X4276040Y222700D01*
X4278580Y230320D01*
X4276040Y237940D01*
X4269690Y244290D01*
X4258260Y248100D01*
X4246830Y246830D01*
X4235400Y241750D01*
G01X4212620Y1202540D02*
X4218970Y1194920D01*
X4226590Y1189840D01*
X4235480Y1187300D01*
X4245640Y1189840D01*
X4253260Y1194920D01*
X4260880Y1202540D01*
X4263420Y1212700D01*
Y1263500D01*
G01X4300250Y1250800D02*
X4307870Y1258420D01*
X4316760Y1262230D01*
X4326920Y1263500D01*
X4339620Y1260960D01*
X4348510Y1254610D01*
X4351050Y1246990D01*
X4349780Y1239370D01*
X4344700Y1233020D01*
X4319300Y1220320D01*
X4307870Y1211430D01*
X4300250Y1198730D01*
X4297710Y1187300D01*
X4351050D01*
G01X4369400Y6620280D02*
X4293200D01*
Y6652030D01*
X4297010Y6662190D01*
X4302090Y6668540D01*
X4312250Y6671080D01*
X4322410Y6668540D01*
X4328760Y6660920D01*
X4332570Y6652030D01*
Y6620280D01*
G01Y6652030D02*
X4369400Y6671080D01*
G01Y6732040D02*
X4293200D01*
X4308440Y6716800D01*
G01X4369400D02*
Y6747280D01*
G01X4305900Y6794270D02*
X4298280Y6801890D01*
X4294470Y6810780D01*
X4293200Y6820940D01*
X4295740Y6833640D01*
X4302090Y6842530D01*
X4309710Y6845070D01*
X4317330Y6843800D01*
X4323680Y6838720D01*
X4336380Y6813320D01*
X4345270Y6801890D01*
X4357970Y6794270D01*
X4369400Y6791730D01*
Y6845070D01*
G01X4272600Y6365400D02*
Y6441600D01*
X4304350D01*
X4314510Y6437790D01*
X4320860Y6432710D01*
X4323400Y6422550D01*
X4320860Y6412390D01*
X4313240Y6406040D01*
X4304350Y6402230D01*
X4272600D01*
G01X4304350D02*
X4323400Y6365400D01*
G01X4384360D02*
Y6441600D01*
X4369120Y6426360D01*
G01Y6365400D02*
X4399600D01*
G01X4442780Y6380640D02*
X4450400Y6371750D01*
X4460560Y6366670D01*
X4471990Y6365400D01*
X4482150Y6366670D01*
X4492310Y6373020D01*
X4498660Y6380640D01*
X4499930Y6388260D01*
X4497390Y6397150D01*
X4488500Y6403500D01*
X4479610Y6406040D01*
X4468180D01*
G01X4479610D02*
X4487230Y6409850D01*
X4493580Y6416200D01*
X4496120Y6423820D01*
X4493580Y6431440D01*
X4487230Y6437790D01*
X4475800Y6441600D01*
X4464370Y6440330D01*
X4452940Y6435250D01*
G01X4304950Y7008540D02*
X4301140Y7000920D01*
X4298600Y6992030D01*
Y6981870D01*
X4302410Y6970440D01*
X4308760Y6961550D01*
X4316380Y6955200D01*
X4329080Y6950120D01*
X4340510Y6948850D01*
X4351940Y6951390D01*
X4359560Y6955200D01*
X4367180Y6962820D01*
X4372260Y6971710D01*
X4374800Y6980600D01*
Y6989490D01*
X4372260Y6998380D01*
X4368450Y7006000D01*
X4363370Y7012350D01*
G01X4374800Y7066960D02*
X4373530Y7075850D01*
X4369720Y7086010D01*
X4363370Y7092360D01*
X4354480Y7094900D01*
X4345590Y7092360D01*
X4337970Y7084740D01*
X4334160Y7073310D01*
Y7060610D01*
X4331620Y7052990D01*
X4325270Y7046640D01*
X4316380Y7044100D01*
X4307490Y7047910D01*
X4301140Y7056800D01*
X4298600Y7066960D01*
X4301140Y7077120D01*
X4307490Y7086010D01*
X4316380Y7089820D01*
X4325270Y7087280D01*
X4331620Y7080930D01*
X4334160Y7073310D01*
Y7060610D01*
X4337970Y7049180D01*
X4345590Y7041560D01*
X4354480Y7039020D01*
X4363370Y7041560D01*
X4369720Y7047910D01*
X4373530Y7058070D01*
X4374800Y7066960D01*
G01X4499400Y6706640D02*
X4423200D01*
Y6738390D01*
X4427010Y6748550D01*
X4432090Y6754900D01*
X4442250Y6757440D01*
X4452410Y6754900D01*
X4458760Y6747280D01*
X4462570Y6738390D01*
Y6706640D01*
G01Y6738390D02*
X4499400Y6757440D01*
G01X4490510Y6796810D02*
X4496860Y6805700D01*
X4499400Y6815860D01*
X4496860Y6826020D01*
X4489240Y6834910D01*
X4477810Y6841260D01*
X4466380Y6843800D01*
X4452410D01*
X4440980Y6841260D01*
X4430820Y6834910D01*
X4425740Y6827290D01*
X4423200Y6818400D01*
X4425740Y6808240D01*
X4430820Y6800620D01*
X4438440Y6795540D01*
X4448600Y6793000D01*
X4457490Y6795540D01*
X4466380Y6801890D01*
X4471460Y6809510D01*
X4472730Y6818400D01*
X4470190Y6828560D01*
X4463840Y6836180D01*
X4452410Y6843800D01*
G01X4111420Y7517140D02*
X4117770Y7509520D01*
X4125390Y7504440D01*
X4134280Y7501900D01*
X4144440Y7504440D01*
X4152060Y7509520D01*
X4159680Y7517140D01*
X4162220Y7527300D01*
Y7578100D01*
G01X4199050Y7533650D02*
X4207940Y7542540D01*
X4215560Y7547620D01*
X4225720Y7550160D01*
X4234610Y7547620D01*
X4240960Y7542540D01*
X4246040Y7534920D01*
X4247310Y7526030D01*
X4246040Y7518410D01*
X4240960Y7510790D01*
X4233340Y7504440D01*
X4224450Y7501900D01*
X4214290Y7504440D01*
X4205400Y7512060D01*
X4200320Y7523490D01*
X4199050Y7536190D01*
X4201590Y7552700D01*
X4205400Y7561590D01*
X4211750Y7570480D01*
X4220640Y7576830D01*
X4229530Y7578100D01*
X4238420Y7575560D01*
X4244770Y7569210D01*
G01X5208240Y171900D02*
Y248100D01*
X5239990D01*
X5250150Y244290D01*
X5256500Y239210D01*
X5259040Y229050D01*
X5256500Y218890D01*
X5248880Y212540D01*
X5239990Y208730D01*
X5208240D01*
G01X5239990D02*
X5259040Y171900D01*
G01X5320000D02*
Y248100D01*
X5304760Y232860D01*
G01Y171900D02*
X5335240D01*
G01X5406360Y248100D02*
X5396200Y245560D01*
X5388580Y239210D01*
X5383500Y231590D01*
X5379690Y221430D01*
X5378420Y210000D01*
X5379690Y198570D01*
X5383500Y188410D01*
X5388580Y180790D01*
X5396200Y174440D01*
X5406360Y171900D01*
X5416520Y174440D01*
X5424140Y180790D01*
X5429220Y188410D01*
X5433030Y198570D01*
X5434300Y210000D01*
X5433030Y221430D01*
X5429220Y231590D01*
X5424140Y239210D01*
X5416520Y245560D01*
X5406360Y248100D01*
G01X4978760Y6515850D02*
X4971140Y6519660D01*
X4962250Y6522200D01*
X4952090D01*
X4940660Y6518390D01*
X4931770Y6512040D01*
X4925420Y6504420D01*
X4920340Y6491720D01*
X4919070Y6480290D01*
X4921610Y6468860D01*
X4925420Y6461240D01*
X4933040Y6453620D01*
X4941930Y6448540D01*
X4950820Y6446000D01*
X4959710D01*
X4968600Y6448540D01*
X4976220Y6452350D01*
X4982570Y6457430D01*
G01X5009240D02*
X5016860Y6451080D01*
X5025750Y6447270D01*
X5037180Y6446000D01*
X5048610Y6448540D01*
X5057500Y6453620D01*
X5063850Y6462510D01*
X5065120Y6472670D01*
X5062580Y6482830D01*
X5056230Y6489180D01*
X5047340Y6494260D01*
X5038450Y6495530D01*
X5029560Y6494260D01*
X5018130Y6489180D01*
X5021940Y6522200D01*
X5056230D01*
G01X4935580Y7015850D02*
X4927960Y7019660D01*
X4919070Y7022200D01*
X4908910D01*
X4897480Y7018390D01*
X4888590Y7012040D01*
X4882240Y7004420D01*
X4877160Y6991720D01*
X4875890Y6980290D01*
X4878430Y6968860D01*
X4882240Y6961240D01*
X4889860Y6953620D01*
X4898750Y6948540D01*
X4907640Y6946000D01*
X4916530D01*
X4925420Y6948540D01*
X4933040Y6952350D01*
X4939390Y6957430D01*
G01X4994000Y6946000D02*
Y7022200D01*
X4978760Y7006960D01*
G01Y6946000D02*
X5009240D01*
G01X5095600D02*
Y7022200D01*
X5048610Y6967590D01*
X5112110D01*
G01X4898880Y7411900D02*
Y7488100D01*
X4924280D01*
X4934440Y7484290D01*
X4942060Y7479210D01*
X4948410Y7471590D01*
X4953490Y7462700D01*
X4954760Y7450000D01*
X4953490Y7437300D01*
X4948410Y7428410D01*
X4942060Y7420790D01*
X4934440Y7415710D01*
X4924280Y7411900D01*
X4898880D01*
G01X4985240Y7427140D02*
X4992860Y7418250D01*
X5003020Y7413170D01*
X5014450Y7411900D01*
X5024610Y7413170D01*
X5034770Y7419520D01*
X5041120Y7427140D01*
X5042390Y7434760D01*
X5039850Y7443650D01*
X5030960Y7450000D01*
X5022070Y7452540D01*
X5010640D01*
G01X5022070D02*
X5029690Y7456350D01*
X5036040Y7462700D01*
X5038580Y7470320D01*
X5036040Y7477940D01*
X5029690Y7484290D01*
X5018260Y7488100D01*
X5006830Y7486830D01*
X4995400Y7481750D01*
G01X5539230Y170240D02*
Y246440D01*
X5564630D01*
X5574790Y242630D01*
X5582410Y237550D01*
X5588760Y229930D01*
X5593840Y221040D01*
X5595110Y208340D01*
X5593840Y195640D01*
X5588760Y186750D01*
X5582410Y179130D01*
X5574790Y174050D01*
X5564630Y170240D01*
X5539230D01*
G01X5668770D02*
Y246440D01*
X5621780Y191830D01*
X5685280D01*
G01X5994760Y2271750D02*
X5987140Y2275560D01*
X5978250Y2278100D01*
X5968090D01*
X5956660Y2274290D01*
X5947770Y2267940D01*
X5941420Y2260320D01*
X5936340Y2247620D01*
X5935070Y2236190D01*
X5937610Y2224760D01*
X5941420Y2217140D01*
X5949040Y2209520D01*
X5957930Y2204440D01*
X5966820Y2201900D01*
X5975710D01*
X5984600Y2204440D01*
X5992220Y2208250D01*
X5998570Y2213330D01*
G01X6053180Y2201900D02*
Y2278100D01*
X6037940Y2262860D01*
G01Y2201900D02*
X6068420D01*
G01X5918880Y2498100D02*
Y2443490D01*
X5923960Y2432060D01*
X5934120Y2424440D01*
X5946820Y2421900D01*
X5959520Y2424440D01*
X5969680Y2432060D01*
X5974760Y2443490D01*
Y2498100D01*
G01X6033180Y2421900D02*
X6042070Y2423170D01*
X6052230Y2426980D01*
X6058580Y2433330D01*
X6061120Y2442220D01*
X6058580Y2451110D01*
X6050960Y2458730D01*
X6039530Y2462540D01*
X6026830D01*
X6019210Y2465080D01*
X6012860Y2471430D01*
X6010320Y2480320D01*
X6014130Y2489210D01*
X6023020Y2495560D01*
X6033180Y2498100D01*
X6043340Y2495560D01*
X6052230Y2489210D01*
X6056040Y2480320D01*
X6053500Y2471430D01*
X6047150Y2465080D01*
X6039530Y2462540D01*
X6026830D01*
X6015400Y2458730D01*
X6007780Y2451110D01*
X6005240Y2442220D01*
X6007780Y2433330D01*
X6014130Y2426980D01*
X6024290Y2423170D01*
X6033180Y2421900D01*
G01X6163800Y1705400D02*
Y1781600D01*
X6195550D01*
X6205710Y1777790D01*
X6212060Y1772710D01*
X6214600Y1762550D01*
X6212060Y1752390D01*
X6204440Y1746040D01*
X6195550Y1742230D01*
X6163800D01*
G01X6195550D02*
X6214600Y1705400D01*
G01X6275560D02*
Y1781600D01*
X6260320Y1766360D01*
G01Y1705400D02*
X6290800D01*
G01X6443200D02*
Y1781600D01*
X6474950D01*
X6485110Y1777790D01*
X6491460Y1772710D01*
X6494000Y1762550D01*
X6491460Y1752390D01*
X6483840Y1746040D01*
X6474950Y1742230D01*
X6443200D01*
G01X6474950D02*
X6494000Y1705400D01*
G01X6570200D02*
Y1781600D01*
X6523210Y1726990D01*
X6586710D01*
G01X6274950Y2558540D02*
X6271140Y2550920D01*
X6268600Y2542030D01*
Y2531870D01*
X6272410Y2520440D01*
X6278760Y2511550D01*
X6286380Y2505200D01*
X6299080Y2500120D01*
X6310510Y2498850D01*
X6321940Y2501390D01*
X6329560Y2505200D01*
X6337180Y2512820D01*
X6342260Y2521710D01*
X6344800Y2530600D01*
Y2539490D01*
X6342260Y2548380D01*
X6338450Y2556000D01*
X6333370Y2562350D01*
G01X6329560Y2589020D02*
X6338450Y2596640D01*
X6343530Y2606800D01*
X6344800Y2618230D01*
X6343530Y2628390D01*
X6337180Y2638550D01*
X6329560Y2644900D01*
X6321940Y2646170D01*
X6313050Y2643630D01*
X6306700Y2634740D01*
X6304160Y2625850D01*
Y2614420D01*
G01Y2625850D02*
X6300350Y2633470D01*
X6294000Y2639820D01*
X6286380Y2642360D01*
X6278760Y2639820D01*
X6272410Y2633470D01*
X6268600Y2622040D01*
X6269870Y2610610D01*
X6274950Y2599180D01*
G01X6474800Y2505200D02*
X6398600D01*
Y2536950D01*
X6402410Y2547110D01*
X6407490Y2553460D01*
X6417650Y2556000D01*
X6427810Y2553460D01*
X6434160Y2545840D01*
X6437970Y2536950D01*
Y2505200D01*
G01Y2536950D02*
X6474800Y2556000D01*
G01Y2614420D02*
X6458290Y2616960D01*
X6444320Y2620770D01*
X6431620Y2625850D01*
X6417650Y2632200D01*
X6398600Y2642360D01*
Y2591560D01*
G01X6388880Y2238100D02*
Y2183490D01*
X6393960Y2172060D01*
X6404120Y2164440D01*
X6416820Y2161900D01*
X6429520Y2164440D01*
X6439680Y2172060D01*
X6444760Y2183490D01*
Y2238100D01*
G01X6503180Y2161900D02*
Y2238100D01*
X6487940Y2222860D01*
G01Y2161900D02*
X6518420D01*
G01X6461420Y2857140D02*
X6467770Y2849520D01*
X6475390Y2844440D01*
X6484280Y2841900D01*
X6494440Y2844440D01*
X6502060Y2849520D01*
X6509680Y2857140D01*
X6512220Y2867300D01*
Y2918100D01*
G01X6545240Y2853330D02*
X6552860Y2846980D01*
X6561750Y2843170D01*
X6573180Y2841900D01*
X6584610Y2844440D01*
X6593500Y2849520D01*
X6599850Y2858410D01*
X6601120Y2868570D01*
X6598580Y2878730D01*
X6592230Y2885080D01*
X6583340Y2890160D01*
X6574450Y2891430D01*
X6565560Y2890160D01*
X6554130Y2885080D01*
X6557940Y2918100D01*
X6592230D01*
G01X7378760Y1795850D02*
X7371140Y1799660D01*
X7362250Y1802200D01*
X7352090D01*
X7340660Y1798390D01*
X7331770Y1792040D01*
X7325420Y1784420D01*
X7320340Y1771720D01*
X7319070Y1760290D01*
X7321610Y1748860D01*
X7325420Y1741240D01*
X7333040Y1733620D01*
X7341930Y1728540D01*
X7350820Y1726000D01*
X7359710D01*
X7368600Y1728540D01*
X7376220Y1732350D01*
X7382570Y1737430D01*
G01X7413050Y1789500D02*
X7420670Y1797120D01*
X7429560Y1800930D01*
X7439720Y1802200D01*
X7452420Y1799660D01*
X7461310Y1793310D01*
X7463850Y1785690D01*
X7462580Y1778070D01*
X7457500Y1771720D01*
X7432100Y1759020D01*
X7420670Y1750130D01*
X7413050Y1737430D01*
X7410510Y1726000D01*
X7463850D01*
G01X6899400Y2026640D02*
X6823200D01*
Y2058390D01*
X6827010Y2068550D01*
X6832090Y2074900D01*
X6842250Y2077440D01*
X6852410Y2074900D01*
X6858760Y2067280D01*
X6862570Y2058390D01*
Y2026640D01*
G01Y2058390D02*
X6899400Y2077440D01*
G01X6835900Y2114270D02*
X6828280Y2121890D01*
X6824470Y2130780D01*
X6823200Y2140940D01*
X6825740Y2153640D01*
X6832090Y2162530D01*
X6839710Y2165070D01*
X6847330Y2163800D01*
X6853680Y2158720D01*
X6866380Y2133320D01*
X6875270Y2121890D01*
X6887970Y2114270D01*
X6899400Y2111730D01*
Y2165070D01*
G01X6769400Y2026640D02*
X6693200D01*
Y2058390D01*
X6697010Y2068550D01*
X6702090Y2074900D01*
X6712250Y2077440D01*
X6722410Y2074900D01*
X6728760Y2067280D01*
X6732570Y2058390D01*
Y2026640D01*
G01Y2058390D02*
X6769400Y2077440D01*
G01X6757970Y2110460D02*
X6764320Y2118080D01*
X6768130Y2126970D01*
X6769400Y2138400D01*
X6766860Y2149830D01*
X6761780Y2158720D01*
X6752890Y2165070D01*
X6742730Y2166340D01*
X6732570Y2163800D01*
X6726220Y2157450D01*
X6721140Y2148560D01*
X6719870Y2139670D01*
X6721140Y2130780D01*
X6726220Y2119350D01*
X6693200Y2123160D01*
Y2157450D01*
G01X6722600Y1705400D02*
Y1781600D01*
X6754350D01*
X6764510Y1777790D01*
X6770860Y1772710D01*
X6773400Y1762550D01*
X6770860Y1752390D01*
X6763240Y1746040D01*
X6754350Y1742230D01*
X6722600D01*
G01X6754350D02*
X6773400Y1705400D01*
G01X6810230Y1737150D02*
X6819120Y1746040D01*
X6826740Y1751120D01*
X6836900Y1753660D01*
X6845790Y1751120D01*
X6852140Y1746040D01*
X6857220Y1738420D01*
X6858490Y1729530D01*
X6857220Y1721910D01*
X6852140Y1714290D01*
X6844520Y1707940D01*
X6835630Y1705400D01*
X6825470Y1707940D01*
X6816580Y1715560D01*
X6811500Y1726990D01*
X6810230Y1739690D01*
X6812770Y1756200D01*
X6816580Y1765090D01*
X6822930Y1773980D01*
X6831820Y1780330D01*
X6840710Y1781600D01*
X6849600Y1779060D01*
X6855950Y1772710D01*
G01X6688250Y2384760D02*
X6684440Y2377140D01*
X6681900Y2368250D01*
Y2358090D01*
X6685710Y2346660D01*
X6692060Y2337770D01*
X6699680Y2331420D01*
X6712380Y2326340D01*
X6723810Y2325070D01*
X6735240Y2327610D01*
X6742860Y2331420D01*
X6750480Y2339040D01*
X6755560Y2347930D01*
X6758100Y2356820D01*
Y2365710D01*
X6755560Y2374600D01*
X6751750Y2382220D01*
X6746670Y2388570D01*
G01X6758100Y2458420D02*
X6681900D01*
X6736510Y2411430D01*
Y2474930D01*
G01X7335580Y2295850D02*
X7327960Y2299660D01*
X7319070Y2302200D01*
X7308910D01*
X7297480Y2298390D01*
X7288590Y2292040D01*
X7282240Y2284420D01*
X7277160Y2271720D01*
X7275890Y2260290D01*
X7278430Y2248860D01*
X7282240Y2241240D01*
X7289860Y2233620D01*
X7298750Y2228540D01*
X7307640Y2226000D01*
X7316530D01*
X7325420Y2228540D01*
X7333040Y2232350D01*
X7339390Y2237430D01*
G01X7394000Y2226000D02*
Y2302200D01*
X7378760Y2286960D01*
G01Y2226000D02*
X7409240D01*
G01X7452420Y2237430D02*
X7460040Y2231080D01*
X7468930Y2227270D01*
X7480360Y2226000D01*
X7491790Y2228540D01*
X7500680Y2233620D01*
X7507030Y2242510D01*
X7508300Y2252670D01*
X7505760Y2262830D01*
X7499410Y2269180D01*
X7490520Y2274260D01*
X7481630Y2275530D01*
X7472740Y2274260D01*
X7461310Y2269180D01*
X7465120Y2302200D01*
X7499410D01*
G01X7308880Y2711900D02*
Y2788100D01*
X7334280D01*
X7344440Y2784290D01*
X7352060Y2779210D01*
X7358410Y2771590D01*
X7363490Y2762700D01*
X7364760Y2750000D01*
X7363490Y2737300D01*
X7358410Y2728410D01*
X7352060Y2720790D01*
X7344440Y2715710D01*
X7334280Y2711900D01*
X7308880D01*
G01X7423180D02*
Y2788100D01*
X7407940Y2772860D01*
G01Y2711900D02*
X7438420D01*
G01X7746330Y261900D02*
Y338100D01*
X7794590D01*
G01X7776810Y301270D02*
X7746330D01*
G01X7841580Y338100D02*
X7872060D01*
G01X7856820D02*
Y261900D01*
G01X7841580D02*
X7872060D01*
G01X7915240D02*
Y338100D01*
X7940640D01*
X7950800Y334290D01*
X7958420Y329210D01*
X7964770Y321590D01*
X7969850Y312700D01*
X7971120Y300000D01*
X7969850Y287300D01*
X7964770Y278410D01*
X7958420Y270790D01*
X7950800Y265710D01*
X7940640Y261900D01*
X7915240D01*
G01X8044780D02*
Y338100D01*
X7997790Y283490D01*
X8061290D01*
G01X7346330Y8281900D02*
Y8358100D01*
X7394590D01*
G01X7376810Y8321270D02*
X7346330D01*
G01X7441580Y8358100D02*
X7472060D01*
G01X7456820D02*
Y8281900D01*
G01X7441580D02*
X7472060D01*
G01X7515240D02*
Y8358100D01*
X7540640D01*
X7550800Y8354290D01*
X7558420Y8349210D01*
X7564770Y8341590D01*
X7569850Y8332700D01*
X7571120Y8320000D01*
X7569850Y8307300D01*
X7564770Y8298410D01*
X7558420Y8290790D01*
X7550800Y8285710D01*
X7540640Y8281900D01*
X7515240D01*
G01X7605410Y8345400D02*
X7613030Y8353020D01*
X7621920Y8356830D01*
X7632080Y8358100D01*
X7644780Y8355560D01*
X7653670Y8349210D01*
X7656210Y8341590D01*
X7654940Y8333970D01*
X7649860Y8327620D01*
X7624460Y8314920D01*
X7613030Y8306030D01*
X7605410Y8293330D01*
X7602870Y8281900D01*
X7656210D01*
G54D14*
G01X3231700Y1405400D02*
Y985400D01*
X5390700D01*
Y1405400D01*
X3231700D01*
G54D15*
G01X587610Y408000D02*
G03I-179610J0D01*
G01X679610Y6640000D02*
G03I-179610J0D01*
G01X977610Y8392000D02*
G03I-179610J0D01*
G01X1343500Y1819700D02*
X1457800D01*
Y1692700D01*
X1343500D01*
G01X1178400D02*
Y1819700D01*
G01Y1692700D02*
X1343500D01*
G01X1178400Y1819700D02*
X1343500D01*
G01X1307940Y1784140D02*
Y1725720D01*
G01X1325720Y1784140D02*
Y1725720D01*
G01X1076800Y2188000D02*
X962500D01*
Y2315000D01*
X1076800D01*
G01X1241900D02*
Y2188000D01*
G01Y2315000D02*
X1076800D01*
G01X1241900Y2188000D02*
X1076800D01*
G01X1112360Y2223560D02*
Y2281980D01*
G01X1094580Y2223560D02*
Y2281980D01*
G01X1325000Y2599900D02*
Y2714200D01*
X1452000D01*
Y2599900D01*
G01Y2434800D02*
X1325000D01*
G01D02*
Y2599900D01*
G01X1360560Y2564340D02*
X1418980D01*
G01X1360560Y2582120D02*
X1418980D01*
G01X2017500Y2064100D02*
Y1949800D01*
X1890500D01*
Y2064100D01*
G01X1622900Y1819700D02*
X1737200D01*
Y1692700D01*
X1622900D01*
G01X1457800D02*
Y1819700D01*
G01Y1692700D02*
X1622900D01*
G01X1457800Y1819700D02*
X1622900D01*
G01X1587340Y1784140D02*
Y1725720D01*
G01X1605120Y1784140D02*
Y1725720D01*
G01X1887500Y2064100D02*
Y1949800D01*
X1760500D01*
Y2064100D01*
G01X1902300Y1819700D02*
X2016600D01*
Y1692700D01*
X1902300D01*
G01X1737200D02*
Y1819700D01*
G01Y1692700D02*
X1902300D01*
G01X1737200Y1819700D02*
X1902300D01*
G01X1866740Y1784140D02*
Y1725720D01*
G01X1884520Y1784140D02*
Y1725720D01*
G01X1452000Y2434800D02*
Y2599900D01*
G01X1750500Y2444900D02*
Y2559200D01*
X1877500D01*
Y2444900D01*
G01Y2279800D02*
X1750500D01*
G01X1877500D02*
Y2444900D01*
G01X1750500Y2279800D02*
Y2444900D01*
G01X1786060Y2409340D02*
X1844480D01*
G01X1786060Y2427120D02*
X1844480D01*
G01X1890500Y2229200D02*
X2017500D01*
G01X1890500D02*
Y2064100D01*
G01X2017500Y2229200D02*
Y2064100D01*
G01X1981940Y2099660D02*
X1923520D01*
G01X1981940Y2081880D02*
X1923520D01*
G01X1760500Y2229200D02*
X1887500D01*
G01X1760500D02*
Y2064100D01*
G01X1887500Y2229200D02*
Y2064100D01*
G01X1851940Y2099660D02*
X1793520D01*
G01X1851940Y2081880D02*
X1793520D01*
G01X1455000Y2599900D02*
Y2714200D01*
X1582000D01*
Y2599900D01*
G01Y2434800D02*
X1455000D01*
G01X1582000D02*
Y2599900D01*
G01X1455000Y2434800D02*
Y2599900D01*
G01X1490560Y2564340D02*
X1548980D01*
G01X1490560Y2582120D02*
X1548980D01*
G01X3360300Y146500D02*
Y273500D01*
G01Y146500D02*
X3525400D01*
G01X3360300Y273500D02*
X3525400D01*
G01X3225400D02*
X3339700D01*
Y146500D01*
X3225400D01*
G01X3060300D02*
Y273500D01*
G01Y146500D02*
X3225400D01*
G01X3060300Y273500D02*
X3225400D01*
G01X3189840Y237940D02*
Y179520D01*
G01X3207620Y237940D02*
Y179520D01*
G01X3474600Y210000D02*
X3385700D01*
G01X3538100Y248100D02*
Y171900D01*
G01Y210000D02*
X3474600Y146500D01*
Y273500D01*
X3538100Y210000D01*
X3614300D01*
G01X3639700Y273500D02*
X3665100D01*
Y146500D01*
X3639700D01*
G01X3525400Y273500D02*
X3639700D01*
Y146500D01*
X3525400D01*
G01X3853500Y6469700D02*
X3967800D01*
Y6342700D01*
X3853500D01*
G01X3688400D02*
Y6469700D01*
G01Y6342700D02*
X3853500D01*
G01X3688400Y6469700D02*
X3853500D01*
G01X3817940Y6434140D02*
Y6375720D01*
G01X3835720Y6434140D02*
Y6375720D01*
G01X3967800Y6342700D02*
Y6469700D01*
G01Y6342700D02*
X4132900D01*
G01X3967800Y6469700D02*
X4132900D01*
G01X3586800Y6838000D02*
X3472500D01*
Y6965000D01*
X3586800D01*
G01X3751900D02*
Y6838000D01*
G01Y6965000D02*
X3586800D01*
G01X3751900Y6838000D02*
X3586800D01*
G01X3622360Y6873560D02*
Y6931980D01*
G01X3604580Y6873560D02*
Y6931980D01*
G01X3835000Y7249900D02*
Y7364200D01*
X3962000D01*
Y7249900D01*
G01Y7084800D02*
X3835000D01*
G01X3962000D02*
Y7249900D01*
G01X3835000Y7084800D02*
Y7249900D01*
G01X3870560Y7214340D02*
X3928980D01*
G01X3870560Y7232120D02*
X3928980D01*
G01X3965000Y7249900D02*
Y7364200D01*
X4092000D01*
Y7249900D01*
G01Y7084800D02*
X3965000D01*
G01D02*
Y7249900D01*
G01X4000560Y7214340D02*
X4058980D01*
G01X4000560Y7232120D02*
X4058980D01*
G01X4474600Y210000D02*
X4385700D01*
G01X4538100Y248100D02*
Y171900D01*
G01Y210000D02*
X4474600Y146500D01*
Y273500D01*
X4538100Y210000D01*
X4614300D01*
G01X4639700Y273500D02*
X4665100D01*
Y146500D01*
X4639700D01*
G01X4525400Y273500D02*
X4639700D01*
Y146500D01*
X4525400D01*
G01X4360300D02*
Y273500D01*
G01Y146500D02*
X4525400D01*
G01X4360300Y273500D02*
X4525400D01*
G01X4225400D02*
X4339700D01*
Y146500D01*
X4225400D01*
G01X4060300D02*
Y273500D01*
G01Y146500D02*
X4225400D01*
G01X4060300Y273500D02*
X4225400D01*
G01X4189840Y237940D02*
Y179520D01*
G01X4207620Y237940D02*
Y179520D01*
G01X4527500Y6714100D02*
Y6599800D01*
X4400500D01*
Y6714100D01*
G01X4132900Y6469700D02*
X4247200D01*
Y6342700D01*
X4132900D01*
G01X4097340Y6434140D02*
Y6375720D01*
G01X4115120Y6434140D02*
Y6375720D01*
G01X4397500Y6714100D02*
Y6599800D01*
X4270500D01*
Y6714100D01*
G01X4412300Y6469700D02*
X4526600D01*
Y6342700D01*
X4412300D01*
G01X4247200D02*
Y6469700D01*
G01Y6342700D02*
X4412300D01*
G01X4247200Y6469700D02*
X4412300D01*
G01X4376740Y6434140D02*
Y6375720D01*
G01X4394520Y6434140D02*
Y6375720D01*
G01X4260500Y7094900D02*
Y7209200D01*
X4387500D01*
Y7094900D01*
G01Y6929800D02*
X4260500D01*
G01X4387500D02*
Y7094900D01*
G01X4260500Y6929800D02*
Y7094900D01*
G01X4296060Y7059340D02*
X4354480D01*
G01X4296060Y7077120D02*
X4354480D01*
G01X4400500Y6879200D02*
X4527500D01*
G01X4400500D02*
Y6714100D01*
G01X4527500Y6879200D02*
Y6714100D01*
G01X4491940Y6749660D02*
X4433520D01*
G01X4491940Y6731880D02*
X4433520D01*
G01X4270500Y6879200D02*
X4397500D01*
G01X4270500D02*
Y6714100D01*
G01X4397500Y6879200D02*
Y6714100D01*
G01X4361940Y6749660D02*
X4303520D01*
G01X4361940Y6731880D02*
X4303520D01*
G01X4092000Y7084800D02*
Y7249900D01*
G01X5325400Y273500D02*
X5439700D01*
Y146500D01*
X5325400D01*
G01X5160300D02*
Y273500D01*
G01Y146500D02*
X5325400D01*
G01X5160300Y273500D02*
X5325400D01*
G01X5289840Y237940D02*
Y179520D01*
G01X5307620Y237940D02*
Y179520D01*
G01X5574600Y210000D02*
X5485700D01*
G01X5638100Y248100D02*
Y171900D01*
G01Y210000D02*
X5574600Y146500D01*
Y273500D01*
X5638100Y210000D01*
X5714300D01*
G01X5739700Y273500D02*
X5765100D01*
Y146500D01*
X5739700D01*
G01X5625400Y273500D02*
X5739700D01*
Y146500D01*
X5625400D01*
G01X5460300D02*
Y273500D01*
G01Y146500D02*
X5625400D01*
G01X5460300Y273500D02*
X5625400D01*
G01X5986800Y2178000D02*
X5872500D01*
Y2305000D01*
X5986800D01*
G01X6151900D02*
X5986800D01*
G01X6151900Y2178000D02*
X5986800D01*
G01X6253500Y1809700D02*
X6367800D01*
Y1682700D01*
X6253500D01*
G01X6088400D02*
Y1809700D01*
G01Y1682700D02*
X6253500D01*
G01X6088400Y1809700D02*
X6253500D01*
G01X6217940Y1774140D02*
Y1715720D01*
G01X6235720Y1774140D02*
Y1715720D01*
G01X6532900Y1809700D02*
X6647200D01*
Y1682700D01*
X6532900D01*
G01X6367800D02*
Y1809700D01*
G01Y1682700D02*
X6532900D01*
G01X6367800Y1809700D02*
X6532900D01*
G01X6497340Y1774140D02*
Y1715720D01*
G01X6515120Y1774140D02*
Y1715720D01*
G01X6647200Y1682700D02*
Y1809700D01*
G01Y1682700D02*
X6812300D01*
G01X6647200Y1809700D02*
X6812300D01*
G01X6151900Y2305000D02*
Y2178000D01*
G01X6022360Y2213560D02*
Y2271980D01*
G01X6004580Y2213560D02*
Y2271980D01*
G01X6230500Y2594900D02*
Y2709200D01*
X6357500D01*
Y2594900D01*
G01Y2429800D02*
X6230500D01*
G01X6357500D02*
Y2594900D01*
G01X6230500Y2429800D02*
Y2594900D01*
G01X6266060Y2559340D02*
X6324480D01*
G01X6266060Y2577120D02*
X6324480D01*
G01X6360500Y2594900D02*
Y2709200D01*
X6487500D01*
Y2594900D01*
G01Y2429800D02*
X6360500D01*
G01X6487500D02*
Y2594900D01*
G01X6360500Y2429800D02*
Y2594900D01*
G01X6396060Y2559340D02*
X6454480D01*
G01X6396060Y2577120D02*
X6454480D01*
G01X6927500Y2054100D02*
Y1939800D01*
X6800500D01*
Y2054100D01*
G01Y2219200D02*
Y2054100D01*
G01X6927500Y2219200D02*
Y2054100D01*
G01X6797500D02*
Y1939800D01*
X6670500D01*
Y2054100D01*
G01Y2219200D02*
Y2054100D01*
G01X6797500Y2219200D02*
Y2054100D01*
G01X6812300Y1809700D02*
X6926600D01*
Y1682700D01*
X6812300D01*
G01X6776740Y1774140D02*
Y1715720D01*
G01X6794520Y1774140D02*
Y1715720D01*
G01X6660500Y2434900D02*
Y2549200D01*
X6787500D01*
Y2434900D01*
G01Y2269800D02*
X6660500D01*
G01X6787500D02*
Y2434900D01*
G01X6660500Y2269800D02*
Y2434900D01*
G01X6696060Y2399340D02*
X6754480D01*
G01X6696060Y2417120D02*
X6754480D01*
G01X6800500Y2219200D02*
X6927500D01*
G01X6891940Y2089660D02*
X6833520D01*
G01X6891940Y2071880D02*
X6833520D01*
G01X6670500Y2219200D02*
X6797500D01*
G01X6761940Y2089660D02*
X6703520D01*
G01X6761940Y2071880D02*
X6703520D01*
G01X8317610Y8392000D02*
G03I-179610J0D01*
G01X8588610Y408000D02*
G03I-179610J0D01*
G54D16*
G01X2172820Y2879380D02*
G02I-12510J-1D01*
G01X4682820Y7579380D02*
G02I-12510J-1D01*
G01X7082820Y2859380D02*
G02I-12510J-1D01*
G54D17*
G01X2204490Y2635690D02*
X2735510D01*
Y2660940D01*
G01X2204490Y2658400D02*
Y2635690D01*
G01X2735510Y2859060D02*
Y2884310D01*
X2204490D01*
Y2861600D01*
G01X4714490Y7335690D02*
X5245510D01*
Y7360940D01*
G01Y7559060D02*
Y7584310D01*
X4714490D01*
Y7561600D01*
G01Y7358400D02*
Y7335690D01*
G01X7114490Y2615690D02*
X7645510D01*
Y2640940D01*
G01X7114490Y2638400D02*
Y2615690D01*
G01X7645510Y2839060D02*
Y2864310D01*
X7114490D01*
Y2841600D01*
G54D18*
G01X0Y100000D02*
Y3700000D01*
G02X100000Y3800000I100000J0D01*
G01X900000D01*
G03X1000000Y3900000I0J100000D01*
G01Y4900000D01*
G03X900000Y5000000I-100000J0D01*
G01X100000D01*
G02X0Y5100000I0J100000D01*
G01Y8700000D01*
G02X100000Y8800000I100000J0D01*
G01X3700000D01*
G02X3800000Y8700000I0J-100000D01*
G01Y7900000D01*
G03X3900000Y7800000I100000J0D01*
G01X4900000D01*
G03X5000000Y7900000I0J100000D01*
G01Y8700000D01*
G02X5100000Y8800000I100000J0D01*
G01X8700000D01*
G02X8800000Y8700000I0J-100000D01*
G01Y5100000D01*
G02X8700000Y5000000I-100000J0D01*
G01X7900000D01*
G03X7800000Y4900000I0J-100000D01*
G01Y3900000D01*
G03X7900000Y3800000I100000J0D01*
G01X8700000D01*
G02X8800000Y3700000I0J-100000D01*
G01Y100000D01*
G02X8700000Y0I-100000J0D01*
G01X7800000D01*
G02X7700000Y100000I0J100000D01*
G01Y900000D01*
G03X7600000Y1000000I-100000J0D01*
G01X6400000D01*
G03X6300000Y900000I0J-100000D01*
G01Y100000D01*
G02X6200000Y0I-100000J0D01*
G01X2600000D01*
G02X2500000Y100000I0J100000D01*
G01Y900000D01*
G03X2400000Y1000000I-100000J0D01*
G01X1200000D01*
G03X1100000Y900000I0J-100000D01*
G01Y100000D01*
G02X1000000Y0I-100000J0D01*
G01X100000D01*
G02X0Y100000I0J100000D01*
G01X653850Y7800000D02*
G03I-53850J0D01*
G01X853850Y840000D02*
G03I-53850J0D01*
G01X2109350Y2024290D02*
Y1574710D01*
G01X2858650Y2024290D02*
X2109350D01*
G01Y1574710D02*
X2858650D01*
G01X2109350Y2524290D02*
Y2074710D01*
G01X2858650Y2524290D02*
X2109350D01*
G01Y2074710D02*
X2858650D01*
G01Y1574710D02*
Y2024290D01*
G01Y2074710D02*
Y2524290D01*
G01X4619350Y6734290D02*
Y6284710D01*
G01D02*
X5368650D01*
G01Y6734290D02*
X4619350D01*
G01Y7234290D02*
Y6784710D01*
G01X5368650Y7234290D02*
X4619350D01*
G01Y6784710D02*
X5368650D01*
G01Y6284710D02*
Y6734290D01*
G01Y6784710D02*
Y7234290D01*
G01X7019350Y2014290D02*
Y1564710D01*
G01X7768650Y2014290D02*
X7019350D01*
G01Y1564710D02*
X7768650D01*
G01X7019350Y2514290D02*
Y2064710D01*
G01X7768650Y2514290D02*
X7019350D01*
G01Y2064710D02*
X7768650D01*
G01X7953850Y300000D02*
G03I-53850J0D01*
G01X7768650Y1564710D02*
Y2014290D01*
G01Y2064710D02*
Y2514290D01*
G01X7553850Y8300000D02*
G03I-53850J0D01*
M02*
