G04 ================== begin FILE IDENTIFICATION RECORD ==================*
G04 Layout Name:  D:/0_Working/1_Hardware/42_Adaptor/2_Layout/Adaptor_V100.brd*
G04 Film Name:    ADAPTOR_ver1.0.0_PASTE_TOP.art*
G04 File Format:  Gerber RS274X*
G04 File Origin:  Cadence Allegro 17.2-S052*
G04 Origin Date:  Fri Oct 11 14:19:24 2024*
G04 *
G04 Layer:  BOARD GEOMETRY/DESIGN_OUTLINE*
G04 Layer:  PIN/PASTEMASK_TOP*
G04 Layer:  PACKAGE GEOMETRY/PASTEMASK_TOP*
G04 *
G04 Offset:    (0.0000 0.0000)*
G04 Mirror:    No*
G04 Mode:      Positive*
G04 Rotation:  0*
G04 FullContactRelief:  No*
G04 UndefLineWidth:     0.1270*
G04 ================== end FILE IDENTIFICATION RECORD ====================*
%FSLAX25Y25*MOMM*%
%IR0*IPPOS*OFA0.00000B0.00000*MIA0B0*SFA1.00000B1.00000*%
%ADD20R,.8X1.1*%
%ADD19R,1.2X2.7*%
%ADD12R,.45X.3*%
%ADD14R,.25X.6*%
%ADD16R,.45X.7*%
%ADD13C,.0254*%
%ADD15R,.0254X.0254*%
%ADD17R,1.8796X2.54*%
%ADD11R,.8128X.889*%
%ADD10R,.889X.8128*%
%ADD18R,2.1488X1.6967*%
%ADD21C,.127*%
G75*
%LPD*%
G75*
G36*
G01X1020010Y2484900D02*
Y2545100D01*
X1020100Y2546060D01*
X1020380Y2546970D01*
X1020840Y2547820D01*
X1021450Y2548560D01*
X1022190Y2549170D01*
X1023040Y2549630D01*
X1023950Y2549910D01*
X1024910Y2550000D01*
X1115110D01*
X1116070Y2549910D01*
X1116980Y2549630D01*
X1117830Y2549170D01*
X1118570Y2548560D01*
X1119180Y2547820D01*
X1119640Y2546970D01*
X1119920Y2546060D01*
X1120010Y2545100D01*
Y2484900D01*
X1119920Y2483940D01*
X1119640Y2483030D01*
X1119180Y2482180D01*
X1118570Y2481440D01*
X1117830Y2480830D01*
X1116980Y2480370D01*
X1116070Y2480090D01*
X1115110Y2480000D01*
X1024910D01*
X1023950Y2480090D01*
X1023040Y2480370D01*
X1022190Y2480830D01*
X1021450Y2481440D01*
X1020840Y2482180D01*
X1020380Y2483030D01*
X1020100Y2483940D01*
X1020010Y2484900D01*
G37*
G36*
G01Y2394900D02*
Y2455100D01*
X1020100Y2456060D01*
X1020380Y2456970D01*
X1020840Y2457820D01*
X1021450Y2458560D01*
X1022190Y2459170D01*
X1023040Y2459630D01*
X1023950Y2459910D01*
X1024910Y2460000D01*
X1115110D01*
X1116070Y2459910D01*
X1116980Y2459630D01*
X1117830Y2459170D01*
X1118570Y2458560D01*
X1119180Y2457820D01*
X1119640Y2456970D01*
X1119920Y2456060D01*
X1120010Y2455100D01*
Y2394900D01*
X1119920Y2393940D01*
X1119640Y2393030D01*
X1119180Y2392180D01*
X1118570Y2391440D01*
X1117830Y2390830D01*
X1116980Y2390370D01*
X1116070Y2390090D01*
X1115110Y2390000D01*
X1024910D01*
X1023950Y2390090D01*
X1023040Y2390370D01*
X1022190Y2390830D01*
X1021450Y2391440D01*
X1020840Y2392180D01*
X1020380Y2393030D01*
X1020100Y2393940D01*
X1020010Y2394900D01*
G37*
G36*
G01X1626500Y2302000D02*
X1659000D01*
X1664000Y2297000D01*
Y2284500D01*
X1659000Y2279500D01*
X1604000D01*
X1599000Y2284500D01*
Y2334500D01*
X1604000Y2339500D01*
X1621500D01*
X1626500Y2334500D01*
Y2302000D01*
G37*
G36*
G01X1461500D02*
X1429000D01*
X1424000Y2297000D01*
Y2284500D01*
X1429000Y2279500D01*
X1484000D01*
X1489000Y2284500D01*
Y2334500D01*
X1484000Y2339500D01*
X1466500D01*
X1461500Y2334500D01*
Y2302000D01*
G37*
G36*
G01Y2137000D02*
X1429000D01*
X1424000Y2142000D01*
Y2154500D01*
X1429000Y2159500D01*
X1484000D01*
X1489000Y2154500D01*
Y2104500D01*
X1484000Y2099500D01*
X1466500D01*
X1461500Y2104500D01*
Y2137000D01*
G37*
G36*
G01X1626500D02*
X1659000D01*
X1664000Y2142000D01*
Y2154500D01*
X1659000Y2159500D01*
X1604000D01*
X1599000Y2154500D01*
Y2104500D01*
X1604000Y2099500D01*
X1621500D01*
X1626500Y2104500D01*
Y2137000D01*
G37*
G36*
G01X1433000Y2208500D02*
X1529000D01*
X1534000Y2203500D01*
Y2185500D01*
X1529000Y2180500D01*
X1433000D01*
X1428000Y2185500D01*
Y2203500D01*
X1433000Y2208500D01*
G37*
G36*
G01X1529000Y2258500D02*
X1534000Y2253500D01*
Y2235500D01*
X1529000Y2230500D01*
X1433000D01*
X1428000Y2235500D01*
Y2253500D01*
X1433000Y2258500D01*
X1529000D01*
G37*
G36*
G01X1660000Y2185500D02*
X1655000Y2180500D01*
X1559000D01*
X1554000Y2185500D01*
Y2203500D01*
X1559000Y2208500D01*
X1655000D01*
X1660000Y2203500D01*
Y2185500D01*
G37*
G36*
G01X1655000Y2258500D02*
X1660000Y2253500D01*
Y2235500D01*
X1655000Y2230500D01*
X1559000D01*
X1554000Y2235500D01*
Y2253500D01*
X1559000Y2258500D01*
X1655000D01*
G37*
G36*
G01X3971500Y6952000D02*
X3939000D01*
X3934000Y6947000D01*
Y6934500D01*
X3939000Y6929500D01*
X3994000D01*
X3999000Y6934500D01*
Y6984500D01*
X3994000Y6989500D01*
X3976500D01*
X3971500Y6984500D01*
Y6952000D01*
G37*
G36*
G01Y6787000D02*
X3939000D01*
X3934000Y6792000D01*
Y6804500D01*
X3939000Y6809500D01*
X3994000D01*
X3999000Y6804500D01*
Y6754500D01*
X3994000Y6749500D01*
X3976500D01*
X3971500Y6754500D01*
Y6787000D01*
G37*
G36*
G01X3943000Y6858500D02*
X4039000D01*
X4044000Y6853500D01*
Y6835500D01*
X4039000Y6830500D01*
X3943000D01*
X3938000Y6835500D01*
Y6853500D01*
X3943000Y6858500D01*
G37*
G36*
G01X4039000Y6908500D02*
X4044000Y6903500D01*
Y6885500D01*
X4039000Y6880500D01*
X3943000D01*
X3938000Y6885500D01*
Y6903500D01*
X3943000Y6908500D01*
X4039000D01*
G37*
G36*
G01X3540010Y7144900D02*
Y7205100D01*
X3540100Y7206060D01*
X3540380Y7206970D01*
X3540840Y7207820D01*
X3541450Y7208560D01*
X3542190Y7209170D01*
X3543040Y7209630D01*
X3543950Y7209910D01*
X3544910Y7210000D01*
X3635110D01*
X3636070Y7209910D01*
X3636980Y7209630D01*
X3637830Y7209170D01*
X3638570Y7208560D01*
X3639180Y7207820D01*
X3639640Y7206970D01*
X3639920Y7206060D01*
X3640010Y7205100D01*
Y7144900D01*
X3639920Y7143940D01*
X3639640Y7143030D01*
X3639180Y7142180D01*
X3638570Y7141440D01*
X3637830Y7140830D01*
X3636980Y7140370D01*
X3636070Y7140090D01*
X3635110Y7140000D01*
X3544910D01*
X3543950Y7140090D01*
X3543040Y7140370D01*
X3542190Y7140830D01*
X3541450Y7141440D01*
X3540840Y7142180D01*
X3540380Y7143030D01*
X3540100Y7143940D01*
X3540010Y7144900D01*
G37*
G36*
G01Y7054900D02*
Y7115100D01*
X3540100Y7116060D01*
X3540380Y7116970D01*
X3540840Y7117820D01*
X3541450Y7118560D01*
X3542190Y7119170D01*
X3543040Y7119630D01*
X3543950Y7119910D01*
X3544910Y7120000D01*
X3635110D01*
X3636070Y7119910D01*
X3636980Y7119630D01*
X3637830Y7119170D01*
X3638570Y7118560D01*
X3639180Y7117820D01*
X3639640Y7116970D01*
X3639920Y7116060D01*
X3640010Y7115100D01*
Y7054900D01*
X3639920Y7053940D01*
X3639640Y7053030D01*
X3639180Y7052180D01*
X3638570Y7051440D01*
X3637830Y7050830D01*
X3636980Y7050370D01*
X3636070Y7050090D01*
X3635110Y7050000D01*
X3544910D01*
X3543950Y7050090D01*
X3543040Y7050370D01*
X3542190Y7050830D01*
X3541450Y7051440D01*
X3540840Y7052180D01*
X3540380Y7053030D01*
X3540100Y7053940D01*
X3540010Y7054900D01*
G37*
G36*
G01X4136500Y6952000D02*
X4169000D01*
X4174000Y6947000D01*
Y6934500D01*
X4169000Y6929500D01*
X4114000D01*
X4109000Y6934500D01*
Y6984500D01*
X4114000Y6989500D01*
X4131500D01*
X4136500Y6984500D01*
Y6952000D01*
G37*
G36*
G01Y6787000D02*
X4169000D01*
X4174000Y6792000D01*
Y6804500D01*
X4169000Y6809500D01*
X4114000D01*
X4109000Y6804500D01*
Y6754500D01*
X4114000Y6749500D01*
X4131500D01*
X4136500Y6754500D01*
Y6787000D01*
G37*
G36*
G01X4170000Y6835500D02*
X4165000Y6830500D01*
X4069000D01*
X4064000Y6835500D01*
Y6853500D01*
X4069000Y6858500D01*
X4165000D01*
X4170000Y6853500D01*
Y6835500D01*
G37*
G36*
G01X4165000Y6908500D02*
X4170000Y6903500D01*
Y6885500D01*
X4165000Y6880500D01*
X4069000D01*
X4064000Y6885500D01*
Y6903500D01*
X4069000Y6908500D01*
X4165000D01*
G37*
G36*
G01X5930010Y2484900D02*
Y2545100D01*
X5930100Y2546060D01*
X5930380Y2546970D01*
X5930840Y2547820D01*
X5931450Y2548560D01*
X5932190Y2549170D01*
X5933040Y2549630D01*
X5933950Y2549910D01*
X5934910Y2550000D01*
X6025110D01*
X6026070Y2549910D01*
X6026980Y2549630D01*
X6027830Y2549170D01*
X6028570Y2548560D01*
X6029180Y2547820D01*
X6029640Y2546970D01*
X6029920Y2546060D01*
X6030010Y2545100D01*
Y2484900D01*
X6029920Y2483940D01*
X6029640Y2483030D01*
X6029180Y2482180D01*
X6028570Y2481440D01*
X6027830Y2480830D01*
X6026980Y2480370D01*
X6026070Y2480090D01*
X6025110Y2480000D01*
X5934910D01*
X5933950Y2480090D01*
X5933040Y2480370D01*
X5932190Y2480830D01*
X5931450Y2481440D01*
X5930840Y2482180D01*
X5930380Y2483030D01*
X5930100Y2483940D01*
X5930010Y2484900D01*
G37*
G36*
G01Y2394900D02*
Y2455100D01*
X5930100Y2456060D01*
X5930380Y2456970D01*
X5930840Y2457820D01*
X5931450Y2458560D01*
X5932190Y2459170D01*
X5933040Y2459630D01*
X5933950Y2459910D01*
X5934910Y2460000D01*
X6025110D01*
X6026070Y2459910D01*
X6026980Y2459630D01*
X6027830Y2459170D01*
X6028570Y2458560D01*
X6029180Y2457820D01*
X6029640Y2456970D01*
X6029920Y2456060D01*
X6030010Y2455100D01*
Y2394900D01*
X6029920Y2393940D01*
X6029640Y2393030D01*
X6029180Y2392180D01*
X6028570Y2391440D01*
X6027830Y2390830D01*
X6026980Y2390370D01*
X6026070Y2390090D01*
X6025110Y2390000D01*
X5934910D01*
X5933950Y2390090D01*
X5933040Y2390370D01*
X5932190Y2390830D01*
X5931450Y2391440D01*
X5930840Y2392180D01*
X5930380Y2393030D01*
X5930100Y2393940D01*
X5930010Y2394900D01*
G37*
G36*
G01X6536500Y2292000D02*
X6569000D01*
X6574000Y2287000D01*
Y2274500D01*
X6569000Y2269500D01*
X6514000D01*
X6509000Y2274500D01*
Y2324500D01*
X6514000Y2329500D01*
X6531500D01*
X6536500Y2324500D01*
Y2292000D01*
G37*
G36*
G01X6371500D02*
X6339000D01*
X6334000Y2287000D01*
Y2274500D01*
X6339000Y2269500D01*
X6394000D01*
X6399000Y2274500D01*
Y2324500D01*
X6394000Y2329500D01*
X6376500D01*
X6371500Y2324500D01*
Y2292000D01*
G37*
G36*
G01Y2127000D02*
X6339000D01*
X6334000Y2132000D01*
Y2144500D01*
X6339000Y2149500D01*
X6394000D01*
X6399000Y2144500D01*
Y2094500D01*
X6394000Y2089500D01*
X6376500D01*
X6371500Y2094500D01*
Y2127000D01*
G37*
G36*
G01X6536500D02*
X6569000D01*
X6574000Y2132000D01*
Y2144500D01*
X6569000Y2149500D01*
X6514000D01*
X6509000Y2144500D01*
Y2094500D01*
X6514000Y2089500D01*
X6531500D01*
X6536500Y2094500D01*
Y2127000D01*
G37*
G36*
G01X6343000Y2198500D02*
X6439000D01*
X6444000Y2193500D01*
Y2175500D01*
X6439000Y2170500D01*
X6343000D01*
X6338000Y2175500D01*
Y2193500D01*
X6343000Y2198500D01*
G37*
G36*
G01X6439000Y2248500D02*
X6444000Y2243500D01*
Y2225500D01*
X6439000Y2220500D01*
X6343000D01*
X6338000Y2225500D01*
Y2243500D01*
X6343000Y2248500D01*
X6439000D01*
G37*
G36*
G01X6570000Y2175500D02*
X6565000Y2170500D01*
X6469000D01*
X6464000Y2175500D01*
Y2193500D01*
X6469000Y2198500D01*
X6565000D01*
X6570000Y2193500D01*
Y2175500D01*
G37*
G36*
G01X6565000Y2248500D02*
X6570000Y2243500D01*
Y2225500D01*
X6565000Y2220500D01*
X6469000D01*
X6464000Y2225500D01*
Y2243500D01*
X6469000Y2248500D01*
X6565000D01*
G37*
G54D10*
X1241900Y1756200D03*
X1394300D03*
X1178400Y2251500D03*
X1026000D03*
X1521300Y1756200D03*
X1673700D03*
X1800700D03*
X1953100D03*
X3123800Y210000D03*
X3276200D03*
X3423800D03*
X3576200D03*
X3751900Y6406200D03*
X3904300D03*
X4031300D03*
X3688400Y6901500D03*
X3536000D03*
X4423800Y210000D03*
X4576200D03*
X4123800D03*
X4276200D03*
X4183700Y6406200D03*
X4310700D03*
X4463100D03*
X5223800Y210000D03*
X5376200D03*
X5523800D03*
X5676200D03*
X5936000Y2241500D03*
X6151900Y1746200D03*
X6304300D03*
X6431300D03*
X6583700D03*
X6088400Y2241500D03*
X6710700Y1746200D03*
X6863100D03*
G54D11*
X1388500Y2498300D03*
Y2650700D03*
X1954000Y2013300D03*
X1824000D03*
X1814000Y2343300D03*
Y2495700D03*
X1954000Y2165700D03*
X1824000D03*
X1518500Y2498300D03*
Y2650700D03*
X3898500Y7148300D03*
Y7300700D03*
X4028500Y7148300D03*
Y7300700D03*
X4464000Y6663300D03*
X4334000D03*
X4324000Y6993300D03*
Y7145700D03*
X4464000Y6815700D03*
X4334000D03*
X6294000Y2493300D03*
Y2645700D03*
X6424000Y2493300D03*
Y2645700D03*
X6864000Y2003300D03*
X6734000D03*
X6724000Y2333300D03*
Y2485700D03*
X6864000Y2155700D03*
X6734000D03*
G54D20*
X4057200Y920400D03*
X3549200D03*
X3676200D03*
X3803200D03*
X3930200D03*
X4057200Y1470400D03*
X3549200D03*
X3676200D03*
X3803200D03*
X3930200D03*
X4184200Y920400D03*
X4311200D03*
X4438200D03*
X4565200D03*
X4692200D03*
X4184200Y1470400D03*
X4311200D03*
X4438200D03*
X4565200D03*
X4692200D03*
X4819200Y920400D03*
X4946200D03*
X5073200D03*
X4819200Y1470400D03*
X4946200D03*
X5073200D03*
G54D21*
G01X0Y100000D02*
Y3700000D01*
G02X100000Y3800000I100000J0D01*
G01X900000D01*
G03X1000000Y3900000I0J100000D01*
G01Y4900000D01*
G03X900000Y5000000I-100000J0D01*
G01X100000D01*
G02X0Y5100000I0J100000D01*
G01Y8700000D01*
G02X100000Y8800000I100000J0D01*
G01X3700000D01*
G02X3800000Y8700000I0J-100000D01*
G01Y7900000D01*
G03X3900000Y7800000I100000J0D01*
G01X4900000D01*
G03X5000000Y7900000I0J100000D01*
G01Y8700000D01*
G02X5100000Y8800000I100000J0D01*
G01X8700000D01*
G02X8800000Y8700000I0J-100000D01*
G01Y5100000D01*
G02X8700000Y5000000I-100000J0D01*
G01X7900000D01*
G03X7800000Y4900000I0J-100000D01*
G01Y3900000D01*
G03X7900000Y3800000I100000J0D01*
G01X8700000D01*
G02X8800000Y3700000I0J-100000D01*
G01Y100000D01*
G02X8700000Y0I-100000J0D01*
G01X7800000D01*
G02X7700000Y100000I0J100000D01*
G01Y900000D01*
G03X7600000Y1000000I-100000J0D01*
G01X6400000D01*
G03X6300000Y900000I0J-100000D01*
G01Y100000D01*
G02X6200000Y0I-100000J0D01*
G01X2600000D01*
G02X2500000Y100000I0J100000D01*
G01Y900000D01*
G03X2400000Y1000000I-100000J0D01*
G01X1200000D01*
G03X1100000Y900000I0J-100000D01*
G01Y100000D01*
G02X1000000Y0I-100000J0D01*
G01X100000D01*
G02X0Y100000I0J100000D01*
G54D12*
X1167510Y2535000D03*
Y2470000D03*
Y2405000D03*
X972510D03*
Y2470000D03*
Y2535000D03*
X3687510Y7195000D03*
Y7130000D03*
Y7065000D03*
X3492510D03*
Y7130000D03*
Y7195000D03*
X5882510Y2405000D03*
Y2470000D03*
Y2535000D03*
X6077510D03*
Y2470000D03*
Y2405000D03*
G54D13*
X1474000Y2294500D03*
X1619000D03*
Y2144500D03*
X1474000D03*
X3984000Y6944500D03*
Y6794500D03*
X4129000Y6944500D03*
Y6794500D03*
X6384000Y2284500D03*
X6529000D03*
Y2134500D03*
X6384000D03*
G54D14*
X1521500Y2309500D03*
X1566500D03*
Y2129500D03*
X1521500D03*
X4031500Y6959500D03*
Y6779500D03*
X4076500Y6959500D03*
Y6779500D03*
X6431500Y2299500D03*
X6476500D03*
Y2119500D03*
X6431500D03*
G54D15*
X1544000Y2244500D03*
Y2194500D03*
X4054000Y6894500D03*
Y6844500D03*
X6454000Y2234500D03*
Y2184500D03*
G54D16*
X1700000Y2890000D03*
X1600000D03*
X4230000Y7540000D03*
X4130000D03*
X6590000Y2880000D03*
X6490000D03*
G54D17*
X2772290Y1799500D03*
X2195710D03*
X2772290Y2299500D03*
X2195710D03*
X4705710Y6509500D03*
Y7009500D03*
X5282290Y6509500D03*
Y7009500D03*
X7105710Y1789500D03*
Y2289500D03*
X7682290Y1789500D03*
Y2289500D03*
G54D18*
X2678000Y2760000D03*
X2262000D03*
X4772000Y7460000D03*
X5188000D03*
X7172000Y2740000D03*
X7588000D03*
G54D19*
X3299700Y1440400D03*
Y950400D03*
X5322700Y1440400D03*
Y950400D03*
M02*
