G04 ================== begin FILE IDENTIFICATION RECORD ==================*
G04 Layout Name:  D:/0_Working/1_Hardware/42_Adaptor/2_Layout/Adaptor_V100.brd*
G04 Film Name:    ADAPTOR_ver1.0.0_SMASK_TOP.art*
G04 File Format:  Gerber RS274X*
G04 File Origin:  Cadence Allegro 17.2-S052*
G04 Origin Date:  Fri Oct 04 17:12:52 2024*
G04 *
G04 Layer:  BOARD GEOMETRY/DESIGN_OUTLINE*
G04 Layer:  PIN/SOLDERMASK_TOP*
G04 Layer:  PACKAGE GEOMETRY/SOLDERMASK_TOP*
G04 Layer:  BOARD GEOMETRY/SOLDERMASK_TOP*
G04 *
G04 Offset:    (0.0000 0.0000)*
G04 Mirror:    No*
G04 Mode:      Positive*
G04 Rotation:  0*
G04 FullContactRelief:  No*
G04 UndefLineWidth:     0.1270*
G04 ================== end FILE IDENTIFICATION RECORD ====================*
%FSLAX25Y25*MOIN*%
%IR0*IPPOS*OFA0.00000B0.00000*MIA0B0*SFA1.00000B1.00000*%
%ADD18R,.094488X.011811*%
%ADD15C,.01063*%
%ADD13C,.023685*%
%ADD17C,.010024*%
%ADD12R,.038X.041*%
%ADD11R,.041X.038*%
%ADD25R,.03937X.051181*%
%ADD22R,.055118X.114173*%
%ADD16R,.009843X.023622*%
%ADD26C,.094488*%
%ADD19R,.017717X.027559*%
%ADD23C,.066933*%
%ADD24C,.216535*%
%ADD27R,.094488X.094488*%
%ADD10C,.257874*%
%ADD14R,.021717X.015811*%
%ADD20R,.074X.1*%
%ADD21R,.088598X.070701*%
%ADD28C,.005*%
G75*
%LPD*%
G75*
G36*
G01X226772Y353543D02*
X349606D01*
G02X353543Y349606I0J-3937D01*
G01Y217323D01*
G02X349606Y213386I-3937J0D01*
G03X345669Y209449I0J-3937D01*
G01Y140157D01*
G03X349606Y136220I3937J0D01*
G02X353543Y132283I0J-3937D01*
G01Y4724D01*
G02X349606Y787I-3937J0D01*
G01X226772D01*
G02X222835Y4724I0J3937D01*
G01Y8268D01*
G03X218898Y12205I-3937J0D01*
G01X144882D01*
G03X140945Y8268I0J-3937D01*
G01Y4724D01*
G02X137008Y787I-3937J0D01*
G01X4724D01*
G02X787Y4724I0J3937D01*
G01Y132283D01*
G02X4724Y136220I3937J0D01*
G03X8661Y140157I0J3937D01*
G01Y214173D01*
G03X4724Y218110I-3937J0D01*
G02X787Y222047I0J3937D01*
G01Y349606D01*
G02X4724Y353543I3937J0D01*
G01X137008D01*
G02X140945Y349606I0J-3937D01*
G01Y345669D01*
G03X144882Y341732I3937J0D01*
G01X218898D01*
G03X222835Y345669I0J3937D01*
G01Y349606D01*
G02X226772Y353543I3937J0D01*
G37*
%LPC*%
G75*
G36*
G01X226772Y345669D02*
G02X230709Y349606I3937J0D01*
G01X314961D01*
G02X318898Y345669I0J-3937D01*
G01Y329134D01*
X345669D01*
G02X349606Y325197I0J-3937D01*
G01Y221260D01*
G02X345669Y217323I-3937J0D01*
G03X341732Y213386I0J-3937D01*
G01Y136220D01*
G03X345669Y132283I3937J0D01*
G02X349606Y128346I0J-3937D01*
G01Y29921D01*
G02X345669Y25984I-3937J0D01*
G01X329134D01*
Y8661D01*
G02X325197Y4724I-3937J0D01*
G01X230709D01*
G02X226772Y8661I0J3937D01*
G01Y11811D01*
G03X222835Y15748I-3937J0D01*
G01X140945D01*
G03X137008Y11811I0J-3937D01*
G01Y8661D01*
G02X133071Y4724I-3937J0D01*
G01X28346D01*
G02X24409Y8661I0J3937D01*
G01Y24409D01*
X8661D01*
G02X4724Y28346I0J3937D01*
G01Y128346D01*
G02X8661Y132283I3937J0D01*
G03X12598Y136220I0J3937D01*
G01Y218110D01*
G03X8661Y222047I-3937J0D01*
G02X4724Y225984I0J3937D01*
G01Y249606D01*
G02X8661Y253543I3937J0D01*
G01X25984D01*
G03X29921Y257480I0J3937D01*
G01Y277953D01*
G03X25984Y281890I-3937J0D01*
G01X8661D01*
G02X4724Y285827I0J3937D01*
G01Y324409D01*
G02X8661Y328346I3937J0D01*
G01X40945D01*
Y345669D01*
G02X44882Y349606I3937J0D01*
G01X133071D01*
G02X137008Y345669I0J-3937D01*
G01Y341732D01*
G03X140945Y337795I3937J0D01*
G01X222835D01*
G03X226772Y341732I0J3937D01*
G01Y345669D01*
G37*
%LPD*%
G75*
G36*
G01X44063Y104281D02*
X44163Y104381D01*
X47963D01*
X48063Y104281D01*
Y98081D01*
X47963Y97981D01*
X44163D01*
X44063Y98081D01*
Y104281D01*
G37*
G36*
G01X61378Y87972D02*
X60197D01*
X60000Y88169D01*
Y88760D01*
X60197Y88957D01*
X62362D01*
X62559Y88760D01*
Y86791D01*
X62362Y86594D01*
X61575D01*
X61378Y86791D01*
Y87972D01*
G37*
G36*
G01X68071D02*
Y86791D01*
X67874Y86594D01*
X67087D01*
X66890Y86791D01*
Y88760D01*
X67087Y88957D01*
X69252D01*
X69449Y88760D01*
Y88169D01*
X69252Y87972D01*
X68071D01*
G37*
G36*
G01Y94665D02*
X69252D01*
X69449Y94469D01*
Y93878D01*
X69252Y93681D01*
X67087D01*
X66890Y93878D01*
Y95846D01*
X67087Y96043D01*
X67874D01*
X68071Y95846D01*
Y94665D01*
G37*
G36*
G01X61378D02*
Y95846D01*
X61575Y96043D01*
X62362D01*
X62559Y95846D01*
Y93878D01*
X62362Y93681D01*
X60197D01*
X60000Y93878D01*
Y94469D01*
X60197Y94665D01*
X61378D01*
G37*
G36*
G01X65354Y114961D02*
Y120472D01*
X72441D01*
Y114961D01*
X65354D01*
G37*
G36*
G01X160197Y286004D02*
X159016D01*
X158819Y286201D01*
Y286791D01*
X159016Y286988D01*
X161181D01*
X161378Y286791D01*
Y284823D01*
X161181Y284626D01*
X160394D01*
X160197Y284823D01*
Y286004D01*
G37*
G36*
G01Y292697D02*
Y293878D01*
X160394Y294075D01*
X161181D01*
X161378Y293878D01*
Y291909D01*
X161181Y291713D01*
X159016D01*
X158819Y291909D01*
Y292500D01*
X159016Y292697D01*
X160197D01*
G37*
G36*
G01X143276Y302706D02*
X143376Y302806D01*
X147176D01*
X147276Y302706D01*
Y296506D01*
X147176Y296406D01*
X143376D01*
X143276Y296506D01*
Y302706D01*
G37*
G36*
G01X166890Y286004D02*
Y284823D01*
X166693Y284626D01*
X165906D01*
X165709Y284823D01*
Y286791D01*
X165906Y286988D01*
X168071D01*
X168268Y286791D01*
Y286201D01*
X168071Y286004D01*
X166890D01*
G37*
G36*
G01X164961Y312992D02*
Y318504D01*
X172047D01*
Y312992D01*
X164961D01*
G37*
G36*
G01X166890Y292697D02*
X168071D01*
X168268Y292500D01*
Y291909D01*
X168071Y291713D01*
X165906D01*
X165709Y291909D01*
Y293878D01*
X165906Y294075D01*
X166693D01*
X166890Y293878D01*
Y292697D01*
G37*
G36*
G01X237370Y104281D02*
X237470Y104381D01*
X241270D01*
X241370Y104281D01*
Y98081D01*
X241270Y97981D01*
X237470D01*
X237370Y98081D01*
Y104281D01*
G37*
G36*
G01X254685Y87579D02*
X253504D01*
X253307Y87776D01*
Y88366D01*
X253504Y88563D01*
X255669D01*
X255866Y88366D01*
Y86398D01*
X255669Y86201D01*
X254882D01*
X254685Y86398D01*
Y87579D01*
G37*
G36*
G01X261378D02*
Y86398D01*
X261181Y86201D01*
X260394D01*
X260197Y86398D01*
Y88366D01*
X260394Y88563D01*
X262559D01*
X262756Y88366D01*
Y87776D01*
X262559Y87579D01*
X261378D01*
G37*
G36*
G01Y94272D02*
X262559D01*
X262756Y94075D01*
Y93484D01*
X262559Y93287D01*
X260394D01*
X260197Y93484D01*
Y95453D01*
X260394Y95650D01*
X261181D01*
X261378Y95453D01*
Y94272D01*
G37*
G36*
G01X254685D02*
Y95453D01*
X254882Y95650D01*
X255669D01*
X255866Y95453D01*
Y93484D01*
X255669Y93287D01*
X253504D01*
X253307Y93484D01*
Y94075D01*
X253504Y94272D01*
X254685D01*
G37*
G36*
G01X257874Y114567D02*
Y120079D01*
X264961D01*
Y114567D01*
X257874D01*
G37*
G54D10*
X20000Y20000D03*
X15748Y267717D03*
X35354Y334331D03*
X324331D03*
X335000Y20000D03*
G54D20*
X113082Y74783D03*
X90382D03*
X113082Y94469D03*
X90382D03*
X189201Y272815D03*
Y292500D03*
X211901Y272815D03*
Y292500D03*
X283689Y74390D03*
Y94075D03*
X306389Y74390D03*
Y94075D03*
G54D11*
X52831Y73079D03*
X58831D03*
X50331Y92579D03*
X44331D03*
X86370Y14961D03*
X69441D03*
X75441D03*
X86370Y9449D03*
X75441D03*
X69441D03*
X63831Y73079D03*
X69831D03*
X74831D03*
X80831D03*
X104087Y14961D03*
X110087D03*
X92370D03*
X110087Y9449D03*
X104087D03*
X92370D03*
X149150Y290610D03*
X143150D03*
X151650Y271110D03*
X157650D03*
X162650D03*
X168650D03*
X173650D03*
X179650D03*
X237638Y92185D03*
X246138Y72685D03*
X252138D03*
X257138D03*
X263138D03*
X243638Y92185D03*
X268138Y72685D03*
X274138D03*
G54D21*
X109370Y112598D03*
X92992D03*
X191811Y310236D03*
X208189D03*
X286299Y111811D03*
X302677D03*
G54D12*
X58602Y102295D03*
Y108295D03*
X80866Y83201D03*
X75748D03*
X75354Y96193D03*
Y102193D03*
X80866Y89201D03*
X75748D03*
X63720Y102295D03*
Y108295D03*
X157421Y300327D03*
Y306327D03*
X162539Y300327D03*
Y306327D03*
X179685Y287232D03*
Y281232D03*
X174567Y287232D03*
Y281232D03*
X174173Y294224D03*
Y300224D03*
X251732Y102098D03*
Y108098D03*
X256850Y102098D03*
Y108098D03*
X274173Y82807D03*
X269055D03*
X268661Y95799D03*
Y101799D03*
X274173Y88807D03*
X269055D03*
G54D22*
X133846Y60646D03*
Y41354D03*
X213492Y60646D03*
Y41354D03*
G54D13*
X46063Y103346D03*
Y99016D03*
X145276Y301772D03*
Y297441D03*
X239370Y103346D03*
Y99016D03*
G54D14*
X49902Y103740D03*
Y101181D03*
Y98622D03*
X42225D03*
Y101181D03*
Y103740D03*
X149115Y302165D03*
Y299606D03*
Y297047D03*
X141437D03*
Y299606D03*
Y302165D03*
X235532Y98622D03*
Y101181D03*
Y103740D03*
X243209D03*
Y101181D03*
Y98622D03*
G54D23*
X134969Y51000D03*
X212370D03*
G54D24*
X125975Y139646D03*
Y177165D03*
Y227165D03*
X228356Y139646D03*
Y177165D03*
Y227165D03*
G54D15*
X61969Y94272D03*
Y88366D03*
X160787Y286398D03*
Y292303D03*
X255276Y93878D03*
Y87972D03*
G54D16*
X63839Y94862D03*
X65610D03*
Y87776D03*
X63839D03*
X162657Y285807D03*
Y292894D03*
X164429Y285807D03*
Y292894D03*
X257146Y94469D03*
X258917D03*
Y87382D03*
X257146D03*
G54D25*
X163669Y40173D03*
X143669D03*
X148669D03*
X153669D03*
X158669D03*
X163669Y61827D03*
X143669D03*
X148669D03*
X153669D03*
X158669D03*
X168669Y40173D03*
X173669D03*
X178669D03*
X183669D03*
X188669D03*
X168669Y61827D03*
X173669D03*
X178669D03*
X183669D03*
X188669D03*
X193669Y40173D03*
X198669D03*
X203669D03*
X193669Y61827D03*
X198669D03*
X203669D03*
G54D26*
X161415Y139646D03*
Y177165D03*
Y227165D03*
X177165Y139646D03*
Y177165D03*
Y227165D03*
X208665Y139646D03*
X192915D03*
X208665Y177165D03*
X192915D03*
X208665Y227165D03*
X192915D03*
G54D17*
X67677Y94272D03*
Y88366D03*
X166496Y286398D03*
Y292303D03*
X260984Y93878D03*
Y87972D03*
G54D27*
X145665Y139646D03*
Y177165D03*
Y227165D03*
G54D18*
X64724Y92303D03*
Y90335D03*
X163543Y290335D03*
Y288366D03*
X258031Y91909D03*
Y89941D03*
G54D28*
G01X354331Y349606D02*
Y217047D01*
G02X349606Y212323I-4724J0D01*
G03X346772Y209488I0J-2835D01*
G01Y140236D01*
G03X349606Y137402I2835J0D01*
G02X354331Y132677I0J-4724D01*
G01Y4724D01*
G02X349606Y0I-4724J0D01*
G01X226732D01*
G02X222008Y4724I0J4724D01*
G01Y6811D01*
G03X217283Y11535I-4724J0D01*
G01X146732D01*
G03X142008Y6811I0J-4724D01*
G01Y4724D01*
G02X137283Y0I-4724J0D01*
G01X4724D01*
G02X0Y4724I0J4724D01*
G01Y132598D01*
G02X4724Y137323I4724J0D01*
G03X7559Y140157I0J2835D01*
G01Y214094D01*
G03X4724Y216929I-2835J0D01*
G02X0Y221654I0J4724D01*
G01Y349606D01*
G02X4724Y354331I4724J0D01*
G01X137283D01*
G02X142008Y349606I0J-4724D01*
G01Y347480D01*
G03X146732Y342756I4724J0D01*
G01X217283D01*
G03X222008Y347480I0J4724D01*
G01Y349606D01*
G02X226732Y354331I4724J0D01*
G01X349606D01*
G02X354331Y349606I0J-4724D01*
G54D19*
X70866Y117717D03*
X66929D03*
X170472Y315748D03*
X166535D03*
X263386Y117323D03*
X259449D03*
M02*
