G04 ================== begin FILE IDENTIFICATION RECORD ==================*
G04 Layout Name:  D:/0_Working/1_Hardware/42_Adaptor/2_Layout/Adaptor_V100.brd*
G04 Film Name:    ADAPTOR_ver1.0.0_TOP.art*
G04 File Format:  Gerber RS274X*
G04 File Origin:  Cadence Allegro 17.2-S052*
G04 Origin Date:  Fri Oct 04 17:12:52 2024*
G04 *
G04 Layer:  BOARD GEOMETRY/DESIGN_OUTLINE*
G04 Layer:  ETCH/TOP*
G04 Layer:  PIN/TOP*
G04 Layer:  VIA CLASS/TOP*
G04 *
G04 Offset:    (0.0000 0.0000)*
G04 Mirror:    No*
G04 Mode:      Positive*
G04 Rotation:  0*
G04 FullContactRelief:  No*
G04 UndefLineWidth:     0.1270*
G04 ================== end FILE IDENTIFICATION RECORD ====================*
%FSLAX25Y25*MOIN*%
%IR0*IPPOS*OFA0.00000B0.00000*MIA0B0*SFA1.00000B1.00000*%
%ADD19R,.094488X.011811*%
%ADD26R,.031496X.043307*%
%ADD14C,.019685*%
%ADD16C,.01063*%
%ADD18C,.010024*%
%ADD11C,.024*%
%ADD23R,.047244X.106299*%
%ADD27C,.07874*%
%ADD15R,.017717X.011811*%
%ADD17R,.009843X.023622*%
%ADD20R,.01378X.023622*%
%ADD28R,.07874X.07874*%
%ADD25C,.208701*%
%ADD24C,.066933*%
%ADD10C,.25*%
%ADD21R,.074X.1*%
%ADD13R,.032X.035*%
%ADD12R,.035X.032*%
%ADD22R,.084598X.066799*%
%ADD29C,.011811*%
%ADD30C,.015748*%
%ADD31C,.009055*%
%ADD32C,.026772*%
%ADD33C,.012*%
%ADD34C,.03937*%
%ADD35C,.005*%
%ADD36C,.193031*%
%ADD37C,.098756*%
%ADD38C,.112378*%
G75*
%LPD*%
G75*
G36*
G01X353543Y217323D02*
G02X349606Y213386I-3937J0D01*
G03X345669Y209449I0J-3937D01*
G01Y140157D01*
G03X349606Y136220I3937J0D01*
G02X353543Y132283I0J-3937D01*
G01Y4724D01*
G02X349606Y787I-3937J0D01*
G01X226772D01*
G02X222835Y4724I0J3937D01*
G01Y8268D01*
G03X218898Y12205I-3937J0D01*
G01X144882D01*
G03X140945Y8268I0J-3937D01*
G01Y4724D01*
G02X137008Y787I-3937J0D01*
G01X4724D01*
G02X787Y4724I0J3937D01*
G01Y132283D01*
G02X4724Y136220I3937J0D01*
G03X8661Y140157I0J3937D01*
G01Y214173D01*
G03X4724Y218110I-3937J0D01*
G02X787Y222047I0J3937D01*
G01Y349606D01*
G02X4724Y353543I3937J0D01*
G01X137008D01*
G02X140945Y349606I0J-3937D01*
G01Y345669D01*
G03X144882Y341732I3937J0D01*
G01X218898D01*
G03X222835Y345669I0J3937D01*
G01Y349606D01*
G02X226772Y353543I3937J0D01*
G01X349606D01*
G02X353543Y349606I0J-3937D01*
G01Y217323D01*
G37*
%LPC*%
G75*
G36*
G01X226772Y345669D02*
G02X230709Y349606I3937J0D01*
G01X314961D01*
G02X318898Y345669I0J-3937D01*
G01Y341339D01*
X326772D01*
X331496Y336614D01*
Y329134D01*
X345669D01*
G02X349606Y325197I0J-3937D01*
G01Y221260D01*
G02X345669Y217323I-3937J0D01*
G03X341732Y213386I0J-3937D01*
G01Y136220D01*
G03X345669Y132283I3937J0D01*
G02X349606Y128346I0J-3937D01*
G01Y29921D01*
G02X345669Y25984I-3937J0D01*
G01X342913D01*
Y14961D01*
X339370Y11417D01*
X329134D01*
Y8661D01*
G02X325197Y4724I-3937J0D01*
G01X230709D01*
G02X226772Y8661I0J3937D01*
G01Y11811D01*
G03X222835Y15748I-3937J0D01*
G01X140945D01*
G03X137008Y11811I0J-3937D01*
G01Y8661D01*
G02X133071Y4724I-3937J0D01*
G01X28346D01*
G02X24409Y8661I0J3937D01*
G01Y12205D01*
X18110D01*
X13386Y16929D01*
Y24409D01*
X8661D01*
G02X4724Y28346I0J3937D01*
G01Y128346D01*
G02X8661Y132283I3937J0D01*
G03X12598Y136220I0J3937D01*
G01Y218110D01*
G03X8661Y222047I-3937J0D01*
G02X4724Y225984I0J3937D01*
G01Y249606D01*
G02X8661Y253543I3937J0D01*
G01X25984D01*
G03X29921Y257480I0J3937D01*
G01Y277953D01*
G03X25984Y281890I-3937J0D01*
G01X8661D01*
G02X4724Y285827I0J3937D01*
G01Y324409D01*
G02X8661Y328346I3937J0D01*
G01X26772D01*
Y337402D01*
X31496Y342126D01*
X40945D01*
Y345669D01*
G02X44882Y349606I3937J0D01*
G01X133071D01*
G02X137008Y345669I0J-3937D01*
G01Y341732D01*
G03X140945Y337795I3937J0D01*
G01X222835D01*
G03X226772Y341732I0J3937D01*
G01Y345669D01*
G37*
G54D36*
X15748Y267717D03*
%LPD*%
G75*
G36*
G01X185827Y233858D02*
X197638D01*
X199983Y231513D01*
Y208302D01*
X195635Y203954D01*
X85398D01*
X47228Y165783D01*
Y119326D01*
X47169Y119267D01*
Y105625D01*
G02X46650Y105243I-400J0D01*
G03X46063Y105331I-586J-1897D01*
G03X44631Y104721I0J-1985D01*
G02X43991Y104807I-289J277D01*
G03X43111Y105331I-880J-476D01*
G01X41339D01*
G03X40338Y104331I0J-1001D01*
G01Y103150D01*
G03X40613Y102461I1001J0D01*
G03X40338Y101772I726J-689D01*
G01Y100591D01*
G03X40613Y99902I1001J0D01*
G03X40338Y99213I726J-689D01*
G01Y98031D01*
G03X41339Y97031I1001J0D01*
G01X43111D01*
G03X43991Y97555I0J1000D01*
G02X44631Y97641I352J-191D01*
G03X46063Y97031I1432J1374D01*
G03X46650Y97119I1J1985D01*
G02X47169Y96737I118J-382D01*
G01Y95092D01*
G03X47088Y94954I1411J-915D01*
G02X46772Y94902I-177J92D01*
G03X46081Y95180I-692J-723D01*
G01X42581D01*
G03X41580Y94179I0J-1001D01*
G01Y90979D01*
G03X42581Y89978I1001J0D01*
G01X46081D01*
G03X46772Y90256I0J1001D01*
G02X47088Y90203I138J-144D01*
G03X47169Y90065I1492J777D01*
G01Y70615D01*
X49119Y68665D01*
X54700D01*
X55832Y69797D01*
X60581D01*
G03X61331Y69973I0J1682D01*
G03X62081Y69797I750J1506D01*
G01X71581D01*
G03X72331Y69973I0J1682D01*
G03X73081Y69797I750J1506D01*
G01X76581D01*
G03X77974Y70536I0J1682D01*
G02X78527Y70645I331J-224D01*
G03X79081Y70478I554J833D01*
G01X82581D01*
G03X83581Y71479I0J1001D01*
G01Y74679D01*
G03X82581Y75680I-1001J0D01*
G01X79081D01*
G03X78527Y75512I0J-1001D01*
G02X77974Y75621I-222J333D01*
G03X76581Y76361I-1393J-942D01*
G01X73081D01*
G03X72331Y76184I0J-1682D01*
G03X71581Y76361I-750J-1506D01*
G01X71411D01*
X71362Y76491D01*
G03X70987Y77075I-1531J-572D01*
G01X70959Y77103D01*
G02X71100Y77444I141J141D01*
G01X79831D01*
G03X80987Y77923I0J1635D01*
G01X82022Y78958D01*
G03X82464Y79769I-1156J1156D01*
G01X82466D01*
G03X83525Y80144I0J1682D01*
G02X84176Y79833I252J-311D01*
G01Y63153D01*
X84235D01*
Y24375D01*
X84744Y23865D01*
X78668Y17789D01*
G03X78404Y17452I1253J-1254D01*
G02X77813Y17345I-342J207D01*
G03X77191Y17561I-622J-784D01*
G01X73691D01*
G03X73137Y17394I0J-1001D01*
G02X72584Y17503I-222J333D01*
G03X71191Y18243I-1393J-942D01*
G01X67691D01*
G03X66009Y16561I0J-1682D01*
G01Y13361D01*
G03X66469Y12205I1682J0D01*
G03X66009Y11049I1221J-1156D01*
G01Y7849D01*
G03X66119Y7252I1682J0D01*
G02X65745Y6709I-374J-142D01*
G01X28346D01*
G02X27152Y7117I0J1952D01*
G02X27194Y7778I245J316D01*
G03X34182Y20000I-7194J12222D01*
G03X20000Y34182I-14182J0D01*
G03X7778Y27194I0J-14182D01*
G02X7117Y27152I-345J203D01*
G02X6709Y28346I1544J1194D01*
G01Y128346D01*
G02X8661Y130298I1952J0D01*
G03X14583Y136220I0J5922D01*
G01Y217323D01*
X118908D01*
G03X133043I7067J9843D01*
G01X179528D01*
X183465Y221260D01*
Y231496D01*
X185827Y233858D01*
G37*
G36*
G01X230709Y347621D02*
X314961D01*
G02X316793Y346343I0J-1952D01*
G03X310149Y334331I7538J-12013D01*
G03X324331Y320149I14182J0D01*
G03X336559Y327149I0J14182D01*
G01X345669D01*
G02X347621Y325197I0J-1952D01*
G01Y221260D01*
G02X345669Y219308I-1952J0D01*
G03X345498Y219306I-4J-5922D01*
G02X345292Y219505I-6J200D01*
G01Y247672D01*
X333893Y259072D01*
X199247D01*
X197818Y260502D01*
G02X197989Y261169I283J283D01*
G01Y267514D01*
X207238D01*
X207292Y267398D01*
G03X208201Y266814I909J417D01*
G01X215601D01*
G03X216602Y267815I0J1001D01*
G01Y277815D01*
G03X215601Y278816I-1001J0D01*
G01X208201D01*
G03X207292Y278232I0J-1001D01*
G01X207238Y278116D01*
X197989D01*
Y287199D01*
X207238D01*
X207292Y287083D01*
G03X208201Y286499I909J417D01*
G01X215601D01*
G03X216602Y287500I0J1001D01*
G01Y297500D01*
G03X215601Y298501I-1001J0D01*
G01X208201D01*
G03X207292Y297917I0J-1001D01*
G01X207238Y297801D01*
X197989D01*
Y320883D01*
X128312D01*
X120850Y313420D01*
Y249965D01*
X132541Y238274D01*
G02X132057Y237645I-283J-283D01*
G03X125975Y239282I-6082J-10480D01*
G03X113858Y227165I0J-12117D01*
G03X115289Y221455I12117J0D01*
G02X114935Y220866I-353J-189D01*
G01X13903D01*
G03X8661Y224032I-5242J-2756D01*
G02X6709Y225984I0J1952D01*
G01Y249606D01*
G02X8661Y251558I1952J0D01*
G01X25984D01*
G03X31906Y257480I0J5922D01*
G01Y277953D01*
G03X25984Y283875I-5922J0D01*
G01X8661D01*
G02X6709Y285827I0J1952D01*
G01Y324409D01*
G02X8661Y326361I1952J0D01*
G01X23623D01*
G03X35354Y320149I11731J7969D01*
G03X49536Y334331I0J14182D01*
G03X43022Y346261I-14181J0D01*
G02X44882Y347621I1860J-592D01*
G01X133071D01*
G02X135023Y345669I0J-1952D01*
G01Y341732D01*
G03X140945Y335810I5922J0D01*
G01X222835D01*
G03X228757Y341732I0J5922D01*
G01Y345669D01*
G02X230709Y347621I1952J0D01*
G37*
G36*
G01X51181Y120472D02*
X67717D01*
Y115354D01*
X55512D01*
X54724Y114567D01*
X54665D01*
Y99665D01*
X59055Y95276D01*
Y91339D01*
X59469Y90925D01*
X59969D01*
G03X60000Y90924I35J787D01*
G01X69469D01*
Y89745D01*
X66760D01*
X66759Y89744D01*
X66134D01*
G03X66102Y89745I-35J-787D01*
G01X65118D01*
G03X65087Y89744I4J-788D01*
G01X64362D01*
G03X64331Y89745I-35J-787D01*
G01X63346D01*
G03X63315Y89744I4J-788D01*
G01X62850D01*
X62802Y89772D01*
G03X61969Y90001I-834J-1406D01*
G03X61091Y89745I0J-1635D01*
G01X59870D01*
X59870Y89744D01*
X59429D01*
X59055Y89370D01*
Y85039D01*
X54724Y80709D01*
Y71496D01*
X53878Y70650D01*
X49941D01*
X49154Y71437D01*
Y118445D01*
X51181Y120472D01*
G37*
G36*
G01X44063Y98081D02*
Y104281D01*
X44163Y104381D01*
X47963D01*
X48063Y104281D01*
Y98081D01*
X47963Y97981D01*
X44163D01*
X44063Y98081D01*
G37*
G36*
G01X56967Y111656D02*
X76967D01*
X78467Y110156D01*
Y100656D01*
X77967Y100156D01*
X77355D01*
Y100194D01*
X73428D01*
X72467Y101156D01*
Y106156D01*
X71967Y106656D01*
X56967D01*
Y111656D01*
G37*
G36*
G01X37402Y87402D02*
Y107480D01*
X46063D01*
Y105906D01*
X47638Y104331D01*
Y98031D01*
X46063Y96457D01*
Y87402D01*
X37402D01*
G37*
G36*
G01X90192Y190535D02*
X127953D01*
Y189582D01*
G02X127502Y189186I-400J0D01*
G03X125975Y189282I-1526J-12021D01*
G03Y165048I0J-12117D01*
G03X127502Y165145I1J12117D01*
G02X127953Y164748I50J-397D01*
G01Y152063D01*
G02X127502Y151666I-400J0D01*
G03X125975Y151763I-1526J-12021D01*
G03Y127529I0J-12117D01*
G03X134000Y130567I0J12117D01*
G01X159843Y104724D01*
Y64993D01*
X142094D01*
G03X141094Y63992I0J-1001D01*
G01Y59661D01*
G03X142094Y58661I1001J0D01*
G01X159843D01*
Y47474D01*
G02X159160Y47191I-400J0D01*
G01X159090Y47261D01*
X143272D01*
X140141Y44129D01*
Y34287D01*
X137367Y31513D01*
X102003D01*
X99229Y34287D01*
Y68127D01*
X99170D01*
Y69483D01*
X108419D01*
X108473Y69366D01*
G03X109382Y68783I909J417D01*
G01X116782D01*
G03X117783Y69783I0J1001D01*
G01Y79783D01*
G03X116782Y80784I-1001J0D01*
G01X109382D01*
G03X108473Y80201I0J-1001D01*
G01X108419Y80084D01*
X99170D01*
Y89168D01*
X108419D01*
X108473Y89051D01*
G03X109382Y88468I909J417D01*
G01X116782D01*
G03X117783Y89469I0J1001D01*
G01Y99469D01*
G03X116782Y100469I-1001J0D01*
G01X109382D01*
G03X108473Y99886I0J-1001D01*
G01X108419Y99769D01*
X99170D01*
Y122457D01*
X57891D01*
Y158233D01*
X90192Y190535D01*
G37*
G36*
G01X56650Y113369D02*
X78665D01*
Y99561D01*
G02X78013Y99250I-400J0D01*
G03X77897Y99336I-1057J-1308D01*
G02X77788Y99889I224J331D01*
G03X77955Y100443I-833J554D01*
G01Y103943D01*
G03X76954Y104944I-1001J0D01*
G01X73754D01*
G03X72754Y103943I0J-1001D01*
G01Y100443D01*
G03X72921Y99889I1001J0D01*
G02X72812Y99336I-333J-222D01*
G03X72074Y98019I942J-1393D01*
G01X72065Y97828D01*
X69598D01*
G03X68939Y97689I0J-1635D01*
G01X68813Y97633D01*
X68615Y97831D01*
X66346D01*
X66156Y97642D01*
G02X65473Y97924I-283J283D01*
G01Y98570D01*
G03X65469Y98682I-1635J-2D01*
G02X65632Y98893I200J14D01*
G03X67002Y100545I-311J1653D01*
G01Y104045D01*
G03X66263Y105438I-1682J0D01*
G02X66154Y105991I224J331D01*
G03X66321Y106545I-833J554D01*
G01Y110045D01*
G03X65320Y111046I-1001J0D01*
G01X62120D01*
G03X61435Y110775I0J-1001D01*
G02X60887I-274J291D01*
G03X60202Y111046I-685J-729D01*
G01X57002D01*
G03X56876Y111038I-1J-1001D01*
G01X56863Y111036D01*
X56650D01*
Y113369D01*
G37*
G36*
G01X204331Y233858D02*
X213780D01*
X216142Y231496D01*
Y205118D01*
X203543Y192520D01*
X89370D01*
X55906Y159055D01*
Y115748D01*
X49213D01*
Y164961D01*
X86220Y201969D01*
X196457D01*
X201969Y207480D01*
Y231496D01*
X204331Y233858D01*
G37*
G36*
G01X68071Y94665D02*
X69252D01*
X69449Y94469D01*
Y93878D01*
X69252Y93681D01*
X67087D01*
X66890Y93878D01*
Y95846D01*
X67087Y96043D01*
X67874D01*
X68071Y95846D01*
Y94665D01*
G37*
G36*
G01X70079Y120472D02*
X97185D01*
Y99769D01*
X94281D01*
Y89168D01*
X97185D01*
Y80084D01*
X94281D01*
Y69483D01*
X97185D01*
Y65138D01*
X86161D01*
Y72248D01*
X86172Y72279D01*
G03X86302Y73079I-2390J800D01*
G03X86172Y73878I-2520J0D01*
G01X86161Y73909D01*
Y86398D01*
X84980Y87579D01*
X72264D01*
X70472Y89370D01*
Y91713D01*
X70257D01*
X60236Y91713D01*
Y92893D01*
X62689D01*
X62689Y92894D01*
X63315D01*
G03X63346Y92893I35J787D01*
G01X64331D01*
G03X64362Y92894I-4J788D01*
G01X65087D01*
G03X65118Y92893I35J787D01*
G01X66102D01*
G03X66134Y92894I-4J788D01*
G01X66759D01*
X66760Y92893D01*
X66797D01*
X66844Y92865D01*
G03X67677Y92637I833J1407D01*
G03X68555Y92893I0J1635D01*
G01X69578D01*
X69579Y92894D01*
X80650D01*
Y101831D01*
X80652Y101845D01*
G03X80676Y102193I-2496J347D01*
G03X80652Y102541I-2521J1D01*
G01X80650Y102554D01*
Y115354D01*
X70079D01*
Y120472D01*
G37*
G36*
G01X61378Y87972D02*
X60197D01*
X60000Y88169D01*
Y88760D01*
X60197Y88957D01*
X62362D01*
X62559Y88760D01*
Y86791D01*
X62362Y86594D01*
X61575D01*
X61378Y86791D01*
Y87972D01*
G37*
G36*
G01Y94665D02*
X60197D01*
X60000Y94469D01*
Y93878D01*
X60197Y93681D01*
X62362D01*
X62559Y93878D01*
Y95846D01*
X62362Y96043D01*
X61575D01*
X61378Y95846D01*
Y94665D01*
G37*
G36*
G01X68071Y87972D02*
X69252D01*
X69449Y88169D01*
Y88760D01*
X69252Y88957D01*
X67087D01*
X66890Y88760D01*
Y86791D01*
X67087Y86594D01*
X67874D01*
X68071Y86791D01*
Y87972D01*
G37*
G36*
G01X68504Y120079D02*
X65748D01*
Y115354D01*
X68504D01*
X67717Y116142D01*
X68504Y116929D01*
X67717Y117717D01*
X68504Y118504D01*
X67717Y119291D01*
X68504Y120079D01*
G37*
G36*
G01X70079D02*
X72047D01*
Y115354D01*
X70079D01*
X69291Y116142D01*
X70079Y116929D01*
X69291Y117717D01*
X70079Y118504D01*
X69291Y119291D01*
X70079Y120079D01*
G37*
G36*
G01X97244Y66142D02*
Y33465D01*
X101181Y29528D01*
X138189D01*
X142126Y33465D01*
Y43307D01*
X144094Y45276D01*
X158268D01*
X159843Y43701D01*
Y26772D01*
X154331Y21260D01*
X90157D01*
X86220Y25197D01*
Y66142D01*
X97244D01*
G37*
G36*
G01X138583Y220866D02*
Y235039D01*
X122835Y250787D01*
Y312598D01*
X129134Y318898D01*
X153543D01*
Y311811D01*
X134646D01*
X130709Y307874D01*
Y257874D01*
X153150Y235433D01*
Y220866D01*
X138583D01*
G37*
G36*
G01X135468Y309826D02*
X146440D01*
Y304031D01*
G02X145912Y303652I-400J0D01*
G03X145276Y303757I-636J-1880D01*
G03X143844Y303146I0J-1985D01*
G02X143203Y303232I-289J277D01*
G03X142323Y303757I-880J-476D01*
G01X140552D01*
G03X139551Y302756I0J-1001D01*
G01Y301575D01*
G03X139826Y300886I1001J0D01*
G03X139551Y300197I726J-689D01*
G01Y299016D01*
G03X139826Y298327I1001J0D01*
G03X139551Y297638I726J-689D01*
G01Y296457D01*
G03X140552Y295456I1001J0D01*
G01X142323D01*
G03X143203Y295980I0J1000D01*
G02X143844Y296067I352J-191D01*
G03X145276Y295456I1432J1374D01*
G03X145912Y295561I0J1985D01*
G02X146440Y295181I128J-379D01*
G01Y293592D01*
G03X146007Y293153I960J-1381D01*
G02X145454Y293044I-331J224D01*
G03X144900Y293211I-554J-833D01*
G01X141400D01*
G03X140399Y292210I0J-1001D01*
G01Y289010D01*
G03X141400Y288009I1001J0D01*
G01X144900D01*
G03X145454Y288177I0J1001D01*
G02X146007Y288068I222J-333D01*
G03X146440Y287629I1393J942D01*
G01Y268194D01*
X147938Y266696D01*
X153519D01*
X154942Y268119D01*
X155074Y268045D01*
G03X155900Y267828I826J1465D01*
G01X159400D01*
G03X160150Y268005I0J1682D01*
G03X160900Y267828I750J1506D01*
G01X164400D01*
G03X165517Y268253I0J1682D01*
G02X165782I133J-150D01*
G03X166900Y267828I1117J1257D01*
G01X170400D01*
G03X171150Y268005I0J1682D01*
G03X171900Y267828I750J1506D01*
G01X175400D01*
G03X176793Y268568I0J1682D01*
G02X177346Y268677I331J-224D01*
G03X177900Y268509I554J833D01*
G01X181400D01*
G03X182400Y269510I0J1001D01*
G01Y272710D01*
G03X181400Y273711I-1001J0D01*
G01X177900D01*
G03X177346Y273544I0J-1001D01*
G02X176793Y273653I-222J333D01*
G03X175400Y274392I-1393J-942D01*
G01X171900D01*
G03X171150Y274216I0J-1682D01*
G03X170400Y274392I-750J-1506D01*
G01X170230D01*
X170181Y274522D01*
G03X169806Y275106I-1531J-572D01*
G01X169778Y275134D01*
G02X169919Y275476I141J141D01*
G01X178650D01*
G03X179806Y275954I0J1635D01*
G01X180841Y276990D01*
G03X181283Y277800I-1156J1156D01*
G01X181285D01*
G03X182344Y278175I0J1682D01*
G02X182995Y277865I252J-311D01*
G01Y261184D01*
X183054D01*
Y251934D01*
X188154Y246834D01*
X318076D01*
X320850Y244060D01*
Y168504D01*
X243307D01*
X241732Y170079D01*
Y239370D01*
X239764Y241339D01*
X179921D01*
X171654Y233071D01*
Y228257D01*
X171650Y228238D01*
G03X171546Y227165I5515J-1074D01*
G03X171650Y226093I5619J1D01*
G01X171654Y226073D01*
Y222835D01*
X169685Y220866D01*
X155135D01*
Y236255D01*
X132694Y258696D01*
Y307052D01*
X135468Y309826D01*
G37*
G36*
G01D02*
X144882D01*
Y305906D01*
X146457Y304331D01*
Y295276D01*
X144882Y293701D01*
Y277559D01*
X144488Y277165D01*
X132694D01*
Y307052D01*
X135468Y309826D01*
G37*
G36*
G01X185039Y264173D02*
X194488D01*
Y261024D01*
X198425Y257087D01*
X333071D01*
X343307Y246850D01*
Y218817D01*
G03X339747Y213386I2362J-5431D01*
G01Y136220D01*
G03X343307Y130790I5922J0D01*
G01Y43307D01*
X339370Y39370D01*
X330315D01*
X297654Y6709D01*
X230709D01*
G02X228757Y8661I0J1952D01*
G01Y11811D01*
G03X222835Y17733I-5922J0D01*
G01X162976D01*
X162205Y18504D01*
Y43701D01*
X163780Y45276D01*
X187402D01*
X189370Y43307D01*
Y29528D01*
X194488Y24409D01*
X288976D01*
X322835Y58268D01*
Y244882D01*
X318898Y248819D01*
X188976D01*
X185039Y252756D01*
Y264173D01*
G37*
G36*
G01X154331Y33071D02*
X142126D01*
Y43307D01*
X144094Y45276D01*
X152362D01*
X154331Y43307D01*
Y33071D01*
G37*
G36*
G01X152756Y131890D02*
X138189D01*
Y157087D01*
X145669Y164567D01*
X240945D01*
X250787Y154724D01*
Y118898D01*
X242520D01*
Y143701D01*
X233858Y152362D01*
X156299D01*
X152756Y148819D01*
Y131890D01*
G37*
G36*
G01X148425Y318898D02*
X167323D01*
Y313386D01*
X153878D01*
X153484Y312992D01*
Y297697D01*
X157874Y293307D01*
Y289370D01*
X158011Y289233D01*
Y288956D01*
X168287D01*
Y287776D01*
X165579D01*
X165578Y287776D01*
X164953D01*
G03X164921Y287776I-35J-787D01*
G01X163937D01*
G03X163906Y287776I4J-788D01*
G01X163181D01*
G03X163150Y287776I-35J-787D01*
G01X162165D01*
G03X162134Y287776I4J-788D01*
G01X161669D01*
X161621Y287804D01*
G03X160787Y288032I-834J-1406D01*
G03X159909Y287776I0J-1635D01*
G01X158689D01*
X158248Y287776D01*
X157874Y287402D01*
Y283071D01*
X153543Y278740D01*
Y269528D01*
X152697Y268681D01*
X148760D01*
X148425Y269016D01*
Y318898D01*
G37*
G36*
G01X169685D02*
X196004D01*
Y297801D01*
X193100D01*
Y287199D01*
X196004D01*
Y278116D01*
X193100D01*
Y267514D01*
X196004D01*
Y263169D01*
X184980D01*
Y270280D01*
X184991Y270311D01*
G03X185121Y271110I-2390J800D01*
G03X184991Y271910I-2520J0D01*
G01X184980Y271941D01*
Y284429D01*
X183799Y285610D01*
X172776D01*
X171594Y286791D01*
Y289154D01*
X171004Y289744D01*
X168299D01*
G03X168268Y289745I-35J-787D01*
G01X158799D01*
Y290924D01*
X159909D01*
G03X160787Y290669I878J1379D01*
G03X161621Y290897I0J1634D01*
G01X161669Y290925D01*
X162134D01*
G03X162165Y290924I35J787D01*
G01X163150D01*
G03X163181Y290925I-4J788D01*
G01X163906D01*
G03X163937Y290924I35J787D01*
G01X164921D01*
G03X164953Y290925I-4J788D01*
G01X165578D01*
X165579Y290924D01*
X165616D01*
X165663Y290896D01*
G03X166496Y290669I833J1407D01*
G03X167374Y290924I0J1635D01*
G01X168397D01*
X168398Y290925D01*
X179469D01*
Y299863D01*
X179470Y299877D01*
G03X179494Y300224I-2496J347D01*
G03X179470Y300572I-2521J1D01*
G01X179469Y300586D01*
Y313386D01*
X169685D01*
Y318898D01*
G37*
G36*
G01X160197Y286004D02*
X159016D01*
X158819Y286201D01*
Y286791D01*
X159016Y286988D01*
X161181D01*
X161378Y286791D01*
Y284823D01*
X161181Y284626D01*
X160394D01*
X160197Y284823D01*
Y286004D01*
G37*
G36*
G01X143276Y296506D02*
Y302706D01*
X143376Y302806D01*
X147176D01*
X147276Y302706D01*
Y296506D01*
X147176Y296406D01*
X143376D01*
X143276Y296506D01*
G37*
G36*
G01X155528Y311401D02*
X177483D01*
Y297592D01*
G02X176832Y297281I-400J0D01*
G03X176716Y297367I-1057J-1309D01*
G02X176607Y297920I224J331D01*
G03X176774Y298474I-833J554D01*
G01Y301974D01*
G03X175773Y302975I-1001J0D01*
G01X172573D01*
G03X171572Y301974I0J-1001D01*
G01Y298474D01*
G03X171740Y297920I1001J0D01*
G02X171631Y297367I-333J-222D01*
G03X170893Y296050I942J-1393D01*
G01X170884Y295859D01*
X168417D01*
G03X167757Y295720I0J-1635D01*
G01X167632Y295665D01*
X167433Y295863D01*
X165165D01*
X164975Y295673D01*
G02X164292Y295956I-283J283D01*
G01Y296602D01*
G03X164288Y296714I-1635J-2D01*
G02X164451Y296924I200J14D01*
G03X165821Y298577I-311J1653D01*
G01Y302077D01*
G03X165082Y303470I-1682J0D01*
G02X164973Y304023I224J331D01*
G03X165140Y304577I-833J554D01*
G01Y308077D01*
G03X164139Y309078I-1001J0D01*
G01X160939D01*
G03X160254Y308806I0J-1001D01*
G02X159706I-274J291D01*
G03X159021Y309078I-685J-729D01*
G01X155821D01*
G03X155694Y309070I-1J-1001D01*
G01X155682Y309068D01*
X155469D01*
Y309826D01*
X155528D01*
Y311401D01*
G37*
G36*
G01X160197Y292697D02*
X159016D01*
X158819Y292500D01*
Y291909D01*
X159016Y291713D01*
X161181D01*
X161378Y291909D01*
Y293878D01*
X161181Y294075D01*
X160394D01*
X160197Y293878D01*
Y292697D01*
G37*
G36*
G01X164173Y57874D02*
X162598Y59449D01*
Y70866D01*
X164567Y72835D01*
X187008D01*
X188976Y70866D01*
Y59055D01*
X187795Y57874D01*
X164173D01*
G37*
G36*
G01X183071Y150361D02*
X221266D01*
G02X221493Y149632I0J-400D01*
G03X216239Y139646I6863J-9986D01*
G03X228356Y127529I12117J0D01*
G03X239743Y135505I0J12117D01*
G02X240519Y135369I376J-137D01*
G01Y122080D01*
X240460D01*
Y105630D01*
G02X239944Y105247I-400J0D01*
G03X239370Y105331I-573J-1900D01*
G03X237938Y104721I0J-1985D01*
G02X237298Y104807I-289J277D01*
G03X236418Y105331I-880J-476D01*
G01X234646D01*
G03X233645Y104331I0J-1001D01*
G01Y103150D01*
G03X233920Y102461I1001J0D01*
G03X233645Y101772I726J-689D01*
G01Y100591D01*
G03X233920Y99902I1001J0D01*
G03X233645Y99213I726J-689D01*
G01Y98031D01*
G03X234646Y97031I1001J0D01*
G01X236418D01*
G03X237298Y97555I0J1000D01*
G02X237938Y97641I352J-191D01*
G03X239370Y97031I1432J1374D01*
G03X239944Y97115I0J1985D01*
G02X240460Y96733I116J-383D01*
G01Y95014D01*
G02X239868Y94663I-400J0D01*
G03X239388Y94786I-480J-878D01*
G01X235888D01*
G03X234887Y93785I0J-1001D01*
G01Y90585D01*
G03X235888Y89584I1001J0D01*
G01X239388D01*
G03X239868Y89707I0J1000D01*
G02X240460Y89356I192J-351D01*
G01Y68865D01*
X250032D01*
Y69209D01*
G02X250249Y69409I200J0D01*
G03X250388Y69403I141J1676D01*
G01X253888D01*
G03X254638Y69580I0J1682D01*
G03X255388Y69403I750J1506D01*
G01X264888D01*
G03X265638Y69580I0J1682D01*
G03X266388Y69403I750J1506D01*
G01X269888D01*
G03X271281Y70143I0J1682D01*
G02X271834Y70252I331J-224D01*
G03X272388Y70084I554J833D01*
G01X275888D01*
G03X276889Y71085I0J1001D01*
G01Y74285D01*
G03X275888Y75286I-1001J0D01*
G01X272388D01*
G03X271834Y75119I0J-1001D01*
G02X271281Y75228I-222J333D01*
G03X269888Y75967I-1393J-942D01*
G01X266388D01*
G03X265638Y75791I0J-1682D01*
G03X264888Y75967I-750J-1506D01*
G01X264718D01*
X264669Y76097D01*
G03X264294Y76681I-1531J-572D01*
G01X264266Y76709D01*
G02X264407Y77050I141J141D01*
G01X273138D01*
G03X274294Y77529I0J1635D01*
G01X275329Y78565D01*
G03X275771Y79375I-1156J1156D01*
G01X275773D01*
G03X276832Y79750I0J1682D01*
G02X277483Y79439I252J-311D01*
G01Y62759D01*
X277543D01*
Y35861D01*
X277114Y35433D01*
X222047D01*
Y74016D01*
X183071Y112992D01*
Y150361D01*
G37*
G36*
G01X166890Y286004D02*
X168071D01*
X168268Y286201D01*
Y286791D01*
X168071Y286988D01*
X165906D01*
X165709Y286791D01*
Y284823D01*
X165906Y284626D01*
X166693D01*
X166890Y284823D01*
Y286004D01*
G37*
G36*
G01X168110Y318110D02*
X165354D01*
Y313386D01*
X168110D01*
X167323Y314173D01*
X168110Y314961D01*
X167323Y315748D01*
X168110Y316535D01*
X167323Y317323D01*
X168110Y318110D01*
G37*
G36*
G01X166890Y292697D02*
X168071D01*
X168268Y292500D01*
Y291909D01*
X168071Y291713D01*
X165906D01*
X165709Y291909D01*
Y293878D01*
X165906Y294075D01*
X166693D01*
X166890Y293878D01*
Y292697D01*
G37*
G36*
G01X169685Y318110D02*
X171654D01*
Y313386D01*
X169685D01*
X168898Y314173D01*
X169685Y314961D01*
X168898Y315748D01*
X169685Y316535D01*
X168898Y317323D01*
X169685Y318110D01*
G37*
G36*
G01X288976Y31496D02*
X284646Y27165D01*
X195669D01*
X192520Y30315D01*
Y43307D01*
X194488Y45276D01*
X198031D01*
X200000Y43307D01*
Y35039D01*
X201969Y33071D01*
X277559D01*
X279528Y35039D01*
Y68898D01*
X288976D01*
Y31496D01*
G37*
G36*
G01X193307Y57874D02*
X192126Y59055D01*
Y71654D01*
X192913Y72441D01*
X199606D01*
X200394Y71654D01*
Y58661D01*
X199606Y57874D01*
X193307D01*
G37*
G36*
G01X237370Y98081D02*
Y104281D01*
X237470Y104381D01*
X241270D01*
X241370Y104281D01*
Y98081D01*
X241270Y97981D01*
X237470D01*
X237370Y98081D01*
G37*
G36*
G01X230315Y88189D02*
Y107874D01*
X239370D01*
Y105906D01*
X240945Y104331D01*
Y98031D01*
X239370Y96457D01*
Y88189D01*
X230315D01*
G37*
G36*
G01X242461Y120079D02*
X260236D01*
Y114567D01*
X248760D01*
X247972Y113780D01*
Y99272D01*
X252362Y94882D01*
Y90945D01*
X252499Y90808D01*
Y90531D01*
X262776D01*
Y89351D01*
X260067D01*
X260067Y89350D01*
X259441D01*
G03X259409Y89351I-35J-787D01*
G01X258425D01*
G03X258394Y89350I4J-788D01*
G01X257669D01*
G03X257638Y89351I-35J-787D01*
G01X256654D01*
G03X256622Y89350I4J-788D01*
G01X255996D01*
X255996Y89351D01*
X255737D01*
X255708Y89360D01*
G03X254843I-432J-1388D01*
G01X254814Y89351D01*
X253178D01*
X253177Y89350D01*
X252736D01*
X252362Y88976D01*
Y84646D01*
X248031Y80315D01*
Y70866D01*
X242461D01*
Y120079D01*
G37*
G36*
G01X262237Y112582D02*
X271972D01*
Y99167D01*
G02X271320Y98856I-400J0D01*
G03X271204Y98942I-1057J-1308D01*
G02X271095Y99495I224J331D01*
G03X271262Y100049I-833J554D01*
G01Y103549D01*
G03X270261Y104550I-1001J0D01*
G01X267061D01*
G03X266061Y103549I0J-1001D01*
G01Y100049D01*
G03X266228Y99495I1001J0D01*
G02X266119Y98942I-333J-222D01*
G03X265381Y97625I942J-1393D01*
G01X265372Y97434D01*
X262906D01*
G03X262246Y97295I0J-1635D01*
G01X262120Y97239D01*
X261922Y97438D01*
X259653D01*
X259463Y97248D01*
G02X258780Y97531I-283J283D01*
G01Y98177D01*
G03X258749Y98494I-1634J0D01*
G02X258893Y98726I196J39D01*
G03X260132Y100348I-443J1623D01*
G01Y103848D01*
G03X259393Y105241I-1682J0D01*
G02X259284Y105794I224J331D01*
G03X259451Y106348I-833J554D01*
G01Y109848D01*
G03X258450Y110849I-1001J0D01*
G01X255250D01*
G03X254565Y110578I0J-1001D01*
G02X254017I-274J291D01*
G03X253332Y110849I-685J-729D01*
G01X249973D01*
Y112566D01*
X262237D01*
Y112582D01*
G37*
G36*
G01X265138Y106685D02*
X250138D01*
Y111685D01*
X270138D01*
X271638Y110185D01*
Y100685D01*
X271138Y100185D01*
X266638D01*
X265638Y101185D01*
Y106185D01*
X265138Y106685D01*
G37*
G36*
G01X254685Y87579D02*
X253504D01*
X253307Y87776D01*
Y88366D01*
X253504Y88563D01*
X255669D01*
X255866Y88366D01*
Y86398D01*
X255669Y86201D01*
X254882D01*
X254685Y86398D01*
Y87579D01*
G37*
G36*
G01Y94272D02*
X253504D01*
X253307Y94075D01*
Y93484D01*
X253504Y93287D01*
X255669D01*
X255866Y93484D01*
Y95453D01*
X255669Y95650D01*
X254882D01*
X254685Y95453D01*
Y94272D01*
G37*
G36*
G01X261378D02*
X262559D01*
X262756Y94075D01*
Y93484D01*
X262559Y93287D01*
X260394D01*
X260197Y93484D01*
Y95453D01*
X260394Y95650D01*
X261181D01*
X261378Y95453D01*
Y94272D01*
G37*
G36*
G01Y87579D02*
X262559D01*
X262756Y87776D01*
Y88366D01*
X262559Y88563D01*
X260394D01*
X260197Y88366D01*
Y86398D01*
X260394Y86201D01*
X261181D01*
X261378Y86398D01*
Y87579D01*
G37*
G36*
G01X262598Y120079D02*
X290492D01*
Y99376D01*
X287589D01*
Y88774D01*
X290492D01*
Y79691D01*
X287589D01*
Y69089D01*
X290492D01*
Y64744D01*
X279469D01*
Y71854D01*
X279479Y71885D01*
G03X279609Y72685I-2390J800D01*
G03X279479Y73485I-2520J0D01*
G01X279469Y73516D01*
Y86004D01*
X278287Y87185D01*
X267264D01*
X266083Y88366D01*
Y90728D01*
X265492Y91319D01*
X262787D01*
G03X262756Y91320I-35J-787D01*
G01X253287D01*
Y92499D01*
X255996D01*
X255996Y92500D01*
X256622D01*
G03X256654Y92499I35J787D01*
G01X257638D01*
G03X257669Y92500I-4J788D01*
G01X258394D01*
G03X258425Y92499I35J787D01*
G01X259409D01*
G03X259441Y92500I-4J788D01*
G01X260067D01*
X260067Y92499D01*
X260104D01*
X260152Y92471D01*
G03X260984Y92243I833J1407D01*
G03X261862Y92499I0J1635D01*
G01X262885D01*
X262886Y92500D01*
X273957D01*
Y101438D01*
X273959Y101452D01*
G03X273983Y101799I-2496J347D01*
G03X273959Y102147I-2521J1D01*
G01X273957Y102161D01*
Y114567D01*
X262598D01*
Y120079D01*
G37*
G36*
G01X245134Y164173D02*
X317323D01*
Y65354D01*
X315354Y63386D01*
X292477D01*
Y69089D01*
X301726D01*
X301780Y68972D01*
G03X302689Y68389I909J417D01*
G01X310089D01*
G03X311090Y69390I0J1001D01*
G01Y79390D01*
G03X310089Y80391I-1001J0D01*
G01X302689D01*
G03X301780Y79807I0J-1001D01*
G01X301726Y79691D01*
X292477D01*
Y88774D01*
X301726D01*
X301780Y88657D01*
G03X302689Y88074I909J417D01*
G01X310089D01*
G03X311090Y89075I0J1001D01*
G01Y99075D01*
G03X310089Y100076I-1001J0D01*
G01X302689D01*
G03X301780Y99492I0J-1001D01*
G01X301726Y99376D01*
X292477D01*
Y122064D01*
X262237D01*
Y122080D01*
X252788D01*
Y155553D01*
X244851Y163491D01*
G02X245134Y164173I283J283D01*
G37*
G36*
G01X261024Y119685D02*
X258268D01*
Y114961D01*
X261024D01*
X260236Y115748D01*
X261024Y116535D01*
X260236Y117323D01*
X261024Y118110D01*
X260236Y118898D01*
X261024Y119685D01*
G37*
G36*
G01X262598D02*
X264567D01*
Y114961D01*
X262598D01*
X261811Y115748D01*
X262598Y116535D01*
X261811Y117323D01*
X262598Y118110D01*
X261811Y118898D01*
X262598Y119685D01*
G37*
%LPC*%
G75*
G36*
G01X202958Y306896D02*
Y313576D01*
G02X203959Y314577I1001J0D01*
G01X212419D01*
G02X213420Y313576I0J-1001D01*
G01Y306896D01*
G02X212419Y305895I-1001J0D01*
G01X203959D01*
G02X202958Y306896I0J1001D01*
G37*
G36*
G01X104139Y109258D02*
Y115939D01*
G02X105140Y116939I1001J0D01*
G01X113600D01*
G02X114601Y115939I0J-1001D01*
G01Y109258D01*
G02X113600Y108257I-1001J0D01*
G01X105140D01*
G02X104139Y109258I0J1001D01*
G37*
G36*
G01X129802Y55331D02*
Y65961D01*
G02X131484Y67643I1682J0D01*
G01X136209D01*
G02X137891Y65961I0J-1682D01*
G01Y55331D01*
G02X137766Y54696I-1682J0D01*
G02X139604Y51000I-2798J-3696D01*
G02X137766Y47304I-4635J0D01*
G02X137891Y46669I-1558J-635D01*
G01Y36039D01*
G02X136209Y34357I-1682J0D01*
G01X131484D01*
G02X129802Y36039I0J1682D01*
G01Y46669D01*
G02X130749Y48182I1682J0D01*
G03X130923Y48737I-175J360D01*
G02X130333Y51000I4045J2263D01*
G02X130923Y53263I4635J0D01*
G03X130749Y53818I-349J195D01*
G02X129802Y55331I735J1513D01*
G37*
G36*
G01X140728Y223228D02*
Y231102D01*
G02X141728Y232103I1001J0D01*
G01X149602D01*
G02X150603Y231102I0J-1001D01*
G01Y223228D01*
G02X149602Y222228I-1001J0D01*
G01X141728D01*
G02X140728Y223228I0J1001D01*
G37*
G36*
G01Y135709D02*
Y143583D01*
G02X141728Y144583I1001J0D01*
G01X149602D01*
G02X150603Y143583I0J-1001D01*
G01Y135709D01*
G02X149602Y134708I-1001J0D01*
G01X141728D01*
G02X140728Y135709I0J1001D01*
G37*
G36*
G01X297446Y108471D02*
Y115151D01*
G02X298447Y116152I1001J0D01*
G01X306907D01*
G02X307908Y115151I0J-1001D01*
G01Y108471D01*
G02X306907Y107470I-1001J0D01*
G01X298447D01*
G02X297446Y108471I0J1001D01*
G37*
G54D37*
X192915Y227165D03*
X208665D03*
X161415D03*
X192915Y139646D03*
G54D38*
X208665D03*
%LPD*%
G75*
G54D10*
X20000Y20000D03*
X15748Y267717D03*
X35354Y334331D03*
X324331D03*
X335000Y20000D03*
G54D20*
X70866Y117717D03*
X66929D03*
X170472Y315748D03*
X166535D03*
X263386Y117323D03*
X259449D03*
G54D11*
X2953Y5906D03*
X5906D03*
Y2953D03*
X2953Y25591D03*
Y17717D03*
Y21654D03*
Y33465D03*
Y29528D03*
Y9843D03*
Y13780D03*
X5906D03*
Y21654D03*
Y17717D03*
Y9843D03*
X7874Y43307D03*
Y55118D03*
X2953Y57087D03*
Y61024D03*
Y49213D03*
Y41339D03*
Y45276D03*
Y37402D03*
Y53150D03*
X7874Y78740D03*
Y66929D03*
X2953Y64961D03*
Y80709D03*
Y84646D03*
Y72835D03*
Y76772D03*
Y68898D03*
X7874Y102362D03*
Y90551D03*
X2953Y104331D03*
Y96457D03*
Y100394D03*
Y112205D03*
Y108268D03*
Y88583D03*
Y92520D03*
X7874Y114173D03*
X2953Y127953D03*
Y120079D03*
Y124016D03*
Y116142D03*
Y131890D03*
X5906Y133858D03*
X2953Y238189D03*
Y234252D03*
Y242126D03*
X5906Y220472D03*
X2953Y224409D03*
Y228346D03*
X8303Y260634D03*
X5941Y267720D03*
X2953Y246063D03*
Y253937D03*
Y250000D03*
Y261811D03*
X7874Y254921D03*
X4062Y257874D03*
X7874Y291339D03*
X8303Y274020D03*
X2953Y277559D03*
Y273622D03*
Y285433D03*
Y281496D03*
Y293307D03*
Y289370D03*
X6890Y279528D03*
X7874Y314961D03*
Y303150D03*
X2953Y312992D03*
Y316929D03*
Y301181D03*
Y297244D03*
Y305118D03*
Y309055D03*
Y344488D03*
Y336614D03*
Y340551D03*
Y328740D03*
Y332677D03*
Y320866D03*
Y324803D03*
X5906Y340551D03*
Y344488D03*
Y332677D03*
Y328740D03*
Y336614D03*
X2953Y348425D03*
X5906Y351378D03*
Y348425D03*
X13780Y2953D03*
X9843D03*
X21654D03*
X17717D03*
X29528D03*
X25591D03*
X33465D03*
X9843Y5906D03*
X13780D03*
X17717D03*
X21654D03*
X31496Y31496D03*
X29134Y20079D03*
X27165Y12598D03*
X27559Y26378D03*
X20079Y29134D03*
X10236Y20079D03*
X12598Y26378D03*
Y12992D03*
X20079Y10236D03*
X9843Y9843D03*
X19685Y43307D03*
X31496D03*
X19685Y55118D03*
X31496D03*
X19685Y78740D03*
Y66929D03*
X31496D03*
Y78740D03*
X19685Y102362D03*
Y90551D03*
X31496D03*
Y102362D03*
X19685Y114173D03*
Y137795D03*
Y125984D03*
X31496Y137795D03*
Y125984D03*
Y114173D03*
X9843Y136811D03*
X19685Y161417D03*
Y149606D03*
X31496Y161417D03*
Y149606D03*
X10827D03*
Y141732D03*
Y145669D03*
Y157480D03*
Y161417D03*
Y153543D03*
X19685Y173228D03*
X31496D03*
Y185039D03*
X19685D03*
X10827D03*
Y181102D03*
Y188976D03*
Y173228D03*
Y165354D03*
Y169291D03*
Y177165D03*
X31496Y196850D03*
Y208661D03*
X19685Y196850D03*
Y208661D03*
X10827Y192913D03*
Y200787D03*
Y196850D03*
Y208661D03*
Y204724D03*
Y212598D03*
Y216535D03*
X22870Y260240D03*
X24839Y267720D03*
X15783Y257878D03*
X27559Y257874D03*
X24606Y254921D03*
X19685Y291339D03*
X31496D03*
X23264Y274020D03*
X15783Y276776D03*
X24606Y279528D03*
X27559Y276575D03*
X19685Y303150D03*
Y314961D03*
X31496D03*
Y303150D03*
X35433Y343701D03*
X25591Y334646D03*
X27953Y327559D03*
X35433Y324803D03*
X27953Y340945D03*
X9843Y340551D03*
Y344488D03*
X13780Y340551D03*
Y344488D03*
X21654D03*
Y340551D03*
X17717Y344488D03*
Y340551D03*
X9843Y332677D03*
Y336614D03*
X17717Y332677D03*
X13780D03*
X17717Y336614D03*
X13780D03*
X21654D03*
Y332677D03*
X25591Y344488D03*
X21654Y351378D03*
X29528D03*
X25591D03*
X33465D03*
X13780D03*
X9843D03*
X17717D03*
X9843Y348425D03*
X13780D03*
X21654D03*
X17717D03*
X25591D03*
X29528D03*
X33465D03*
X43307Y7874D03*
X55118D03*
X53150Y2953D03*
X57087D03*
X45276D03*
X49213D03*
X37402D03*
X41339D03*
X61024D03*
X43307Y31496D03*
Y19685D03*
X55118D03*
Y31496D03*
X43307Y55118D03*
Y43307D03*
X55118D03*
Y55118D03*
X40098Y91122D03*
Y95846D03*
Y99783D03*
Y103720D03*
Y108445D03*
X43307Y137795D03*
Y161417D03*
Y149606D03*
Y173228D03*
Y185039D03*
X55118D03*
X43307Y196850D03*
Y208661D03*
X55118D03*
Y196850D03*
X43307Y291339D03*
X55118D03*
X43307Y314961D03*
Y303150D03*
X55118D03*
Y314961D03*
Y326772D03*
Y338583D03*
X44488Y334646D03*
X42520Y327165D03*
X42913Y340945D03*
X57087Y351378D03*
X61024D03*
X49213D03*
X45276D03*
X41339D03*
X37402D03*
X53150D03*
X37402Y348425D03*
X80709Y2953D03*
X84646D03*
X72835D03*
X76772D03*
X64961D03*
X68898D03*
X66929Y31496D03*
Y19685D03*
X78740Y31496D03*
X66929Y55118D03*
Y43307D03*
X78740D03*
Y55118D03*
X80831Y68862D03*
X75138Y106476D03*
Y109626D03*
X71594D03*
X67657D03*
X78740Y137795D03*
X66929D03*
Y149606D03*
X78740D03*
Y161417D03*
X66929Y208661D03*
X78740D03*
X66929Y196850D03*
X78740Y267717D03*
X66929Y279528D03*
Y291339D03*
X78740D03*
Y279528D03*
X66929Y303150D03*
Y314961D03*
X78740Y303150D03*
Y314961D03*
X66929Y326772D03*
X78740D03*
Y338583D03*
X66929D03*
X84646Y351378D03*
X80709D03*
X76772D03*
X64961D03*
X72835D03*
X68898D03*
X88583Y2953D03*
X108268D03*
X112205D03*
X100394D03*
X104331D03*
X92520D03*
X96457D03*
X97244Y14961D03*
X102362Y55118D03*
Y43307D03*
X112933Y67500D03*
X109390D03*
X112933Y82461D03*
X109390D03*
X112933Y87579D03*
X109390D03*
X109783Y101752D03*
X102362Y137795D03*
X90551D03*
Y161417D03*
X102362D03*
Y149606D03*
X90551D03*
Y173228D03*
X102362D03*
X90551Y208661D03*
X102362D03*
Y267717D03*
X90551D03*
Y291339D03*
X102362D03*
Y279528D03*
X90551D03*
Y303150D03*
Y314961D03*
X102362Y303150D03*
Y314961D03*
X90551Y326772D03*
Y338583D03*
X102362Y326772D03*
Y338583D03*
X92520Y351378D03*
X112205D03*
X100394D03*
X96457D03*
X108268D03*
X104331D03*
X88583D03*
X116142Y2953D03*
X135827D03*
X127953D03*
X131890D03*
X120079D03*
X124016D03*
X138780Y7874D03*
X114567Y9449D03*
Y14961D03*
X114173Y55118D03*
Y43307D03*
X125984Y55118D03*
Y43307D03*
X116476Y67500D03*
Y82461D03*
X125984Y78740D03*
X137795D03*
X125984Y66929D03*
X116476Y87579D03*
X113327Y101752D03*
X116870D03*
X125984Y102362D03*
X137795D03*
Y90551D03*
X125984D03*
Y114173D03*
X137795D03*
X131890Y133858D03*
X125984Y131496D03*
X120079Y133858D03*
X131890Y145669D03*
X134252Y139764D03*
X120079Y145669D03*
X125984Y148031D03*
X117717Y139764D03*
X131890Y183071D03*
X134252Y177165D03*
X131890Y171260D03*
X120079Y183071D03*
X125984Y185433D03*
Y168898D03*
X120079Y171260D03*
X117717Y177165D03*
X114173Y208661D03*
X125984D03*
X137795D03*
X117717Y227165D03*
X120079Y221260D03*
X125984Y218898D03*
X131890Y221260D03*
X134252Y227165D03*
X131890Y233071D03*
X125984Y235433D03*
X120079Y233071D03*
X114173Y267717D03*
Y291339D03*
Y279528D03*
Y303150D03*
Y314961D03*
Y326772D03*
Y338583D03*
X127953Y351378D03*
X135827D03*
X131890D03*
X120079D03*
X116142D03*
X124016D03*
X138780Y348425D03*
X139764Y12795D03*
X143701Y13780D03*
X163386D03*
X155512D03*
X159449D03*
X147638D03*
X151575D03*
X146063Y55512D03*
X151181D03*
Y50394D03*
X146063D03*
X149606Y78740D03*
X146063Y68898D03*
X151181D03*
X140945D03*
X164173Y68504D03*
Y65354D03*
X149606Y102362D03*
Y90551D03*
Y208661D03*
X161417D03*
X138917Y289154D03*
Y306476D03*
Y301752D03*
Y297815D03*
Y293878D03*
X139764Y342520D03*
X163386Y339567D03*
X155512D03*
X151575D03*
X147638D03*
X143701D03*
X159449D03*
X167323Y13780D03*
X171260D03*
X183071D03*
X187008D03*
X175197D03*
X179134D03*
X186220Y71260D03*
Y68504D03*
Y65354D03*
X167323Y71260D03*
X176772D03*
X173622D03*
X170472D03*
X183071D03*
X179921D03*
X167323Y68504D03*
X176772D03*
X173622D03*
X170472D03*
X183071D03*
X179921D03*
Y65354D03*
X183071D03*
X170472D03*
X173622D03*
X176772D03*
X167323D03*
X185039Y125984D03*
X173228Y208661D03*
X185039D03*
X179650Y266894D03*
X173957Y304508D03*
Y307657D03*
X170413D03*
X166476D03*
X187008Y339567D03*
X183071D03*
X171260D03*
X167323D03*
X179134D03*
X175197D03*
X190945Y13780D03*
X194882D03*
X198819D03*
X210630D03*
X214567D03*
X202756D03*
X206693D03*
X196063Y32677D03*
X198819Y65748D03*
X193701D03*
X196207Y65770D03*
X198819Y68504D03*
X196207Y68526D03*
X193701Y68504D03*
X198819Y71260D03*
X196207Y71282D03*
X193701Y71260D03*
X208661Y102362D03*
X196850Y125984D03*
X208661D03*
Y114173D03*
X196850D03*
Y208661D03*
X208209Y265531D03*
X211752D03*
X215295D03*
X208209Y280492D03*
X211752D03*
X215295D03*
X208209Y285610D03*
X211752D03*
X215295D03*
X215689Y299783D03*
X212146D03*
X208602D03*
X198819Y339567D03*
X206693D03*
X202756D03*
X214567D03*
X210630D03*
X190945D03*
X194882D03*
X226378Y2953D03*
X238189D03*
X242126D03*
X230315D03*
X234252D03*
X224409Y8858D03*
X218504Y13780D03*
X222441D03*
X232283Y55118D03*
Y43307D03*
Y78740D03*
Y66929D03*
X233012Y92303D03*
Y97028D03*
Y100965D03*
Y104902D03*
X234193Y109626D03*
X220472Y102362D03*
Y90551D03*
X237402Y117717D03*
Y113780D03*
X234252Y117717D03*
Y113780D03*
X220472Y125984D03*
Y114173D03*
X234252Y133858D03*
X228346Y131496D03*
X222441Y133858D03*
Y145669D03*
X228346Y148031D03*
X234252Y145669D03*
X236614Y139764D03*
X220079D03*
X222441Y183071D03*
X228346Y185433D03*
X234252Y183071D03*
X236614Y177165D03*
X234252Y171260D03*
X228346Y168898D03*
X222441Y171260D03*
X220079Y177165D03*
X222441Y233071D03*
X228346Y235433D03*
X234252Y233071D03*
X236614Y227165D03*
X234252Y221260D03*
X228346Y218898D03*
X222441Y221260D03*
X220079Y227165D03*
X232283Y267717D03*
Y279528D03*
Y291339D03*
Y314961D03*
Y303150D03*
Y338583D03*
Y326772D03*
X222441Y339567D03*
X218504D03*
X224409Y343504D03*
X234252Y351378D03*
X242126D03*
X238189D03*
X226378D03*
X230315D03*
X224409Y348425D03*
X246063Y2953D03*
X250000D03*
X253937D03*
X265748D03*
X257874D03*
X261811D03*
X244094Y55118D03*
X255906D03*
X267717D03*
Y43307D03*
X255906D03*
X244094D03*
X260965Y109232D03*
X264902D03*
X255906Y125984D03*
Y137795D03*
X267717D03*
Y125984D03*
X255906Y149606D03*
X267717D03*
X244094Y267717D03*
X255906D03*
X267717D03*
X244094Y279528D03*
Y291339D03*
X255906Y279528D03*
Y291339D03*
X267717Y279528D03*
Y291339D03*
X244094Y314961D03*
Y303150D03*
X255906Y314961D03*
Y303150D03*
X267717Y314961D03*
Y303150D03*
X244094Y338583D03*
Y326772D03*
X255906Y338583D03*
Y326772D03*
X267717Y338583D03*
Y326772D03*
X261811Y351378D03*
X257874D03*
X253937D03*
X250000D03*
X246063D03*
X265748D03*
X273622Y2953D03*
X277559D03*
X269685D03*
X281496D03*
X293307D03*
X285433D03*
X289370D03*
X274138Y68469D03*
X268445Y109232D03*
Y106083D03*
X291339Y137795D03*
X279528D03*
Y125984D03*
X291339D03*
X279528Y149606D03*
X291339D03*
X279528Y185039D03*
X291339D03*
X279528Y208661D03*
X291339D03*
X279528Y196850D03*
X291339D03*
X279528Y232283D03*
X291339D03*
X279528Y220472D03*
X291339D03*
X279528Y267717D03*
X291339D03*
X279528Y279528D03*
Y291339D03*
X291339Y279528D03*
Y291339D03*
X279528Y314961D03*
Y303150D03*
X291339Y314961D03*
Y303150D03*
X279528Y338583D03*
Y326772D03*
X291339Y338583D03*
Y326772D03*
X269685Y351378D03*
X293307D03*
X289370D03*
X277559D03*
X273622D03*
X285433D03*
X281496D03*
X301181Y2953D03*
X305118D03*
X297244D03*
X309055D03*
X312992D03*
X316929D03*
X309783Y87185D03*
X306240D03*
X302697D03*
X309783Y82067D03*
X306240D03*
X302697D03*
X309783Y67106D03*
X306240D03*
X302697D03*
X303091Y101358D03*
X306634D03*
X310177D03*
X303150Y137795D03*
Y125984D03*
Y149606D03*
Y185039D03*
Y208661D03*
Y196850D03*
Y232283D03*
Y220472D03*
Y267717D03*
X314961D03*
X303150Y291339D03*
Y279528D03*
X314961Y291339D03*
Y279528D03*
X303150Y303150D03*
Y314961D03*
X314961Y303150D03*
Y314961D03*
X316929Y327559D03*
Y340945D03*
X314567Y334646D03*
X305118Y351378D03*
X312992D03*
X309055D03*
X316929D03*
X297244D03*
X301181D03*
X328740Y2953D03*
X332677D03*
X320866D03*
X324803D03*
X336614D03*
X340551D03*
X344488D03*
Y5906D03*
X340551D03*
X332677D03*
X335433Y10236D03*
X327953Y12992D03*
Y26378D03*
X325591Y20079D03*
X335433Y29134D03*
X342913Y26378D03*
X342520Y12598D03*
X344488Y20079D03*
Y9843D03*
X343504Y135827D03*
Y143701D03*
Y159449D03*
Y163386D03*
Y151575D03*
Y155512D03*
Y147638D03*
Y139764D03*
Y183071D03*
Y175197D03*
Y179134D03*
Y187008D03*
Y167323D03*
Y171260D03*
Y206693D03*
Y198819D03*
Y202756D03*
Y194882D03*
Y210630D03*
Y190945D03*
X345472Y214567D03*
X326772Y267717D03*
X338583D03*
X326772Y291339D03*
Y279528D03*
X338583Y291339D03*
Y279528D03*
X326772Y303150D03*
Y314961D03*
X338583Y303150D03*
Y314961D03*
X324409Y324803D03*
Y343701D03*
X331890Y340945D03*
X331496Y327165D03*
X333465Y334646D03*
X344488Y336614D03*
Y332677D03*
Y340551D03*
X340551Y336614D03*
Y332677D03*
Y340551D03*
Y344488D03*
X344488D03*
X336614D03*
X340551Y351378D03*
X344488Y348425D03*
Y351378D03*
X332677D03*
X328740D03*
X324803D03*
X320866D03*
X336614D03*
X332677Y348425D03*
X328740D03*
X336614D03*
X340551D03*
X324803D03*
X348425Y2953D03*
X351575Y5906D03*
X348425D03*
X351575Y9843D03*
Y17717D03*
Y25591D03*
Y21654D03*
Y33465D03*
Y29528D03*
Y13780D03*
X348425Y9843D03*
Y13780D03*
Y17717D03*
Y21654D03*
X351575Y41339D03*
Y37402D03*
Y57087D03*
Y61024D03*
Y49213D03*
Y45276D03*
Y53150D03*
Y80709D03*
Y64961D03*
Y72835D03*
Y68898D03*
Y76772D03*
Y84646D03*
Y92520D03*
Y88583D03*
Y108268D03*
Y112205D03*
Y100394D03*
Y96457D03*
Y104331D03*
Y131890D03*
Y116142D03*
Y124016D03*
Y120079D03*
Y127953D03*
X347441Y133858D03*
X351575Y222441D03*
Y218504D03*
Y238189D03*
Y242126D03*
Y230315D03*
Y226378D03*
Y234252D03*
X349409Y216535D03*
X351575Y261811D03*
Y246063D03*
Y253937D03*
Y250000D03*
Y257874D03*
Y265748D03*
Y269685D03*
Y277559D03*
Y285433D03*
Y281496D03*
Y293307D03*
Y289370D03*
Y273622D03*
Y301181D03*
Y297244D03*
Y316929D03*
Y309055D03*
Y305118D03*
Y312992D03*
Y320866D03*
Y340551D03*
Y324803D03*
Y332677D03*
Y328740D03*
Y336614D03*
Y344488D03*
X348425D03*
Y336614D03*
Y332677D03*
Y340551D03*
X351575Y348425D03*
X348425D03*
Y351378D03*
G54D30*
G01X75441Y19142D02*
Y14961D01*
G01X80831Y73079D02*
Y68862D01*
G01X179650Y271110D02*
Y266894D01*
G01X274138Y72685D02*
Y68469D01*
G54D12*
X52831Y73079D03*
X58831D03*
X50331Y92579D03*
X44331D03*
X86370Y14961D03*
X69441D03*
X75441D03*
X86370Y9449D03*
X75441D03*
X69441D03*
X63831Y73079D03*
X69831D03*
X74831D03*
X80831D03*
X104087Y14961D03*
X110087D03*
X92370D03*
X110087Y9449D03*
X104087D03*
X92370D03*
X149150Y290610D03*
X143150D03*
X151650Y271110D03*
X157650D03*
X162650D03*
X168650D03*
X173650D03*
X179650D03*
X237638Y92185D03*
X246138Y72685D03*
X252138D03*
X257138D03*
X263138D03*
X243638Y92185D03*
X268138Y72685D03*
X274138D03*
G54D21*
X113082Y74783D03*
X90382D03*
X113082Y94469D03*
X90382D03*
X189201Y272815D03*
Y292500D03*
X211901Y272815D03*
Y292500D03*
X283689Y74390D03*
Y94075D03*
X306389Y74390D03*
Y94075D03*
G54D31*
G01X61969Y88366D02*
Y84717D01*
X58831Y81579D01*
Y73079D01*
G01X61969Y95941D02*
X58425Y99484D01*
Y102118D01*
X58602Y102295D01*
G01X65610Y87776D02*
Y82799D01*
X69331Y79079D01*
X79831D01*
X80866Y80114D01*
Y83201D01*
G01X67677Y86624D02*
X71101Y83201D01*
X75748D01*
G01X63839Y87776D02*
Y79071D01*
X65831Y77079D01*
X68671D01*
X69831Y75919D01*
Y73079D01*
G01X67677Y94272D02*
X69598Y96193D01*
X75354D01*
G01X68831Y107079D02*
Y99079D01*
X67921Y98169D01*
X66921D01*
G01D02*
X65610Y96858D01*
Y94862D01*
G01X63839D02*
Y98570D01*
X63543Y98866D01*
Y101752D01*
G01X63720Y102295D02*
Y101929D01*
X63543Y101752D01*
G01X61969Y94272D02*
Y95941D01*
G01X67677Y88366D02*
Y86624D01*
G01X162657Y285807D02*
Y277102D01*
X164650Y275110D01*
X167490D01*
X168650Y273950D01*
Y271110D01*
G01X160787Y286398D02*
Y282748D01*
X157650Y279610D01*
Y271110D01*
G01X160787Y292303D02*
Y294350D01*
X159882Y295255D01*
X159109D01*
X157421Y296943D01*
Y300327D01*
G01X162539D02*
X162344Y300132D01*
G01X162657Y292894D02*
Y296602D01*
X162344Y296915D01*
Y300132D01*
G01X164429Y285807D02*
Y280831D01*
X168150Y277110D01*
X178650D01*
X179685Y278146D01*
Y281232D01*
G01X166496Y286398D02*
Y284656D01*
G01D02*
X169920Y281232D01*
X174567D01*
G01X164429Y292894D02*
Y294890D01*
X165740Y296201D01*
G01D02*
X166740D01*
X167650Y297110D01*
Y305110D01*
G01X166496Y292303D02*
X168417Y294224D01*
X174173D01*
G01X255276Y87972D02*
Y84323D01*
X252138Y81185D01*
Y72685D01*
G01X257146Y87382D02*
Y78677D01*
X259138Y76685D01*
X261978D01*
X263138Y75525D01*
Y72685D01*
G01X258917Y87382D02*
Y82406D01*
X262638Y78685D01*
X273138D01*
X274173Y79720D01*
Y82807D01*
G01X260984Y86231D02*
X264408Y82807D01*
X269055D01*
G01X258917Y94469D02*
Y96465D01*
X260228Y97776D01*
G01D02*
X261228D01*
X262138Y98685D01*
G01D02*
Y106685D01*
G01X255276Y93878D02*
Y95547D01*
G01D02*
X251732Y99091D01*
Y102098D01*
G01X260984Y93878D02*
X262906Y95799D01*
X268661D01*
G01X257146Y94469D02*
Y98177D01*
X256850Y98472D01*
Y102098D01*
G01X260984Y87972D02*
Y86231D01*
G54D22*
X109370Y112598D03*
X92992D03*
X191811Y310236D03*
X208189D03*
X286299Y111811D03*
X302677D03*
G54D13*
X58602Y102295D03*
Y108295D03*
X80866Y83201D03*
X75748D03*
X75354Y96193D03*
Y102193D03*
X80866Y89201D03*
X75748D03*
X63720Y102295D03*
Y108295D03*
X157421Y300327D03*
Y306327D03*
X162539Y300327D03*
Y306327D03*
X179685Y287232D03*
Y281232D03*
X174567Y287232D03*
Y281232D03*
X174173Y294224D03*
Y300224D03*
X251732Y102098D03*
Y108098D03*
X256850Y102098D03*
Y108098D03*
X274173Y82807D03*
X269055D03*
X268661Y95799D03*
Y101799D03*
X274173Y88807D03*
X269055D03*
G54D32*
G01X42225Y96831D02*
Y98622D01*
G01X40138D02*
X42225D01*
G01X44331Y89778D02*
Y92579D01*
G01D02*
Y95380D01*
G01X41380Y92579D02*
X44331D01*
G01X80831Y73079D02*
Y75880D01*
G01Y73079D02*
X83781D01*
G01X75354Y102193D02*
Y105144D01*
G01X72554Y102193D02*
X75354D01*
G01D02*
X78155D01*
G01X109370Y108057D02*
Y112598D01*
G01D02*
Y117139D01*
G01X103939Y112598D02*
X109370D01*
G01D02*
X114801D01*
G01X113082Y68583D02*
Y74783D01*
G01D02*
Y80984D01*
G01Y74783D02*
X117983D01*
G01X113082Y88268D02*
Y94469D01*
G01D02*
Y100669D01*
G01Y94469D02*
X117983D01*
G01X158669Y58461D02*
Y61827D01*
G01X153669Y58461D02*
Y61827D01*
G01X148669Y58461D02*
Y61827D01*
G01X143669Y58461D02*
Y61827D01*
G01X158669D02*
Y65193D01*
G01X153669Y61827D02*
Y65193D01*
G01X148669Y61827D02*
Y65193D01*
G01X143669Y61827D02*
Y65193D01*
G01X140894Y61827D02*
X143669D01*
G01X145665Y134508D02*
Y139646D01*
G01D02*
Y144783D01*
G01X140528Y139646D02*
X145665D01*
G01D02*
X150803D01*
G01X161415Y227165D02*
Y232303D01*
G01Y227165D02*
X166553D01*
G01X145665D02*
Y232303D01*
G01X140528Y227165D02*
X145665D01*
G01D02*
X150803D01*
G01X143150Y287809D02*
Y290610D01*
G01D02*
Y293411D01*
G01X140199Y290610D02*
X143150D01*
G01X141437Y302165D02*
Y303957D01*
G01X139351Y302165D02*
X141437D01*
G01X162539Y306327D02*
Y309278D01*
G01Y306327D02*
X165340D01*
G01X141437Y295256D02*
Y297047D01*
G01X139351D02*
X141437D01*
G01X187778Y139646D02*
X192915D01*
G01X187778Y227165D02*
X192915D01*
G01X179650Y271110D02*
Y273911D01*
G01Y271110D02*
X182600D01*
G01X174173Y300224D02*
Y303175D01*
G01X171372Y300224D02*
X174173D01*
G01D02*
X176974D01*
G01X192915Y134508D02*
Y139646D01*
G01D02*
Y144783D01*
G01Y139646D02*
X198053D01*
G01X192915Y222028D02*
Y227165D01*
G01D02*
Y232303D01*
G01Y227165D02*
X198053D01*
G01X208665Y222028D02*
Y227165D01*
G01D02*
Y232303D01*
G01X203528Y227165D02*
X208665D01*
G01D02*
X213803D01*
G01X211901Y266614D02*
Y272815D01*
G01D02*
Y279016D01*
G01Y272815D02*
X216802D01*
G01X211901Y286299D02*
Y292500D01*
G01D02*
Y298701D01*
G01Y292500D02*
X216802D01*
G01X208189Y305695D02*
Y310236D01*
G01D02*
Y314777D01*
G01X202758Y310236D02*
X208189D01*
G01D02*
X213620D01*
G01X237638Y89384D02*
Y92185D01*
G01D02*
Y94986D01*
G01X234687Y92185D02*
X237638D01*
G01X235532Y96831D02*
Y98622D01*
G01X233445D02*
X235532D01*
G01X265861Y101799D02*
X268661D01*
G01X256850Y108098D02*
Y111049D01*
G01X274138Y72685D02*
Y75486D01*
G01Y72685D02*
X277089D01*
G01X268661Y101799D02*
Y104750D01*
G01Y101799D02*
X271462D01*
G01X306389Y68189D02*
Y74390D01*
G01D02*
Y80591D01*
G01Y74390D02*
X311290D01*
G01X306389Y87874D02*
Y94075D01*
G01D02*
Y100276D01*
G01Y94075D02*
X311290D01*
G01X302677Y107270D02*
Y111811D01*
G01D02*
Y116352D01*
G01X297246Y111811D02*
X302677D01*
G01D02*
X308108D01*
G54D23*
X133846Y60646D03*
Y41354D03*
X213492Y60646D03*
Y41354D03*
G54D14*
G01X75591Y19291D02*
X75441Y19142D01*
G01X157421Y306327D02*
X162539D01*
G01X157421Y309783D02*
Y306327D01*
X46063Y103346D03*
Y99016D03*
X145276Y301772D03*
Y297441D03*
X239370Y103346D03*
Y99016D03*
G54D33*
G01X58831Y73079D02*
X63831D01*
G01X69831D02*
X74831D01*
G01X157650Y271110D02*
X162650D01*
G01X168650D02*
X173650D01*
G01X252138Y72685D02*
X257138D01*
G01X263138D02*
X268138D01*
G54D24*
X134969Y51000D03*
X212370D03*
G54D15*
X49902Y103740D03*
Y101181D03*
Y98622D03*
X42225D03*
Y101181D03*
Y103740D03*
X149115Y302165D03*
Y299606D03*
Y297047D03*
X141437D03*
Y299606D03*
Y302165D03*
X235532Y98622D03*
Y101181D03*
Y103740D03*
X243209D03*
Y101181D03*
Y98622D03*
G54D34*
G01X200615Y77572D02*
X167087Y111100D01*
Y133974D01*
X161415Y139646D01*
G01X203844Y80801D02*
X171654Y112992D01*
Y134134D01*
X177165Y139646D01*
G54D25*
X125975D03*
Y177165D03*
Y227165D03*
X228356Y139646D03*
Y177165D03*
Y227165D03*
G54D16*
X61969Y94272D03*
Y88366D03*
X160787Y286398D03*
Y292303D03*
X255276Y93878D03*
Y87972D03*
G54D35*
G01X354331Y349606D02*
Y217047D01*
G02X349606Y212323I-4724J0D01*
G03X346772Y209488I0J-2835D01*
G01Y140236D01*
G03X349606Y137402I2835J0D01*
G02X354331Y132677I0J-4724D01*
G01Y4724D01*
G02X349606Y0I-4724J0D01*
G01X226732D01*
G02X222008Y4724I0J4724D01*
G01Y6811D01*
G03X217283Y11535I-4724J0D01*
G01X146732D01*
G03X142008Y6811I0J-4724D01*
G01Y4724D01*
G02X137283Y0I-4724J0D01*
G01X4724D01*
G02X0Y4724I0J4724D01*
G01Y132598D01*
G02X4724Y137323I4724J0D01*
G03X7559Y140157I0J2835D01*
G01Y214094D01*
G03X4724Y216929I-2835J0D01*
G02X0Y221654I0J4724D01*
G01Y349606D01*
G02X4724Y354331I4724J0D01*
G01X137283D01*
G02X142008Y349606I0J-4724D01*
G01Y347480D01*
G03X146732Y342756I4724J0D01*
G01X217283D01*
G03X222008Y347480I0J4724D01*
G01Y349606D01*
G02X226732Y354331I4724J0D01*
G01X349606D01*
G02X354331Y349606I0J-4724D01*
G54D17*
X63839Y94862D03*
X65610D03*
Y87776D03*
X63839D03*
X162657Y285807D03*
Y292894D03*
X164429Y285807D03*
Y292894D03*
X257146Y94469D03*
X258917D03*
Y87382D03*
X257146D03*
G54D26*
X163669Y40173D03*
X143669D03*
X148669D03*
X153669D03*
X158669D03*
X163669Y61827D03*
X143669D03*
X148669D03*
X153669D03*
X158669D03*
X168669Y40173D03*
X173669D03*
X178669D03*
X183669D03*
X188669D03*
X168669Y61827D03*
X173669D03*
X178669D03*
X183669D03*
X188669D03*
X193669Y40173D03*
X198669D03*
X203669D03*
X193669Y61827D03*
X198669D03*
X203669D03*
G54D27*
X161415Y139646D03*
Y177165D03*
Y227165D03*
X177165Y139646D03*
Y177165D03*
Y227165D03*
X208665Y139646D03*
X192915D03*
X208665Y177165D03*
X192915D03*
X208665Y227165D03*
X192915D03*
G54D18*
X67677Y94272D03*
Y88366D03*
X166496Y286398D03*
Y292303D03*
X260984Y93878D03*
Y87972D03*
G54D28*
X145665Y139646D03*
Y177165D03*
Y227165D03*
G54D19*
X64724Y92303D03*
Y90335D03*
X163543Y290335D03*
Y288366D03*
X258031Y91909D03*
Y89941D03*
G54D29*
G01X87402Y24016D02*
X79921Y16535D01*
Y10801D01*
X78569Y9449D01*
X75441D01*
G01X69441Y14961D02*
Y9449D01*
G01X110087Y14961D02*
X114567D01*
G01X92370D02*
X97244D01*
G01X92370Y9449D02*
X98426D01*
X100216Y11239D01*
Y16751D01*
X102362Y18898D01*
X164567D01*
G01X89370Y24016D02*
X87402D01*
G01X104087Y14961D02*
X103984Y14858D01*
Y9551D01*
X104087Y9449D01*
G01X86370Y14961D02*
Y9449D01*
G01X114567D02*
X110087D01*
G01X203669Y61827D02*
Y58283D01*
X201120Y55734D01*
Y53678D01*
X202301Y52496D01*
X204266D01*
X207638Y55869D01*
Y72498D01*
X203051Y77085D01*
X201102D01*
X200615Y77572D01*
G01X157480Y309843D02*
X157421Y309783D01*
G01X164567Y18898D02*
X165354Y18110D01*
G01X203669Y40173D02*
Y49339D01*
X209449Y55118D01*
Y73248D01*
X204331Y78366D01*
Y80314D01*
X203844Y80801D01*
M02*
