G04 ================== begin FILE IDENTIFICATION RECORD ==================*
G04 Layout Name:  D:/0_Working/1_Hardware/42_Adaptor/2_Layout/Adaptor_V100.brd*
G04 Film Name:    ADAPTOR_ver1.0.0_ASSY_BOTTOM.art*
G04 File Format:  Gerber RS274X*
G04 File Origin:  Cadence Allegro 17.2-S052*
G04 Origin Date:  Fri Oct 04 17:12:52 2024*
G04 *
G04 Layer:  BOARD GEOMETRY/DESIGN_OUTLINE*
G04 Layer:  REF DES/ASSEMBLY_BOTTOM*
G04 Layer:  PACKAGE GEOMETRY/ASSEMBLY_BOTTOM*
G04 *
G04 Offset:    (0.0000 0.0000)*
G04 Mirror:    Yes*
G04 Mode:      Positive*
G04 Rotation:  0*
G04 FullContactRelief:  No*
G04 UndefLineWidth:     0.1016*
G04 ================== end FILE IDENTIFICATION RECORD ====================*
%FSLAX25Y25*MOIN*%
%IR0*IPPOS*OFA0.00000B0.00000*MIA1B0*SFA1.00000B1.00000*%
%ADD10C,.008*%
%ADD11C,.006*%
%ADD12C,.004*%
G75*
%LPD*%
G75*
G54D10*
G01X19183Y268433D02*
Y265433D01*
G01X20333Y268433D02*
X18033D01*
G01X16783Y265433D02*
Y268433D01*
X15583D01*
X15183Y268283D01*
X14883Y267933D01*
X14783Y267533D01*
X14883Y267133D01*
X15133Y266833D01*
X15583Y266683D01*
X16783D01*
G01X12383Y265433D02*
Y268433D01*
X12983Y267833D01*
G01Y265433D02*
X11783D01*
G01X117165Y124146D02*
X237165D01*
G03X247165Y134146I0J10000D01*
G01Y145146D01*
G03X237165Y155146I-10000J0D01*
G01X117165D01*
G03X107165Y145146I0J-10000D01*
G01Y134146D01*
G03X117165Y124146I10000J0D01*
G01Y161665D02*
X237165D01*
G03X247165Y171665I0J10000D01*
G01Y182665D01*
G03X237165Y192665I-10000J0D01*
G01X117165D01*
G03X107165Y182665I0J-10000D01*
G01Y171665D01*
G03X117165Y161665I10000J0D01*
G01Y211665D02*
X237165D01*
G03X247165Y221665I0J10000D01*
G01Y232665D01*
G03X237165Y242665I-10000J0D01*
G01X117165D01*
G03X107165Y232665I0J-10000D01*
G01Y221665D01*
G03X117165Y211665I10000J0D01*
G01X142857Y135714D02*
X142607Y135414D01*
X142307Y135214D01*
X141957Y135114D01*
X141557Y135214D01*
X141257Y135414D01*
X140957Y135714D01*
X140857Y136114D01*
Y138114D01*
G01X138457Y135114D02*
Y138114D01*
X139057Y137514D01*
G01Y135114D02*
X137857D01*
G01X143251Y173116D02*
X143001Y172816D01*
X142701Y172616D01*
X142351Y172516D01*
X141951Y172616D01*
X141651Y172816D01*
X141351Y173116D01*
X141251Y173516D01*
Y175516D01*
G01X138251Y172516D02*
Y175516D01*
X140101Y173366D01*
X137601D01*
G01X143251Y217998D02*
X143001Y217698D01*
X142701Y217498D01*
X142351Y217398D01*
X141951Y217498D01*
X141651Y217698D01*
X141351Y217998D01*
X141251Y218398D01*
Y220398D01*
G01X139951Y217998D02*
X139651Y217648D01*
X139251Y217448D01*
X138801Y217398D01*
X138401Y217448D01*
X138001Y217698D01*
X137751Y217998D01*
X137701Y218298D01*
X137801Y218648D01*
X138151Y218898D01*
X138501Y218998D01*
X138951D01*
G01X138501D02*
X138201Y219148D01*
X137951Y219398D01*
X137851Y219698D01*
X137951Y219998D01*
X138201Y220248D01*
X138651Y220398D01*
X139101Y220348D01*
X139551Y220148D01*
G54D11*
G01X27071Y20000D02*
G03I-7071J0D01*
G01X22819Y267717D02*
G03I-7071J0D01*
G01X42426Y334331D02*
G03I-7071J0D01*
G01X331402D02*
G03I-7071J0D01*
G01X342071Y20000D02*
G03I-7071J0D01*
G54D12*
G01X354331Y349606D02*
Y217047D01*
G02X349606Y212323I-4724J0D01*
G03X346772Y209488I0J-2835D01*
G01Y140236D01*
G03X349606Y137402I2835J0D01*
G02X354331Y132677I0J-4724D01*
G01Y4724D01*
G02X349606Y0I-4724J0D01*
G01X226732D01*
G02X222008Y4724I0J4724D01*
G01Y6811D01*
G03X217283Y11535I-4724J0D01*
G01X146732D01*
G03X142008Y6811I0J-4724D01*
G01Y4724D01*
G02X137283Y0I-4724J0D01*
G01X4724D01*
G02X0Y4724I0J4724D01*
G01Y132598D01*
G02X4724Y137323I4724J0D01*
G03X7559Y140157I0J2835D01*
G01Y214094D01*
G03X4724Y216929I-2835J0D01*
G02X0Y221654I0J4724D01*
G01Y349606D01*
G02X4724Y354331I4724J0D01*
G01X137283D01*
G02X142008Y349606I0J-4724D01*
G01Y347480D01*
G03X146732Y342756I4724J0D01*
G01X217283D01*
G03X222008Y347480I0J4724D01*
G01Y349606D01*
G02X226732Y354331I4724J0D01*
G01X349606D01*
G02X354331Y349606I0J-4724D01*
M02*
