G04 ================== begin FILE IDENTIFICATION RECORD ==================*
G04 Layout Name:  D:/0_Working/1_Hardware/42_Adaptor/2_Layout/Adaptor_V100.brd*
G04 Film Name:    ADAPTOR_ver1.0.0_PASTE_TOP.art*
G04 File Format:  Gerber RS274X*
G04 File Origin:  Cadence Allegro 17.2-S052*
G04 Origin Date:  Fri Oct 04 17:12:52 2024*
G04 *
G04 Layer:  BOARD GEOMETRY/DESIGN_OUTLINE*
G04 Layer:  PIN/PASTEMASK_TOP*
G04 Layer:  PACKAGE GEOMETRY/PASTEMASK_TOP*
G04 *
G04 Offset:    (0.0000 0.0000)*
G04 Mirror:    No*
G04 Mode:      Positive*
G04 Rotation:  0*
G04 FullContactRelief:  No*
G04 UndefLineWidth:     0.1270*
G04 ================== end FILE IDENTIFICATION RECORD ====================*
%FSLAX25Y25*MOIN*%
%IR0*IPPOS*OFA0.00000B0.00000*MIA0B0*SFA1.00000B1.00000*%
%ADD20R,.031496X.043307*%
%ADD19R,.047244X.106299*%
%ADD12R,.017717X.011811*%
%ADD14R,.009843X.023622*%
%ADD16R,.017717X.027559*%
%ADD13C,.001*%
%ADD15R,.001X.001*%
%ADD17R,.074X.1*%
%ADD11R,.032X.035*%
%ADD10R,.035X.032*%
%ADD18R,.084598X.066799*%
%ADD21C,.005*%
G75*
%LPD*%
G75*
G36*
G01X44095Y101768D02*
Y104138D01*
X44098Y104176D01*
X44109Y104211D01*
X44128Y104245D01*
X44152Y104274D01*
X44181Y104298D01*
X44214Y104316D01*
X44250Y104327D01*
X44288Y104331D01*
X47839D01*
X47877Y104327D01*
X47913Y104316D01*
X47946Y104298D01*
X47975Y104274D01*
X47999Y104245D01*
X48017Y104211D01*
X48028Y104176D01*
X48032Y104138D01*
Y101768D01*
X48028Y101730D01*
X48017Y101694D01*
X47999Y101661D01*
X47975Y101631D01*
X47946Y101607D01*
X47913Y101589D01*
X47877Y101578D01*
X47839Y101575D01*
X44288D01*
X44250Y101578D01*
X44214Y101589D01*
X44181Y101607D01*
X44152Y101631D01*
X44128Y101661D01*
X44109Y101694D01*
X44098Y101730D01*
X44095Y101768D01*
G37*
G36*
G01Y98224D02*
Y100594D01*
X44098Y100632D01*
X44109Y100668D01*
X44128Y100702D01*
X44152Y100731D01*
X44181Y100755D01*
X44214Y100773D01*
X44250Y100784D01*
X44288Y100787D01*
X47839D01*
X47877Y100784D01*
X47913Y100773D01*
X47946Y100755D01*
X47975Y100731D01*
X47999Y100702D01*
X48017Y100668D01*
X48028Y100632D01*
X48032Y100594D01*
Y98224D01*
X48028Y98187D01*
X48017Y98151D01*
X47999Y98117D01*
X47975Y98088D01*
X47946Y98064D01*
X47913Y98046D01*
X47877Y98035D01*
X47839Y98031D01*
X44288D01*
X44250Y98035D01*
X44214Y98046D01*
X44181Y98064D01*
X44152Y98088D01*
X44128Y98117D01*
X44109Y98151D01*
X44098Y98187D01*
X44095Y98224D01*
G37*
G36*
G01X67972Y94567D02*
X69252D01*
X69449Y94370D01*
Y93878D01*
X69252Y93681D01*
X67087D01*
X66890Y93878D01*
Y95846D01*
X67087Y96043D01*
X67776D01*
X67972Y95846D01*
Y94567D01*
G37*
G36*
G01X61476D02*
X60197D01*
X60000Y94370D01*
Y93878D01*
X60197Y93681D01*
X62362D01*
X62559Y93878D01*
Y95846D01*
X62362Y96043D01*
X61673D01*
X61476Y95846D01*
Y94567D01*
G37*
G36*
G01Y88071D02*
X60197D01*
X60000Y88268D01*
Y88760D01*
X60197Y88957D01*
X62362D01*
X62559Y88760D01*
Y86791D01*
X62362Y86594D01*
X61673D01*
X61476Y86791D01*
Y88071D01*
G37*
G36*
G01X67972D02*
X69252D01*
X69449Y88268D01*
Y88760D01*
X69252Y88957D01*
X67087D01*
X66890Y88760D01*
Y86791D01*
X67087Y86594D01*
X67776D01*
X67972Y86791D01*
Y88071D01*
G37*
G36*
G01X60354Y90886D02*
X64134D01*
X64331Y90689D01*
Y89980D01*
X64134Y89783D01*
X60354D01*
X60157Y89980D01*
Y90689D01*
X60354Y90886D01*
G37*
G36*
G01X64134Y92854D02*
X64331Y92657D01*
Y91949D01*
X64134Y91752D01*
X60354D01*
X60157Y91949D01*
Y92657D01*
X60354Y92854D01*
X64134D01*
G37*
G36*
G01X69291Y89980D02*
X69094Y89783D01*
X65315D01*
X65118Y89980D01*
Y90689D01*
X65315Y90886D01*
X69094D01*
X69291Y90689D01*
Y89980D01*
G37*
G36*
G01X69094Y92854D02*
X69291Y92657D01*
Y91949D01*
X69094Y91752D01*
X65315D01*
X65118Y91949D01*
Y92657D01*
X65315Y92854D01*
X69094D01*
G37*
G36*
G01X160295Y286102D02*
X159016D01*
X158819Y286299D01*
Y286791D01*
X159016Y286988D01*
X161181D01*
X161378Y286791D01*
Y284823D01*
X161181Y284626D01*
X160492D01*
X160295Y284823D01*
Y286102D01*
G37*
G36*
G01X159173Y288917D02*
X162953D01*
X163150Y288720D01*
Y288012D01*
X162953Y287815D01*
X159173D01*
X158976Y288012D01*
Y288720D01*
X159173Y288917D01*
G37*
G36*
G01X162953Y290886D02*
X163150Y290689D01*
Y289980D01*
X162953Y289783D01*
X159173D01*
X158976Y289980D01*
Y290689D01*
X159173Y290886D01*
X162953D01*
G37*
G36*
G01X160295Y292598D02*
X159016D01*
X158819Y292402D01*
Y291909D01*
X159016Y291713D01*
X161181D01*
X161378Y291909D01*
Y293878D01*
X161181Y294075D01*
X160492D01*
X160295Y293878D01*
Y292598D01*
G37*
G36*
G01X143307Y300193D02*
Y302563D01*
X143311Y302601D01*
X143322Y302637D01*
X143340Y302670D01*
X143364Y302699D01*
X143393Y302723D01*
X143427Y302741D01*
X143463Y302752D01*
X143500Y302756D01*
X147052D01*
X147089Y302752D01*
X147125Y302741D01*
X147159Y302723D01*
X147188Y302699D01*
X147212Y302670D01*
X147230Y302637D01*
X147241Y302601D01*
X147244Y302563D01*
Y300193D01*
X147241Y300155D01*
X147230Y300119D01*
X147212Y300086D01*
X147188Y300057D01*
X147159Y300033D01*
X147125Y300015D01*
X147089Y300004D01*
X147052Y300000D01*
X143500D01*
X143463Y300004D01*
X143427Y300015D01*
X143393Y300033D01*
X143364Y300057D01*
X143340Y300086D01*
X143322Y300119D01*
X143311Y300155D01*
X143307Y300193D01*
G37*
G36*
G01Y296650D02*
Y299020D01*
X143311Y299057D01*
X143322Y299093D01*
X143340Y299127D01*
X143364Y299156D01*
X143393Y299180D01*
X143427Y299198D01*
X143463Y299209D01*
X143500Y299213D01*
X147052D01*
X147089Y299209D01*
X147125Y299198D01*
X147159Y299180D01*
X147188Y299156D01*
X147212Y299127D01*
X147230Y299093D01*
X147241Y299057D01*
X147244Y299020D01*
Y296650D01*
X147241Y296612D01*
X147230Y296576D01*
X147212Y296543D01*
X147188Y296513D01*
X147159Y296489D01*
X147125Y296471D01*
X147089Y296460D01*
X147052Y296457D01*
X143500D01*
X143463Y296460D01*
X143427Y296471D01*
X143393Y296489D01*
X143364Y296513D01*
X143340Y296543D01*
X143322Y296576D01*
X143311Y296612D01*
X143307Y296650D01*
G37*
G36*
G01X166791Y286102D02*
X168071D01*
X168268Y286299D01*
Y286791D01*
X168071Y286988D01*
X165906D01*
X165709Y286791D01*
Y284823D01*
X165906Y284626D01*
X166594D01*
X166791Y284823D01*
Y286102D01*
G37*
G36*
G01X168110Y288012D02*
X167913Y287815D01*
X164134D01*
X163937Y288012D01*
Y288720D01*
X164134Y288917D01*
X167913D01*
X168110Y288720D01*
Y288012D01*
G37*
G36*
G01X167913Y290886D02*
X168110Y290689D01*
Y289980D01*
X167913Y289783D01*
X164134D01*
X163937Y289980D01*
Y290689D01*
X164134Y290886D01*
X167913D01*
G37*
G36*
G01X166791Y292598D02*
X168071D01*
X168268Y292402D01*
Y291909D01*
X168071Y291713D01*
X165906D01*
X165709Y291909D01*
Y293878D01*
X165906Y294075D01*
X166594D01*
X166791Y293878D01*
Y292598D01*
G37*
G36*
G01X237402Y101768D02*
Y104138D01*
X237406Y104176D01*
X237417Y104211D01*
X237435Y104245D01*
X237459Y104274D01*
X237488Y104298D01*
X237521Y104316D01*
X237557Y104327D01*
X237595Y104331D01*
X241146D01*
X241184Y104327D01*
X241220Y104316D01*
X241253Y104298D01*
X241282Y104274D01*
X241306Y104245D01*
X241324Y104211D01*
X241335Y104176D01*
X241339Y104138D01*
Y101768D01*
X241335Y101730D01*
X241324Y101694D01*
X241306Y101661D01*
X241282Y101631D01*
X241253Y101607D01*
X241220Y101589D01*
X241184Y101578D01*
X241146Y101575D01*
X237595D01*
X237557Y101578D01*
X237521Y101589D01*
X237488Y101607D01*
X237459Y101631D01*
X237435Y101661D01*
X237417Y101694D01*
X237406Y101730D01*
X237402Y101768D01*
G37*
G36*
G01Y98224D02*
Y100594D01*
X237406Y100632D01*
X237417Y100668D01*
X237435Y100702D01*
X237459Y100731D01*
X237488Y100755D01*
X237521Y100773D01*
X237557Y100784D01*
X237595Y100787D01*
X241146D01*
X241184Y100784D01*
X241220Y100773D01*
X241253Y100755D01*
X241282Y100731D01*
X241306Y100702D01*
X241324Y100668D01*
X241335Y100632D01*
X241339Y100594D01*
Y98224D01*
X241335Y98187D01*
X241324Y98151D01*
X241306Y98117D01*
X241282Y98088D01*
X241253Y98064D01*
X241220Y98046D01*
X241184Y98035D01*
X241146Y98031D01*
X237595D01*
X237557Y98035D01*
X237521Y98046D01*
X237488Y98064D01*
X237459Y98088D01*
X237435Y98117D01*
X237417Y98151D01*
X237406Y98187D01*
X237402Y98224D01*
G37*
G36*
G01X261280Y94173D02*
X262559D01*
X262756Y93976D01*
Y93484D01*
X262559Y93287D01*
X260394D01*
X260197Y93484D01*
Y95453D01*
X260394Y95650D01*
X261083D01*
X261280Y95453D01*
Y94173D01*
G37*
G36*
G01X254783D02*
X253504D01*
X253307Y93976D01*
Y93484D01*
X253504Y93287D01*
X255669D01*
X255866Y93484D01*
Y95453D01*
X255669Y95650D01*
X254980D01*
X254783Y95453D01*
Y94173D01*
G37*
G36*
G01Y87677D02*
X253504D01*
X253307Y87874D01*
Y88366D01*
X253504Y88563D01*
X255669D01*
X255866Y88366D01*
Y86398D01*
X255669Y86201D01*
X254980D01*
X254783Y86398D01*
Y87677D01*
G37*
G36*
G01X261280D02*
X262559D01*
X262756Y87874D01*
Y88366D01*
X262559Y88563D01*
X260394D01*
X260197Y88366D01*
Y86398D01*
X260394Y86201D01*
X261083D01*
X261280Y86398D01*
Y87677D01*
G37*
G36*
G01X253661Y90492D02*
X257441D01*
X257638Y90295D01*
Y89587D01*
X257441Y89390D01*
X253661D01*
X253465Y89587D01*
Y90295D01*
X253661Y90492D01*
G37*
G36*
G01X257441Y92461D02*
X257638Y92264D01*
Y91555D01*
X257441Y91358D01*
X253661D01*
X253465Y91555D01*
Y92264D01*
X253661Y92461D01*
X257441D01*
G37*
G36*
G01X262598Y89587D02*
X262402Y89390D01*
X258622D01*
X258425Y89587D01*
Y90295D01*
X258622Y90492D01*
X262402D01*
X262598Y90295D01*
Y89587D01*
G37*
G36*
G01X262402Y92461D02*
X262598Y92264D01*
Y91555D01*
X262402Y91358D01*
X258622D01*
X258425Y91555D01*
Y92264D01*
X258622Y92461D01*
X262402D01*
G37*
G54D10*
X52831Y73079D03*
X58831D03*
X50331Y92579D03*
X44331D03*
X86370Y14961D03*
X69441D03*
X75441D03*
X86370Y9449D03*
X75441D03*
X69441D03*
X63831Y73079D03*
X69831D03*
X74831D03*
X80831D03*
X104087Y14961D03*
X110087D03*
X92370D03*
X110087Y9449D03*
X104087D03*
X92370D03*
X149150Y290610D03*
X143150D03*
X151650Y271110D03*
X157650D03*
X162650D03*
X168650D03*
X173650D03*
X179650D03*
X237638Y92185D03*
X246138Y72685D03*
X252138D03*
X257138D03*
X263138D03*
X243638Y92185D03*
X268138Y72685D03*
X274138D03*
G54D11*
X58602Y102295D03*
Y108295D03*
X80866Y83201D03*
X75748D03*
X75354Y96193D03*
Y102193D03*
X80866Y89201D03*
X75748D03*
X63720Y102295D03*
Y108295D03*
X157421Y300327D03*
Y306327D03*
X162539Y300327D03*
Y306327D03*
X179685Y287232D03*
Y281232D03*
X174567Y287232D03*
Y281232D03*
X174173Y294224D03*
Y300224D03*
X251732Y102098D03*
Y108098D03*
X256850Y102098D03*
Y108098D03*
X274173Y82807D03*
X269055D03*
X268661Y95799D03*
Y101799D03*
X274173Y88807D03*
X269055D03*
G54D20*
X163669Y40173D03*
X143669D03*
X148669D03*
X153669D03*
X158669D03*
X163669Y61827D03*
X143669D03*
X148669D03*
X153669D03*
X158669D03*
X168669Y40173D03*
X173669D03*
X178669D03*
X183669D03*
X188669D03*
X168669Y61827D03*
X173669D03*
X178669D03*
X183669D03*
X188669D03*
X193669Y40173D03*
X198669D03*
X203669D03*
X193669Y61827D03*
X198669D03*
X203669D03*
G54D21*
G01X354331Y349606D02*
Y217047D01*
G02X349606Y212323I-4724J0D01*
G03X346772Y209488I0J-2835D01*
G01Y140236D01*
G03X349606Y137402I2835J0D01*
G02X354331Y132677I0J-4724D01*
G01Y4724D01*
G02X349606Y0I-4724J0D01*
G01X226732D01*
G02X222008Y4724I0J4724D01*
G01Y6811D01*
G03X217283Y11535I-4724J0D01*
G01X146732D01*
G03X142008Y6811I0J-4724D01*
G01Y4724D01*
G02X137283Y0I-4724J0D01*
G01X4724D01*
G02X0Y4724I0J4724D01*
G01Y132598D01*
G02X4724Y137323I4724J0D01*
G03X7559Y140157I0J2835D01*
G01Y214094D01*
G03X4724Y216929I-2835J0D01*
G02X0Y221654I0J4724D01*
G01Y349606D01*
G02X4724Y354331I4724J0D01*
G01X137283D01*
G02X142008Y349606I0J-4724D01*
G01Y347480D01*
G03X146732Y342756I4724J0D01*
G01X217283D01*
G03X222008Y347480I0J4724D01*
G01Y349606D01*
G02X226732Y354331I4724J0D01*
G01X349606D01*
G02X354331Y349606I0J-4724D01*
G54D12*
X49902Y103740D03*
Y101181D03*
Y98622D03*
X42225D03*
Y101181D03*
Y103740D03*
X149115Y302165D03*
Y299606D03*
Y297047D03*
X141437D03*
Y299606D03*
Y302165D03*
X235532Y98622D03*
Y101181D03*
Y103740D03*
X243209D03*
Y101181D03*
Y98622D03*
G54D13*
X61969Y94272D03*
X67677D03*
Y88366D03*
X61969D03*
X160787Y286398D03*
Y292303D03*
X166496Y286398D03*
Y292303D03*
X255276Y93878D03*
X260984D03*
Y87972D03*
X255276D03*
G54D14*
X63839Y94862D03*
X65610D03*
Y87776D03*
X63839D03*
X162657Y285807D03*
Y292894D03*
X164429Y285807D03*
Y292894D03*
X257146Y94469D03*
X258917D03*
Y87382D03*
X257146D03*
G54D15*
X64724Y92303D03*
Y90335D03*
X163543Y290335D03*
Y288366D03*
X258031Y91909D03*
Y89941D03*
G54D16*
X70866Y117717D03*
X66929D03*
X170472Y315748D03*
X166535D03*
X263386Y117323D03*
X259449D03*
G54D17*
X113082Y74783D03*
X90382D03*
X113082Y94469D03*
X90382D03*
X189201Y272815D03*
Y292500D03*
X211901Y272815D03*
Y292500D03*
X283689Y74390D03*
Y94075D03*
X306389Y74390D03*
Y94075D03*
G54D18*
X109370Y112598D03*
X92992D03*
X191811Y310236D03*
X208189D03*
X286299Y111811D03*
X302677D03*
G54D19*
X133846Y60646D03*
Y41354D03*
X213492Y60646D03*
Y41354D03*
M02*
