G04 ================== begin FILE IDENTIFICATION RECORD ==================*
G04 Layout Name:  D:/0_Working/1_Hardware/42_Adaptor/2_Layout/Adaptor_V100.brd*
G04 Film Name:    ADAPTOR_ver1.0.0_SILK_TOP.art*
G04 File Format:  Gerber RS274X*
G04 File Origin:  Cadence Allegro 17.2-S052*
G04 Origin Date:  Fri Oct 11 14:19:24 2024*
G04 *
G04 Layer:  BOARD GEOMETRY/DESIGN_OUTLINE*
G04 Layer:  REF DES/SILKSCREEN_TOP*
G04 Layer:  PACKAGE GEOMETRY/SILKSCREEN_TOP*
G04 Layer:  BOARD GEOMETRY/SILKSCREEN_TOP*
G04 *
G04 Offset:    (0.0000 0.0000)*
G04 Mirror:    No*
G04 Mode:      Positive*
G04 Rotation:  0*
G04 FullContactRelief:  No*
G04 UndefLineWidth:     0.1524*
G04 ================== end FILE IDENTIFICATION RECORD ====================*
%FSLAX25Y25*MOMM*%
%IR0*IPPOS*OFA0.00000B0.00000*MIA0B0*SFA1.00000B1.00000*%
%ADD10C,.1*%
%ADD11C,.2*%
%ADD12C,.4*%
%ADD13C,.15*%
%ADD14C,.25*%
%ADD15C,.2032*%
%ADD16C,.127*%
%ADD17C,.1524*%
%ADD18C,.2499*%
%ADD19C,.1999*%
G75*
%LPD*%
G75*
G36*
G01X603510Y1516880D02*
G02X623580Y1517390I22115J-475145D01*
G02X644150Y1516880I-1560J-478007D01*
G02X659390Y1515360I-7422J-151574D01*
G02X688350Y1508760I-25997J-180907D01*
G02X714760Y1497580I-48761J-151969D01*
G02X737880Y1482590I-67900J-130051D01*
G02X756670Y1464050I-76724J-96551D01*
G02X780040Y1427220I-149561J-120732D01*
G02X809250Y1362960I-1074083J-527003D01*
G02X834400Y1296920I-1102260J-457582D01*
G02X844300Y1253990I-186434J-65600D01*
G02X844560Y1216150I-181159J-20166D01*
G02X837440Y1174750I-272615J25572D01*
G02X823220Y1132070I-302857J77196D01*
G02X802900Y1090420I-329334J134892D01*
G02X788680Y1067810I-379237J222735D01*
G02X774450Y1048000I-253978J167423D01*
G02X757940Y1028440I-266939J208567D01*
G02X737110Y1006600I-489245J445766D01*
G02X704090Y975860I-406020J403030D01*
G02X673110Y952750I-199604J235258D01*
G02X643640Y936240I-128009J193937D01*
G02X614430Y926080I-67571J147197D01*
G02X572010Y922520I-31831J124778D01*
G02X541030Y935990I5202J54325D01*
G02X527820Y962150I24939J29009D01*
G02X534420Y995680I65155J4590D01*
G02X544330Y1010920I71668J-35761D01*
G02X560330Y1028190I168029J-139626D01*
G02X581160Y1046980I212539J-214673D01*
G02X606810Y1066290I323589J-403142D01*
G03X655580Y1105150I-358043J499384D01*
G03X696980Y1146040I-304288J349486D01*
G03X730760Y1189990I-315331J277320D01*
G03X758450Y1237480I-332441J225654D01*
G03X770640Y1264920I-380137J185301D01*
G03X779530Y1290820I-268916J106779D01*
G03X785880Y1316220I-252111J76522D01*
G03X789690Y1342640I-280527J53939D01*
G01X791220Y1358390D01*
X778260Y1367020D01*
G03X763780Y1375150I-59264J-88593D01*
G03X746510Y1382010I-72156J-156484D01*
G03X727210Y1387340I-61482J-185021D01*
G03X707650Y1390650I-42171J-189753D01*
G03X681230Y1391920I-22820J-199279D01*
G03X652790Y1390140I2215J-263488D01*
G03X615960Y1384040I65180J-507771D01*
G03X559820Y1372360I514614J-2614256D01*
G02X537220Y1368290I-57329J253557D01*
G02X514360Y1366520I-31511J258471D01*
G02X494290I-10035J224223D01*
G02X481590Y1369060I1615J41094D01*
G02X469140Y1377180I13455J34235D01*
G02X461270Y1389120I22694J23522D01*
G02X458730Y1404870I38846J14344D01*
G02X461520Y1422900I72780J-2031D01*
G02X477780Y1455160I94545J-27426D01*
G02X505470Y1482340I104908J-79182D01*
G02X543570Y1502910I97154J-134379D01*
G02X589790Y1515360I86772J-230116D01*
G02X603510Y1516880I18992J-108751D01*
G37*
G36*
G01X438160Y1697730D02*
G02X457970I9905J-185973D01*
G02X476760Y1696210I-5293J-182331D01*
G02X488700Y1692140I-6040J-37269D01*
G02X503940Y1679440I-21942J-41824D01*
G02X511820Y1662170I-30729J-24454D01*
G02X511050Y1641340I-47916J-8658D01*
G02X501910Y1619250I-83769J21725D01*
G02X492510Y1606040I-72945J41957D01*
G02X478030Y1591310I-168557J151214D01*
G02X459490Y1575050I-215630J227166D01*
G02X437140Y1558030I-336489J418679D01*
G03X394720Y1525520I556569J-770158D01*
G03X361960Y1496060I281121J-345556D01*
G03X334270Y1465580I267036J-270411D01*
G03X307850Y1430020I395063J-321114D01*
G03X286260Y1394200I342226J-230688D01*
G03X269250Y1357880I301868J-163519D01*
G03X257310Y1321560I291377J-115911D01*
G03X250450Y1284980I270317J-69627D01*
G03X249180Y1270000I184394J-23177D01*
G03X250960Y1262630I14563J-383D01*
G03X256040Y1257040I13339J7018D01*
G03X269500Y1248660I121923J180834D01*
G03X287030Y1240530I79766J149028D01*
G03X303540Y1235200I42097J102161D01*
G03X322080Y1231900I33187J132717D01*
G03X346720Y1230370I36034J381140D01*
G03X372620I12950J413931D01*
G03X395480Y1232150I-8472J256485D01*
G03X421900Y1236210I-43662J372120D01*
G03X459490Y1244090I-300270J1525976D01*
G02X509280Y1253740I208950J-944824D01*
G02X539760Y1255260I22204J-138879D01*
G02X560080Y1250180I-2751J-54183D01*
G02X575320Y1237740I-17365J-36829D01*
G02X577600Y1233930I-16175J-12266D01*
G02X578870Y1229610I-19107J-7964D01*
G02X579630Y1224020I-35882J-7725D01*
G02X579890Y1215640I-168400J-9419D01*
G02X579380Y1205990I-136141J2357D01*
G02X578360Y1199380I-37832J2454D01*
G02X576080Y1192530I-43694J10739D01*
G02X571510Y1182620I-197449J85045D01*
G02X538230Y1142490I-100371J49373D01*
G02X485150Y1114800I-113011J151915D01*
G02X421390Y1103120I-71668J211358D01*
G02X356620Y1110480I-7069J226464D01*
G02X332240Y1119370I34295J131927D01*
G02X309120Y1133090I66337J138126D01*
G02X289060Y1150360I86936J121267D01*
G02X273310Y1170170I87422J85671D01*
G02X254260Y1204460I296801J187326D01*
G02X232670Y1252220I996775J479354D01*
G02X212860Y1301750I1030182J440758D01*
G02X200410Y1341120I388070J144373D01*
G02X195330Y1371090I168562J43987D01*
G02X195080Y1402580I204913J17373D01*
G02X199900Y1436110I236315J-16859D01*
G02X209560Y1471160I311045J-66870D01*
G02X225300Y1509260I312720J-106891D01*
G02X245620Y1545330I302175J-146471D01*
G02X271530Y1580130I309838J-203642D01*
G02X303030Y1614670I391937J-325807D01*
G02X335030Y1644390I391386J-389324D01*
G02X365770Y1667510I217656J-257397D01*
G02X394980Y1684520I144903J-215247D01*
G02X422410Y1694940I66617J-134050D01*
G02X438160Y1697730I21737J-76860D01*
G37*
G36*
G01X930310Y2558900D02*
X904910Y2584300D01*
Y2533500D01*
X930310Y2558900D01*
G37*
G36*
G01X1634740Y5624540D02*
G02X1667510Y5627840I43402J-266636D01*
G02X1698500Y5627330I11214J-260359D01*
G02X1718050Y5622000I-3442J-51144D01*
G02X1736850Y5607260I-29394J-56849D01*
G02X1748280Y5587200I-43778J-38231D01*
G02X1751580Y5563320I-60396J-20514D01*
G02X1746250Y5537670I-85875J4466D01*
G02X1734310Y5517090I-72072J28061D01*
G02X1712720Y5492960I-206293J162855D01*
G02X1680460Y5464260I-324133J331859D01*
G02X1635250Y5428960I-896611J1101721D01*
G03X1607560Y5407620I579826J-780995D01*
G03X1579370Y5384000I749664J-923341D01*
G03X1554220Y5361900I695067J-816353D01*
G03X1537710Y5345640I174923J-194124D01*
G03X1484630Y5278330I429159J-393015D01*
G03X1440940Y5202900I514246J-348226D01*
G03X1411730Y5128980I480321J-232534D01*
G03X1402080Y5067510I196977J-62415D01*
G03X1402840Y5052020I129276J-1421D01*
G03X1406400Y5043890I16168J2235D01*
G03X1414020Y5037540I19470J15617D01*
G03X1433830Y5027130I226710J407370D01*
G03X1482090Y5010360I92854J189386D01*
G03X1536190Y5004270I57637J268671D01*
G03X1601470Y5008590I5342J414666D01*
G03X1683510Y5023830I-157700J1077370D01*
G02X1733040Y5032970I144600J-644819D01*
G02X1773430Y5035760I39403J-276671D01*
G02X1804670Y5032970I566J-169961D01*
G02X1824990Y5023570I-8990J-46097D01*
G02X1832860Y5016210I-36121J-46512D01*
G02X1837430Y5008590I-20051J-17206D01*
G02X1839970Y4999190I-31573J-13575D01*
G02X1840480Y4984960I-143614J-12271D01*
G02X1804670Y4903430I-110818J45D01*
G02X1707640Y4847550I-171348J185347D01*
G02X1583940Y4835100I-93223J305493D01*
G02X1477520Y4873970I21452J223848D01*
G02X1454910Y4894290I68750J99237D01*
G02X1432050Y4924510I218028J188684D01*
G02X1408680Y4964390I358149J236666D01*
G02X1384550Y5015190I816915J419165D01*
G02X1348740Y5103580I1493020J656326D01*
G02X1330700Y5167840I382667J142090D01*
G02X1326130Y5222960I250376J48508D01*
G02X1333240Y5280110I299131J-8197D01*
G02X1344170Y5318210I326805J-73135D01*
G02X1360680Y5360380I540103J-187139D01*
G02X1381000Y5401780I538204J-238475D01*
G02X1403090Y5437850I362171J-197002D01*
G02X1445260Y5490680I363042J-246542D01*
G02X1501390Y5545030I568569J-531031D01*
G02X1559810Y5591010I485064J-556196D01*
G02X1608070Y5617170I130316J-182812D01*
G02X1634740Y5624540I48933J-125133D01*
G37*
G36*
G01X1988700Y1672500D02*
X2039500D01*
Y1634400D01*
X2077600D01*
Y1583600D01*
X2039500D01*
Y1545500D01*
X1988700D01*
Y1583600D01*
X1950600D01*
Y1634400D01*
X1988700D01*
Y1672500D01*
G37*
G36*
G01X1994600Y2413500D02*
X2045400D01*
Y2375400D01*
X2083500D01*
Y2324600D01*
X2045400D01*
Y2286500D01*
X1994600D01*
Y2324600D01*
X1956500D01*
Y2375400D01*
X1994600D01*
Y2413500D01*
G37*
G36*
G01X1826770Y5378660D02*
G02X1848360Y5382220I54701J-264490D01*
G02X1872490Y5384510I43667J-331850D01*
G02X1900170Y5385270I29298J-562624D01*
G02X1981960Y5376890I2191J-381949D01*
G02X2041400Y5350220I-32203J-151344D01*
G02X2088640Y5299160I-109359J-148561D01*
G02X2133340Y5213820I-552215J-343620D01*
G02X2162050Y5145490I-2942207J-1276414D01*
G02X2179320Y5098250I-658632J-267560D01*
G02X2189480Y5060910I-360800J-118224D01*
G02X2194560Y5026370I-248940J-54257D01*
G02X2183640Y4923240I-287372J-21715D01*
G02X2136650Y4814280I-470251J138188D01*
G02X2060950Y4712930I-478351J278343D01*
G02X1965200Y4633430I-378110J357986D01*
G02X1911350Y4605490I-176041J273428D01*
G02X1860290Y4592530I-71298J173837D01*
G02X1817110Y4595840I-12375J121868D01*
G02X1786130Y4614380I14919J60083D01*
G02X1770890Y4650190I45143J40360D01*
G02X1779520Y4689820I71130J5265D01*
G02X1815590Y4735790I156552J-85701D01*
G02X1882900Y4790910I551738J-605099D01*
G03X1972310Y4868890I-426006J578696D01*
G03X2045210Y4958550I-459893J448393D01*
G03X2095240Y5051510I-449655J301942D01*
G03X2117340Y5139900I-278360J116556D01*
G01X2120640Y5176230D01*
X2100070Y5188930D01*
G03X2053840Y5208990I-92130J-149022D01*
G03X1999490Y5217370I-64207J-235987D01*
G03X1931410Y5214330I-16261J-399678D01*
G03X1842510Y5199090I160430J-1202752D01*
G02X1782570Y5187910I-290760J1392601D01*
G02X1743200Y5184610I-42071J265420D01*
G02X1715510Y5187400I-2129J117678D01*
G02X1695450Y5196800I10755J49056D01*
G02X1686300Y5205440I47500J59469D01*
G02X1682240Y5213060I14400J12564D01*
G02X1680720Y5223470I32910J10121D01*
G02X1681730Y5244300I431085J-10463D01*
G02X1683760Y5262590I215081J-14614D01*
G02X1687320Y5276300I74549J-12040D01*
G02X1693160Y5288240I60476J-22181D01*
G02X1702310Y5300940I105553J-66402D01*
G02X1724400Y5324820I177528J-142064D01*
G02X1749550Y5345140I152184J-162634D01*
G02X1777240Y5361390I124578J-180563D01*
G02X1806700Y5373330I93583J-188587D01*
G02X1826770Y5378660I64159J-201137D01*
G37*
G36*
G01X2115700Y1939200D02*
Y2015400D01*
X2217300D01*
Y1939200D01*
X2115700D01*
G37*
G36*
G01Y1583600D02*
Y1659800D01*
X2217300D01*
Y1583600D01*
X2115700D01*
G37*
G36*
G01Y2439200D02*
Y2515400D01*
X2217300D01*
Y2439200D01*
X2115700D01*
G37*
G36*
G01Y2083600D02*
Y2159800D01*
X2217300D01*
Y2083600D01*
X2115700D01*
G37*
G36*
G01X2633980Y5414730D02*
G02X2694180Y5408380I2677J-263153D01*
G02X2749040Y5389080I-53343J-239245D01*
G02X2791710Y5358850I-69754J-143688D01*
G02X2809240Y5337010I-101695J-99581D01*
G02X2826760Y5307540I-262115J-175771D01*
G02X2840230Y5278840I-321456J-168383D01*
G02X2840480Y5264870I-17399J-7299D01*
G02X2836920Y5261570I-5666J2542D01*
G02X2823970Y5256490I-98410J231822D01*
G02X2807460Y5251160I-82171J226295D01*
G02X2788410Y5246330I-106601J380463D01*
G02X2756910Y5239220I-481260J2058830D01*
G02X2745230Y5237950I-11992J55948D01*
G02X2738370Y5240230I157J11933D01*
G02X2733040Y5246080I10646J15053D01*
G03X2719580Y5265380I-132384J-77982D01*
G03X2703570Y5282650I-122533J-97537D01*
G03X2686300Y5295860I-90835J-100859D01*
G03X2670300Y5303230I-33316J-51276D01*
G03X2629910Y5307540I-31706J-105721D01*
G03X2591560Y5296880I8033J-103212D01*
G03X2565910Y5275030I31462J-62914D01*
G03X2560060Y5247850I28401J-20332D01*
G03X2565650Y5232360I56821J11752D01*
G03X2575560Y5217120I78608J40274D01*
G03X2589270Y5203400I76208J62442D01*
G03X2605280Y5192990I58530J72499D01*
G03X2614420Y5188930I44477J87810D01*
G03X2633980Y5181050I575438J1400156D01*
G03X2657350Y5172420I552074J1459055D01*
G03X2682240Y5163530I673128J1845320D01*
G02X2707890Y5154380I-299045J-878833D01*
G02X2733290Y5144220I-339651J-885957D01*
G02X2755390Y5134570I-327702J-780619D01*
G02X2768600Y5127710I-56625J-125188D01*
G02X2829810Y5067010I-87384J-149330D01*
G02X2853180Y4984710I-143150J-85117D01*
G02X2832610Y4902920I-161382J-2895D01*
G02X2773680Y4842720I-140406J78501D01*
G02X2712970Y4818590I-109729J187637D01*
G02X2643380Y4811230I-64776J279792D01*
G02X2574290Y4820880I4615J285193D01*
G02X2515360Y4846790I53592J201861D01*
G02X2494280Y4862540I105963J163805D01*
G02X2476500Y4880060I102434J121736D01*
G02X2460750Y4901400I138676J118832D01*
G02X2445510Y4928320I285439J179367D01*
G02X2435350Y4952710I168366J84446D01*
G02X2435100Y4967950I23076J8001D01*
G02X2443730Y4978360I16893J-5223D01*
G02X2463800Y4985980I42595J-81948D01*
G02X2506220Y4996140I501472J-2000108D01*
G02X2522980Y4997920I15208J-63401D01*
G02X2532380Y4993850I-602J-14281D01*
G02X2539490Y4983440I-21245J-22144D01*
G03X2556760Y4956520I85172J35641D01*
G03X2582670Y4935430I82927J75419D01*
G03X2615440Y4921970I63838J108801D01*
G03X2652010Y4917650I35216J141167D01*
G03X2692400Y4923500I-111J143120D01*
G03X2722370Y4940770I-20971J71032D01*
G03X2736850Y4966680I-35788J37002D01*
G03X2735580Y4997410I-55898J13081D01*
G03X2724400Y5016710I-52844J-17723D01*
G03X2704840Y5033730I-72580J-63663D01*
G03X2674110Y5049990I-106716J-164515D01*
G03X2626360Y5068780I-342325J-799864D01*
G02X2578350Y5086820I506487J1420823D01*
G02X2545840Y5101550I133434J337738D01*
G02X2520950Y5116790I102423J195222D01*
G02X2497830Y5135080I132662J191452D01*
G02X2473960Y5160220I143301J159964D01*
G02X2458970Y5185120I85438J68397D01*
G02X2450840Y5213560I104539J45266D01*
G02X2448300Y5249380I240701J35068D01*
G02X2450840Y5283920I242821J-493D01*
G02X2458460Y5311860I116620J-16796D01*
G02X2472180Y5335990I99238J-40460D01*
G02X2493520Y5359360I141425J-107712D01*
G02X2513840Y5376630I211080J-227769D01*
G02X2532380Y5388820I93843J-122534D01*
G02X2552440Y5398220I74105J-132039D01*
G02X2576830Y5406350I99571J-258063D01*
G02X2633980Y5414730I60305J-212202D01*
G37*
G36*
G01X3125470Y5241250D02*
G02X3170170Y5234140I-13406J-228348D01*
G02X3213100Y5218140I-59372J-224897D01*
G02X3247390Y5195530I-66515J-138182D01*
G02X3295390Y5126440I-116825J-132382D01*
G02X3313680Y5033730I-255363J-98538D01*
G02X3299460Y4939750I-277313J-6106D01*
G02X3254250Y4866850I-177470J59592D01*
G02X3227830Y4844250I-160829J161271D01*
G02X3201920Y4829770I-70648J95995D01*
G02X3171950Y4821640I-50200J125751D01*
G02X3132070Y4817830I-54603J360923D01*
G02X3103880Y4817070I-31810J656721D01*
G02X3085080Y4818340I200J142748D01*
G02X3068830Y4821900I13181J99033D01*
G02X3051050Y4828500I52483J168635D01*
G02X3038600Y4834340I74449J174905D01*
G02X3026410Y4841200I94499J182182D01*
G02X3016250Y4847800I90320J150158D01*
G02X3009900Y4853390I22120J31529D01*
G03X3004310Y4854660I-3670J-3217D01*
G03X3000250Y4849330I2814J-6355D01*
G03X2998470Y4828250I187558J-26453D01*
G01X2996180Y4759410D01*
X2993390Y4653750D01*
X2941320Y4651970D01*
X2889500Y4650190D01*
Y5232110D01*
X2938520Y5230330D01*
X2987290Y5228550D01*
X2989320Y5205940D01*
X2991100Y5183590D01*
X3012180Y5201880D01*
G02X3028690Y5215090I131100J-146928D01*
G02X3044700Y5224490I67820J-97176D01*
G02X3062730Y5231600I56780J-117571D01*
G02X3085080Y5237950I86230J-260996D01*
G02X3125470Y5241250I31867J-141209D01*
G37*
G36*
G01X3524500Y5240740D02*
G02X3566160Y5236680I2282J-192349D01*
G02X3604260Y5223980I-36378J-172635D01*
G02X3636010Y5203660I-57434J-124706D01*
G01X3659380Y5183850D01*
X3662930Y5228550D01*
X3711950Y5230330D01*
X3760720Y5232110D01*
Y4822150D01*
X3711950Y4823930D01*
X3662930Y4825450D01*
X3659380Y4870660D01*
X3639560Y4853140D01*
G02X3614420Y4835360I-99876J114556D01*
G02X3587240Y4823930I-61966J109322D01*
G02X3555740Y4818090I-43601J147303D01*
G02X3516880Y4817580I-23739J328111D01*
G02X3478270Y4821900I13464J295034D01*
G02X3446020Y4831040I28846J163248D01*
G02X3418580Y4845770I52349J130443D01*
G02X3394200Y4866350I87365J128227D01*
G02X3352290Y4934420I135922J130623D01*
G02X3336540Y5022050I269074J93592D01*
G02X3348480Y5109930I283503J6232D01*
G02X3387090Y5179780I179529J-53640D01*
G02X3407410Y5199590I142190J-125524D01*
G02X3429510Y5215340I103743J-122189D01*
G02X3454400Y5227280I83401J-141943D01*
G02X3482080Y5235660I72710J-190262D01*
G02X3524500Y5240740I45619J-201285D01*
G37*
G36*
G01X4002020Y5240490D02*
G02X4036310Y5239470I6915J-344420D01*
G02X4071110Y5234900I-28855J-354508D01*
G02X4101340Y5227280I-40643J-225014D01*
G02X4129530Y5213560I-32473J-102541D01*
G02X4159760Y5188930I-144832J-208628D01*
G02X4185410Y5160480I-171633J-180529D01*
G02X4199130Y5134570I-68981J-53115D01*
G02X4201670Y5125930I-175864J-56394D01*
G02X4203700Y5118060I-106769J-31737D01*
G02X4204710Y5111710I-117341J-21919D01*
G02X4203950Y5109680I-2408J-256D01*
G02X4201920Y5108410I-3617J3524D01*
G02X4190490Y5104850I-339513J1069938D01*
G02X4177280Y5101040I-168277J558642D01*
G02X4161790Y5096720I-282816J984149D01*
G01X4121910Y5086310D01*
X4102860Y5108410D01*
G03X4085590Y5125170I-101396J-87204D01*
G03X4068060Y5135330I-43348J-54590D01*
G03X4047230Y5140920I-31421J-75481D01*
G03X4019040Y5142700I-28518J-227533D01*
G03X3973830Y5131780I465J-100974D01*
G03X3938520Y5102060I43577J-87609D01*
G03X3918710Y5056850I92062J-67285D01*
G03X3917440Y5003250I154382J-30473D01*
G03X3928620Y4967690I122556J18994D01*
G03X3949190Y4939500I85827J41028D01*
G03X3978400Y4920960I64018J68581D01*
G03X4014470Y4912570I45041J111910D01*
G03X4043420Y4913590I9556J140123D01*
G03X4069590Y4920450I-13974J106657D01*
G03X4090410Y4932640I-32264J78980D01*
G03X4104130Y4949150I-32935J41325D01*
G02X4113270Y4961600I47630J-25387D01*
G02X4123690Y4966930I13626J-13789D01*
G02X4139180Y4967180I8458J-44023D01*
G02X4169660Y4961090I-97989J-569749D01*
G02X4200140Y4952710I-79872J-350133D01*
G02X4209790Y4944070I-4757J-15022D01*
G02X4209290Y4931370I-13690J-5821D01*
G02X4194300Y4904950I-282364J142743D01*
G02X4173980Y4878030I-168462J106031D01*
G02X4148830Y4854660I-155356J141971D01*
G02X4121400Y4836120I-123144J152631D01*
G02X4093460Y4824690I-65546J120359D01*
G02X4053080Y4817580I-52465J179747D01*
G02X4002530Y4817320I-27438J420367D01*
G02X3953510Y4823170I24172J410854D01*
G02X3918200Y4834600I24101J134710D01*
G02X3890260Y4851360I77770J161317D01*
G02X3865120Y4873200I116905J159958D01*
G02X3843780Y4899110I144907J141091D01*
G02X3826760Y4928320I165850J116201D01*
G02X3818380Y4949400I208752J95192D01*
G02X3813810Y4967180I95167J33938D01*
G02X3811780Y4989280I169960J26755D01*
G02X3811270Y5027130I1329152J36838D01*
G02X3811780Y5067510I1459142J1764D01*
G02X3814060Y5088850I137438J-3892D01*
G02X3819400Y5106880I90394J-16967D01*
G02X3830830Y5132030I371532J-153679D01*
G02X3855720Y5171150I184298J-89781D01*
G02X3887980Y5201880I139465J-114110D01*
G02X3927350Y5224230I110203J-148274D01*
G02X3972560Y5237440I83431J-201567D01*
G02X4002020Y5240490I34299J-187497D01*
G37*
G36*
G01X3450310Y7218900D02*
X3424910Y7244300D01*
Y7193500D01*
X3450310Y7218900D01*
G37*
G36*
G01X4430270Y5241250D02*
G02X4473950Y5237190I-1268J-250637D01*
G02X4515100Y5225500I-44386J-234516D01*
G02X4548120Y5207720I-50352J-133063D01*
G02X4581900Y5176230I-106212J-147799D01*
G02X4606800Y5136860I-143207J-118132D01*
G02X4622290Y5090120I-189965J-88892D01*
G02X4628130Y5036780I-292016J-58962D01*
G01X4629150Y4997410D01*
X4485380Y4995890D01*
G03X4423150Y4994870I56503J-5346048D01*
G03X4378700Y4993090I36215J-1460256D01*
G03X4344410Y4991060I147134J-2775949D01*
G03X4341620Y4988270I99J-2889D01*
G03X4342130Y4984460I11179J-443D01*
G03X4345180Y4976840I188777J71140D01*
G03X4348990Y4967950I188036J75325D01*
G03X4353810Y4958290I256162J121783D01*
G03X4383020Y4924770I81893J41876D01*
G03X4424930Y4908760I52972J75808D01*
G03X4471410Y4913840I12395J101771D01*
G03X4513580Y4938990I-41687J117827D01*
G01X4536950Y4960070D01*
X4575550Y4947120D01*
G02X4590540Y4941780I-137715J-410292D01*
G02X4603750Y4936450I-96960J-259343D01*
G02X4614420Y4931620I-125829J-292171D01*
G02X4617460Y4928830I-3242J-6584D01*
G02X4617210Y4913590I-11944J-7426D01*
G02X4594860Y4884890I-226050J152983D01*
G02X4565140Y4855930I-209119J184877D01*
G02X4534660Y4835360I-112190J133372D01*
G02X4515360Y4826720I-85165J164364D01*
G02X4498590Y4822150I-29922J76746D01*
G02X4477000Y4820120I-25709J157598D01*
G02X4436360Y4819610I-41524J1689430D01*
G02X4397250Y4820120I434J1533126D01*
G02X4374890Y4822150I5577J185592D01*
G02X4357620Y4826210I13210J94954D01*
G02X4339080Y4834090I53414J151423D01*
G02X4311140Y4850850I79316J163894D01*
G02X4285990Y4872950I121226J163317D01*
G02X4264400Y4899370I150713J145192D01*
G02X4247640Y4928320I163730J114114D01*
G02X4239000Y4949400I208752J97871D01*
G02X4234690Y4967180I95371J32531D01*
G02X4232400Y4989030I167746J28626D01*
G02X4231890Y5027130I1333172J36899D01*
G02X4232400Y5064720I1315903J945D01*
G02X4234430Y5086820I174296J-4867D01*
G02X4239000Y5104600I100573J-16373D01*
G02X4247390Y5125170I205251J-71721D01*
G02X4272530Y5166570I209073J-98626D01*
G02X4304280Y5199090I143363J-108209D01*
G02X4343140Y5222450I111044J-140723D01*
G02X4389370Y5237190I93112J-212167D01*
G02X4430270Y5241250I39438J-189253D01*
G37*
G36*
G01X4504600Y6323500D02*
X4555400D01*
Y6285400D01*
X4593500D01*
Y6234600D01*
X4555400D01*
Y6196500D01*
X4504600D01*
Y6234600D01*
X4466500D01*
Y6285400D01*
X4504600D01*
Y6323500D01*
G37*
G36*
G01X4625700Y6293600D02*
Y6369800D01*
X4727300D01*
Y6293600D01*
X4625700D01*
G37*
G36*
G01Y6649200D02*
Y6725400D01*
X4727300D01*
Y6649200D01*
X4625700D01*
G37*
G36*
G01X4504600Y7123500D02*
X4555400D01*
Y7085400D01*
X4593500D01*
Y7034600D01*
X4555400D01*
Y6996500D01*
X4504600D01*
Y7034600D01*
X4466500D01*
Y7085400D01*
X4504600D01*
Y7123500D01*
G37*
G36*
G01X4625700Y7149200D02*
Y7225400D01*
X4727300D01*
Y7149200D01*
X4625700D01*
G37*
G36*
G01Y6793600D02*
Y6869800D01*
X4727300D01*
Y6793600D01*
X4625700D01*
G37*
G36*
G01X5254240Y5231600D02*
X5361180D01*
X5359650Y5028400D01*
X5358130Y4825450D01*
X5257290D01*
X5255770Y5028400D01*
X5254240Y5231600D01*
G37*
G36*
G01X5295900Y5418540D02*
G02X5306820Y5420320I11083J-33607D01*
G02X5317740Y5418800I616J-35563D01*
G02X5334000Y5412700I-60255J-185334D01*
G02X5349490Y5404060I-27355J-67248D01*
G02X5359650Y5392630I-23238J-30887D01*
G02X5365240Y5377650I-38330J-22836D01*
G02X5367020Y5356820I-120323J-20773D01*
G02X5362450Y5335480I-53660J332D01*
G02X5350000Y5317960I-46581J19918D01*
G02X5330440Y5306530I-37678J42026D01*
G02X5306820Y5302720I-23265J69107D01*
G02X5270240Y5315420I-290J58196D01*
G02X5249420Y5348440I38303J47225D01*
G02X5253230Y5386540I55917J13649D01*
G02X5279900Y5412450I47681J-22399D01*
G02X5295900Y5418540I74407J-171423D01*
G37*
G36*
G01X5052310Y5435560D02*
G02X5081780Y5429460I508J-71784D01*
G02X5102100Y5412950I-20574J-46081D01*
G02X5110990Y5388820I-38988J-28067D01*
G02X5107940Y5364690I-57130J-5037D01*
G02X5094730Y5340820I-82638J30143D01*
G02X5069580Y5314150I-142290J108988D01*
G02X5027670Y5280370I-511628J591876D01*
G03X4982720Y5243790I445670J-593553D01*
G03X4942080Y5204930I430122J-490505D01*
G03X4907530Y5165560I411076J-395593D01*
G03X4881120Y5127200I280475J-221372D01*
G03X4862830Y5092910I291525J-177520D01*
G03X4847590Y5054810I390790J-178414D01*
G03X4837170Y5018240I366171J-124104D01*
G03X4833620Y4990040I121479J-29616D01*
G03X4834380Y4975060I143786J-214D01*
G03X4837170Y4966930I17882J1593D01*
G03X4843780Y4960580I17642J11749D01*
G03X4858760Y4951940I119684J190201D01*
G03X4892040Y4940510I55617J107770D01*
G03X4935470Y4935940I51026J276269D01*
G03X4986020Y4937970I10481J369415D01*
G03X5040630Y4946610I-56071J531309D01*
G02X5111490Y4959310I215260J-997019D01*
G02X5152640Y4958290I17540J-122954D01*
G02X5174490Y4944580I-6990J-35407D01*
G02X5183120Y4918920I-33925J-25691D01*
G02X5169660Y4872440I-85547J-416D01*
G02X5131310Y4833580I-113115J73277D01*
G02X5073390Y4807670I-105028J157090D01*
G02X5003800Y4798780I-69888J270259D01*
G02X4935730Y4808180I-85J250551D01*
G02X4885940Y4836120I33721J118426D01*
G02X4844290Y4890220I134017J146258D01*
G02X4800600Y4985470I913432J476625D01*
G02X4784340Y5027890I1631664J649759D01*
G02X4776720Y5052780I201830J75401D01*
G02X4773420Y5074880I133408J31217D01*
G02X4772400Y5104090I387705J28161D01*
G02X4779770Y5165810I268466J-758D01*
G02X4801360Y5226770I303272J-73106D01*
G02X4837170Y5286210I328514J-157408D01*
G02X4886960Y5344370I427971J-315988D01*
G02X4921760Y5377140I440888J-433337D01*
G02X4954010Y5401520I209168J-243169D01*
G02X4985260Y5419300I137240J-204860D01*
G02X5016750Y5430990I81935J-172455D01*
G02X5052310Y5435560I35042J-132036D01*
G37*
G36*
G01X5840310Y2558900D02*
X5814910Y2584300D01*
Y2533500D01*
X5840310Y2558900D01*
G37*
G36*
G01X5432800Y5227530D02*
G02X5443220Y5229820I21765J-74182D01*
G02X5458970Y5231090I20092J-150875D01*
G02X5482330Y5231600I26353J-671809D01*
G01X5532880D01*
Y4822150D01*
X5481060Y4823930D01*
X5429250Y4825450D01*
X5427720Y5021030D01*
X5427220Y5096470D01*
G02Y5161240I7363138J32385D01*
G01X5427720Y5218140D01*
G02X5428990Y5223980I16786J-592D01*
G02X5432800Y5227530I5457J-2037D01*
G37*
G36*
G01X5931910Y5401020D02*
X6001000Y5402290D01*
G02X6078980Y5403050I114455J-7742732D01*
G01X6170930Y5403300D01*
X6409940D01*
Y5302970D01*
X6316720Y5301190D01*
X6223250Y5299670D01*
X6220200Y4822660D01*
X6113780D01*
Y5302720D01*
X5924040D01*
Y5348950D01*
G02X5924290Y5367230I576441J1258D01*
G02X5925310Y5382980I338763J-14031D01*
G02X5926330Y5396190I463601J-29152D01*
G02X5928100Y5399490I5567J-861D01*
G02X5931910Y5401020I3799J-3950D01*
G37*
G36*
G01X5485640Y5419560D02*
G02X5513830Y5410160I-5138J-62379D01*
G02X5534150Y5389080I-31633J-50826D01*
G02X5541520Y5361390I-48590J-27759D01*
G02X5540500Y5347930I-99946J805D01*
G02X5537710Y5338280I-32561J4186D01*
G02X5531860Y5329390I-33396J15606D01*
G02X5521450Y5319230I-97883J89879D01*
G02X5509510Y5309320I-105162J114556D01*
G02X5500370Y5304750I-18514J25603D01*
G02X5490210Y5303230I-9776J30626D01*
G02X5474460Y5304240I2664J164855D01*
G02X5461000Y5306530I12888J116457D01*
G02X5450330Y5310340I13259J53978D01*
G02X5441690Y5315670I18836J40201D01*
G02X5433820Y5323040I33113J43247D01*
G02X5421630Y5347170I42529J36629D01*
G02X5421880Y5374600I58765J13181D01*
G02X5434070Y5398980I58239J-13882D01*
G02X5455920Y5414990I43217J-36066D01*
G02X5485640Y5419560I24414J-59848D01*
G37*
G36*
G01X5833870Y5240740D02*
G02X5879340Y5235660I2726J-181634D01*
G02X5920230Y5219660I-39626J-161520D01*
G02X5951470Y5194510I-56370J-101997D01*
G02X5971030Y5165560I-101001J-89324D01*
G02X5980940Y5134060I-98283J-48229D01*
G02X5985250Y5085040I-345626J-55088D01*
G02X5986270Y4976580I-6372856J-114168D01*
G01Y4825450D01*
X5934450Y4823930D01*
X5882640Y4822150D01*
X5882380Y4942290D01*
G03X5881370Y5032970I-4290576J-2443D01*
G03X5877300Y5077930I-325442J-6796D01*
G03X5868410Y5105870I-99455J-16260D01*
G03X5852410Y5126950I-61777J-30278D01*
G03X5840470Y5136350I-83343J-93580D01*
G03X5831080Y5140920I-17764J-24568D01*
G03X5819390Y5142190I-10403J-41316D01*
G03X5798820Y5141430I2747J-353111D01*
G03X5780020Y5139400I17345J-248701D01*
G03X5767070Y5136090I9142J-62756D01*
G03X5756650Y5130510I16791J-43874D01*
G03X5745730Y5121620I54040J-77532D01*
G03X5726940Y5099260I89559J-94335D01*
G03X5717790Y5076910I53510J-34955D01*
G03X5713470Y5041610I209103J-43504D01*
G03X5710680Y4952960I5897507J-229976D01*
G01X5707630Y4825450D01*
X5655820Y4823930D01*
X5604000Y4822150D01*
Y5232110D01*
X5652770Y5230330D01*
X5701790Y5228550D01*
X5704840Y5205440D01*
G03X5706620Y5191470I462181J51791D01*
G03X5708650Y5187400I8120J1509D01*
G03X5711190I1270J1274D01*
G03X5716010Y5192230I-26092J30858D01*
G02X5729220Y5205440I72180J-58970D01*
G02X5745990Y5216870I81721J-101882D01*
G02X5766050Y5226520I77726J-135899D01*
G02X5788660Y5234390I81101J-196585D01*
G02X5833870Y5240740I47151J-171584D01*
G37*
G36*
G01X6505190Y5240490D02*
G02X6539740Y5238710I1842J-300441D01*
G02X6573260Y5233120I-31541J-292431D01*
G02X6601460Y5224230I-34979J-160129D01*
G02X6643620Y5196550I-56086J-131373D01*
G02X6677660Y5153870I-132983J-140977D01*
G02X6700010Y5100530I-188670J-110407D01*
G02X6708390Y5041860I-231258J-62965D01*
G01X6709410Y4997410D01*
X6565140Y4995890D01*
X6421120Y4994110D01*
X6425180Y4980900D01*
G03X6452360Y4934930I111178J34714D01*
G03X6495290Y4910030I64353J61493D01*
G03X6545830Y4911560I22557J90368D01*
G03X6593840Y4938990I-38958J123917D01*
G01X6617210Y4960070D01*
X6655810Y4947120D01*
G02X6670800Y4941780I-139108J-414202D01*
G02X6684010Y4936450I-97775J-261362D01*
G02X6694680Y4931620I-127658J-296211D01*
G02X6697720Y4929080I-2803J-6444D01*
G02X6696710Y4909780I-14680J-8908D01*
G02X6667500Y4876250I-235631J175784D01*
G02X6629650Y4844500I-211943J214227D01*
G02X6593580Y4826720I-76690J110103D01*
G02X6559550Y4819360I-53450J164784D01*
G02X6516620Y4816820I-44814J393372D01*
G02X6473950Y4819100I-383J393263D01*
G02X6441440Y4826210I15879J150486D01*
G02X6399020Y4846790I60299J178299D01*
G02X6363210Y4877270I100781J154680D01*
G02X6336030Y4916130I139827J126735D01*
G02X6318500Y4961600I185259J97537D01*
G02X6310630Y5056850I271027J70344D01*
G02X6337300Y5141680I209375J-19219D01*
G02X6394700Y5204170I164836J-93803D01*
G02X6475220Y5237440I117859J-171170D01*
G02X6505190Y5240490I32817J-173692D01*
G37*
G36*
G01X6898700Y1662500D02*
X6949500D01*
Y1624400D01*
X6987600D01*
Y1573600D01*
X6949500D01*
Y1535500D01*
X6898700D01*
Y1573600D01*
X6860600D01*
Y1624400D01*
X6898700D01*
Y1662500D01*
G37*
G36*
G01X7025700Y1929200D02*
Y2005400D01*
X7127300D01*
Y1929200D01*
X7025700D01*
G37*
G36*
G01Y1573600D02*
Y1649800D01*
X7127300D01*
Y1573600D01*
X7025700D01*
G37*
G36*
G01X6894600Y2403500D02*
X6945400D01*
Y2365400D01*
X6983500D01*
Y2314600D01*
X6945400D01*
Y2276500D01*
X6894600D01*
Y2314600D01*
X6856500D01*
Y2365400D01*
X6894600D01*
Y2403500D01*
G37*
G36*
G01X7025700Y2429200D02*
Y2505400D01*
X7127300D01*
Y2429200D01*
X7025700D01*
G37*
G36*
G01Y2073600D02*
Y2149800D01*
X7127300D01*
Y2073600D01*
X7025700D01*
G37*
G36*
G01X7175240Y5411180D02*
G02X7185660Y5413460I22081J-75965D01*
G02X7201660Y5414730I20334J-154756D01*
G02X7224770Y5415240I26145J-660851D01*
G01X7275320D01*
Y5189430D01*
X7294880Y5204420D01*
G02X7320020Y5220680I122217J-161398D01*
G02X7344920Y5231340I66169J-120148D01*
G02X7372600Y5237440I46362J-144527D01*
G02X7406130Y5239470I34440J-290923D01*
G02X7443210Y5236680I1022J-234216D01*
G02X7474960Y5227790I-22592J-141828D01*
G02X7501380Y5213060I-43844J-109698D01*
G02X7522210Y5192480I-63269J-84869D01*
G02X7539480Y5162760I-114591J-86466D01*
G02X7548620Y5131010I-113280J-49801D01*
G02X7552690Y5081990I-385447J-56682D01*
G02X7553700Y4975060I-6791893J-117622D01*
G01X7553960Y4822150D01*
X7501890Y4823930D01*
X7450070Y4825450D01*
X7447280Y4961850D01*
G03X7444480Y5055070I-6344501J-143914D01*
G03X7440170Y5094180I-276553J-10684D01*
G03X7431780Y5116790I-65910J-11596D01*
G03X7416290Y5133300I-46594J-28194D01*
G03X7397240Y5141170I-26838J-37973D01*
G03X7370820Y5142700I-20529J-125619D01*
G03X7343650Y5138630I6163J-133864D01*
G03X7322560Y5129240I16220J-64810D01*
G03X7298690Y5106630I56868J-83942D01*
G03X7285480Y5078940I61380J-46278D01*
G03X7279130Y5035000I214694J-53455D01*
G03X7276340Y4945340I2997365J-138144D01*
G01X7274560Y4822150D01*
X7223000Y4823930D01*
X7171690Y4825450D01*
X7170160Y5112980D01*
X7169660Y5223720D01*
X7169910Y5318210D01*
X7170160Y5401780D01*
G02X7171430Y5407870I17362J-443D01*
G02X7175240Y5411180I5192J-2129D01*
G37*
G36*
G01X6929120Y5240490D02*
G02X6963410Y5239470I6625J-354163D01*
G02X6997700Y5235410I-24888J-357034D01*
G02X7027160Y5228040I-36677J-209174D01*
G02X7053320Y5216100I-40372J-123081D01*
G02X7078220Y5198320I-82925J-142457D01*
G02X7100060Y5175210I-117952J-133345D01*
G02X7117840Y5148290I-147060J-116461D01*
G02X7128000Y5128730I-694386J-373102D01*
G02X7130790Y5120600I-24887J-13084D01*
G02X7129520Y5114760I-7983J-1322D01*
G02X7124190Y5109420I-17917J12553D01*
G02X7118090Y5105870I-17921J23779D01*
G02X7107430Y5101800I-75329J181305D01*
G02X7094470Y5097740I-75526J218373D01*
G02X7081520Y5094440I-64656J226664D01*
G01X7049260Y5087070D01*
X7029190Y5108920D01*
G03X7011160Y5125680I-117787J-108634D01*
G03X6994140Y5135840I-43788J-54017D01*
G03X6974330Y5140920I-28638J-70510D01*
G03X6947410Y5142440I-25813J-218026D01*
G03X6907020Y5135330I140J-119070D01*
G03X6875270Y5115010I29819J-81557D01*
G03X6853930Y5081990I67716J-67169D01*
G03X6843770Y5038560I145730J-56995D01*
G03X6848350Y4988010I149384J-11948D01*
G03X6869680Y4947120I100199J26260D01*
G03X6905750Y4920700I73339J62294D01*
G03X6952490Y4911560I46190J112128D01*
G03X6974840Y4913590I263J121158D01*
G03X6994400Y4919690I-15260J83343D01*
G03X7011670Y4930350I-34554J75300D01*
G03X7027160Y4945590I-69077J85702D01*
G02X7033260Y4952450I165570J-141085D01*
G02X7039350Y4958800I146895J-134785D01*
G02X7044690Y4963880I120612J-121438D01*
G02X7048240Y4966680I16602J-17398D01*
G02X7060440Y4968960I8980J-14272D01*
G02X7094980Y4960830I-134538J-649016D01*
G02X7129020Y4951180I-178432J-694276D01*
G02X7136890Y4943820I-3674J-11816D01*
G02X7135370Y4923500I-21668J-8596D01*
G02X7112000Y4890730I-226689J136946D01*
G02X7080500Y4857960I-219194J179175D01*
G02X7047480Y4835360I-112631J129138D01*
G02X7027920Y4826470I-86041J163346D01*
G02X7011160Y4822150I-28510J75939D01*
G02X6989060Y4820120I-26262J164593D01*
G02X6946390Y4819610I-44398J1929361D01*
G02X6904990Y4820120I1026J1763860D01*
G02X6882130Y4821900I3419J191589D01*
G02X6864860Y4826210I14155J93472D01*
G02X6845810Y4834090I53180J155529D01*
G02X6818370Y4850850I79849J161574D01*
G02X6792720Y4872950I134678J182247D01*
G02X6770370Y4898860I162049J162378D01*
G02X6753600Y4926290I146889J108645D01*
G02X6745730Y4945340I149677J72986D01*
G02X6741410Y4962610I87847J31150D01*
G02X6739380Y4985470I187214J28145D01*
G02X6738870Y5027130I1784790J42682D01*
G02X6739380Y5067770I1723714J-1308D01*
G02X6741410Y5090630I200980J-6327D01*
G02X6745220Y5107900I96207J-12169D01*
G02X6752590Y5125680I129342J-43196D01*
G02X6779260Y5167080I203810J-102004D01*
G02X6813040Y5200100I152019J-121729D01*
G02X6853680Y5223720I116050J-152901D01*
G02X6899910Y5237440I83101J-195266D01*
G02X6929120Y5240490I34542J-189416D01*
G37*
%LPC*%
G75*
G36*
G01X3120130Y5141940D02*
G03X3092190Y5142440I-16954J-166482D01*
G03X3063490Y5138130I11571J-174762D01*
G03X3041140Y5129240I20010J-82846D01*
G03X3018030Y5110950I48761J-85357D01*
G03X3001770Y5086820I65893J-61945D01*
G03X2993130Y5056850I98315J-44574D01*
G03X2991360Y5020520I192883J-27605D01*
G03X2995930Y4986230I201334J9383D01*
G03X3006340Y4959560I93583J21161D01*
G03X3023110Y4938990I69608J39628D01*
G03X3046980Y4923240I71070J81747D01*
G03X3102610Y4911300I51900J106246D01*
G03X3154170Y4927810I-3081J98386D01*
G03X3190240Y4969720I-57995J86390D01*
G03X3203450Y5027890I-123533J58638D01*
G03X3199640Y5061930I-140169J1544D01*
G03X3187190Y5092150I-110413J-27813D01*
G03X3167380Y5117040I-93789J-54319D01*
G03X3140450Y5135840I-81920J-88658D01*
G03X3120130Y5141940I-26207J-50404D01*
G37*
G36*
G01X3565140Y5142700D02*
G03X3518410Y5136860I-9316J-115337D01*
G03X3478270Y5112980I36567J-107141D01*
G03X3453130Y5075640I66731J-72061D01*
G03X3448050Y5054310I77437J-29713D01*
G03X3447030Y5025860I240576J-22869D01*
G03X3449320Y4997160I244238J5047D01*
G03X3455160Y4975820I84759J11726D01*
G03X3486660Y4934420I95722J40148D01*
G03X3534660Y4913080I66520J84970D01*
G03X3587490Y4916640I19305J107297D01*
G03X3631440Y4944830I-32903J99653D01*
G03X3645150Y4962360I-89032J83757D01*
G03X3653790Y4980390I-69098J44197D01*
G03X3658610Y5001730I-95821J32857D01*
G03X3660140Y5029410I-253602J27900D01*
G03X3656580Y5061160I-150311J-779D01*
G03X3646680Y5089100I-112491J-24135D01*
G03X3630670Y5112220I-90992J-45907D01*
G03X3609340Y5129240I-65973J-60804D01*
G03X3565140Y5142700I-52327J-92529D01*
G37*
G36*
G01X4435090Y5147270D02*
G03X4401310Y5141170I-1427J-88682D01*
G03X4371850Y5122890I32683J-85551D01*
G03X4350000Y5093930I72981J-77786D01*
G03X4346700Y5087580I204379J-110245D01*
G03X4344160Y5081740I141563J-65043D01*
G03X4342130Y5076660I161599J-67521D01*
G03X4341620Y5074630I5072J-2353D01*
G03X4342890Y5073360I1297J27D01*
G03X4366770Y5072340I193404J4247877D01*
G03X4394710Y5071830I35502J1179383D01*
G03X4427470Y5071580I33980J2306169D01*
G03X4478530Y5071830I2317J4741051D01*
G03X4499610Y5073100I-1061J193185D01*
G03X4510020Y5076150I-3725J32005D01*
G03X4513580Y5081740I-2703J5650D01*
G03X4510020Y5096980I-35020J-145D01*
G03X4499100Y5114760I-94515J-45805D01*
G03X4484370Y5130510I-87416J-66992D01*
G03X4469130Y5139900I-36081J-41498D01*
G03X4435090Y5147270I-36457J-86089D01*
G37*
G36*
G01X6545320Y5141430D02*
G03X6524500Y5145490I-33518J-116469D01*
G03X6502650Y5146000I-13892J-126857D01*
G03X6483350Y5142440I5804J-85559D01*
G03X6466080Y5133550I15916J-52139D01*
G03X6447280Y5116540I94179J-122984D01*
G03X6432290Y5097490I111529J-103182D01*
G03X6427720Y5083260I21014J-14597D01*
G03X6431280Y5076660I8048J81D01*
G03X6440170Y5073100I11923J16893D01*
G03X6460230Y5071830I20205J160090D01*
G03X6514080Y5071580I53499J5723885D01*
G01X6600440D01*
X6596380Y5084790D01*
G03X6590790Y5099520I-92061J-26511D01*
G03X6582660Y5113230I-87030J-42343D01*
G03X6572500Y5124920I-73759J-53845D01*
G03X6561330Y5134060I-50838J-50734D01*
G03X6545320Y5141430I-32353J-49206D01*
G37*
%LPD*%
G75*
G54D10*
G01X1560000Y2820000D02*
X1740000D01*
Y2960000D01*
X1560000D01*
Y2820000D01*
G01X4090000Y7470000D02*
X4270000D01*
Y7610000D01*
X4090000D01*
Y7470000D01*
G01X6450000Y2810000D02*
X6630000D01*
Y2950000D01*
X6450000D01*
Y2810000D01*
G54D11*
G01X965010Y2590000D02*
X1050010D01*
G01X1150010D02*
X1175010D01*
G01X1150010Y2350000D02*
X1175010D01*
G01X965010D02*
X990010D01*
G01X3371200Y985400D02*
X3481200D01*
Y1105400D01*
X3231200D01*
G01X3485010Y7250000D02*
X3570010D01*
G01X3670010D02*
X3695010D01*
G01X3670010Y7010000D02*
X3695010D01*
G01X3485010D02*
X3510010D01*
G01X5085700Y755400D02*
G03I-10000J0D01*
G01X5391200Y1105400D02*
X5141200D01*
Y985400D01*
X5251200D01*
G01X5875010Y2590000D02*
X5960010D01*
G01X5875010Y2350000D02*
X5900010D01*
G01X6060010Y2590000D02*
X6085010D01*
G01X6060010Y2350000D02*
X6085010D01*
G54D12*
G01X988000Y6395000D02*
X1004000Y6382500D01*
X1022000Y6375000D01*
X1038000D01*
X1054000Y6382500D01*
X1066000Y6395000D01*
X1072000Y6412500D01*
X1068000Y6430000D01*
X1058000Y6445000D01*
X1040000Y6455000D01*
X1016000Y6460000D01*
X1002000Y6470000D01*
X996000Y6487500D01*
X1000000Y6505000D01*
X1010000Y6517500D01*
X1024000Y6525000D01*
X1038000D01*
X1052000Y6520000D01*
X1064000Y6507500D01*
G01X1128000Y6375000D02*
Y6525000D01*
G01X1212000D02*
Y6375000D01*
G01Y6450000D02*
X1128000D01*
G01X1286000Y6525000D02*
X1334000D01*
G01X1310000D02*
Y6375000D01*
G01X1286000D02*
X1334000D01*
G01X1490000D02*
X1410000D01*
Y6525000D01*
X1490000D01*
G01X1458000Y6452500D02*
X1410000D01*
G01X1550000Y6525000D02*
Y6375000D01*
X1630000D01*
G01X1686000D02*
Y6525000D01*
X1726000D01*
X1742000Y6517500D01*
X1754000Y6507500D01*
X1764000Y6492500D01*
X1772000Y6475000D01*
X1774000Y6450000D01*
X1772000Y6425000D01*
X1764000Y6407500D01*
X1754000Y6392500D01*
X1742000Y6382500D01*
X1726000Y6375000D01*
X1686000D01*
G01X2970000Y470000D02*
Y620000D01*
X2946000Y590000D01*
G01Y470000D02*
X2994000D01*
G01X3072000Y595000D02*
X3084000Y610000D01*
X3098000Y617500D01*
X3114000Y620000D01*
X3134000Y615000D01*
X3148000Y602500D01*
X3152000Y587500D01*
X3150000Y572500D01*
X3142000Y560000D01*
X3102000Y535000D01*
X3084000Y517500D01*
X3072000Y492500D01*
X3068000Y470000D01*
X3152000D01*
G01X3200000Y620000D02*
X3250000Y470000D01*
X3300000Y620000D01*
G01X3330000Y420000D02*
X3450000D01*
G01X3570000Y470000D02*
X3490000D01*
Y620000D01*
X3570000D01*
G01X3538000Y547500D02*
X3490000D01*
G01X3628000Y470000D02*
X3712000Y620000D01*
G01X3628000D02*
X3712000Y470000D01*
G01X3770000D02*
Y620000D01*
X3818000D01*
X3834000Y612500D01*
X3846000Y595000D01*
X3850000Y575000D01*
X3846000Y555000D01*
X3836000Y540000D01*
X3818000Y532500D01*
X3770000D01*
G01X3380000Y3680000D02*
X3430000Y3830000D01*
X3480000Y3680000D01*
G01X3462000Y3732500D02*
X3398000D01*
G01X3526000Y3680000D02*
Y3830000D01*
X3566000D01*
X3582000Y3822500D01*
X3594000Y3812500D01*
X3604000Y3797500D01*
X3612000Y3780000D01*
X3614000Y3755000D01*
X3612000Y3730000D01*
X3604000Y3712500D01*
X3594000Y3697500D01*
X3582000Y3687500D01*
X3566000Y3680000D01*
X3526000D01*
G01X3660000D02*
X3710000Y3830000D01*
X3760000Y3680000D01*
G01X3742000Y3732500D02*
X3678000D01*
G01X3810000Y3680000D02*
Y3830000D01*
X3858000D01*
X3874000Y3822500D01*
X3886000Y3805000D01*
X3890000Y3785000D01*
X3886000Y3765000D01*
X3876000Y3750000D01*
X3858000Y3742500D01*
X3810000D01*
G01X3990000Y3830000D02*
Y3680000D01*
G01X3944000Y3830000D02*
X4036000D01*
G01X4130000Y3680000D02*
X4114000Y3682500D01*
X4100000Y3692500D01*
X4088000Y3707500D01*
X4080000Y3725000D01*
X4076000Y3745000D01*
Y3765000D01*
X4080000Y3785000D01*
X4088000Y3802500D01*
X4100000Y3817500D01*
X4114000Y3827500D01*
X4130000Y3830000D01*
X4146000Y3827500D01*
X4160000Y3817500D01*
X4172000Y3802500D01*
X4180000Y3785000D01*
X4184000Y3765000D01*
Y3745000D01*
X4180000Y3725000D01*
X4172000Y3707500D01*
X4160000Y3692500D01*
X4146000Y3682500D01*
X4130000Y3680000D01*
G01X4230000D02*
Y3830000D01*
X4280000D01*
X4296000Y3822500D01*
X4306000Y3812500D01*
X4310000Y3792500D01*
X4306000Y3772500D01*
X4294000Y3760000D01*
X4280000Y3752500D01*
X4230000D01*
G01X4280000D02*
X4310000Y3680000D01*
G01X4500000Y3830000D02*
X4550000Y3680000D01*
X4600000Y3830000D01*
G01X4690000Y3680000D02*
Y3830000D01*
X4666000Y3800000D01*
G01Y3680000D02*
X4714000D01*
G01X4830000Y3675000D02*
X4826000Y3677500D01*
Y3682500D01*
X4830000Y3685000D01*
X4834000Y3682500D01*
Y3677500D01*
X4830000Y3675000D01*
G01X4970000Y3830000D02*
X4954000Y3825000D01*
X4942000Y3812500D01*
X4934000Y3797500D01*
X4928000Y3777500D01*
X4926000Y3755000D01*
X4928000Y3732500D01*
X4934000Y3712500D01*
X4942000Y3697500D01*
X4954000Y3685000D01*
X4970000Y3680000D01*
X4986000Y3685000D01*
X4998000Y3697500D01*
X5006000Y3712500D01*
X5012000Y3732500D01*
X5014000Y3755000D01*
X5012000Y3777500D01*
X5006000Y3797500D01*
X4998000Y3812500D01*
X4986000Y3825000D01*
X4970000Y3830000D01*
G01X5110000Y3675000D02*
X5106000Y3677500D01*
Y3682500D01*
X5110000Y3685000D01*
X5114000Y3682500D01*
Y3677500D01*
X5110000Y3675000D01*
G01X5250000Y3830000D02*
X5234000Y3825000D01*
X5222000Y3812500D01*
X5214000Y3797500D01*
X5208000Y3777500D01*
X5206000Y3755000D01*
X5208000Y3732500D01*
X5214000Y3712500D01*
X5222000Y3697500D01*
X5234000Y3685000D01*
X5250000Y3680000D01*
X5266000Y3685000D01*
X5278000Y3697500D01*
X5286000Y3712500D01*
X5292000Y3732500D01*
X5294000Y3755000D01*
X5292000Y3777500D01*
X5286000Y3797500D01*
X5278000Y3812500D01*
X5266000Y3825000D01*
X5250000Y3830000D01*
G01X3380000Y3965000D02*
Y4115000D01*
X3428000D01*
X3444000Y4107500D01*
X3456000Y4090000D01*
X3460000Y4070000D01*
X3456000Y4050000D01*
X3446000Y4035000D01*
X3428000Y4027500D01*
X3380000D01*
G01X3520000Y3965000D02*
Y4115000D01*
X3570000D01*
X3586000Y4107500D01*
X3596000Y4097500D01*
X3600000Y4077500D01*
X3596000Y4057500D01*
X3584000Y4045000D01*
X3570000Y4037500D01*
X3520000D01*
G01X3570000D02*
X3600000Y3965000D01*
G01X3700000D02*
X3684000Y3967500D01*
X3670000Y3977500D01*
X3658000Y3992500D01*
X3650000Y4010000D01*
X3646000Y4030000D01*
Y4050000D01*
X3650000Y4070000D01*
X3658000Y4087500D01*
X3670000Y4102500D01*
X3684000Y4112500D01*
X3700000Y4115000D01*
X3716000Y4112500D01*
X3730000Y4102500D01*
X3742000Y4087500D01*
X3750000Y4070000D01*
X3754000Y4050000D01*
Y4030000D01*
X3750000Y4010000D01*
X3742000Y3992500D01*
X3730000Y3977500D01*
X3716000Y3967500D01*
X3700000Y3965000D01*
G01X3800000Y3995000D02*
X3810000Y3980000D01*
X3822000Y3970000D01*
X3836000Y3965000D01*
X3852000Y3970000D01*
X3864000Y3980000D01*
X3876000Y3995000D01*
X3880000Y4015000D01*
Y4115000D01*
G01X4020000Y3965000D02*
X3940000D01*
Y4115000D01*
X4020000D01*
G01X3988000Y4042500D02*
X3940000D01*
G01X4164000Y4102500D02*
X4152000Y4110000D01*
X4138000Y4115000D01*
X4122000D01*
X4104000Y4107500D01*
X4090000Y4095000D01*
X4080000Y4080000D01*
X4072000Y4055000D01*
X4070000Y4032500D01*
X4074000Y4010000D01*
X4080000Y3995000D01*
X4092000Y3980000D01*
X4106000Y3970000D01*
X4120000Y3965000D01*
X4134000D01*
X4148000Y3970000D01*
X4160000Y3977500D01*
X4170000Y3987500D01*
G01X4260000Y4115000D02*
Y3965000D01*
G01X4214000Y4115000D02*
X4306000D01*
G01X4556000Y4045000D02*
X4564000Y4052500D01*
X4570000Y4065000D01*
X4574000Y4082500D01*
X4570000Y4097500D01*
X4562000Y4107500D01*
X4548000Y4115000D01*
X4494000D01*
Y3965000D01*
X4560000D01*
X4574000Y3975000D01*
X4582000Y3990000D01*
X4586000Y4007500D01*
X4582000Y4025000D01*
X4570000Y4040000D01*
X4556000Y4045000D01*
X4494000D01*
G01X4720000Y3965000D02*
X4640000D01*
Y4115000D01*
X4720000D01*
G01X4688000Y4042500D02*
X4640000D01*
G01X4860000Y3965000D02*
X4780000D01*
Y4115000D01*
X4860000D01*
G01X4828000Y4042500D02*
X4780000D01*
G01X4934000Y4015000D02*
X4986000D01*
G01X5060000Y3965000D02*
Y4115000D01*
X5108000D01*
X5124000Y4107500D01*
X5136000Y4090000D01*
X5140000Y4070000D01*
X5136000Y4050000D01*
X5126000Y4035000D01*
X5108000Y4027500D01*
X5060000D01*
G01X5284000Y4102500D02*
X5272000Y4110000D01*
X5258000Y4115000D01*
X5242000D01*
X5224000Y4107500D01*
X5210000Y4095000D01*
X5200000Y4080000D01*
X5192000Y4055000D01*
X5190000Y4032500D01*
X5194000Y4010000D01*
X5200000Y3995000D01*
X5212000Y3980000D01*
X5226000Y3970000D01*
X5240000Y3965000D01*
X5254000D01*
X5268000Y3970000D01*
X5280000Y3977500D01*
X5290000Y3987500D01*
G01X5380000Y3965000D02*
Y4115000D01*
X5356000Y4085000D01*
G01Y3965000D02*
X5404000D01*
G01X4236000Y497500D02*
X4248000Y485000D01*
X4262000Y477500D01*
X4280000Y475000D01*
X4298000Y480000D01*
X4312000Y490000D01*
X4322000Y507500D01*
X4324000Y527500D01*
X4320000Y547500D01*
X4310000Y560000D01*
X4296000Y570000D01*
X4282000Y572500D01*
X4268000Y570000D01*
X4250000Y560000D01*
X4256000Y625000D01*
X4310000D01*
G01X4370000D02*
X4420000Y475000D01*
X4470000Y625000D01*
G01X5066000Y482500D02*
X5078000Y470000D01*
X5092000Y462500D01*
X5110000Y460000D01*
X5128000Y465000D01*
X5142000Y475000D01*
X5152000Y492500D01*
X5154000Y512500D01*
X5150000Y532500D01*
X5140000Y545000D01*
X5126000Y555000D01*
X5112000Y557500D01*
X5098000Y555000D01*
X5080000Y545000D01*
X5086000Y610000D01*
X5140000D01*
G01X5200000D02*
X5250000Y460000D01*
X5300000Y610000D01*
G01X5330000Y410000D02*
X5450000D01*
G01X5570000Y460000D02*
X5490000D01*
Y610000D01*
X5570000D01*
G01X5538000Y537500D02*
X5490000D01*
G01X5628000Y460000D02*
X5712000Y610000D01*
G01X5628000D02*
X5712000Y460000D01*
G01X5770000D02*
Y610000D01*
X5818000D01*
X5834000Y602500D01*
X5846000Y585000D01*
X5850000Y565000D01*
X5846000Y545000D01*
X5836000Y530000D01*
X5818000Y522500D01*
X5770000D01*
G54D13*
G01X1386500Y2114500D02*
Y2324500D01*
G01X1701500Y2114500D02*
Y2324500D01*
G01X3896500Y6764500D02*
Y6974500D01*
G01X4211500Y6764500D02*
Y6974500D01*
G01X6296500Y2104500D02*
Y2314500D01*
G01X6611500Y2104500D02*
Y2314500D01*
G54D14*
G01X1486500Y2044500D02*
G02I-12500J0D01*
G01X3996500Y6694500D02*
G02I-12500J0D01*
G01X6396500Y2034500D02*
G02I-12500J0D01*
G54D15*
G01X1031580Y2151750D02*
X1023960Y2155560D01*
X1015070Y2158100D01*
X1004910D01*
X993480Y2154290D01*
X984590Y2147940D01*
X978240Y2140320D01*
X973160Y2127620D01*
X971890Y2116190D01*
X974430Y2104760D01*
X978240Y2097140D01*
X985860Y2089520D01*
X994750Y2084440D01*
X1003640Y2081900D01*
X1012530D01*
X1021420Y2084440D01*
X1029040Y2088250D01*
X1035390Y2093330D01*
G01X1090000Y2081900D02*
Y2158100D01*
X1074760Y2142860D01*
G01Y2081900D02*
X1105240D01*
G01X1176360Y2158100D02*
X1166200Y2155560D01*
X1158580Y2149210D01*
X1153500Y2141590D01*
X1149690Y2131430D01*
X1148420Y2120000D01*
X1149690Y2108570D01*
X1153500Y2098410D01*
X1158580Y2090790D01*
X1166200Y2084440D01*
X1176360Y2081900D01*
X1186520Y2084440D01*
X1194140Y2090790D01*
X1199220Y2098410D01*
X1203030Y2108570D01*
X1204300Y2120000D01*
X1203030Y2131430D01*
X1199220Y2141590D01*
X1194140Y2149210D01*
X1186520Y2155560D01*
X1176360Y2158100D01*
G01X1213800Y1585400D02*
Y1661600D01*
X1245550D01*
X1255710Y1657790D01*
X1262060Y1652710D01*
X1264600Y1642550D01*
X1262060Y1632390D01*
X1254440Y1626040D01*
X1245550Y1622230D01*
X1213800D01*
G01X1245550D02*
X1264600Y1585400D01*
G01X1325560D02*
Y1661600D01*
X1310320Y1646360D01*
G01Y1585400D02*
X1340800D01*
G01X1383980Y1596830D02*
X1391600Y1590480D01*
X1400490Y1586670D01*
X1411920Y1585400D01*
X1423350Y1587940D01*
X1432240Y1593020D01*
X1438590Y1601910D01*
X1439860Y1612070D01*
X1437320Y1622230D01*
X1430970Y1628580D01*
X1422080Y1633660D01*
X1413190Y1634930D01*
X1404300Y1633660D01*
X1392870Y1628580D01*
X1396680Y1661600D01*
X1430970D01*
G01X1008880Y2718100D02*
Y2663490D01*
X1013960Y2652060D01*
X1024120Y2644440D01*
X1036820Y2641900D01*
X1049520Y2644440D01*
X1059680Y2652060D01*
X1064760Y2663490D01*
Y2718100D01*
G01X1099050Y2673650D02*
X1107940Y2682540D01*
X1115560Y2687620D01*
X1125720Y2690160D01*
X1134610Y2687620D01*
X1140960Y2682540D01*
X1146040Y2674920D01*
X1147310Y2666030D01*
X1146040Y2658410D01*
X1140960Y2650790D01*
X1133340Y2644440D01*
X1124450Y2641900D01*
X1114290Y2644440D01*
X1105400Y2652060D01*
X1100320Y2663490D01*
X1099050Y2676190D01*
X1101590Y2692700D01*
X1105400Y2701590D01*
X1111750Y2710480D01*
X1120640Y2716830D01*
X1129530Y2718100D01*
X1138420Y2715560D01*
X1144770Y2709210D01*
G01X1328250Y2791580D02*
X1324440Y2783960D01*
X1321900Y2775070D01*
Y2764910D01*
X1325710Y2753480D01*
X1332060Y2744590D01*
X1339680Y2738240D01*
X1352380Y2733160D01*
X1363810Y2731890D01*
X1375240Y2734430D01*
X1382860Y2738240D01*
X1390480Y2745860D01*
X1395560Y2754750D01*
X1398100Y2763640D01*
Y2772530D01*
X1395560Y2781420D01*
X1391750Y2789040D01*
X1386670Y2795390D01*
G01X1398100Y2850000D02*
X1321900D01*
X1337140Y2834760D01*
G01X1398100D02*
Y2865240D01*
G01Y2936360D02*
X1321900D01*
X1337140Y2921120D01*
G01X1398100D02*
Y2951600D01*
G01X1023640Y6758100D02*
Y6681900D01*
G01X994430Y6758100D02*
X1052850D01*
G01X1084600Y6681900D02*
Y6758100D01*
X1115080D01*
X1125240Y6754290D01*
X1132860Y6745400D01*
X1135400Y6735240D01*
X1132860Y6725080D01*
X1126510Y6717460D01*
X1115080Y6713650D01*
X1084600D01*
G01X1196360Y6681900D02*
Y6758100D01*
X1181120Y6742860D01*
G01Y6681900D02*
X1211600D01*
G01X1828240Y1851900D02*
Y1928100D01*
X1859990D01*
X1870150Y1924290D01*
X1876500Y1919210D01*
X1879040Y1909050D01*
X1876500Y1898890D01*
X1868880Y1892540D01*
X1859990Y1888730D01*
X1828240D01*
G01X1859990D02*
X1879040Y1851900D01*
G01X1940000D02*
Y1928100D01*
X1924760Y1912860D01*
G01Y1851900D02*
X1955240D01*
G01X2002230Y1883650D02*
X2011120Y1892540D01*
X2018740Y1897620D01*
X2028900Y1900160D01*
X2037790Y1897620D01*
X2044140Y1892540D01*
X2049220Y1884920D01*
X2050490Y1876030D01*
X2049220Y1868410D01*
X2044140Y1860790D01*
X2036520Y1854440D01*
X2027630Y1851900D01*
X2017470Y1854440D01*
X2008580Y1862060D01*
X2003500Y1873490D01*
X2002230Y1886190D01*
X2004770Y1902700D01*
X2008580Y1911590D01*
X2014930Y1920480D01*
X2023820Y1926830D01*
X2032710Y1928100D01*
X2041600Y1925560D01*
X2047950Y1919210D01*
G01X1493200Y1585400D02*
Y1661600D01*
X1524950D01*
X1535110Y1657790D01*
X1541460Y1652710D01*
X1544000Y1642550D01*
X1541460Y1632390D01*
X1533840Y1626040D01*
X1524950Y1622230D01*
X1493200D01*
G01X1524950D02*
X1544000Y1585400D01*
G01X1604960D02*
Y1661600D01*
X1589720Y1646360D01*
G01Y1585400D02*
X1620200D01*
G01X1691320D02*
X1700210Y1586670D01*
X1710370Y1590480D01*
X1716720Y1596830D01*
X1719260Y1605720D01*
X1716720Y1614610D01*
X1709100Y1622230D01*
X1697670Y1626040D01*
X1684970D01*
X1677350Y1628580D01*
X1671000Y1634930D01*
X1668460Y1643820D01*
X1672270Y1652710D01*
X1681160Y1659060D01*
X1691320Y1661600D01*
X1701480Y1659060D01*
X1710370Y1652710D01*
X1714180Y1643820D01*
X1711640Y1634930D01*
X1705290Y1628580D01*
X1697670Y1626040D01*
X1684970D01*
X1673540Y1622230D01*
X1665920Y1614610D01*
X1663380Y1605720D01*
X1665920Y1596830D01*
X1672270Y1590480D01*
X1682430Y1586670D01*
X1691320Y1585400D01*
G01X1528240Y1851900D02*
Y1928100D01*
X1559990D01*
X1570150Y1924290D01*
X1576500Y1919210D01*
X1579040Y1909050D01*
X1576500Y1898890D01*
X1568880Y1892540D01*
X1559990Y1888730D01*
X1528240D01*
G01X1559990D02*
X1579040Y1851900D01*
G01X1640000D02*
Y1928100D01*
X1624760Y1912860D01*
G01Y1851900D02*
X1655240D01*
G01X1704770Y1860790D02*
X1713660Y1854440D01*
X1723820Y1851900D01*
X1733980Y1854440D01*
X1742870Y1862060D01*
X1749220Y1873490D01*
X1751760Y1884920D01*
Y1898890D01*
X1749220Y1910320D01*
X1742870Y1920480D01*
X1735250Y1925560D01*
X1726360Y1928100D01*
X1716200Y1925560D01*
X1708580Y1920480D01*
X1703500Y1912860D01*
X1700960Y1902700D01*
X1703500Y1893810D01*
X1709850Y1884920D01*
X1717470Y1879840D01*
X1726360Y1878570D01*
X1736520Y1881110D01*
X1744140Y1887460D01*
X1751760Y1898890D01*
G01X1748240Y1491900D02*
Y1568100D01*
X1779990D01*
X1790150Y1564290D01*
X1796500Y1559210D01*
X1799040Y1549050D01*
X1796500Y1538890D01*
X1788880Y1532540D01*
X1779990Y1528730D01*
X1748240D01*
G01X1779990D02*
X1799040Y1491900D01*
G01X1835870Y1555400D02*
X1843490Y1563020D01*
X1852380Y1566830D01*
X1862540Y1568100D01*
X1875240Y1565560D01*
X1884130Y1559210D01*
X1886670Y1551590D01*
X1885400Y1543970D01*
X1880320Y1537620D01*
X1854920Y1524920D01*
X1843490Y1516030D01*
X1835870Y1503330D01*
X1833330Y1491900D01*
X1886670D01*
G01X1946360Y1568100D02*
X1936200Y1565560D01*
X1928580Y1559210D01*
X1923500Y1551590D01*
X1919690Y1541430D01*
X1918420Y1530000D01*
X1919690Y1518570D01*
X1923500Y1508410D01*
X1928580Y1500790D01*
X1936200Y1494440D01*
X1946360Y1491900D01*
X1956520Y1494440D01*
X1964140Y1500790D01*
X1969220Y1508410D01*
X1973030Y1518570D01*
X1974300Y1530000D01*
X1973030Y1541430D01*
X1969220Y1551590D01*
X1964140Y1559210D01*
X1956520Y1565560D01*
X1946360Y1568100D01*
G01X1528880Y2068100D02*
Y2013490D01*
X1533960Y2002060D01*
X1544120Y1994440D01*
X1556820Y1991900D01*
X1569520Y1994440D01*
X1579680Y2002060D01*
X1584760Y2013490D01*
Y2068100D01*
G01X1615240Y2003330D02*
X1622860Y1996980D01*
X1631750Y1993170D01*
X1643180Y1991900D01*
X1654610Y1994440D01*
X1663500Y1999520D01*
X1669850Y2008410D01*
X1671120Y2018570D01*
X1668580Y2028730D01*
X1662230Y2035080D01*
X1653340Y2040160D01*
X1644450Y2041430D01*
X1635560Y2040160D01*
X1624130Y2035080D01*
X1627940Y2068100D01*
X1662230D01*
G01X1648250Y2421580D02*
X1644440Y2413960D01*
X1641900Y2405070D01*
Y2394910D01*
X1645710Y2383480D01*
X1652060Y2374590D01*
X1659680Y2368240D01*
X1672380Y2363160D01*
X1683810Y2361890D01*
X1695240Y2364430D01*
X1702860Y2368240D01*
X1710480Y2375860D01*
X1715560Y2384750D01*
X1718100Y2393640D01*
Y2402530D01*
X1715560Y2411420D01*
X1711750Y2419040D01*
X1706670Y2425390D01*
G01X1718100Y2480000D02*
X1641900D01*
X1657140Y2464760D01*
G01X1718100D02*
Y2495240D01*
G01X1654600Y2542230D02*
X1646980Y2549850D01*
X1643170Y2558740D01*
X1641900Y2568900D01*
X1644440Y2581600D01*
X1650790Y2590490D01*
X1658410Y2593030D01*
X1666030Y2591760D01*
X1672380Y2586680D01*
X1685080Y2561280D01*
X1693970Y2549850D01*
X1706670Y2542230D01*
X1718100Y2539690D01*
Y2593030D01*
G01X1528100Y2748240D02*
X1451900D01*
Y2779990D01*
X1455710Y2790150D01*
X1460790Y2796500D01*
X1470950Y2799040D01*
X1481110Y2796500D01*
X1487460Y2788880D01*
X1491270Y2779990D01*
Y2748240D01*
G01Y2779990D02*
X1528100Y2799040D01*
G01X1464600Y2835870D02*
X1456980Y2843490D01*
X1453170Y2852380D01*
X1451900Y2862540D01*
X1454440Y2875240D01*
X1460790Y2884130D01*
X1468410Y2886670D01*
X1476030Y2885400D01*
X1482380Y2880320D01*
X1495080Y2854920D01*
X1503970Y2843490D01*
X1516670Y2835870D01*
X1528100Y2833330D01*
Y2886670D01*
G01Y2946360D02*
X1451900D01*
X1467140Y2931120D01*
G01X1528100D02*
Y2961600D01*
G01X1592700Y3005240D02*
X1599050Y2997620D01*
X1606670Y2992540D01*
X1615560Y2990000D01*
X1625720Y2992540D01*
X1633340Y2997620D01*
X1640960Y3005240D01*
X1643500Y3015400D01*
Y3066200D01*
G01X1701920Y2990000D02*
X1704460Y3006510D01*
X1708270Y3020480D01*
X1713350Y3033180D01*
X1719700Y3047150D01*
X1729860Y3066200D01*
X1679060D01*
G01X2418880Y2921900D02*
Y2998100D01*
X2444280D01*
X2454440Y2994290D01*
X2462060Y2989210D01*
X2468410Y2981590D01*
X2473490Y2972700D01*
X2474760Y2960000D01*
X2473490Y2947300D01*
X2468410Y2938410D01*
X2462060Y2930790D01*
X2454440Y2925710D01*
X2444280Y2921900D01*
X2418880D01*
G01X2505240Y2933330D02*
X2512860Y2926980D01*
X2521750Y2923170D01*
X2533180Y2921900D01*
X2544610Y2924440D01*
X2553500Y2929520D01*
X2559850Y2938410D01*
X2561120Y2948570D01*
X2558580Y2958730D01*
X2552230Y2965080D01*
X2543340Y2970160D01*
X2534450Y2971430D01*
X2525560Y2970160D01*
X2514130Y2965080D01*
X2517940Y2998100D01*
X2552230D01*
G01X3108240Y301900D02*
Y378100D01*
X3139990D01*
X3150150Y374290D01*
X3156500Y369210D01*
X3159040Y359050D01*
X3156500Y348890D01*
X3148880Y342540D01*
X3139990Y338730D01*
X3108240D01*
G01X3139990D02*
X3159040Y301900D01*
G01X3220000D02*
Y378100D01*
X3204760Y362860D01*
G01Y301900D02*
X3235240D01*
G01X3303820D02*
X3306360Y318410D01*
X3310170Y332380D01*
X3315250Y345080D01*
X3321600Y359050D01*
X3331760Y378100D01*
X3280960D01*
G01X2954760Y1821750D02*
X2947140Y1825560D01*
X2938250Y1828100D01*
X2928090D01*
X2916660Y1824290D01*
X2907770Y1817940D01*
X2901420Y1810320D01*
X2896340Y1797620D01*
X2895070Y1786190D01*
X2897610Y1774760D01*
X2901420Y1767140D01*
X2909040Y1759520D01*
X2917930Y1754440D01*
X2926820Y1751900D01*
X2935710D01*
X2944600Y1754440D01*
X2952220Y1758250D01*
X2958570Y1763330D01*
G01X2991590Y1760790D02*
X3000480Y1754440D01*
X3010640Y1751900D01*
X3020800Y1754440D01*
X3029690Y1762060D01*
X3036040Y1773490D01*
X3038580Y1784920D01*
Y1798890D01*
X3036040Y1810320D01*
X3029690Y1820480D01*
X3022070Y1825560D01*
X3013180Y1828100D01*
X3003020Y1825560D01*
X2995400Y1820480D01*
X2990320Y1812860D01*
X2987780Y1802700D01*
X2990320Y1793810D01*
X2996670Y1784920D01*
X3004290Y1779840D01*
X3013180Y1778570D01*
X3023340Y1781110D01*
X3030960Y1787460D01*
X3038580Y1798890D01*
G01X3219400Y1654640D02*
X3225750Y1647020D01*
X3233370Y1641940D01*
X3242260Y1639400D01*
X3252420Y1641940D01*
X3260040Y1647020D01*
X3267660Y1654640D01*
X3270200Y1664800D01*
Y1715600D01*
G01X3307030Y1702900D02*
X3314650Y1710520D01*
X3323540Y1714330D01*
X3333700Y1715600D01*
X3346400Y1713060D01*
X3355290Y1706710D01*
X3357830Y1699090D01*
X3356560Y1691470D01*
X3351480Y1685120D01*
X3326080Y1672420D01*
X3314650Y1663530D01*
X3307030Y1650830D01*
X3304490Y1639400D01*
X3357830D01*
G01X2961580Y2331750D02*
X2953960Y2335560D01*
X2945070Y2338100D01*
X2934910D01*
X2923480Y2334290D01*
X2914590Y2327940D01*
X2908240Y2320320D01*
X2903160Y2307620D01*
X2901890Y2296190D01*
X2904430Y2284760D01*
X2908240Y2277140D01*
X2915860Y2269520D01*
X2924750Y2264440D01*
X2933640Y2261900D01*
X2942530D01*
X2951420Y2264440D01*
X2959040Y2268250D01*
X2965390Y2273330D01*
G01X3020000Y2261900D02*
Y2338100D01*
X3004760Y2322860D01*
G01Y2261900D02*
X3035240D01*
G01X3078420Y2277140D02*
X3086040Y2268250D01*
X3096200Y2263170D01*
X3107630Y2261900D01*
X3117790Y2263170D01*
X3127950Y2269520D01*
X3134300Y2277140D01*
X3135570Y2284760D01*
X3133030Y2293650D01*
X3124140Y2300000D01*
X3115250Y2302540D01*
X3103820D01*
G01X3115250D02*
X3122870Y2306350D01*
X3129220Y2312700D01*
X3131760Y2320320D01*
X3129220Y2327940D01*
X3122870Y2334290D01*
X3111440Y2338100D01*
X3100010Y2336830D01*
X3088580Y2331750D01*
G01X3428880Y301900D02*
Y378100D01*
X3454280D01*
X3464440Y374290D01*
X3472060Y369210D01*
X3478410Y361590D01*
X3483490Y352700D01*
X3484760Y340000D01*
X3483490Y327300D01*
X3478410Y318410D01*
X3472060Y310790D01*
X3464440Y305710D01*
X3454280Y301900D01*
X3428880D01*
G01X3519050Y333650D02*
X3527940Y342540D01*
X3535560Y347620D01*
X3545720Y350160D01*
X3554610Y347620D01*
X3560960Y342540D01*
X3566040Y334920D01*
X3567310Y326030D01*
X3566040Y318410D01*
X3560960Y310790D01*
X3553340Y304440D01*
X3544450Y301900D01*
X3534290Y304440D01*
X3525400Y312060D01*
X3520320Y323490D01*
X3519050Y336190D01*
X3521590Y352700D01*
X3525400Y361590D01*
X3531750Y370480D01*
X3540640Y376830D01*
X3549530Y378100D01*
X3558420Y375560D01*
X3564770Y369210D01*
G01X3713800Y6225400D02*
Y6301600D01*
X3745550D01*
X3755710Y6297790D01*
X3762060Y6292710D01*
X3764600Y6282550D01*
X3762060Y6272390D01*
X3754440Y6266040D01*
X3745550Y6262230D01*
X3713800D01*
G01X3745550D02*
X3764600Y6225400D01*
G01X3825560D02*
X3834450Y6226670D01*
X3844610Y6230480D01*
X3850960Y6236830D01*
X3853500Y6245720D01*
X3850960Y6254610D01*
X3843340Y6262230D01*
X3831910Y6266040D01*
X3819210D01*
X3811590Y6268580D01*
X3805240Y6274930D01*
X3802700Y6283820D01*
X3806510Y6292710D01*
X3815400Y6299060D01*
X3825560Y6301600D01*
X3835720Y6299060D01*
X3844610Y6292710D01*
X3848420Y6283820D01*
X3845880Y6274930D01*
X3839530Y6268580D01*
X3831910Y6266040D01*
X3819210D01*
X3807780Y6262230D01*
X3800160Y6254610D01*
X3797620Y6245720D01*
X3800160Y6236830D01*
X3806510Y6230480D01*
X3816670Y6226670D01*
X3825560Y6225400D01*
G01X3993200D02*
Y6301600D01*
X4024950D01*
X4035110Y6297790D01*
X4041460Y6292710D01*
X4044000Y6282550D01*
X4041460Y6272390D01*
X4033840Y6266040D01*
X4024950Y6262230D01*
X3993200D01*
G01X4024950D02*
X4044000Y6225400D01*
G01X4104960D02*
Y6301600D01*
X4089720Y6286360D01*
G01Y6225400D02*
X4120200D01*
G01X4191320D02*
Y6301600D01*
X4176080Y6286360D01*
G01Y6225400D02*
X4206560D01*
G01X4028880Y6718100D02*
Y6663490D01*
X4033960Y6652060D01*
X4044120Y6644440D01*
X4056820Y6641900D01*
X4069520Y6644440D01*
X4079680Y6652060D01*
X4084760Y6663490D01*
Y6718100D01*
G01X4115240Y6657140D02*
X4122860Y6648250D01*
X4133020Y6643170D01*
X4144450Y6641900D01*
X4154610Y6643170D01*
X4164770Y6649520D01*
X4171120Y6657140D01*
X4172390Y6664760D01*
X4169850Y6673650D01*
X4160960Y6680000D01*
X4152070Y6682540D01*
X4140640D01*
G01X4152070D02*
X4159690Y6686350D01*
X4166040Y6692700D01*
X4168580Y6700320D01*
X4166040Y6707940D01*
X4159690Y6714290D01*
X4148260Y6718100D01*
X4136830Y6716830D01*
X4125400Y6711750D01*
G01X3584760Y6801750D02*
X3577140Y6805560D01*
X3568250Y6808100D01*
X3558090D01*
X3546660Y6804290D01*
X3537770Y6797940D01*
X3531420Y6790320D01*
X3526340Y6777620D01*
X3525070Y6766190D01*
X3527610Y6754760D01*
X3531420Y6747140D01*
X3539040Y6739520D01*
X3547930Y6734440D01*
X3556820Y6731900D01*
X3565710D01*
X3574600Y6734440D01*
X3582220Y6738250D01*
X3588570Y6743330D01*
G01X3619050Y6763650D02*
X3627940Y6772540D01*
X3635560Y6777620D01*
X3645720Y6780160D01*
X3654610Y6777620D01*
X3660960Y6772540D01*
X3666040Y6764920D01*
X3667310Y6756030D01*
X3666040Y6748410D01*
X3660960Y6740790D01*
X3653340Y6734440D01*
X3644450Y6731900D01*
X3634290Y6734440D01*
X3625400Y6742060D01*
X3620320Y6753490D01*
X3619050Y6766190D01*
X3621590Y6782700D01*
X3625400Y6791590D01*
X3631750Y6800480D01*
X3640640Y6806830D01*
X3649530Y6808100D01*
X3658420Y6805560D01*
X3664770Y6799210D01*
G01X3528880Y7368100D02*
Y7313490D01*
X3533960Y7302060D01*
X3544120Y7294440D01*
X3556820Y7291900D01*
X3569520Y7294440D01*
X3579680Y7302060D01*
X3584760Y7313490D01*
Y7368100D01*
G01X3640640Y7291900D02*
X3643180Y7308410D01*
X3646990Y7322380D01*
X3652070Y7335080D01*
X3658420Y7349050D01*
X3668580Y7368100D01*
X3617780D01*
G01X3858250Y7454760D02*
X3854440Y7447140D01*
X3851900Y7438250D01*
Y7428090D01*
X3855710Y7416660D01*
X3862060Y7407770D01*
X3869680Y7401420D01*
X3882380Y7396340D01*
X3893810Y7395070D01*
X3905240Y7397610D01*
X3912860Y7401420D01*
X3920480Y7409040D01*
X3925560Y7417930D01*
X3928100Y7426820D01*
Y7435710D01*
X3925560Y7444600D01*
X3921750Y7452220D01*
X3916670Y7458570D01*
G01X3928100Y7510640D02*
X3911590Y7513180D01*
X3897620Y7516990D01*
X3884920Y7522070D01*
X3870950Y7528420D01*
X3851900Y7538580D01*
Y7487780D01*
G01X4068100Y7388240D02*
X3991900D01*
Y7419990D01*
X3995710Y7430150D01*
X4000790Y7436500D01*
X4010950Y7439040D01*
X4021110Y7436500D01*
X4027460Y7428880D01*
X4031270Y7419990D01*
Y7388240D01*
G01Y7419990D02*
X4068100Y7439040D01*
G01Y7500000D02*
X3991900D01*
X4007140Y7484760D01*
G01X4068100D02*
Y7515240D01*
G01Y7601600D02*
X3991900D01*
X4046510Y7554610D01*
Y7618110D01*
G01X4448880Y311900D02*
Y388100D01*
X4474280D01*
X4484440Y384290D01*
X4492060Y379210D01*
X4498410Y371590D01*
X4503490Y362700D01*
X4504760Y350000D01*
X4503490Y337300D01*
X4498410Y328410D01*
X4492060Y320790D01*
X4484440Y315710D01*
X4474280Y311900D01*
X4448880D01*
G01X4539050Y375400D02*
X4546670Y383020D01*
X4555560Y386830D01*
X4565720Y388100D01*
X4578420Y385560D01*
X4587310Y379210D01*
X4589850Y371590D01*
X4588580Y363970D01*
X4583500Y357620D01*
X4558100Y344920D01*
X4546670Y336030D01*
X4539050Y323330D01*
X4536510Y311900D01*
X4589850D01*
G01X4131420D02*
Y388100D01*
X4163170D01*
X4173330Y384290D01*
X4179680Y379210D01*
X4182220Y369050D01*
X4179680Y358890D01*
X4172060Y352540D01*
X4163170Y348730D01*
X4131420D01*
G01X4163170D02*
X4182220Y311900D01*
G01X4215240Y327140D02*
X4222860Y318250D01*
X4233020Y313170D01*
X4244450Y311900D01*
X4254610Y313170D01*
X4264770Y319520D01*
X4271120Y327140D01*
X4272390Y334760D01*
X4269850Y343650D01*
X4260960Y350000D01*
X4252070Y352540D01*
X4240640D01*
G01X4252070D02*
X4259690Y356350D01*
X4266040Y362700D01*
X4268580Y370320D01*
X4266040Y377940D01*
X4259690Y384290D01*
X4248260Y388100D01*
X4236830Y386830D01*
X4225400Y381750D01*
G01X4421420Y6501900D02*
Y6578100D01*
X4453170D01*
X4463330Y6574290D01*
X4469680Y6569210D01*
X4472220Y6559050D01*
X4469680Y6548890D01*
X4462060Y6542540D01*
X4453170Y6538730D01*
X4421420D01*
G01X4453170D02*
X4472220Y6501900D01*
G01X4511590Y6510790D02*
X4520480Y6504440D01*
X4530640Y6501900D01*
X4540800Y6504440D01*
X4549690Y6512060D01*
X4556040Y6523490D01*
X4558580Y6534920D01*
Y6548890D01*
X4556040Y6560320D01*
X4549690Y6570480D01*
X4542070Y6575560D01*
X4533180Y6578100D01*
X4523020Y6575560D01*
X4515400Y6570480D01*
X4510320Y6562860D01*
X4507780Y6552700D01*
X4510320Y6543810D01*
X4516670Y6534920D01*
X4524290Y6529840D01*
X4533180Y6528570D01*
X4543340Y6531110D01*
X4550960Y6537460D01*
X4558580Y6548890D01*
G01X4128240Y6501900D02*
Y6578100D01*
X4159990D01*
X4170150Y6574290D01*
X4176500Y6569210D01*
X4179040Y6559050D01*
X4176500Y6548890D01*
X4168880Y6542540D01*
X4159990Y6538730D01*
X4128240D01*
G01X4159990D02*
X4179040Y6501900D01*
G01X4240000D02*
Y6578100D01*
X4224760Y6562860D01*
G01Y6501900D02*
X4255240D01*
G01X4302230Y6565400D02*
X4309850Y6573020D01*
X4318740Y6576830D01*
X4328900Y6578100D01*
X4341600Y6575560D01*
X4350490Y6569210D01*
X4353030Y6561590D01*
X4351760Y6553970D01*
X4346680Y6547620D01*
X4321280Y6534920D01*
X4309850Y6526030D01*
X4302230Y6513330D01*
X4299690Y6501900D01*
X4353030D01*
G01X4258240Y6141900D02*
Y6218100D01*
X4289990D01*
X4300150Y6214290D01*
X4306500Y6209210D01*
X4309040Y6199050D01*
X4306500Y6188890D01*
X4298880Y6182540D01*
X4289990Y6178730D01*
X4258240D01*
G01X4289990D02*
X4309040Y6141900D01*
G01X4370000D02*
Y6218100D01*
X4354760Y6202860D01*
G01Y6141900D02*
X4385240D01*
G01X4428420Y6157140D02*
X4436040Y6148250D01*
X4446200Y6143170D01*
X4457630Y6141900D01*
X4467790Y6143170D01*
X4477950Y6149520D01*
X4484300Y6157140D01*
X4485570Y6164760D01*
X4483030Y6173650D01*
X4474140Y6180000D01*
X4465250Y6182540D01*
X4453820D01*
G01X4465250D02*
X4472870Y6186350D01*
X4479220Y6192700D01*
X4481760Y6200320D01*
X4479220Y6207940D01*
X4472870Y6214290D01*
X4461440Y6218100D01*
X4450010Y6216830D01*
X4438580Y6211750D01*
G01X4168250Y7064760D02*
X4164440Y7057140D01*
X4161900Y7048250D01*
Y7038090D01*
X4165710Y7026660D01*
X4172060Y7017770D01*
X4179680Y7011420D01*
X4192380Y7006340D01*
X4203810Y7005070D01*
X4215240Y7007610D01*
X4222860Y7011420D01*
X4230480Y7019040D01*
X4235560Y7027930D01*
X4238100Y7036820D01*
Y7045710D01*
X4235560Y7054600D01*
X4231750Y7062220D01*
X4226670Y7068570D01*
G01X4238100Y7123180D02*
X4236830Y7132070D01*
X4233020Y7142230D01*
X4226670Y7148580D01*
X4217780Y7151120D01*
X4208890Y7148580D01*
X4201270Y7140960D01*
X4197460Y7129530D01*
Y7116830D01*
X4194920Y7109210D01*
X4188570Y7102860D01*
X4179680Y7100320D01*
X4170790Y7104130D01*
X4164440Y7113020D01*
X4161900Y7123180D01*
X4164440Y7133340D01*
X4170790Y7142230D01*
X4179680Y7146040D01*
X4188570Y7143500D01*
X4194920Y7137150D01*
X4197460Y7129530D01*
Y7116830D01*
X4201270Y7105400D01*
X4208890Y7097780D01*
X4217780Y7095240D01*
X4226670Y7097780D01*
X4233020Y7104130D01*
X4236830Y7114290D01*
X4238100Y7123180D01*
G01X4291420Y7527140D02*
X4297770Y7519520D01*
X4305390Y7514440D01*
X4314280Y7511900D01*
X4324440Y7514440D01*
X4332060Y7519520D01*
X4339680Y7527140D01*
X4342220Y7537300D01*
Y7588100D01*
G01X4379050Y7543650D02*
X4387940Y7552540D01*
X4395560Y7557620D01*
X4405720Y7560160D01*
X4414610Y7557620D01*
X4420960Y7552540D01*
X4426040Y7544920D01*
X4427310Y7536030D01*
X4426040Y7528410D01*
X4420960Y7520790D01*
X4413340Y7514440D01*
X4404450Y7511900D01*
X4394290Y7514440D01*
X4385400Y7522060D01*
X4380320Y7533490D01*
X4379050Y7546190D01*
X4381590Y7562700D01*
X4385400Y7571590D01*
X4391750Y7580480D01*
X4400640Y7586830D01*
X4409530Y7588100D01*
X4418420Y7585560D01*
X4424770Y7579210D01*
G01X5188240Y311900D02*
Y388100D01*
X5219990D01*
X5230150Y384290D01*
X5236500Y379210D01*
X5239040Y369050D01*
X5236500Y358890D01*
X5228880Y352540D01*
X5219990Y348730D01*
X5188240D01*
G01X5219990D02*
X5239040Y311900D01*
G01X5300000D02*
Y388100D01*
X5284760Y372860D01*
G01Y311900D02*
X5315240D01*
G01X5386360Y388100D02*
X5376200Y385560D01*
X5368580Y379210D01*
X5363500Y371590D01*
X5359690Y361430D01*
X5358420Y350000D01*
X5359690Y338570D01*
X5363500Y328410D01*
X5368580Y320790D01*
X5376200Y314440D01*
X5386360Y311900D01*
X5396520Y314440D01*
X5404140Y320790D01*
X5409220Y328410D01*
X5413030Y338570D01*
X5414300Y350000D01*
X5413030Y361430D01*
X5409220Y371590D01*
X5404140Y379210D01*
X5396520Y385560D01*
X5386360Y388100D01*
G01X5328880Y7421900D02*
Y7498100D01*
X5354280D01*
X5364440Y7494290D01*
X5372060Y7489210D01*
X5378410Y7481590D01*
X5383490Y7472700D01*
X5384760Y7460000D01*
X5383490Y7447300D01*
X5378410Y7438410D01*
X5372060Y7430790D01*
X5364440Y7425710D01*
X5354280Y7421900D01*
X5328880D01*
G01X5415240Y7437140D02*
X5422860Y7428250D01*
X5433020Y7423170D01*
X5444450Y7421900D01*
X5454610Y7423170D01*
X5464770Y7429520D01*
X5471120Y7437140D01*
X5472390Y7444760D01*
X5469850Y7453650D01*
X5460960Y7460000D01*
X5452070Y7462540D01*
X5440640D01*
G01X5452070D02*
X5459690Y7466350D01*
X5466040Y7472700D01*
X5468580Y7480320D01*
X5466040Y7487940D01*
X5459690Y7494290D01*
X5448260Y7498100D01*
X5436830Y7496830D01*
X5425400Y7491750D01*
G01X5528880Y301900D02*
Y378100D01*
X5554280D01*
X5564440Y374290D01*
X5572060Y369210D01*
X5578410Y361590D01*
X5583490Y352700D01*
X5584760Y340000D01*
X5583490Y327300D01*
X5578410Y318410D01*
X5572060Y310790D01*
X5564440Y305710D01*
X5554280Y301900D01*
X5528880D01*
G01X5658420D02*
Y378100D01*
X5611430Y323490D01*
X5674930D01*
G01X5994760Y2131750D02*
X5987140Y2135560D01*
X5978250Y2138100D01*
X5968090D01*
X5956660Y2134290D01*
X5947770Y2127940D01*
X5941420Y2120320D01*
X5936340Y2107620D01*
X5935070Y2096190D01*
X5937610Y2084760D01*
X5941420Y2077140D01*
X5949040Y2069520D01*
X5957930Y2064440D01*
X5966820Y2061900D01*
X5975710D01*
X5984600Y2064440D01*
X5992220Y2068250D01*
X5998570Y2073330D01*
G01X6053180Y2061900D02*
Y2138100D01*
X6037940Y2122860D01*
G01Y2061900D02*
X6068420D01*
G01X5928880Y2708100D02*
Y2653490D01*
X5933960Y2642060D01*
X5944120Y2634440D01*
X5956820Y2631900D01*
X5969520Y2634440D01*
X5979680Y2642060D01*
X5984760Y2653490D01*
Y2708100D01*
G01X6043180Y2631900D02*
X6052070Y2633170D01*
X6062230Y2636980D01*
X6068580Y2643330D01*
X6071120Y2652220D01*
X6068580Y2661110D01*
X6060960Y2668730D01*
X6049530Y2672540D01*
X6036830D01*
X6029210Y2675080D01*
X6022860Y2681430D01*
X6020320Y2690320D01*
X6024130Y2699210D01*
X6033020Y2705560D01*
X6043180Y2708100D01*
X6053340Y2705560D01*
X6062230Y2699210D01*
X6066040Y2690320D01*
X6063500Y2681430D01*
X6057150Y2675080D01*
X6049530Y2672540D01*
X6036830D01*
X6025400Y2668730D01*
X6017780Y2661110D01*
X6015240Y2652220D01*
X6017780Y2643330D01*
X6024130Y2636980D01*
X6034290Y2633170D01*
X6043180Y2631900D01*
G01X5474760Y6501750D02*
X5467140Y6505560D01*
X5458250Y6508100D01*
X5448090D01*
X5436660Y6504290D01*
X5427770Y6497940D01*
X5421420Y6490320D01*
X5416340Y6477620D01*
X5415070Y6466190D01*
X5417610Y6454760D01*
X5421420Y6447140D01*
X5429040Y6439520D01*
X5437930Y6434440D01*
X5446820Y6431900D01*
X5455710D01*
X5464600Y6434440D01*
X5472220Y6438250D01*
X5478570Y6443330D01*
G01X5505240D02*
X5512860Y6436980D01*
X5521750Y6433170D01*
X5533180Y6431900D01*
X5544610Y6434440D01*
X5553500Y6439520D01*
X5559850Y6448410D01*
X5561120Y6458570D01*
X5558580Y6468730D01*
X5552230Y6475080D01*
X5543340Y6480160D01*
X5534450Y6481430D01*
X5525560Y6480160D01*
X5514130Y6475080D01*
X5517940Y6508100D01*
X5552230D01*
G01X5461580Y7041750D02*
X5453960Y7045560D01*
X5445070Y7048100D01*
X5434910D01*
X5423480Y7044290D01*
X5414590Y7037940D01*
X5408240Y7030320D01*
X5403160Y7017620D01*
X5401890Y7006190D01*
X5404430Y6994760D01*
X5408240Y6987140D01*
X5415860Y6979520D01*
X5424750Y6974440D01*
X5433640Y6971900D01*
X5442530D01*
X5451420Y6974440D01*
X5459040Y6978250D01*
X5465390Y6983330D01*
G01X5520000Y6971900D02*
Y7048100D01*
X5504760Y7032860D01*
G01Y6971900D02*
X5535240D01*
G01X5621600D02*
Y7048100D01*
X5574610Y6993490D01*
X5638110D01*
G01X6173800Y1575400D02*
Y1651600D01*
X6205550D01*
X6215710Y1647790D01*
X6222060Y1642710D01*
X6224600Y1632550D01*
X6222060Y1622390D01*
X6214440Y1616040D01*
X6205550Y1612230D01*
X6173800D01*
G01X6205550D02*
X6224600Y1575400D01*
G01X6285560D02*
Y1651600D01*
X6270320Y1636360D01*
G01Y1575400D02*
X6300800D01*
G01X6453200D02*
Y1651600D01*
X6484950D01*
X6495110Y1647790D01*
X6501460Y1642710D01*
X6504000Y1632550D01*
X6501460Y1622390D01*
X6493840Y1616040D01*
X6484950Y1612230D01*
X6453200D01*
G01X6484950D02*
X6504000Y1575400D01*
G01X6580200D02*
Y1651600D01*
X6533210Y1596990D01*
X6596710D01*
G01X6631420Y1841900D02*
Y1918100D01*
X6663170D01*
X6673330Y1914290D01*
X6679680Y1909210D01*
X6682220Y1899050D01*
X6679680Y1888890D01*
X6672060Y1882540D01*
X6663170Y1878730D01*
X6631420D01*
G01X6663170D02*
X6682220Y1841900D01*
G01X6715240Y1853330D02*
X6722860Y1846980D01*
X6731750Y1843170D01*
X6743180Y1841900D01*
X6754610Y1844440D01*
X6763500Y1849520D01*
X6769850Y1858410D01*
X6771120Y1868570D01*
X6768580Y1878730D01*
X6762230Y1885080D01*
X6753340Y1890160D01*
X6744450Y1891430D01*
X6735560Y1890160D01*
X6724130Y1885080D01*
X6727940Y1918100D01*
X6762230D01*
G01X6428880Y2058100D02*
Y2003490D01*
X6433960Y1992060D01*
X6444120Y1984440D01*
X6456820Y1981900D01*
X6469520Y1984440D01*
X6479680Y1992060D01*
X6484760Y2003490D01*
Y2058100D01*
G01X6543180Y1981900D02*
Y2058100D01*
X6527940Y2042860D01*
G01Y1981900D02*
X6558420D01*
G01X6228250Y2784760D02*
X6224440Y2777140D01*
X6221900Y2768250D01*
Y2758090D01*
X6225710Y2746660D01*
X6232060Y2737770D01*
X6239680Y2731420D01*
X6252380Y2726340D01*
X6263810Y2725070D01*
X6275240Y2727610D01*
X6282860Y2731420D01*
X6290480Y2739040D01*
X6295560Y2747930D01*
X6298100Y2756820D01*
Y2765710D01*
X6295560Y2774600D01*
X6291750Y2782220D01*
X6286670Y2788570D01*
G01X6282860Y2815240D02*
X6291750Y2822860D01*
X6296830Y2833020D01*
X6298100Y2844450D01*
X6296830Y2854610D01*
X6290480Y2864770D01*
X6282860Y2871120D01*
X6275240Y2872390D01*
X6266350Y2869850D01*
X6260000Y2860960D01*
X6257460Y2852070D01*
Y2840640D01*
G01Y2852070D02*
X6253650Y2859690D01*
X6247300Y2866040D01*
X6239680Y2868580D01*
X6232060Y2866040D01*
X6225710Y2859690D01*
X6221900Y2848260D01*
X6223170Y2836830D01*
X6228250Y2825400D01*
G01X6568250Y2414760D02*
X6564440Y2407140D01*
X6561900Y2398250D01*
Y2388090D01*
X6565710Y2376660D01*
X6572060Y2367770D01*
X6579680Y2361420D01*
X6592380Y2356340D01*
X6603810Y2355070D01*
X6615240Y2357610D01*
X6622860Y2361420D01*
X6630480Y2369040D01*
X6635560Y2377930D01*
X6638100Y2386820D01*
Y2395710D01*
X6635560Y2404600D01*
X6631750Y2412220D01*
X6626670Y2418570D01*
G01X6638100Y2488420D02*
X6561900D01*
X6616510Y2441430D01*
Y2504930D01*
G01X6418100Y2741420D02*
X6341900D01*
Y2773170D01*
X6345710Y2783330D01*
X6350790Y2789680D01*
X6360950Y2792220D01*
X6371110Y2789680D01*
X6377460Y2782060D01*
X6381270Y2773170D01*
Y2741420D01*
G01Y2773170D02*
X6418100Y2792220D01*
G01Y2850640D02*
X6401590Y2853180D01*
X6387620Y2856990D01*
X6374920Y2862070D01*
X6360950Y2868420D01*
X6341900Y2878580D01*
Y2827780D01*
G01X6471420Y2997140D02*
X6477770Y2989520D01*
X6485390Y2984440D01*
X6494280Y2981900D01*
X6504440Y2984440D01*
X6512060Y2989520D01*
X6519680Y2997140D01*
X6522220Y3007300D01*
Y3058100D01*
G01X6555240Y2993330D02*
X6562860Y2986980D01*
X6571750Y2983170D01*
X6583180Y2981900D01*
X6594610Y2984440D01*
X6603500Y2989520D01*
X6609850Y2998410D01*
X6611120Y3008570D01*
X6608580Y3018730D01*
X6602230Y3025080D01*
X6593340Y3030160D01*
X6584450Y3031430D01*
X6575560Y3030160D01*
X6564130Y3025080D01*
X6567940Y3058100D01*
X6602230D01*
G01X6821420Y1841900D02*
Y1918100D01*
X6853170D01*
X6863330Y1914290D01*
X6869680Y1909210D01*
X6872220Y1899050D01*
X6869680Y1888890D01*
X6862060Y1882540D01*
X6853170Y1878730D01*
X6821420D01*
G01X6853170D02*
X6872220Y1841900D01*
G01X6909050Y1905400D02*
X6916670Y1913020D01*
X6925560Y1916830D01*
X6935720Y1918100D01*
X6948420Y1915560D01*
X6957310Y1909210D01*
X6959850Y1901590D01*
X6958580Y1893970D01*
X6953500Y1887620D01*
X6928100Y1874920D01*
X6916670Y1866030D01*
X6909050Y1853330D01*
X6906510Y1841900D01*
X6959850D01*
G01X6671420Y1571900D02*
Y1648100D01*
X6703170D01*
X6713330Y1644290D01*
X6719680Y1639210D01*
X6722220Y1629050D01*
X6719680Y1618890D01*
X6712060Y1612540D01*
X6703170Y1608730D01*
X6671420D01*
G01X6703170D02*
X6722220Y1571900D01*
G01X6759050Y1603650D02*
X6767940Y1612540D01*
X6775560Y1617620D01*
X6785720Y1620160D01*
X6794610Y1617620D01*
X6800960Y1612540D01*
X6806040Y1604920D01*
X6807310Y1596030D01*
X6806040Y1588410D01*
X6800960Y1580790D01*
X6793340Y1574440D01*
X6784450Y1571900D01*
X6774290Y1574440D01*
X6765400Y1582060D01*
X6760320Y1593490D01*
X6759050Y1606190D01*
X6761590Y1622700D01*
X6765400Y1631590D01*
X6771750Y1640480D01*
X6780640Y1646830D01*
X6789530Y1648100D01*
X6798420Y1645560D01*
X6804770Y1639210D01*
G01X7864760Y1771750D02*
X7857140Y1775560D01*
X7848250Y1778100D01*
X7838090D01*
X7826660Y1774290D01*
X7817770Y1767940D01*
X7811420Y1760320D01*
X7806340Y1747620D01*
X7805070Y1736190D01*
X7807610Y1724760D01*
X7811420Y1717140D01*
X7819040Y1709520D01*
X7827930Y1704440D01*
X7836820Y1701900D01*
X7845710D01*
X7854600Y1704440D01*
X7862220Y1708250D01*
X7868570Y1713330D01*
G01X7899050Y1765400D02*
X7906670Y1773020D01*
X7915560Y1776830D01*
X7925720Y1778100D01*
X7938420Y1775560D01*
X7947310Y1769210D01*
X7949850Y1761590D01*
X7948580Y1753970D01*
X7943500Y1747620D01*
X7918100Y1734920D01*
X7906670Y1726030D01*
X7899050Y1713330D01*
X7896510Y1701900D01*
X7949850D01*
G01X7861580Y2301750D02*
X7853960Y2305560D01*
X7845070Y2308100D01*
X7834910D01*
X7823480Y2304290D01*
X7814590Y2297940D01*
X7808240Y2290320D01*
X7803160Y2277620D01*
X7801890Y2266190D01*
X7804430Y2254760D01*
X7808240Y2247140D01*
X7815860Y2239520D01*
X7824750Y2234440D01*
X7833640Y2231900D01*
X7842530D01*
X7851420Y2234440D01*
X7859040Y2238250D01*
X7865390Y2243330D01*
G01X7920000Y2231900D02*
Y2308100D01*
X7904760Y2292860D01*
G01Y2231900D02*
X7935240D01*
G01X7978420Y2243330D02*
X7986040Y2236980D01*
X7994930Y2233170D01*
X8006360Y2231900D01*
X8017790Y2234440D01*
X8026680Y2239520D01*
X8033030Y2248410D01*
X8034300Y2258570D01*
X8031760Y2268730D01*
X8025410Y2275080D01*
X8016520Y2280160D01*
X8007630Y2281430D01*
X7998740Y2280160D01*
X7987310Y2275080D01*
X7991120Y2308100D01*
X8025410D01*
G01X7348880Y2901900D02*
Y2978100D01*
X7374280D01*
X7384440Y2974290D01*
X7392060Y2969210D01*
X7398410Y2961590D01*
X7403490Y2952700D01*
X7404760Y2940000D01*
X7403490Y2927300D01*
X7398410Y2918410D01*
X7392060Y2910790D01*
X7384440Y2905710D01*
X7374280Y2901900D01*
X7348880D01*
G01X7463180D02*
Y2978100D01*
X7447940Y2962860D01*
G01Y2901900D02*
X7478420D01*
G54D16*
G01X3396700Y985400D02*
X3456700D01*
G01X3396700Y1405400D02*
X3456700D01*
G01X5225700Y985400D02*
X5165700D01*
G01X5225700Y1405400D02*
X5165700D01*
G54D17*
G01X1178400Y1819700D02*
X1292700D01*
G01X1307940Y1784140D02*
Y1725720D01*
G01X1325720Y1784140D02*
Y1725720D01*
G01X1292700Y1692700D02*
X1178400D01*
Y1819700D01*
G01X1343500D02*
X1457800D01*
Y1692700D01*
X1343500D01*
G01X1241900Y2188000D02*
X1127600D01*
G01X1112360Y2223560D02*
Y2281980D01*
G01X1094580Y2223560D02*
Y2281980D01*
G01X1127600Y2315000D02*
X1241900D01*
Y2188000D01*
G01X1076800D02*
X962500D01*
Y2315000D01*
X1076800D01*
G01X1325000Y2434800D02*
Y2549100D01*
G01X1360560Y2564340D02*
X1418980D01*
G01X1360560Y2582120D02*
X1418980D01*
G01X1452000Y2549100D02*
Y2434800D01*
X1325000D01*
G01Y2599900D02*
Y2714200D01*
X1452000D01*
Y2599900D01*
G01X2017500Y2064100D02*
Y1949800D01*
X1890500D01*
Y2064100D01*
G01X1457800Y1819700D02*
X1572100D01*
G01X1587340Y1784140D02*
Y1725720D01*
G01X1605120Y1784140D02*
Y1725720D01*
G01X1572100Y1692700D02*
X1457800D01*
Y1819700D01*
G01X1622900D02*
X1737200D01*
Y1692700D01*
X1622900D01*
G01X1887500Y2064100D02*
Y1949800D01*
X1760500D01*
Y2064100D01*
G01X1737200Y1819700D02*
X1851500D01*
G01X1866740Y1784140D02*
Y1725720D01*
G01X1884520Y1784140D02*
Y1725720D01*
G01X1851500Y1692700D02*
X1737200D01*
Y1819700D01*
G01X1902300D02*
X2016600D01*
Y1692700D01*
X1902300D01*
G01X1750500Y2279800D02*
Y2394100D01*
G01X1786060Y2409340D02*
X1844480D01*
G01X1786060Y2427120D02*
X1844480D01*
G01X1877500Y2394100D02*
Y2279800D01*
X1750500D01*
G01Y2444900D02*
Y2559200D01*
X1877500D01*
Y2444900D01*
G01X2017500Y2229200D02*
Y2114900D01*
G01X1981940Y2099660D02*
X1923520D01*
G01X1981940Y2081880D02*
X1923520D01*
G01X1890500Y2114900D02*
Y2229200D01*
X2017500D01*
G01X1887500D02*
Y2114900D01*
G01X1851940Y2099660D02*
X1793520D01*
G01X1851940Y2081880D02*
X1793520D01*
G01X1760500Y2114900D02*
Y2229200D01*
X1887500D01*
G01X1455000Y2434800D02*
Y2549100D01*
G01X1490560Y2564340D02*
X1548980D01*
G01X1490560Y2582120D02*
X1548980D01*
G01X1582000Y2549100D02*
Y2434800D01*
X1455000D01*
G01Y2599900D02*
Y2714200D01*
X1582000D01*
Y2599900D01*
G01X2096650Y1639620D02*
Y1562010D01*
G01Y2036990D02*
Y1959380D01*
G01X2871350Y2036990D02*
X2096650D01*
G01Y1562010D02*
X2871350D01*
G01X2096650Y2139620D02*
Y2062010D01*
G01D02*
X2871350D01*
G01X2096650Y2536990D02*
Y2459380D01*
G01X2871350Y2536990D02*
X2096650D01*
G01X3360300Y273500D02*
X3474600D01*
G01Y146500D02*
X3360300D01*
Y273500D01*
G01X3060300D02*
X3174600D01*
G01X3189840Y237940D02*
Y179520D01*
G01X3207620Y237940D02*
Y179520D01*
G01X3174600Y146500D02*
X3060300D01*
Y273500D01*
G01X3225400D02*
X3339700D01*
Y146500D01*
X3225400D01*
G01X2871350Y1959380D02*
Y2036990D01*
G01Y1562010D02*
Y1639620D01*
G01Y2062010D02*
Y2139620D01*
G01Y2459380D02*
Y2536990D01*
G01X3639700Y273500D02*
X3665100D01*
Y146500D01*
X3639700D01*
G01X3525400Y273500D02*
X3639700D01*
Y146500D01*
X3525400D01*
G01X3688400Y6469700D02*
X3802700D01*
G01X3817940Y6434140D02*
Y6375720D01*
G01X3835720Y6434140D02*
Y6375720D01*
G01X3802700Y6342700D02*
X3688400D01*
Y6469700D01*
G01X3853500D02*
X3967800D01*
Y6342700D01*
X3853500D01*
G01X3967800Y6469700D02*
X4082100D01*
G01Y6342700D02*
X3967800D01*
Y6469700D01*
G01X3751900Y6838000D02*
X3637600D01*
G01X3622360Y6873560D02*
Y6931980D01*
G01X3604580Y6873560D02*
Y6931980D01*
G01X3637600Y6965000D02*
X3751900D01*
Y6838000D01*
G01X3586800D02*
X3472500D01*
Y6965000D01*
X3586800D01*
G01X3835000Y7084800D02*
Y7199100D01*
G01X3870560Y7214340D02*
X3928980D01*
G01X3870560Y7232120D02*
X3928980D01*
G01X3962000Y7199100D02*
Y7084800D01*
X3835000D01*
G01Y7249900D02*
Y7364200D01*
X3962000D01*
Y7249900D01*
G01X3965000Y7084800D02*
Y7199100D01*
G01X4000560Y7214340D02*
X4058980D01*
G01X4000560Y7232120D02*
X4058980D01*
G01X4092000Y7199100D02*
Y7084800D01*
X3965000D01*
G01Y7249900D02*
Y7364200D01*
X4092000D01*
Y7249900D01*
G01X4639700Y273500D02*
X4665100D01*
Y146500D01*
X4639700D01*
G01X4360300Y273500D02*
X4474600D01*
G01Y146500D02*
X4360300D01*
Y273500D01*
G01X4525400D02*
X4639700D01*
Y146500D01*
X4525400D01*
G01X4060300Y273500D02*
X4174600D01*
G01X4189840Y237940D02*
Y179520D01*
G01X4207620Y237940D02*
Y179520D01*
G01X4174600Y146500D02*
X4060300D01*
Y273500D01*
G01X4225400D02*
X4339700D01*
Y146500D01*
X4225400D01*
G01X4606650Y6349620D02*
Y6272010D01*
G01D02*
X5381350D01*
G01X4527500Y6714100D02*
Y6599800D01*
X4400500D01*
Y6714100D01*
G01X4097340Y6434140D02*
Y6375720D01*
G01X4115120Y6434140D02*
Y6375720D01*
G01X4132900Y6469700D02*
X4247200D01*
Y6342700D01*
X4132900D01*
G01X4397500Y6714100D02*
Y6599800D01*
X4270500D01*
Y6714100D01*
G01X4247200Y6469700D02*
X4361500D01*
G01X4376740Y6434140D02*
Y6375720D01*
G01X4394520Y6434140D02*
Y6375720D01*
G01X4361500Y6342700D02*
X4247200D01*
Y6469700D01*
G01X4412300D02*
X4526600D01*
Y6342700D01*
X4412300D01*
G01X4260500Y6929800D02*
Y7044100D01*
G01X4296060Y7059340D02*
X4354480D01*
G01X4296060Y7077120D02*
X4354480D01*
G01X4387500Y7044100D02*
Y6929800D01*
X4260500D01*
G01Y7094900D02*
Y7209200D01*
X4387500D01*
Y7094900D01*
G01X4606650Y6746990D02*
Y6669380D01*
G01X5381350Y6746990D02*
X4606650D01*
G01Y6849620D02*
Y6772010D01*
G01Y7246990D02*
Y7169380D01*
G01X5381350Y7246990D02*
X4606650D01*
G01Y6772010D02*
X5381350D01*
G01X4527500Y6879200D02*
Y6764900D01*
G01X4491940Y6749660D02*
X4433520D01*
G01X4491940Y6731880D02*
X4433520D01*
G01X4400500Y6764900D02*
Y6879200D01*
X4527500D01*
G01X4397500D02*
Y6764900D01*
G01X4361940Y6749660D02*
X4303520D01*
G01X4361940Y6731880D02*
X4303520D01*
G01X4270500Y6764900D02*
Y6879200D01*
X4397500D01*
G01X5160300Y273500D02*
X5274600D01*
G01X5289840Y237940D02*
Y179520D01*
G01X5307620Y237940D02*
Y179520D01*
G01X5274600Y146500D02*
X5160300D01*
Y273500D01*
G01X5325400D02*
X5439700D01*
Y146500D01*
X5325400D01*
G01X5739700Y273500D02*
X5765100D01*
Y146500D01*
X5739700D01*
G01X5460300Y273500D02*
X5574600D01*
G01Y146500D02*
X5460300D01*
Y273500D01*
G01X5625400D02*
X5739700D01*
Y146500D01*
X5625400D01*
G01X5986800Y2178000D02*
X5872500D01*
Y2305000D01*
X5986800D01*
G01X5381350Y6272010D02*
Y6349620D01*
G01Y6669380D02*
Y6746990D01*
G01Y7169380D02*
Y7246990D01*
G01Y6772010D02*
Y6849620D01*
G01X6088400Y1809700D02*
X6202700D01*
G01X6217940Y1774140D02*
Y1715720D01*
G01X6235720Y1774140D02*
Y1715720D01*
G01X6202700Y1682700D02*
X6088400D01*
Y1809700D01*
G01X6253500D02*
X6367800D01*
Y1682700D01*
X6253500D01*
G01X6367800Y1809700D02*
X6482100D01*
G01X6497340Y1774140D02*
Y1715720D01*
G01X6515120Y1774140D02*
Y1715720D01*
G01X6482100Y1682700D02*
X6367800D01*
Y1809700D01*
G01X6532900D02*
X6647200D01*
Y1682700D01*
X6532900D01*
G01X6647200Y1809700D02*
X6761500D01*
G01Y1682700D02*
X6647200D01*
Y1809700D01*
G01X6151900Y2178000D02*
X6037600D01*
G01X6022360Y2213560D02*
Y2271980D01*
G01X6004580Y2213560D02*
Y2271980D01*
G01X6037600Y2305000D02*
X6151900D01*
Y2178000D01*
G01X6230500Y2429800D02*
Y2544100D01*
G01X6266060Y2559340D02*
X6324480D01*
G01X6266060Y2577120D02*
X6324480D01*
G01X6357500Y2544100D02*
Y2429800D01*
X6230500D01*
G01Y2594900D02*
Y2709200D01*
X6357500D01*
Y2594900D01*
G01X6360500Y2429800D02*
Y2544100D01*
G01X6396060Y2559340D02*
X6454480D01*
G01X6396060Y2577120D02*
X6454480D01*
G01X6487500Y2544100D02*
Y2429800D01*
X6360500D01*
G01Y2594900D02*
Y2709200D01*
X6487500D01*
Y2594900D01*
G01X7006650Y1629620D02*
Y1552010D01*
G01Y2026990D02*
Y1949380D01*
G01X7781350Y2026990D02*
X7006650D01*
G01Y1552010D02*
X7781350D01*
G01X7006650Y2129620D02*
Y2052010D01*
G01D02*
X7781350D01*
G01X6927500Y2054100D02*
Y1939800D01*
X6800500D01*
Y2054100D01*
G01X6797500D02*
Y1939800D01*
X6670500D01*
Y2054100D01*
G01X6776740Y1774140D02*
Y1715720D01*
G01X6794520Y1774140D02*
Y1715720D01*
G01X6812300Y1809700D02*
X6926600D01*
Y1682700D01*
X6812300D01*
G01X6660500Y2269800D02*
Y2384100D01*
G01X6696060Y2399340D02*
X6754480D01*
G01X6696060Y2417120D02*
X6754480D01*
G01X6787500Y2384100D02*
Y2269800D01*
X6660500D01*
G01Y2434900D02*
Y2549200D01*
X6787500D01*
Y2434900D01*
G01X7006650Y2526990D02*
Y2449380D01*
G01X7781350Y2526990D02*
X7006650D01*
G01X6927500Y2219200D02*
Y2104900D01*
G01X6891940Y2089660D02*
X6833520D01*
G01X6891940Y2071880D02*
X6833520D01*
G01X6800500Y2104900D02*
Y2219200D01*
X6927500D01*
G01X6797500D02*
Y2104900D01*
G01X6761940Y2089660D02*
X6703520D01*
G01X6761940Y2071880D02*
X6703520D01*
G01X6670500Y2104900D02*
Y2219200D01*
X6797500D01*
G01X7781350Y1949380D02*
Y2026990D01*
G01Y1552010D02*
Y1629620D01*
G01Y2052010D02*
Y2129620D01*
G01Y2449380D02*
Y2526990D01*
G01X0Y100000D02*
Y3700000D01*
G02X100000Y3800000I100000J0D01*
G01X900000D01*
G03X1000000Y3900000I0J100000D01*
G01Y4900000D01*
G03X900000Y5000000I-100000J0D01*
G01X100000D01*
G02X0Y5100000I0J100000D01*
G01Y8700000D01*
G02X100000Y8800000I100000J0D01*
G01X3700000D01*
G02X3800000Y8700000I0J-100000D01*
G01Y7900000D01*
G03X3900000Y7800000I100000J0D01*
G01X4900000D01*
G03X5000000Y7900000I0J100000D01*
G01Y8700000D01*
G02X5100000Y8800000I100000J0D01*
G01X8700000D01*
G02X8800000Y8700000I0J-100000D01*
G01Y5100000D01*
G02X8700000Y5000000I-100000J0D01*
G01X7900000D01*
G03X7800000Y4900000I0J-100000D01*
G01Y3900000D01*
G03X7900000Y3800000I100000J0D01*
G01X8700000D01*
G02X8800000Y3700000I0J-100000D01*
G01Y100000D01*
G02X8700000Y0I-100000J0D01*
G01X7800000D01*
G02X7700000Y100000I0J100000D01*
G01Y900000D01*
G03X7600000Y1000000I-100000J0D01*
G01X6400000D01*
G03X6300000Y900000I0J-100000D01*
G01Y100000D01*
G02X6200000Y0I-100000J0D01*
G01X2600000D01*
G02X2500000Y100000I0J100000D01*
G01Y900000D01*
G03X2400000Y1000000I-100000J0D01*
G01X1200000D01*
G03X1100000Y900000I0J-100000D01*
G01Y100000D01*
G02X1000000Y0I-100000J0D01*
G01X100000D01*
G02X0Y100000I0J100000D01*
G01X656640Y7800000D02*
G03I-56640J0D01*
G01X856640Y840000D02*
G03I-56640J0D01*
G01X7956640Y300000D02*
G03I-56640J0D01*
G01X7556640Y8300000D02*
G03I-56640J0D01*
G54D18*
G01X2172010Y2879430D02*
G02I-12510J0D01*
G01X4682010Y7579430D02*
G02I-12510J0D01*
G01X7082010Y2859430D02*
G02I-12510J0D01*
G54D19*
G01X2204490Y2645190D02*
Y2635690D01*
X2735510D01*
Y2645190D01*
G01X2204490Y2874810D02*
Y2884310D01*
X2735510D01*
Y2874810D01*
G01X4714490Y7574810D02*
Y7584310D01*
X5245510D01*
Y7574810D01*
G01X4714490Y7345190D02*
Y7335690D01*
X5245510D01*
Y7345190D01*
G01X7114490Y2625190D02*
Y2615690D01*
X7645510D01*
Y2625190D01*
G01X7114490Y2854810D02*
Y2864310D01*
X7645510D01*
Y2854810D01*
M02*
