G04 ================== begin FILE IDENTIFICATION RECORD ==================*
G04 Layout Name:  D:/0_Working/1_Hardware/42_Adaptor/2_Layout/Adaptor_V100.brd*
G04 Film Name:    ADAPTOR_ver1.0.0_ASSY_TOP.art*
G04 File Format:  Gerber RS274X*
G04 File Origin:  Cadence Allegro 17.2-S052*
G04 Origin Date:  Fri Oct 04 17:12:52 2024*
G04 *
G04 Layer:  BOARD GEOMETRY/DESIGN_OUTLINE*
G04 Layer:  REF DES/ASSEMBLY_TOP*
G04 Layer:  PACKAGE GEOMETRY/ASSEMBLY_TOP*
G04 Layer:  DRAWING FORMAT/OUTLINE*
G04 *
G04 Offset:    (0.0000 0.0000)*
G04 Mirror:    No*
G04 Mode:      Positive*
G04 Rotation:  0*
G04 FullContactRelief:  No*
G04 UndefLineWidth:     0.1016*
G04 ================== end FILE IDENTIFICATION RECORD ====================*
%FSLAX25Y25*MOIN*%
%IR0*IPPOS*OFA0.00000B0.00000*MIA0B0*SFA1.00000B1.00000*%
%ADD10C,.003937*%
%ADD11C,.007874*%
%ADD12C,.005906*%
%ADD13C,.008*%
%ADD14C,.005*%
%ADD15C,.006*%
%ADD16C,.009839*%
%ADD17C,.00787*%
%ADD18C,.004*%
G75*
%LPD*%
G75*
G36*
G01X40563Y104681D02*
X39563Y105681D01*
Y103681D01*
X40563Y104681D01*
G37*
G36*
G01X82232Y69783D02*
X84232D01*
Y68283D01*
X85732D01*
Y66283D01*
X84232D01*
Y64783D01*
X82232D01*
Y66283D01*
X80732D01*
Y68283D01*
X82232D01*
Y69783D01*
G37*
G36*
G01Y89469D02*
X84232D01*
Y87969D01*
X85732D01*
Y85969D01*
X84232D01*
Y84469D01*
X82232D01*
Y85969D01*
X80732D01*
Y87969D01*
X82232D01*
Y89469D01*
G37*
G36*
G01X87232Y66283D02*
Y69283D01*
X91232D01*
Y66283D01*
X87232D01*
G37*
G36*
G01Y83283D02*
Y80283D01*
X91232D01*
Y83283D01*
X87232D01*
G37*
G36*
G01Y85969D02*
Y88969D01*
X91232D01*
Y85969D01*
X87232D01*
G37*
G36*
G01Y102969D02*
Y99969D01*
X91232D01*
Y102969D01*
X87232D01*
G37*
G36*
G01X139776Y303106D02*
X138776Y304106D01*
Y302106D01*
X139776Y303106D01*
G37*
G36*
G01X181051Y267815D02*
X183051D01*
Y266315D01*
X184551D01*
Y264315D01*
X183051D01*
Y262815D01*
X181051D01*
Y264315D01*
X179551D01*
Y266315D01*
X181051D01*
Y267815D01*
G37*
G36*
G01X186051Y264315D02*
Y267315D01*
X190051D01*
Y264315D01*
X186051D01*
G37*
G36*
G01Y281315D02*
Y278315D01*
X190051D01*
Y281315D01*
X186051D01*
G37*
G36*
G01X181051Y287500D02*
X183051D01*
Y286000D01*
X184551D01*
Y284000D01*
X183051D01*
Y282500D01*
X181051D01*
Y284000D01*
X179551D01*
Y286000D01*
X181051D01*
Y287500D01*
G37*
G36*
G01X186051Y284000D02*
Y287000D01*
X190051D01*
Y284000D01*
X186051D01*
G37*
G36*
G01Y301000D02*
Y298000D01*
X190051D01*
Y301000D01*
X186051D01*
G37*
G36*
G01X233870Y104681D02*
X232870Y105681D01*
Y103681D01*
X233870Y104681D01*
G37*
G36*
G01X275539Y69390D02*
X277539D01*
Y67890D01*
X279039D01*
Y65890D01*
X277539D01*
Y64390D01*
X275539D01*
Y65890D01*
X274039D01*
Y67890D01*
X275539D01*
Y69390D01*
G37*
G36*
G01X280539Y65890D02*
Y68890D01*
X284539D01*
Y65890D01*
X280539D01*
G37*
G36*
G01Y82890D02*
Y79890D01*
X284539D01*
Y82890D01*
X280539D01*
G37*
G36*
G01X275539Y89075D02*
X277539D01*
Y87575D01*
X279039D01*
Y85575D01*
X277539D01*
Y84075D01*
X275539D01*
Y85575D01*
X274039D01*
Y87575D01*
X275539D01*
Y89075D01*
G37*
G36*
G01X280539Y85575D02*
Y88575D01*
X284539D01*
Y85575D01*
X280539D01*
G37*
G36*
G01Y102575D02*
Y99575D01*
X284539D01*
Y102575D01*
X280539D01*
G37*
G54D10*
G01X44390Y103543D02*
G02I-787J0D01*
G01X41930Y97047D02*
Y105315D01*
G01X50197Y97047D02*
Y105315D01*
G01X41930D02*
X50197D01*
G01X41930Y97047D02*
X50197D01*
G01X65354Y114961D02*
X72441D01*
Y120472D01*
X65354D01*
Y114961D01*
G01X143603Y301969D02*
G02I-787J0D01*
G01X141142Y295472D02*
Y303740D01*
G01X149410Y295472D02*
Y303740D01*
G01X141142D02*
X149410D01*
G01X141142Y295472D02*
X149410D01*
G01X164961Y312992D02*
X172047D01*
Y318504D01*
X164961D01*
Y312992D01*
G01X237697Y103543D02*
G02I-787J0D01*
G01X235237Y97047D02*
Y105315D01*
G01D02*
X243504D01*
G01X235237Y97047D02*
X243504D01*
G01D02*
Y105315D01*
G01X257874Y114567D02*
X264961D01*
Y120079D01*
X257874D01*
Y114567D01*
G54D11*
G01X131150Y47457D02*
X140992D01*
Y42732D01*
G01X204161Y33677D02*
G03I-394J0D01*
G01X216189Y47457D02*
X206346D01*
Y42732D01*
G54D12*
G01X60591Y87185D02*
Y95453D01*
G01X68858D02*
X60591D01*
G01X68858Y87185D02*
Y95453D01*
G01Y87185D02*
X60591D01*
G01X159409Y285217D02*
Y293484D01*
G01X167677Y285217D02*
X159409D01*
G01X167677Y293484D02*
X159409D01*
G01X167677Y285217D02*
Y293484D01*
G01X253898Y86791D02*
Y95059D01*
G01X262165D02*
X253898D01*
G01X262165Y86791D02*
Y95059D01*
G01Y86791D02*
X253898D01*
G54D13*
G01X12348Y268217D02*
Y265217D01*
G01X11198Y268217D02*
X13498D01*
G01X14748Y265217D02*
Y268217D01*
X15948D01*
X16348Y268067D01*
X16648Y267717D01*
X16748Y267317D01*
X16648Y266917D01*
X16398Y266617D01*
X15948Y266467D01*
X14748D01*
G01X19148Y265217D02*
Y268217D01*
X18548Y267617D01*
G01Y265217D02*
X19748D01*
G01X51331Y71079D02*
Y74079D01*
X52581D01*
X52981Y73929D01*
X53231Y73729D01*
X53331Y73329D01*
X53231Y72929D01*
X52931Y72679D01*
X52581Y72529D01*
X51331D01*
G01X52581D02*
X53331Y71079D01*
G01X55731D02*
Y74079D01*
X55131Y73479D01*
G01Y71079D02*
X56331D01*
G01X58031Y71529D02*
X58331Y71279D01*
X58681Y71129D01*
X59131Y71079D01*
X59581Y71179D01*
X59931Y71379D01*
X60181Y71729D01*
X60231Y72129D01*
X60131Y72529D01*
X59881Y72779D01*
X59531Y72979D01*
X59181Y73029D01*
X58831Y72979D01*
X58381Y72779D01*
X58531Y74079D01*
X59881D01*
G01X44944Y93770D02*
X44644Y93920D01*
X44294Y94020D01*
X43894D01*
X43444Y93870D01*
X43094Y93620D01*
X42844Y93320D01*
X42644Y92820D01*
X42594Y92370D01*
X42694Y91920D01*
X42844Y91620D01*
X43144Y91320D01*
X43494Y91120D01*
X43844Y91020D01*
X44194D01*
X44544Y91120D01*
X44844Y91270D01*
X45094Y91470D01*
G01X47244Y91020D02*
Y94020D01*
X46644Y93420D01*
G01Y91020D02*
X47844D01*
G01X50644Y94020D02*
X50244Y93920D01*
X49944Y93670D01*
X49744Y93370D01*
X49594Y92970D01*
X49544Y92520D01*
X49594Y92070D01*
X49744Y91670D01*
X49944Y91370D01*
X50244Y91120D01*
X50644Y91020D01*
X51044Y91120D01*
X51344Y91370D01*
X51544Y91670D01*
X51694Y92070D01*
X51744Y92520D01*
X51694Y92970D01*
X51544Y93370D01*
X51344Y93670D01*
X51044Y93920D01*
X50644Y94020D01*
G01X57852Y102895D02*
X57702Y102595D01*
X57602Y102245D01*
Y101845D01*
X57752Y101395D01*
X58002Y101045D01*
X58302Y100795D01*
X58802Y100595D01*
X59252Y100545D01*
X59702Y100645D01*
X60002Y100795D01*
X60302Y101095D01*
X60502Y101445D01*
X60602Y101795D01*
Y102145D01*
X60502Y102495D01*
X60352Y102795D01*
X60152Y103045D01*
G01X60602Y105195D02*
X57602D01*
X58202Y104595D01*
G01X60602D02*
Y105795D01*
G01Y108595D02*
X57602D01*
X58202Y107995D01*
G01X60602D02*
Y109195D01*
G01X43657Y101500D02*
Y99350D01*
X43857Y98900D01*
X44257Y98600D01*
X44757Y98500D01*
X45257Y98600D01*
X45657Y98900D01*
X45857Y99350D01*
Y101500D01*
G01X47207Y99750D02*
X47557Y100100D01*
X47857Y100300D01*
X48257Y100400D01*
X48607Y100300D01*
X48857Y100100D01*
X49057Y99800D01*
X49107Y99450D01*
X49057Y99150D01*
X48857Y98850D01*
X48557Y98600D01*
X48207Y98500D01*
X47807Y98600D01*
X47457Y98900D01*
X47257Y99350D01*
X47207Y99850D01*
X47307Y100500D01*
X47457Y100850D01*
X47707Y101200D01*
X48057Y101450D01*
X48407Y101500D01*
X48757Y101400D01*
X49007Y101150D01*
G01X85464Y7661D02*
Y10661D01*
X86714D01*
X87114Y10511D01*
X87364Y10311D01*
X87464Y9911D01*
X87364Y9511D01*
X87064Y9261D01*
X86714Y9111D01*
X85464D01*
G01X86714D02*
X87464Y7661D01*
G01X89864D02*
Y10661D01*
X89264Y10061D01*
G01Y7661D02*
X90464D01*
G01X93264Y10661D02*
X92864Y10561D01*
X92564Y10311D01*
X92364Y10011D01*
X92214Y9611D01*
X92164Y9161D01*
X92214Y8711D01*
X92364Y8311D01*
X92564Y8011D01*
X92864Y7761D01*
X93264Y7661D01*
X93664Y7761D01*
X93964Y8011D01*
X94164Y8311D01*
X94314Y8711D01*
X94364Y9161D01*
X94314Y9611D01*
X94164Y10011D01*
X93964Y10311D01*
X93664Y10561D01*
X93264Y10661D01*
G01X68535Y7661D02*
Y10661D01*
X69785D01*
X70185Y10511D01*
X70435Y10311D01*
X70535Y9911D01*
X70435Y9511D01*
X70135Y9261D01*
X69785Y9111D01*
X68535D01*
G01X69785D02*
X70535Y7661D01*
G01X72935D02*
Y10661D01*
X72335Y10061D01*
G01Y7661D02*
X73535D01*
G01X76235D02*
X76335Y8311D01*
X76485Y8861D01*
X76685Y9361D01*
X76935Y9911D01*
X77335Y10661D01*
X75335D01*
G01X70048Y13395D02*
Y16395D01*
X71048D01*
X71448Y16245D01*
X71748Y16045D01*
X71998Y15745D01*
X72198Y15395D01*
X72248Y14895D01*
X72198Y14395D01*
X71998Y14045D01*
X71748Y13745D01*
X71448Y13545D01*
X71048Y13395D01*
X70048D01*
G01X73598Y14645D02*
X73948Y14995D01*
X74248Y15195D01*
X74648Y15295D01*
X74998Y15195D01*
X75248Y14995D01*
X75448Y14695D01*
X75498Y14345D01*
X75448Y14045D01*
X75248Y13745D01*
X74948Y13495D01*
X74598Y13395D01*
X74198Y13495D01*
X73848Y13795D01*
X73648Y14245D01*
X73598Y14745D01*
X73698Y15395D01*
X73848Y15745D01*
X74098Y16095D01*
X74448Y16345D01*
X74798Y16395D01*
X75148Y16295D01*
X75398Y16045D01*
G01X82654Y81901D02*
X79654D01*
Y83151D01*
X79804Y83551D01*
X80004Y83801D01*
X80404Y83901D01*
X80804Y83801D01*
X81054Y83501D01*
X81204Y83151D01*
Y81901D01*
G01Y83151D02*
X82654Y83901D01*
G01Y86301D02*
X79654D01*
X80254Y85701D01*
G01X82654D02*
Y86901D01*
G01X81404Y88751D02*
X81054Y89101D01*
X80854Y89401D01*
X80754Y89801D01*
X80854Y90151D01*
X81054Y90401D01*
X81354Y90601D01*
X81704Y90651D01*
X82004Y90601D01*
X82304Y90401D01*
X82554Y90101D01*
X82654Y89751D01*
X82554Y89351D01*
X82254Y89001D01*
X81804Y88801D01*
X81304Y88751D01*
X80654Y88851D01*
X80304Y89001D01*
X79954Y89251D01*
X79704Y89601D01*
X79654Y89951D01*
X79754Y90301D01*
X80004Y90551D01*
G01X62331Y71079D02*
Y74079D01*
X63581D01*
X63981Y73929D01*
X64231Y73729D01*
X64331Y73329D01*
X64231Y72929D01*
X63931Y72679D01*
X63581Y72529D01*
X62331D01*
G01X63581D02*
X64331Y71079D01*
G01X66731D02*
Y74079D01*
X66131Y73479D01*
G01Y71079D02*
X67331D01*
G01X70131D02*
X70481Y71129D01*
X70881Y71279D01*
X71131Y71529D01*
X71231Y71879D01*
X71131Y72229D01*
X70831Y72529D01*
X70381Y72679D01*
X69881D01*
X69581Y72779D01*
X69331Y73029D01*
X69231Y73379D01*
X69381Y73729D01*
X69731Y73979D01*
X70131Y74079D01*
X70531Y73979D01*
X70881Y73729D01*
X71031Y73379D01*
X70931Y73029D01*
X70681Y72779D01*
X70381Y72679D01*
X69881D01*
X69431Y72529D01*
X69131Y72229D01*
X69031Y71879D01*
X69131Y71529D01*
X69381Y71279D01*
X69781Y71129D01*
X70131Y71079D01*
G01X77535Y81901D02*
X74535D01*
Y83151D01*
X74685Y83551D01*
X74885Y83801D01*
X75285Y83901D01*
X75685Y83801D01*
X75935Y83501D01*
X76085Y83151D01*
Y81901D01*
G01Y83151D02*
X77535Y83901D01*
G01Y86301D02*
X74535D01*
X75135Y85701D01*
G01X77535D02*
Y86901D01*
G01X77185Y88851D02*
X77435Y89201D01*
X77535Y89601D01*
X77435Y90001D01*
X77135Y90351D01*
X76685Y90601D01*
X76235Y90701D01*
X75685D01*
X75235Y90601D01*
X74835Y90351D01*
X74635Y90051D01*
X74535Y89701D01*
X74635Y89301D01*
X74835Y89001D01*
X75135Y88801D01*
X75535Y88701D01*
X75885Y88801D01*
X76235Y89051D01*
X76435Y89351D01*
X76485Y89701D01*
X76385Y90101D01*
X76135Y90401D01*
X75685Y90701D01*
G01X73331Y71079D02*
Y74079D01*
X74581D01*
X74981Y73929D01*
X75231Y73729D01*
X75331Y73329D01*
X75231Y72929D01*
X74931Y72679D01*
X74581Y72529D01*
X73331D01*
G01X74581D02*
X75331Y71079D01*
G01X76781Y73579D02*
X77081Y73879D01*
X77431Y74029D01*
X77831Y74079D01*
X78331Y73979D01*
X78681Y73729D01*
X78781Y73429D01*
X78731Y73129D01*
X78531Y72879D01*
X77531Y72379D01*
X77081Y72029D01*
X76781Y71529D01*
X76681Y71079D01*
X78781D01*
G01X81131Y74079D02*
X80731Y73979D01*
X80431Y73729D01*
X80231Y73429D01*
X80081Y73029D01*
X80031Y72579D01*
X80081Y72129D01*
X80231Y71729D01*
X80431Y71429D01*
X80731Y71179D01*
X81131Y71079D01*
X81531Y71179D01*
X81831Y71429D01*
X82031Y71729D01*
X82181Y72129D01*
X82231Y72579D01*
X82181Y73029D01*
X82031Y73429D01*
X81831Y73729D01*
X81531Y73979D01*
X81131Y74079D01*
G01X74604Y96793D02*
X74454Y96493D01*
X74354Y96143D01*
Y95743D01*
X74504Y95293D01*
X74754Y94943D01*
X75054Y94693D01*
X75554Y94493D01*
X76004Y94443D01*
X76454Y94543D01*
X76754Y94693D01*
X77054Y94993D01*
X77254Y95343D01*
X77354Y95693D01*
Y96043D01*
X77254Y96393D01*
X77104Y96693D01*
X76904Y96943D01*
G01X77354Y99093D02*
X74354D01*
X74954Y98493D01*
G01X77354D02*
Y99693D01*
G01X74854Y101543D02*
X74554Y101843D01*
X74404Y102193D01*
X74354Y102593D01*
X74454Y103093D01*
X74704Y103443D01*
X75004Y103543D01*
X75304Y103493D01*
X75554Y103293D01*
X76054Y102293D01*
X76404Y101843D01*
X76904Y101543D01*
X77354Y101443D01*
Y103543D01*
G01X65720Y100795D02*
X62720D01*
Y102045D01*
X62870Y102445D01*
X63070Y102695D01*
X63470Y102795D01*
X63870Y102695D01*
X64120Y102395D01*
X64270Y102045D01*
Y100795D01*
G01Y102045D02*
X65720Y102795D01*
G01X63220Y104245D02*
X62920Y104545D01*
X62770Y104895D01*
X62720Y105295D01*
X62820Y105795D01*
X63070Y106145D01*
X63370Y106245D01*
X63670Y106195D01*
X63920Y105995D01*
X64420Y104995D01*
X64770Y104545D01*
X65270Y104245D01*
X65720Y104145D01*
Y106245D01*
G01Y108595D02*
X62720D01*
X63320Y107995D01*
G01X65720D02*
Y109195D01*
G01X61767Y92051D02*
Y89901D01*
X61967Y89451D01*
X62367Y89151D01*
X62867Y89051D01*
X63367Y89151D01*
X63767Y89451D01*
X63967Y89901D01*
Y92051D01*
G01X65167Y89501D02*
X65467Y89251D01*
X65817Y89101D01*
X66267Y89051D01*
X66717Y89151D01*
X67067Y89351D01*
X67317Y89701D01*
X67367Y90101D01*
X67267Y90501D01*
X67017Y90751D01*
X66667Y90951D01*
X66317Y91001D01*
X65967Y90951D01*
X65517Y90751D01*
X65667Y92051D01*
X67017D01*
G01X66198Y116817D02*
X66448Y116517D01*
X66748Y116317D01*
X67098Y116217D01*
X67498Y116317D01*
X67798Y116517D01*
X68098Y116817D01*
X68198Y117217D01*
Y119217D01*
G01X70498Y116217D02*
X70598Y116867D01*
X70748Y117417D01*
X70948Y117917D01*
X71198Y118467D01*
X71598Y119217D01*
X69598D01*
G01X106580Y7661D02*
Y10661D01*
X107830D01*
X108230Y10511D01*
X108480Y10311D01*
X108580Y9911D01*
X108480Y9511D01*
X108180Y9261D01*
X107830Y9111D01*
X106580D01*
G01X107830D02*
X108580Y7661D01*
G01X109880Y8261D02*
X110180Y7911D01*
X110580Y7711D01*
X111030Y7661D01*
X111430Y7711D01*
X111830Y7961D01*
X112080Y8261D01*
X112130Y8561D01*
X112030Y8911D01*
X111680Y9161D01*
X111330Y9261D01*
X110880D01*
G01X111330D02*
X111630Y9411D01*
X111880Y9661D01*
X111980Y9961D01*
X111880Y10261D01*
X111630Y10511D01*
X111180Y10661D01*
X110730Y10611D01*
X110280Y10411D01*
G01X104694Y13395D02*
Y16395D01*
X105694D01*
X106094Y16245D01*
X106394Y16045D01*
X106644Y15745D01*
X106844Y15395D01*
X106894Y14895D01*
X106844Y14395D01*
X106644Y14045D01*
X106394Y13745D01*
X106094Y13545D01*
X105694Y13395D01*
X104694D01*
G01X108244Y15895D02*
X108544Y16195D01*
X108894Y16345D01*
X109294Y16395D01*
X109794Y16295D01*
X110144Y16045D01*
X110244Y15745D01*
X110194Y15445D01*
X109994Y15195D01*
X108994Y14695D01*
X108544Y14345D01*
X108244Y13845D01*
X108144Y13395D01*
X110244D01*
G01X86978D02*
Y16395D01*
X87978D01*
X88378Y16245D01*
X88678Y16045D01*
X88928Y15745D01*
X89128Y15395D01*
X89178Y14895D01*
X89128Y14395D01*
X88928Y14045D01*
X88678Y13745D01*
X88378Y13545D01*
X87978Y13395D01*
X86978D01*
G01X92078D02*
Y16395D01*
X90228Y14245D01*
X92728D01*
G01X101132Y75033D02*
X100832Y75183D01*
X100482Y75283D01*
X100082D01*
X99632Y75133D01*
X99282Y74883D01*
X99032Y74583D01*
X98832Y74083D01*
X98782Y73633D01*
X98882Y73183D01*
X99032Y72883D01*
X99332Y72583D01*
X99682Y72383D01*
X100032Y72283D01*
X100382D01*
X100732Y72383D01*
X101032Y72533D01*
X101282Y72733D01*
G01X102582Y72633D02*
X102932Y72383D01*
X103332Y72283D01*
X103732Y72383D01*
X104082Y72683D01*
X104332Y73133D01*
X104432Y73583D01*
Y74133D01*
X104332Y74583D01*
X104082Y74983D01*
X103782Y75183D01*
X103432Y75283D01*
X103032Y75183D01*
X102732Y74983D01*
X102532Y74683D01*
X102432Y74283D01*
X102532Y73933D01*
X102782Y73583D01*
X103082Y73383D01*
X103432Y73333D01*
X103832Y73433D01*
X104132Y73683D01*
X104432Y74133D01*
G01X99432Y94719D02*
X99132Y94869D01*
X98782Y94969D01*
X98382D01*
X97932Y94819D01*
X97582Y94569D01*
X97332Y94269D01*
X97132Y93769D01*
X97082Y93319D01*
X97182Y92869D01*
X97332Y92569D01*
X97632Y92269D01*
X97982Y92069D01*
X98332Y91969D01*
X98682D01*
X99032Y92069D01*
X99332Y92219D01*
X99582Y92419D01*
G01X101732Y91969D02*
Y94969D01*
X101132Y94369D01*
G01Y91969D02*
X102332D01*
G01X104032Y92569D02*
X104332Y92219D01*
X104732Y92019D01*
X105182Y91969D01*
X105582Y92019D01*
X105982Y92269D01*
X106232Y92569D01*
X106282Y92869D01*
X106182Y93219D01*
X105832Y93469D01*
X105482Y93569D01*
X105032D01*
G01X105482D02*
X105782Y93719D01*
X106032Y93969D01*
X106132Y94269D01*
X106032Y94569D01*
X105782Y94819D01*
X105332Y94969D01*
X104882Y94919D01*
X104432Y94719D01*
G01X98775Y111492D02*
Y114492D01*
X99775D01*
X100175Y114342D01*
X100475Y114142D01*
X100725Y113842D01*
X100925Y113492D01*
X100975Y112992D01*
X100925Y112492D01*
X100725Y112142D01*
X100475Y111842D01*
X100175Y111642D01*
X99775Y111492D01*
X98775D01*
G01X102175Y111942D02*
X102475Y111692D01*
X102825Y111542D01*
X103275Y111492D01*
X103725Y111592D01*
X104075Y111792D01*
X104325Y112142D01*
X104375Y112542D01*
X104275Y112942D01*
X104025Y113192D01*
X103675Y113392D01*
X103325Y113442D01*
X102975Y113392D01*
X102525Y113192D01*
X102675Y114492D01*
X104025D01*
G01X145463Y291801D02*
X145163Y291951D01*
X144813Y292051D01*
X144413D01*
X143963Y291901D01*
X143613Y291651D01*
X143363Y291351D01*
X143163Y290851D01*
X143113Y290401D01*
X143213Y289951D01*
X143363Y289651D01*
X143663Y289351D01*
X144013Y289151D01*
X144363Y289051D01*
X144713D01*
X145063Y289151D01*
X145363Y289301D01*
X145613Y289501D01*
G01X146813Y290301D02*
X147163Y290651D01*
X147463Y290851D01*
X147863Y290951D01*
X148213Y290851D01*
X148463Y290651D01*
X148663Y290351D01*
X148713Y290001D01*
X148663Y289701D01*
X148463Y289401D01*
X148163Y289151D01*
X147813Y289051D01*
X147413Y289151D01*
X147063Y289451D01*
X146863Y289901D01*
X146813Y290401D01*
X146913Y291051D01*
X147063Y291401D01*
X147313Y291751D01*
X147663Y292001D01*
X148013Y292051D01*
X148363Y291951D01*
X148613Y291701D01*
G01X150150Y269504D02*
Y272504D01*
X151400D01*
X151800Y272354D01*
X152050Y272154D01*
X152150Y271754D01*
X152050Y271354D01*
X151750Y271104D01*
X151400Y270954D01*
X150150D01*
G01X151400D02*
X152150Y269504D01*
G01X154550D02*
X154900Y269554D01*
X155300Y269704D01*
X155550Y269954D01*
X155650Y270304D01*
X155550Y270654D01*
X155250Y270954D01*
X154800Y271104D01*
X154300D01*
X154000Y271204D01*
X153750Y271454D01*
X153650Y271804D01*
X153800Y272154D01*
X154150Y272404D01*
X154550Y272504D01*
X154950Y272404D01*
X155300Y272154D01*
X155450Y271804D01*
X155350Y271454D01*
X155100Y271204D01*
X154800Y271104D01*
X154300D01*
X153850Y270954D01*
X153550Y270654D01*
X153450Y270304D01*
X153550Y269954D01*
X153800Y269704D01*
X154200Y269554D01*
X154550Y269504D01*
G01X161150D02*
Y272504D01*
X162400D01*
X162800Y272354D01*
X163050Y272154D01*
X163150Y271754D01*
X163050Y271354D01*
X162750Y271104D01*
X162400Y270954D01*
X161150D01*
G01X162400D02*
X163150Y269504D01*
G01X165550D02*
Y272504D01*
X164950Y271904D01*
G01Y269504D02*
X166150D01*
G01X168950D02*
Y272504D01*
X168350Y271904D01*
G01Y269504D02*
X169550D01*
G01X160586Y290476D02*
Y288326D01*
X160786Y287876D01*
X161186Y287576D01*
X161686Y287476D01*
X162186Y287576D01*
X162586Y287876D01*
X162786Y288326D01*
Y290476D01*
G01X163986Y288076D02*
X164286Y287726D01*
X164686Y287526D01*
X165136Y287476D01*
X165536Y287526D01*
X165936Y287776D01*
X166186Y288076D01*
X166236Y288376D01*
X166136Y288726D01*
X165786Y288976D01*
X165436Y289076D01*
X164986D01*
G01X165436D02*
X165736Y289226D01*
X165986Y289476D01*
X166086Y289776D01*
X165986Y290076D01*
X165736Y290326D01*
X165286Y290476D01*
X164836Y290426D01*
X164386Y290226D01*
G01X156671Y300927D02*
X156521Y300627D01*
X156421Y300277D01*
Y299877D01*
X156571Y299427D01*
X156821Y299077D01*
X157121Y298827D01*
X157621Y298627D01*
X158071Y298577D01*
X158521Y298677D01*
X158821Y298827D01*
X159121Y299127D01*
X159321Y299477D01*
X159421Y299827D01*
Y300177D01*
X159321Y300527D01*
X159171Y300827D01*
X158971Y301077D01*
G01X159421Y303127D02*
X158771Y303227D01*
X158221Y303377D01*
X157721Y303577D01*
X157171Y303827D01*
X156421Y304227D01*
Y302227D01*
G01X164539Y298827D02*
X161539D01*
Y300077D01*
X161689Y300477D01*
X161889Y300727D01*
X162289Y300827D01*
X162689Y300727D01*
X162939Y300427D01*
X163089Y300077D01*
Y298827D01*
G01Y300077D02*
X164539Y300827D01*
G01Y303227D02*
X161539D01*
X162139Y302627D01*
G01X164539D02*
Y303827D01*
G01Y307227D02*
X161539D01*
X163689Y305377D01*
Y307877D01*
G01X142869Y299925D02*
Y297775D01*
X143069Y297325D01*
X143469Y297025D01*
X143969Y296925D01*
X144469Y297025D01*
X144869Y297325D01*
X145069Y297775D01*
Y299925D01*
G01X147269Y296925D02*
X147369Y297575D01*
X147519Y298125D01*
X147719Y298625D01*
X147969Y299175D01*
X148369Y299925D01*
X146369D01*
G01X169788Y51281D02*
X170038Y50981D01*
X170338Y50781D01*
X170688Y50681D01*
X171088Y50781D01*
X171388Y50981D01*
X171688Y51281D01*
X171788Y51681D01*
Y53681D01*
G01X173238Y53181D02*
X173538Y53481D01*
X173888Y53631D01*
X174288Y53681D01*
X174788Y53581D01*
X175138Y53331D01*
X175238Y53031D01*
X175188Y52731D01*
X174988Y52481D01*
X173988Y51981D01*
X173538Y51631D01*
X173238Y51131D01*
X173138Y50681D01*
X175238D01*
G01X181079Y282939D02*
X178079D01*
Y284189D01*
X178229Y284589D01*
X178429Y284839D01*
X178829Y284939D01*
X179229Y284839D01*
X179479Y284539D01*
X179629Y284189D01*
Y282939D01*
G01Y284189D02*
X181079Y284939D01*
G01X180729Y286489D02*
X180979Y286839D01*
X181079Y287239D01*
X180979Y287639D01*
X180679Y287989D01*
X180229Y288239D01*
X179779Y288339D01*
X179229D01*
X178779Y288239D01*
X178379Y287989D01*
X178179Y287689D01*
X178079Y287339D01*
X178179Y286939D01*
X178379Y286639D01*
X178679Y286439D01*
X179079Y286339D01*
X179429Y286439D01*
X179779Y286689D01*
X179979Y286989D01*
X180029Y287339D01*
X179929Y287739D01*
X179679Y288039D01*
X179229Y288339D01*
G01X175961Y279539D02*
X172961D01*
Y280789D01*
X173111Y281189D01*
X173311Y281439D01*
X173711Y281539D01*
X174111Y281439D01*
X174361Y281139D01*
X174511Y280789D01*
Y279539D01*
G01Y280789D02*
X175961Y281539D01*
G01Y283939D02*
X172961D01*
X173561Y283339D01*
G01X175961D02*
Y284539D01*
G01X173461Y286389D02*
X173161Y286689D01*
X173011Y287039D01*
X172961Y287439D01*
X173061Y287939D01*
X173311Y288289D01*
X173611Y288389D01*
X173911Y288339D01*
X174161Y288139D01*
X174661Y287139D01*
X175011Y286689D01*
X175511Y286389D01*
X175961Y286289D01*
Y288389D01*
G01X172150Y269504D02*
Y272504D01*
X173400D01*
X173800Y272354D01*
X174050Y272154D01*
X174150Y271754D01*
X174050Y271354D01*
X173750Y271104D01*
X173400Y270954D01*
X172150D01*
G01X173400D02*
X174150Y269504D01*
G01X176550D02*
Y272504D01*
X175950Y271904D01*
G01Y269504D02*
X177150D01*
G01X178850Y270104D02*
X179150Y269754D01*
X179550Y269554D01*
X180000Y269504D01*
X180400Y269554D01*
X180800Y269804D01*
X181050Y270104D01*
X181100Y270404D01*
X181000Y270754D01*
X180650Y271004D01*
X180300Y271104D01*
X179850D01*
G01X180300D02*
X180600Y271254D01*
X180850Y271504D01*
X180950Y271804D01*
X180850Y272104D01*
X180600Y272354D01*
X180150Y272504D01*
X179700Y272454D01*
X179250Y272254D01*
G01X173423Y294824D02*
X173273Y294524D01*
X173173Y294174D01*
Y293774D01*
X173323Y293324D01*
X173573Y292974D01*
X173873Y292724D01*
X174373Y292524D01*
X174823Y292474D01*
X175273Y292574D01*
X175573Y292724D01*
X175873Y293024D01*
X176073Y293374D01*
X176173Y293724D01*
Y294074D01*
X176073Y294424D01*
X175923Y294724D01*
X175723Y294974D01*
G01X176173Y297124D02*
X176123Y297474D01*
X175973Y297874D01*
X175723Y298124D01*
X175373Y298224D01*
X175023Y298124D01*
X174723Y297824D01*
X174573Y297374D01*
Y296874D01*
X174473Y296574D01*
X174223Y296324D01*
X173873Y296224D01*
X173523Y296374D01*
X173273Y296724D01*
X173173Y297124D01*
X173273Y297524D01*
X173523Y297874D01*
X173873Y298024D01*
X174223Y297924D01*
X174473Y297674D01*
X174573Y297374D01*
Y296874D01*
X174723Y296424D01*
X175023Y296124D01*
X175373Y296024D01*
X175723Y296124D01*
X175973Y296374D01*
X176123Y296774D01*
X176173Y297124D01*
G01X165804Y314848D02*
X166054Y314548D01*
X166354Y314348D01*
X166704Y314248D01*
X167104Y314348D01*
X167404Y314548D01*
X167704Y314848D01*
X167804Y315248D01*
Y317248D01*
G01X169254Y315498D02*
X169604Y315848D01*
X169904Y316048D01*
X170304Y316148D01*
X170654Y316048D01*
X170904Y315848D01*
X171104Y315548D01*
X171154Y315198D01*
X171104Y314898D01*
X170904Y314598D01*
X170604Y314348D01*
X170254Y314248D01*
X169854Y314348D01*
X169504Y314648D01*
X169304Y315098D01*
X169254Y315598D01*
X169354Y316248D01*
X169504Y316598D01*
X169754Y316948D01*
X170104Y317198D01*
X170454Y317248D01*
X170804Y317148D01*
X171054Y316898D01*
G01X199951Y273065D02*
X199651Y273215D01*
X199301Y273315D01*
X198901D01*
X198451Y273165D01*
X198101Y272915D01*
X197851Y272615D01*
X197651Y272115D01*
X197601Y271665D01*
X197701Y271215D01*
X197851Y270915D01*
X198151Y270615D01*
X198501Y270415D01*
X198851Y270315D01*
X199201D01*
X199551Y270415D01*
X199851Y270565D01*
X200101Y270765D01*
G01X201151D02*
X201451Y270515D01*
X201801Y270365D01*
X202251Y270315D01*
X202701Y270415D01*
X203051Y270615D01*
X203301Y270965D01*
X203351Y271365D01*
X203251Y271765D01*
X203001Y272015D01*
X202651Y272215D01*
X202301Y272265D01*
X201951Y272215D01*
X201501Y272015D01*
X201651Y273315D01*
X203001D01*
G01X198251Y292750D02*
X197951Y292900D01*
X197601Y293000D01*
X197201D01*
X196751Y292850D01*
X196401Y292600D01*
X196151Y292300D01*
X195951Y291800D01*
X195901Y291350D01*
X196001Y290900D01*
X196151Y290600D01*
X196451Y290300D01*
X196801Y290100D01*
X197151Y290000D01*
X197501D01*
X197851Y290100D01*
X198151Y290250D01*
X198401Y290450D01*
G01X200551Y290000D02*
Y293000D01*
X199951Y292400D01*
G01Y290000D02*
X201151D01*
G01X204551D02*
Y293000D01*
X202701Y290850D01*
X205201D01*
G01X196806Y308343D02*
Y311343D01*
X197806D01*
X198206Y311193D01*
X198506Y310993D01*
X198756Y310693D01*
X198956Y310343D01*
X199006Y309843D01*
X198956Y309343D01*
X198756Y308993D01*
X198506Y308693D01*
X198206Y308493D01*
X197806Y308343D01*
X196806D01*
G01X200206Y308943D02*
X200506Y308593D01*
X200906Y308393D01*
X201356Y308343D01*
X201756Y308393D01*
X202156Y308643D01*
X202406Y308943D01*
X202456Y309243D01*
X202356Y309593D01*
X202006Y309843D01*
X201656Y309943D01*
X201206D01*
G01X201656D02*
X201956Y310093D01*
X202206Y310343D01*
X202306Y310643D01*
X202206Y310943D01*
X201956Y311193D01*
X201506Y311343D01*
X201056Y311293D01*
X200606Y311093D01*
G01X239951Y93376D02*
X239651Y93526D01*
X239301Y93626D01*
X238901D01*
X238451Y93476D01*
X238101Y93226D01*
X237851Y92926D01*
X237651Y92426D01*
X237601Y91976D01*
X237701Y91526D01*
X237851Y91226D01*
X238151Y90926D01*
X238501Y90726D01*
X238851Y90626D01*
X239201D01*
X239551Y90726D01*
X239851Y90876D01*
X240101Y91076D01*
G01X242251Y90626D02*
Y93626D01*
X241651Y93026D01*
G01Y90626D02*
X242851D01*
G01X236964Y102287D02*
Y100137D01*
X237164Y99687D01*
X237564Y99387D01*
X238064Y99287D01*
X238564Y99387D01*
X238964Y99687D01*
X239164Y100137D01*
Y102287D01*
G01X241464Y99287D02*
X241814Y99337D01*
X242214Y99487D01*
X242464Y99737D01*
X242564Y100087D01*
X242464Y100437D01*
X242164Y100737D01*
X241714Y100887D01*
X241214D01*
X240914Y100987D01*
X240664Y101237D01*
X240564Y101587D01*
X240714Y101937D01*
X241064Y102187D01*
X241464Y102287D01*
X241864Y102187D01*
X242214Y101937D01*
X242364Y101587D01*
X242264Y101237D01*
X242014Y100987D01*
X241714Y100887D01*
X241214D01*
X240764Y100737D01*
X240464Y100437D01*
X240364Y100087D01*
X240464Y99737D01*
X240714Y99487D01*
X241114Y99337D01*
X241464Y99287D01*
G01X246606Y71079D02*
Y74079D01*
X247856D01*
X248256Y73929D01*
X248506Y73729D01*
X248606Y73329D01*
X248506Y72929D01*
X248206Y72679D01*
X247856Y72529D01*
X246606D01*
G01X247856D02*
X248606Y71079D01*
G01X251006D02*
Y74079D01*
X250406Y73479D01*
G01Y71079D02*
X251606D01*
G01X257606D02*
Y74079D01*
X258856D01*
X259256Y73929D01*
X259506Y73729D01*
X259606Y73329D01*
X259506Y72929D01*
X259206Y72679D01*
X258856Y72529D01*
X257606D01*
G01X258856D02*
X259606Y71079D01*
G01X262606D02*
Y74079D01*
X260756Y71929D01*
X263256D01*
G01X250982Y104667D02*
X250832Y104367D01*
X250732Y104017D01*
Y103617D01*
X250882Y103167D01*
X251132Y102817D01*
X251432Y102567D01*
X251932Y102367D01*
X252382Y102317D01*
X252832Y102417D01*
X253132Y102567D01*
X253432Y102867D01*
X253632Y103217D01*
X253732Y103567D01*
Y103917D01*
X253632Y104267D01*
X253482Y104567D01*
X253282Y104817D01*
G01X253132Y105867D02*
X253482Y106167D01*
X253682Y106567D01*
X253732Y107017D01*
X253682Y107417D01*
X253432Y107817D01*
X253132Y108067D01*
X252832Y108117D01*
X252482Y108017D01*
X252232Y107667D01*
X252132Y107317D01*
Y106867D01*
G01Y107317D02*
X251982Y107617D01*
X251732Y107867D01*
X251432Y107967D01*
X251132Y107867D01*
X250882Y107617D01*
X250732Y107167D01*
X250782Y106717D01*
X250982Y106267D01*
G01X258850Y102567D02*
X255850D01*
Y103817D01*
X256000Y104217D01*
X256200Y104467D01*
X256600Y104567D01*
X257000Y104467D01*
X257250Y104167D01*
X257400Y103817D01*
Y102567D01*
G01Y103817D02*
X258850Y104567D01*
G01Y106867D02*
X258200Y106967D01*
X257650Y107117D01*
X257150Y107317D01*
X256600Y107567D01*
X255850Y107967D01*
Y105967D01*
G01X255468Y92051D02*
Y89901D01*
X255668Y89451D01*
X256068Y89151D01*
X256568Y89051D01*
X257068Y89151D01*
X257468Y89451D01*
X257668Y89901D01*
Y92051D01*
G01X259968Y89051D02*
Y92051D01*
X259368Y91451D01*
G01Y89051D02*
X260568D01*
G01X258324Y116423D02*
X258574Y116123D01*
X258874Y115923D01*
X259224Y115823D01*
X259624Y115923D01*
X259924Y116123D01*
X260224Y116423D01*
X260324Y116823D01*
Y118823D01*
G01X261624Y116273D02*
X261924Y116023D01*
X262274Y115873D01*
X262724Y115823D01*
X263174Y115923D01*
X263524Y116123D01*
X263774Y116473D01*
X263824Y116873D01*
X263724Y117273D01*
X263474Y117523D01*
X263124Y117723D01*
X262774Y117773D01*
X262424Y117723D01*
X261974Y117523D01*
X262124Y118823D01*
X263474D01*
G01X294439Y74640D02*
X294139Y74790D01*
X293789Y74890D01*
X293389D01*
X292939Y74740D01*
X292589Y74490D01*
X292339Y74190D01*
X292139Y73690D01*
X292089Y73240D01*
X292189Y72790D01*
X292339Y72490D01*
X292639Y72190D01*
X292989Y71990D01*
X293339Y71890D01*
X293689D01*
X294039Y71990D01*
X294339Y72140D01*
X294589Y72340D01*
G01X295789Y74390D02*
X296089Y74690D01*
X296439Y74840D01*
X296839Y74890D01*
X297339Y74790D01*
X297689Y74540D01*
X297789Y74240D01*
X297739Y73940D01*
X297539Y73690D01*
X296539Y73190D01*
X296089Y72840D01*
X295789Y72340D01*
X295689Y71890D01*
X297789D01*
G01X275567Y83726D02*
X272567D01*
Y84976D01*
X272717Y85376D01*
X272917Y85626D01*
X273317Y85726D01*
X273717Y85626D01*
X273967Y85326D01*
X274117Y84976D01*
Y83726D01*
G01Y84976D02*
X275567Y85726D01*
G01X273067Y87176D02*
X272767Y87476D01*
X272617Y87826D01*
X272567Y88226D01*
X272667Y88726D01*
X272917Y89076D01*
X273217Y89176D01*
X273517Y89126D01*
X273767Y88926D01*
X274267Y87926D01*
X274617Y87476D01*
X275117Y87176D01*
X275567Y87076D01*
Y89176D01*
G01X270449Y83726D02*
X267449D01*
Y84976D01*
X267599Y85376D01*
X267799Y85626D01*
X268199Y85726D01*
X268599Y85626D01*
X268849Y85326D01*
X268999Y84976D01*
Y83726D01*
G01Y84976D02*
X270449Y85726D01*
G01X269999Y87026D02*
X270249Y87326D01*
X270399Y87676D01*
X270449Y88126D01*
X270349Y88576D01*
X270149Y88926D01*
X269799Y89176D01*
X269399Y89226D01*
X268999Y89126D01*
X268749Y88876D01*
X268549Y88526D01*
X268499Y88176D01*
X268549Y87826D01*
X268749Y87376D01*
X267449Y87526D01*
Y88876D01*
G01X268606Y71079D02*
Y74079D01*
X269856D01*
X270256Y73929D01*
X270506Y73729D01*
X270606Y73329D01*
X270506Y72929D01*
X270206Y72679D01*
X269856Y72529D01*
X268606D01*
G01X269856D02*
X270606Y71079D01*
G01X272056Y72329D02*
X272406Y72679D01*
X272706Y72879D01*
X273106Y72979D01*
X273456Y72879D01*
X273706Y72679D01*
X273906Y72379D01*
X273956Y72029D01*
X273906Y71729D01*
X273706Y71429D01*
X273406Y71179D01*
X273056Y71079D01*
X272656Y71179D01*
X272306Y71479D01*
X272106Y71929D01*
X272056Y72429D01*
X272156Y73079D01*
X272306Y73429D01*
X272556Y73779D01*
X272906Y74029D01*
X273256Y74079D01*
X273606Y73979D01*
X273856Y73729D01*
G01X267254Y97825D02*
X267104Y97525D01*
X267004Y97175D01*
Y96775D01*
X267154Y96325D01*
X267404Y95975D01*
X267704Y95725D01*
X268204Y95525D01*
X268654Y95475D01*
X269104Y95575D01*
X269404Y95725D01*
X269704Y96025D01*
X269904Y96375D01*
X270004Y96725D01*
Y97075D01*
X269904Y97425D01*
X269754Y97725D01*
X269554Y97975D01*
G01X270004Y100725D02*
X267004D01*
X269154Y98875D01*
Y101375D01*
G01X292739Y94325D02*
X292439Y94475D01*
X292089Y94575D01*
X291689D01*
X291239Y94425D01*
X290889Y94175D01*
X290639Y93875D01*
X290439Y93375D01*
X290389Y92925D01*
X290489Y92475D01*
X290639Y92175D01*
X290939Y91875D01*
X291289Y91675D01*
X291639Y91575D01*
X291989D01*
X292339Y91675D01*
X292639Y91825D01*
X292889Y92025D01*
G01X295039Y91575D02*
Y94575D01*
X294439Y93975D01*
G01Y91575D02*
X295639D01*
G01X297339Y92025D02*
X297639Y91775D01*
X297989Y91625D01*
X298439Y91575D01*
X298889Y91675D01*
X299239Y91875D01*
X299489Y92225D01*
X299539Y92625D01*
X299439Y93025D01*
X299189Y93275D01*
X298839Y93475D01*
X298489Y93525D01*
X298139Y93475D01*
X297689Y93275D01*
X297839Y94575D01*
X299189D01*
G01X291688Y110705D02*
Y113705D01*
X292688D01*
X293088Y113555D01*
X293388Y113355D01*
X293638Y113055D01*
X293838Y112705D01*
X293888Y112205D01*
X293838Y111705D01*
X293638Y111355D01*
X293388Y111055D01*
X293088Y110855D01*
X292688Y110705D01*
X291688D01*
G01X296188D02*
Y113705D01*
X295588Y113105D01*
G01Y110705D02*
X296788D01*
G54D14*
G01X131169Y59268D02*
Y42732D01*
X216169D01*
Y59268D01*
X131169D01*
G54D15*
G01X27071Y20000D02*
G03I-7071J0D01*
G01X22819Y267717D02*
G03I-7071J0D01*
G01X42426Y334331D02*
G03I-7071J0D01*
G01X56831Y75579D02*
X61331D01*
Y70579D01*
X56831D01*
G01X50331D02*
Y75579D01*
G01Y70579D02*
X56831D01*
G01X50331Y75579D02*
X56831D01*
G01X55431Y74179D02*
Y71879D01*
G01X56131Y74179D02*
Y71879D01*
G01X46331Y90079D02*
X41831D01*
Y95079D01*
X46331D01*
G01X52831D02*
Y90079D01*
G01Y95079D02*
X46331D01*
G01X52831Y90079D02*
X46331D01*
G01X47731Y91479D02*
Y93779D01*
G01X47031Y91479D02*
Y93779D01*
G01X56102Y106295D02*
Y110795D01*
X61102D01*
Y106295D01*
G01Y99795D02*
X56102D01*
G01D02*
Y106295D01*
G01X57502Y104895D02*
X59802D01*
G01X57502Y105595D02*
X59802D01*
G01X88370Y6949D02*
X83870D01*
Y11949D01*
X88370D01*
G01X71441Y6949D02*
X66941D01*
Y11949D01*
X71441D01*
G01X77941D02*
Y6949D01*
G01D02*
X71441D01*
G01X88370Y14961D02*
X84870D01*
G01X83870Y12461D02*
Y17461D01*
G01Y12461D02*
X90370D01*
G01X83870Y17461D02*
X90370D01*
G01X71441Y14961D02*
X67941D01*
G01X73941Y16461D02*
Y13461D01*
G01Y14961D02*
X71441Y12461D01*
Y17461D01*
X73941Y14961D01*
X76941D01*
G01X77941Y17461D02*
X78941D01*
Y12461D01*
X77941D01*
G01X73441Y17461D02*
X77941D01*
Y12461D01*
X73441D01*
G01X66941D02*
Y17461D01*
G01Y12461D02*
X73441D01*
G01X66941Y17461D02*
X73441D01*
G01X77941Y11949D02*
X71441D01*
G01X72841Y8349D02*
Y10649D01*
G01X72141Y8349D02*
Y10649D01*
G01X83366Y85201D02*
Y80701D01*
X78366D01*
Y85201D01*
G01X67831Y75579D02*
X72331D01*
Y70579D01*
X67831D01*
G01X61331D02*
Y75579D01*
G01Y70579D02*
X67831D01*
G01X61331Y75579D02*
X67831D01*
G01X66431Y74179D02*
Y71879D01*
G01X67131Y74179D02*
Y71879D01*
G01X78248Y85201D02*
Y80701D01*
X73248D01*
Y85201D01*
G01X78831Y75579D02*
X83331D01*
Y70579D01*
X78831D01*
G01X72331D02*
Y75579D01*
G01Y70579D02*
X78831D01*
G01X72331Y75579D02*
X78831D01*
G01X77431Y74179D02*
Y71879D01*
G01X78131Y74179D02*
Y71879D01*
G01X61102Y99795D02*
Y106295D01*
G01X72854Y100193D02*
Y104693D01*
X77854D01*
Y100193D01*
G01Y93693D02*
X72854D01*
G01X77854D02*
Y100193D01*
G01X72854Y93693D02*
Y100193D01*
G01X74254Y98793D02*
X76554D01*
G01X74254Y99493D02*
X76554D01*
G01X78366Y91701D02*
X83366D01*
G01X78366D02*
Y85201D01*
G01X83366Y91701D02*
Y85201D01*
G01X81966Y86601D02*
X79666D01*
G01X81966Y85901D02*
X79666D01*
G01X73248Y91701D02*
X78248D01*
G01X73248D02*
Y85201D01*
G01X78248Y91701D02*
Y85201D01*
G01X76848Y86601D02*
X74548D01*
G01X76848Y85901D02*
X74548D01*
G01X61220Y106295D02*
Y110795D01*
X66220D01*
Y106295D01*
G01Y99795D02*
X61220D01*
G01X66220D02*
Y106295D01*
G01X61220Y99795D02*
Y106295D01*
G01X62620Y104895D02*
X64920D01*
G01X62620Y105595D02*
X64920D01*
G01X106087Y6949D02*
X101587D01*
Y11949D01*
X106087D01*
G01X112587Y6949D02*
X106087D01*
G01X94870Y11949D02*
Y6949D01*
G01D02*
X88370D01*
G01X106087Y14961D02*
X102587D01*
G01X108587Y16461D02*
Y13461D01*
G01Y14961D02*
X106087Y12461D01*
Y17461D01*
X108587Y14961D01*
X111587D01*
G01X108087Y17461D02*
X112587D01*
Y12461D01*
X108087D01*
G01X101587D02*
Y17461D01*
G01Y12461D02*
X108087D01*
G01X101587Y17461D02*
X108087D01*
G01X90870Y16461D02*
Y13461D01*
G01Y14961D02*
X88370Y12461D01*
Y17461D01*
X90870Y14961D01*
X93870D01*
G01X94870Y17461D02*
X95870D01*
Y12461D01*
X94870D01*
G01X90370Y17461D02*
X94870D01*
Y12461D01*
X90370D01*
G01X112587Y11949D02*
X106087D01*
G01X107487Y8349D02*
Y10649D01*
G01X106787Y8349D02*
Y10649D01*
G01X94870Y11949D02*
X88370D01*
G01X89770Y8349D02*
Y10649D01*
G01X89070Y8349D02*
Y10649D01*
G01X112587Y11949D02*
Y6949D01*
G01Y17461D02*
X113587D01*
Y12461D01*
X112587D01*
G01X145150Y288110D02*
X140650D01*
Y293110D01*
X145150D01*
G01X151650D02*
Y288110D01*
G01D02*
X145150D01*
G01X146550Y289510D02*
Y291810D01*
G01X145850Y289510D02*
Y291810D01*
G01X155650Y273610D02*
X160150D01*
Y268610D01*
X155650D01*
G01X149150D02*
Y273610D01*
G01Y268610D02*
X155650D01*
G01X149150Y273610D02*
X155650D01*
G01X154250Y272210D02*
Y269910D01*
G01X154950Y272210D02*
Y269910D01*
G01X160150Y268610D02*
Y273610D01*
G01Y268610D02*
X166650D01*
G01X160150Y273610D02*
X166650D01*
G01X151650Y293110D02*
X145150D01*
G01X154921Y304327D02*
Y308827D01*
X159921D01*
Y304327D01*
G01Y297827D02*
X154921D01*
G01X159921D02*
Y304327D01*
G01X154921Y297827D02*
Y304327D01*
G01X156321Y302927D02*
X158621D01*
G01X156321Y303627D02*
X158621D01*
G01X160039Y304327D02*
Y308827D01*
X165039D01*
Y304327D01*
G01Y297827D02*
X160039D01*
G01D02*
Y304327D01*
G01X161439Y302927D02*
X163739D01*
G01X161439Y303627D02*
X163739D01*
G01X176673Y291724D02*
X171673D01*
G01X176673D02*
Y298224D01*
G01X171673Y291724D02*
Y298224D01*
G01X182185Y283232D02*
Y278732D01*
X177185D01*
Y283232D01*
G01Y289732D02*
X182185D01*
G01X177185D02*
Y283232D01*
G01X182185Y289732D02*
Y283232D01*
G01X180785Y284632D02*
X178485D01*
G01X180785Y283932D02*
X178485D01*
G01X166650Y273610D02*
X171150D01*
Y268610D01*
X166650D01*
G01X165250Y272210D02*
Y269910D01*
G01X165950Y272210D02*
Y269910D01*
G01X177067Y283232D02*
Y278732D01*
X172067D01*
Y283232D01*
G01Y289732D02*
X177067D01*
G01X172067D02*
Y283232D01*
G01X177067Y289732D02*
Y283232D01*
G01X175667Y284632D02*
X173367D01*
G01X175667Y283932D02*
X173367D01*
G01X177650Y273610D02*
X182150D01*
Y268610D01*
X177650D01*
G01X171150D02*
Y273610D01*
G01Y268610D02*
X177650D01*
G01X171150Y273610D02*
X177650D01*
G01X176250Y272210D02*
Y269910D01*
G01X176950Y272210D02*
Y269910D01*
G01X171673Y298224D02*
Y302724D01*
X176673D01*
Y298224D01*
G01X173073Y296824D02*
X175373D01*
G01X173073Y297524D02*
X175373D01*
G01X165039Y297827D02*
Y304327D01*
G01X239638Y89685D02*
X235138D01*
Y94685D01*
X239638D01*
G01X246138D02*
X239638D01*
G01X246138Y89685D02*
X239638D01*
G01X250138Y75185D02*
X254638D01*
Y70185D01*
X250138D01*
G01X243638D02*
Y75185D01*
G01Y70185D02*
X250138D01*
G01X243638Y75185D02*
X250138D01*
G01X248738Y73785D02*
Y71485D01*
G01X249438Y73785D02*
Y71485D01*
G01X261138Y75185D02*
X265638D01*
Y70185D01*
X261138D01*
G01X254638D02*
Y75185D01*
G01Y70185D02*
X261138D01*
G01X254638Y75185D02*
X261138D01*
G01X259738Y73785D02*
Y71485D01*
G01X260438Y73785D02*
Y71485D01*
G01X265638Y70185D02*
Y75185D01*
G01Y70185D02*
X272138D01*
G01X265638Y75185D02*
X272138D01*
G01X246138Y94685D02*
Y89685D01*
G01X241038Y91085D02*
Y93385D01*
G01X240338Y91085D02*
Y93385D01*
G01X249232Y106098D02*
Y110598D01*
X254232D01*
Y106098D01*
G01Y99598D02*
X249232D01*
G01X254232D02*
Y106098D01*
G01X249232Y99598D02*
Y106098D01*
G01X250632Y104698D02*
X252932D01*
G01X250632Y105398D02*
X252932D01*
G01X254350Y106098D02*
Y110598D01*
X259350D01*
Y106098D01*
G01Y99598D02*
X254350D01*
G01X259350D02*
Y106098D01*
G01X254350Y99598D02*
Y106098D01*
G01X255750Y104698D02*
X258050D01*
G01X255750Y105398D02*
X258050D01*
G01X276673Y84807D02*
Y80307D01*
X271673D01*
Y84807D01*
G01Y91307D02*
Y84807D01*
G01X276673Y91307D02*
Y84807D01*
G01X271555D02*
Y80307D01*
X266555D01*
Y84807D01*
G01Y91307D02*
Y84807D01*
G01X271555Y91307D02*
Y84807D01*
G01X272138Y75185D02*
X276638D01*
Y70185D01*
X272138D01*
G01X270738Y73785D02*
Y71485D01*
G01X271438Y73785D02*
Y71485D01*
G01X266161Y99799D02*
Y104299D01*
X271161D01*
Y99799D01*
G01Y93299D02*
X266161D01*
G01X271161D02*
Y99799D01*
G01X266161Y93299D02*
Y99799D01*
G01X267561Y98399D02*
X269861D01*
G01X267561Y99099D02*
X269861D01*
G01X271673Y91307D02*
X276673D01*
G01X275273Y86207D02*
X272973D01*
G01X275273Y85507D02*
X272973D01*
G01X266555Y91307D02*
X271555D01*
G01X270155Y86207D02*
X267855D01*
G01X270155Y85507D02*
X267855D01*
G01X331402Y334331D02*
G03I-7071J0D01*
G01X342071Y20000D02*
G03I-7071J0D01*
G54D16*
G01X89481Y117298D02*
G02I-493J0D01*
G01X188300Y314936D02*
G02I-493J0D01*
G01X282788Y116511D02*
G02I-493J0D01*
G54D17*
G01X90728Y107704D02*
X111634D01*
Y108698D01*
G01X90728Y108598D02*
Y107704D01*
G01X111634Y116498D02*
Y117493D01*
X90728D01*
Y116598D01*
G01X189547Y305342D02*
X210453D01*
Y306336D01*
G01Y314136D02*
Y315130D01*
X189547D01*
Y314236D01*
G01Y306236D02*
Y305342D01*
G01X284035Y106917D02*
X304941D01*
Y107911D01*
G01X284035Y107811D02*
Y106917D01*
G01X304941Y115711D02*
Y116705D01*
X284035D01*
Y115811D01*
G54D18*
G01X354331Y349606D02*
Y217047D01*
G02X349606Y212323I-4724J0D01*
G03X346772Y209488I0J-2835D01*
G01Y140236D01*
G03X349606Y137402I2835J0D01*
G02X354331Y132677I0J-4724D01*
G01Y4724D01*
G02X349606Y0I-4724J0D01*
G01X226732D01*
G02X222008Y4724I0J4724D01*
G01Y6811D01*
G03X217283Y11535I-4724J0D01*
G01X146732D01*
G03X142008Y6811I0J-4724D01*
G01Y4724D01*
G02X137283Y0I-4724J0D01*
G01X4724D01*
G02X0Y4724I0J4724D01*
G01Y132598D01*
G02X4724Y137323I4724J0D01*
G03X7559Y140157I0J2835D01*
G01Y214094D01*
G03X4724Y216929I-2835J0D01*
G02X0Y221654I0J4724D01*
G01Y349606D01*
G02X4724Y354331I4724J0D01*
G01X137283D01*
G02X142008Y349606I0J-4724D01*
G01Y347480D01*
G03X146732Y342756I4724J0D01*
G01X217283D01*
G03X222008Y347480I0J4724D01*
G01Y349606D01*
G02X226732Y354331I4724J0D01*
G01X349606D01*
G02X354331Y349606I0J-4724D01*
G01X86982Y83633D02*
Y65933D01*
G01X116482Y83633D02*
X86982D01*
G01Y65933D02*
X116482D01*
G01X86982Y103319D02*
Y85619D01*
G01X116482Y103319D02*
X86982D01*
G01Y85619D02*
X116482D01*
G01Y65933D02*
Y83633D01*
G01Y85619D02*
Y103319D01*
G01X185801Y281665D02*
Y263965D01*
G01D02*
X215301D01*
G01Y281665D02*
X185801D01*
G01Y301350D02*
Y283650D01*
G01D02*
X215301D01*
G01Y301350D02*
X185801D01*
G01X215301Y263965D02*
Y281665D01*
G01Y283650D02*
Y301350D01*
G01X280289Y83240D02*
Y65540D01*
G01X309789Y83240D02*
X280289D01*
G01Y65540D02*
X309789D01*
G01X280289Y102925D02*
Y85225D01*
G01X309789Y102925D02*
X280289D01*
G01Y85225D02*
X309789D01*
G01Y65540D02*
Y83240D01*
G01Y85225D02*
Y102925D01*
M02*
