G04 ================== begin FILE IDENTIFICATION RECORD ==================*
G04 Layout Name:  D:/0_Working/1_Hardware/42_Adaptor/2_Layout/Adaptor_V100.brd*
G04 Film Name:    ADAPTOR_ver1.0.0_TOP.art*
G04 File Format:  Gerber RS274X*
G04 File Origin:  Cadence Allegro 17.2-S052*
G04 Origin Date:  Fri Oct 11 14:19:24 2024*
G04 *
G04 Layer:  BOARD GEOMETRY/DESIGN_OUTLINE*
G04 Layer:  ETCH/TOP*
G04 Layer:  PIN/TOP*
G04 Layer:  VIA CLASS/TOP*
G04 *
G04 Offset:    (0.0000 0.0000)*
G04 Mirror:    No*
G04 Mode:      Positive*
G04 Rotation:  0*
G04 FullContactRelief:  No*
G04 UndefLineWidth:     0.1270*
G04 ================== end FILE IDENTIFICATION RECORD ====================*
%FSLAX25Y25*MOMM*%
%IR0*IPPOS*OFA0.00000B0.00000*MIA0B0*SFA1.00000B1.00000*%
%ADD20R,2.4X.3*%
%ADD27R,.8X1.1*%
%ADD15C,.5*%
%ADD17C,.27*%
%ADD19C,.2546*%
%ADD11C,.6096*%
%ADD24R,1.2X2.7*%
%ADD28C,2.*%
%ADD16R,.45X.3*%
%ADD18R,.25X.6*%
%ADD21R,.35X.6*%
%ADD29R,2.X2.*%
%ADD26C,5.301*%
%ADD25C,1.7001*%
%ADD12C,1.0008*%
%ADD10C,6.35*%
%ADD22R,1.8796X2.54*%
%ADD14R,.8128X.889*%
%ADD13R,.889X.8128*%
%ADD23R,2.1488X1.6967*%
%ADD30C,.3*%
%ADD31C,.4*%
%ADD32C,.23*%
%ADD33C,.434*%
%ADD34C,.68*%
%ADD35C,.3048*%
%ADD36C,.127*%
%ADD37C,4.025*%
%ADD38C,2.5084*%
%ADD39C,1.8552*%
%ADD40C,2.8544*%
G75*
%LPD*%
G75*
G36*
G01X5120000Y8780000D02*
X8680000D01*
G02X8780000Y8680000I0J-100000D01*
G01Y5120000D01*
G02X8680000Y5020000I-100000J0D01*
G01X7880000D01*
G03X7780000Y4920000I0J-100000D01*
G01Y3880000D01*
G03X7880000Y3780000I100000J0D01*
G01X8680000D01*
G02X8780000Y3680000I0J-100000D01*
G01Y120000D01*
G02X8680000Y20000I-100000J0D01*
G01X7820000D01*
G02X7720000Y120000I0J100000D01*
G01Y920000D01*
G03X7620000Y1020000I-100000J0D01*
G01X6380000D01*
G03X6280000Y920000I0J-100000D01*
G01Y120000D01*
G02X6180000Y20000I-100000J0D01*
G01X2620000D01*
G02X2520000Y120000I0J100000D01*
G01Y920000D01*
G03X2420000Y1020000I-100000J0D01*
G01X1180000D01*
G03X1080000Y920000I0J-100000D01*
G01Y120000D01*
G02X980000Y20000I-100000J0D01*
G01X120000D01*
G02X20000Y120000I0J100000D01*
G01Y3680000D01*
G02X120000Y3780000I100000J0D01*
G01X920000D01*
G03X1020000Y3880000I0J100000D01*
G01Y4920000D01*
G03X920000Y5020000I-100000J0D01*
G01X120000D01*
G02X20000Y5120000I0J100000D01*
G01Y8680000D01*
G02X120000Y8780000I100000J0D01*
G01X3680000D01*
G02X3780000Y8680000I0J-100000D01*
G01Y7880000D01*
G03X3880000Y7780000I100000J0D01*
G01X4920000D01*
G03X5020000Y7880000I0J100000D01*
G01Y8680000D01*
G02X5120000Y8780000I100000J0D01*
G37*
%LPC*%
G75*
G36*
G01X5100000Y7800000D02*
Y8600000D01*
G02X5200000Y8700000I100000J0D01*
G01X7830000D01*
G02X7930000Y8600000I0J-100000D01*
G01Y8580000D01*
X7960000Y8550000D01*
X8250000D01*
X8300000Y8500000D01*
Y8330000D01*
X8400000Y8230000D01*
X8600000D01*
G02X8700000Y8130000I0J-100000D01*
G01Y5200000D01*
G02X8600000Y5100000I-100000J0D01*
G01X7800000D01*
G03X7700000Y5000000I0J-100000D01*
G01Y3800000D01*
G03X7800000Y3700000I100000J0D01*
G01X8600000D01*
G02X8700000Y3600000I0J-100000D01*
G01Y690000D01*
G02X8602020Y590020I-100000J0D01*
G01X8599980Y589980D01*
X8570000Y560000D01*
Y320000D01*
X8500000Y250000D01*
X8260000D01*
X8220000Y210000D01*
Y200000D01*
G02X8120000Y100000I-100000J0D01*
G01X7900000D01*
G02X7800000Y200000I0J100000D01*
G01Y1000000D01*
G03X7700000Y1100000I-100000J0D01*
G01X6300000D01*
G03X6200000Y1000000I0J-100000D01*
G01Y200000D01*
G02X6100000Y100000I-100000J0D01*
G01X2700000D01*
G02X2600000Y200000I0J100000D01*
G01Y1000000D01*
G03X2500000Y1100000I-100000J0D01*
G01X1100000D01*
G03X1000000Y1000000I0J-100000D01*
G01Y200000D01*
G02X900000Y100000I-100000J0D01*
G01X700000D01*
G02X600000Y200000I0J100000D01*
G01Y210000D01*
X570000Y240000D01*
X330000D01*
X240000Y330000D01*
Y600000D01*
X230000Y610000D01*
X200000D01*
G02X100000Y710000I0J100000D01*
G01Y3600000D01*
G02X200000Y3700000I100000J0D01*
G01X1000000D01*
G03X1100000Y3800000I0J100000D01*
G01Y5000000D01*
G03X1000000Y5100000I-100000J0D01*
G01X200000D01*
G02X100000Y5200000I0J100000D01*
G01Y6090000D01*
G02X200000Y6190000I100000J0D01*
G01X850000D01*
G03X950000Y6290000I0J100000D01*
G01Y6990000D01*
G03X850000Y7090000I-100000J0D01*
G01X200000D01*
G02X100000Y7190000I0J100000D01*
G01Y8140000D01*
G02X200000Y8240000I100000J0D01*
G01X600000D01*
X620000Y8260000D01*
Y8450000D01*
X720000Y8550000D01*
X1000000D01*
X1020000Y8570000D01*
Y8600000D01*
G02X1120000Y8700000I100000J0D01*
G01X3600000D01*
G02X3700000Y8600000I0J-100000D01*
G01Y7800000D01*
G03X3800000Y7700000I100000J0D01*
G01X5000000D01*
G03X5100000Y7800000I0J100000D01*
G37*
G54D37*
X500000Y6640000D03*
%LPD*%
G75*
G36*
G01X4660000Y5880000D02*
X4930000D01*
X4970000Y5840000D01*
Y5270000D01*
X4710420Y5010420D01*
X2719120D01*
X1099580Y3390880D01*
Y2582390D01*
G02X1086170Y2572760I-10160J-4D01*
G03X1070010Y2575420I-16160J-47758D01*
G03X1033630Y2559910I0J-50421D01*
G02X1017360Y2562100I-7336J7031D01*
G03X995010Y2575420I-22350J-12091D01*
G01X950010D01*
G03X924590Y2550000I0J-25420D01*
G01Y2520000D01*
G03X931570Y2502500I25428J0D01*
G03X924590Y2485000I18448J-17500D01*
G01Y2455000D01*
G03X931570Y2437500I25428J0D01*
G03X924590Y2420000I18448J-17500D01*
G01Y2390000D01*
G03X950010Y2364580I25420J0D01*
G01X995010D01*
G03X1017360Y2377900I0J25411D01*
G02X1033630Y2380090I8934J-4841D01*
G03X1070010Y2364580I36380J34911D01*
G03X1086170Y2367240I0J50418D01*
G02X1099580Y2357610I3250J-9626D01*
G01Y2317510D01*
G03X1098570Y2316080I34381J-25355D01*
G02X1084520Y2313310I-8419J5688D01*
G03X1070450Y2317560I-14070J-21165D01*
G01X981550D01*
G03X956130Y2292140I0J-25420D01*
G01Y2210860D01*
G03X981550Y2185440I25420J0D01*
G01X1070450D01*
G03X1084520Y2189690I0J25415D01*
G02X1098570Y2186920I5631J-8458D01*
G03X1099580Y2185490I35391J23925D01*
G01Y1692120D01*
X1147620Y1644080D01*
X1289380D01*
X1318140Y1672840D01*
X1438750D01*
G03X1457800Y1677320I5J42721D01*
G03X1476850Y1672840I19045J38241D01*
G01X1718150D01*
G03X1737200Y1677320I5J42721D01*
G03X1756250Y1672840I19045J38241D01*
G01X1845150D01*
G03X1880530Y1691620I0J42717D01*
G02X1894580Y1694390I8419J-5688D01*
G03X1908650Y1690140I14070J21165D01*
G01X1997550D01*
G03X2022970Y1715560I0J25420D01*
G01Y1796840D01*
G03X1997550Y1822260I-25420J0D01*
G01X1908650D01*
G03X1894580Y1818010I0J-25415D01*
G02X1880530Y1820780I-5631J8458D01*
G03X1845150Y1839560I-35380J-23937D01*
G01X1756250D01*
G03X1737200Y1835080I-5J-42721D01*
G03X1718150Y1839560I-19045J-38241D01*
G01X1713830D01*
X1712600Y1842860D01*
G03X1703060Y1857700I-38899J-14520D01*
G01X1702350Y1858410D01*
G02X1705940Y1867080I3593J3591D01*
G01X1927700D01*
G03X1957060Y1879240I0J41524D01*
G01X1983360Y1905540D01*
G03X1994580Y1926130I-29364J29353D01*
G01X1994640D01*
G03X2022740Y1936670I0J42728D01*
G02X2039580Y1929020I6681J-7653D01*
G01Y1280000D01*
G03X2065320Y1195840I150423J-10D01*
G02X2056900Y1180000I-8420J-5682D01*
G01X280000D01*
G02X180000Y1280000I0J100000D01*
G01Y3540000D01*
G02X280000Y3640000I100000J0D01*
G01X1060000D01*
G03X1160000Y3740000I0J100000D01*
G01Y5090000D01*
G02X1260000Y5190000I100000J0D01*
G01X4320000D01*
X4620000Y5490000D01*
Y5840000D01*
X4660000Y5880000D01*
G37*
G36*
G01X1097540Y8620000D02*
X3510000D01*
G02X3610000Y8520000I0J-100000D01*
G01Y7670420D01*
X2969120D01*
X2909580Y7610880D01*
Y6309120D01*
X3266530Y5952170D01*
G02X3254250Y5936190I-7178J-7192D01*
G03X3099770Y5977770I-154484J-266189D01*
G03Y5362230I0J-307770D01*
G03X3324370Y5459580I0J307767D01*
G01X3840420D01*
Y5900880D01*
X3170420Y6570880D01*
Y7449580D01*
X3619580D01*
Y7242390D01*
G02X3606170Y7232760I-10160J-4D01*
G03X3590010Y7235420I-16160J-47758D01*
G03X3553630Y7219910I0J-50421D01*
G02X3537360Y7222100I-7336J7031D01*
G03X3515010Y7235420I-22350J-12091D01*
G01X3470010D01*
G03X3444590Y7210000I0J-25420D01*
G01Y7180000D01*
G03X3451570Y7162500I25428J0D01*
G03X3444590Y7145000I18448J-17500D01*
G01Y7115000D01*
G03X3451570Y7097500I25428J0D01*
G03X3444590Y7080000I18448J-17500D01*
G01Y7050000D01*
G03X3470010Y7024580I25420J0D01*
G01X3515010D01*
G03X3537360Y7037900I0J25411D01*
G02X3553630Y7040090I8934J-4841D01*
G03X3590010Y7024580I36380J34911D01*
G03X3606170Y7027240I0J50418D01*
G02X3619580Y7017610I3250J-9626D01*
G01Y6977230D01*
G03X3608570Y6966080I24377J-35082D01*
G02X3594520Y6963310I-8419J5688D01*
G03X3580450Y6967560I-14070J-21165D01*
G01X3491550D01*
G03X3466130Y6942140I0J-25420D01*
G01Y6860860D01*
G03X3491550Y6835440I25420J0D01*
G01X3580450D01*
G03X3594520Y6839690I0J25415D01*
G02X3608570Y6836920I5631J-8458D01*
G03X3619580Y6825770I35387J23932D01*
G01Y6332120D01*
X3657620Y6294080D01*
X3799380D01*
X3828140Y6322840D01*
X3948750D01*
G03X3967800Y6327320I5J42721D01*
G03X3986850Y6322840I19045J38241D01*
G01X4228150D01*
G03X4247200Y6327320I5J42721D01*
G03X4266250Y6322840I19045J38241D01*
G01X4355150D01*
G03X4390530Y6341620I0J42717D01*
G02X4404580Y6344390I8419J-5688D01*
G03X4418650Y6340140I14070J21165D01*
G01X4507550D01*
G03X4532970Y6365560I0J25420D01*
G01Y6446840D01*
G03X4507550Y6472260I-25420J0D01*
G01X4418650D01*
G03X4404580Y6468010I0J-25415D01*
G02X4390530Y6470780I-5631J8458D01*
G03X4355150Y6489560I-35380J-23937D01*
G01X4266250D01*
G03X4247200Y6485080I-5J-42721D01*
G03X4228150Y6489560I-19045J-38241D01*
G01X4223830D01*
X4222600Y6492860D01*
G03X4213060Y6507700I-38899J-14520D01*
G01X4212350Y6508410D01*
G02X4215940Y6517080I3593J3591D01*
G01X4437700D01*
G03X4467060Y6529240I0J41524D01*
G01X4493360Y6555540D01*
G03X4504580Y6576130I-29364J29353D01*
G01X4504640D01*
G03X4532740Y6586670I0J42728D01*
G02X4549580Y6579020I6681J-7653D01*
G01Y6010000D01*
X4460000D01*
X4260000Y5810000D01*
Y5697740D01*
X4259910Y5697250D01*
G03X4257280Y5670000I140088J-27272D01*
G03X4259910Y5642750I142718J22D01*
G01X4260000Y5642260D01*
Y5420000D01*
X4100000Y5260000D01*
X280000D01*
G02X180000Y5360000I0J100000D01*
G01Y6135370D01*
G02X200000Y6139580I19994J-45371D01*
G01X850000D01*
G03X1000420Y6290000I0J150420D01*
G01Y6990000D01*
G03X850000Y7140420I-150420J0D01*
G01X200000D01*
G02X180000Y7144630I-6J49581D01*
G01Y8185370D01*
G02X200000Y8189580I19994J-45371D01*
G01X500030D01*
G03X798000Y8031780I297970J202425D01*
G03X1158220Y8392000I0J360220D01*
G03X1089330Y8603860I-360216J0D01*
G02X1097540Y8620000I8214J5980D01*
G37*
G36*
G01X1200000Y2960000D02*
X1620000D01*
Y2830000D01*
X1310000D01*
X1290000Y2810000D01*
X1288500D01*
Y2431500D01*
X1400000Y2320000D01*
Y2220000D01*
X1410500Y2209500D01*
X1423200D01*
G03X1424000Y2209480I900J19997D01*
G01X1664500D01*
Y2179520D01*
X1595710D01*
X1595690Y2179500D01*
X1579800D01*
G03X1579000Y2179520I-900J-19997D01*
G01X1554000D01*
G03X1553200Y2179500I100J-20017D01*
G01X1534800D01*
G03X1534000Y2179520I-900J-19997D01*
G01X1509000D01*
G03X1508200Y2179500I100J-20017D01*
G01X1496380D01*
X1495180Y2180210D01*
G03X1474000Y2186020I-21180J-35700D01*
G03X1451700Y2179520I5J-41519D01*
G01X1420710D01*
X1420690Y2179500D01*
X1409500D01*
X1400000Y2170000D01*
Y2060000D01*
X1290000Y1950000D01*
Y1716000D01*
X1268500Y1694500D01*
X1168500D01*
X1150000Y1713000D01*
Y2910000D01*
X1200000Y2960000D01*
G37*
G36*
G01X1019210Y2391260D02*
Y2548740D01*
X1021750Y2551280D01*
X1118270D01*
X1120810Y2548740D01*
Y2391260D01*
X1118270Y2388720D01*
X1021750D01*
X1019210Y2391260D01*
G37*
G36*
G01X1346950Y2736050D02*
X1854950D01*
X1893050Y2697950D01*
Y2456650D01*
X1880350Y2443950D01*
X1864820D01*
Y2444920D01*
X1765080D01*
X1740650Y2469350D01*
Y2596350D01*
X1727950Y2609050D01*
X1346950D01*
Y2736050D01*
G37*
G36*
G01X850000Y2120000D02*
Y2630000D01*
X1070000D01*
Y2590000D01*
X1110000Y2550000D01*
Y2390000D01*
X1070000Y2350000D01*
Y2120000D01*
X850000D01*
G37*
G36*
G01X1338920Y2779580D02*
X1898080D01*
Y2428840D01*
G02X1881530Y2420950I-10158J6D01*
G03X1878580Y2423130I-26841J-33236D01*
G02X1875810Y2437180I5688J8419D01*
G03X1880060Y2451250I-21165J14070D01*
G01Y2540150D01*
G03X1854640Y2565570I-25420J0D01*
G01X1773360D01*
G03X1747940Y2540150I0J-25420D01*
G01Y2451250D01*
G03X1752190Y2437180I25415J0D01*
G02X1749420Y2423130I-8458J-5631D01*
G03X1730680Y2389670I23937J-35384D01*
G01X1730460Y2384820D01*
X1667800D01*
G03X1651040Y2381290I-6J-41521D01*
G01X1647850Y2379880D01*
X1642810Y2384920D01*
X1585190D01*
X1580360Y2380100D01*
G02X1563020Y2387280I-7182J7184D01*
G01Y2403690D01*
G03X1562920Y2406530I-41519J-40D01*
G02X1567050Y2411870I5069J346D01*
G03X1601860Y2453850I-7908J41980D01*
G01Y2542750D01*
G03X1583080Y2578130I-42717J0D01*
G02X1580310Y2592180I5688J8419D01*
G03X1584560Y2606250I-21165J14070D01*
G01Y2695150D01*
G03X1559140Y2720570I-25420J0D01*
G01X1477860D01*
G03X1460460Y2713680I0J-25416D01*
G02X1446540I-6960J7403D01*
G03X1429140Y2720570I-17400J-18526D01*
G01X1347860D01*
G03X1344640Y2720370I-37J-25422D01*
G01X1344320Y2720320D01*
X1338920D01*
Y2779580D01*
G37*
G36*
G01X1370420Y3159120D02*
X2712660Y4501350D01*
G02X2730000Y4494170I7182J-7185D01*
G01Y3160000D01*
X2820000Y3070000D01*
X3580000D01*
X3780000Y2870000D01*
Y2640000D01*
X3970000Y2450000D01*
Y1550820D01*
X3509200D01*
G03X3483780Y1525400I0J-25420D01*
G01Y1415400D01*
G03X3509200Y1389980I25420J0D01*
G01X3970000D01*
Y1095830D01*
G02X3952660Y1088650I-10158J5D01*
G01X3940880Y1100420D01*
X3539120D01*
X3459580Y1020880D01*
Y770880D01*
X3389120Y700420D01*
X3090880D01*
X3090420Y700880D01*
Y1440880D01*
X3000880Y1530420D01*
X2430880D01*
X2420420Y1540880D01*
Y1664860D01*
X2653850D01*
X2655210Y1661900D01*
G03X2678310Y1647080I23100J10593D01*
G01X2866270D01*
G03X2891690Y1672500I0J25420D01*
G01Y1926500D01*
G03X2866270Y1951920I-25420J0D01*
G01X2678310D01*
G03X2655210Y1937100I0J-25413D01*
G01X2653850Y1934140D01*
X2420420D01*
Y2164860D01*
X2653850D01*
X2655210Y2161900D01*
G03X2678310Y2147080I23100J10593D01*
G01X2866270D01*
G03X2891690Y2172500I0J25420D01*
G01Y2426500D01*
G03X2866270Y2451920I-25420J0D01*
G01X2678310D01*
G03X2655210Y2437100I0J-25413D01*
G01X2653850Y2434140D01*
X2420420D01*
Y3010420D01*
X1370420D01*
Y3159120D01*
G37*
G36*
G01X5090000Y5840000D02*
X5330000D01*
X5390000Y5780000D01*
Y5110000D01*
X5020000Y4740000D01*
X2880000D01*
X1320000Y3180000D01*
Y2840000D01*
X1150000D01*
Y3370000D01*
X2740000Y4960000D01*
X4820000D01*
X5030000Y5170000D01*
Y5780000D01*
X5090000Y5840000D01*
G37*
G36*
G01X1629000Y2304500D02*
X1659000D01*
X1664000Y2299500D01*
Y2284500D01*
X1659000Y2279500D01*
X1604000D01*
X1599000Y2284500D01*
Y2334500D01*
X1604000Y2339500D01*
X1624000D01*
X1629000Y2334500D01*
Y2304500D01*
G37*
G36*
G01X1680000Y2960000D02*
X2370000D01*
Y2434140D01*
X2294750D01*
Y2164860D01*
X2370000D01*
Y1934140D01*
X2294750D01*
Y1664860D01*
X2370000D01*
Y1554500D01*
X2090000D01*
Y2093000D01*
X2058500Y2124500D01*
X1735500D01*
X1690000Y2170000D01*
Y2229500D01*
X1684520D01*
Y2229520D01*
X1430000D01*
Y2259480D01*
X1492290D01*
X1492310Y2259500D01*
X1508200D01*
G03X1509000Y2259480I900J19997D01*
G01X1534000D01*
G03X1534800Y2259500I-100J20017D01*
G01X1553200D01*
G03X1554000Y2259480I900J19997D01*
G01X1579000D01*
G03X1579800Y2259500I-100J20017D01*
G01X1595690D01*
X1595710Y2259480D01*
X1596650D01*
X1597850Y2258770D01*
G03X1619000Y2252980I21150J35734D01*
G03X1641300Y2259480I-5J41519D01*
G01X1667290D01*
X1667310Y2259500D01*
X1948500D01*
Y2830000D01*
X1680000D01*
Y2960000D01*
G37*
G36*
G01X1459000Y2134500D02*
X1429000D01*
X1424000Y2139500D01*
Y2154500D01*
X1429000Y2159500D01*
X1484000D01*
X1489000Y2154500D01*
Y2104500D01*
X1484000Y2099500D01*
X1464000D01*
X1459000Y2104500D01*
Y2134500D01*
G37*
G36*
G01Y2304500D02*
X1429000D01*
X1424000Y2299500D01*
Y2284500D01*
X1429000Y2279500D01*
X1484000D01*
X1489000Y2284500D01*
Y2334500D01*
X1484000Y2339500D01*
X1464000D01*
X1459000Y2334500D01*
Y2304500D01*
G37*
G36*
G01X1629000Y2134500D02*
X1659000D01*
X1664000Y2139500D01*
Y2154500D01*
X1659000Y2159500D01*
X1604000D01*
X1599000Y2154500D01*
Y2104500D01*
X1604000Y2099500D01*
X1624000D01*
X1629000Y2104500D01*
Y2134500D01*
G37*
G36*
G01X1640000Y2950000D02*
X1570000D01*
Y2830000D01*
X1640000D01*
X1620000Y2850000D01*
X1640000Y2870000D01*
X1620000Y2890000D01*
X1640000Y2910000D01*
X1620000Y2930000D01*
X1640000Y2950000D01*
G37*
G36*
G01X1680000D02*
X1730000D01*
Y2830000D01*
X1680000D01*
X1660000Y2850000D01*
X1680000Y2870000D01*
X1660000Y2890000D01*
X1680000Y2910000D01*
X1660000Y2930000D01*
X1680000Y2950000D01*
G37*
G36*
G01X2600000Y1180000D02*
X2190000D01*
G02X2090000Y1280000I0J100000D01*
G01Y1580000D01*
X2370000D01*
Y1520000D01*
X2410000Y1480000D01*
X2980000D01*
X3040000Y1420000D01*
Y680000D01*
X3070000Y650000D01*
X3410000D01*
X3510000Y750000D01*
Y1000000D01*
X3560000Y1050000D01*
X3920000D01*
X3960000Y1010000D01*
Y420000D01*
G02X3860000Y320000I-100000J0D01*
G01X2800000D01*
G02X2700000Y420000I0J100000D01*
G01Y1080000D01*
G03X2600000Y1180000I-100000J0D01*
G37*
G36*
G01X3420000Y5510000D02*
Y5870000D01*
X2960000Y6330000D01*
Y7590000D01*
X2990000Y7620000D01*
X3800000D01*
Y7500000D01*
X3140000D01*
X3120000Y7480000D01*
Y6550000D01*
X3790000Y5880000D01*
Y5510000D01*
X3420000D01*
G37*
G36*
G01X3510000Y6620000D02*
X3270000D01*
X3200000Y6690000D01*
Y7340000D01*
X3250000Y7390000D01*
X3580000D01*
Y7290000D01*
X3620000Y7250000D01*
Y7020000D01*
X3580000Y6980000D01*
Y6690000D01*
X3510000Y6620000D01*
G37*
G36*
G01X8620000Y1280000D02*
G02X8520000Y1180000I-100000J0D01*
G01X6220000D01*
G03X6120000Y1080000I0J-100000D01*
G01Y380000D01*
X6050000Y310000D01*
X4230000D01*
X4020000Y520000D01*
Y1010000D01*
X4060000Y1050000D01*
X4660000D01*
X4710000Y1000000D01*
Y650000D01*
X4840000Y520000D01*
X5720000D01*
X5800000Y600000D01*
Y1160000D01*
X5960000Y1320000D01*
X8190000D01*
X8390000Y1520000D01*
Y3190000D01*
X8220000Y3360000D01*
X7480000D01*
X6560000Y4280000D01*
Y5890000D01*
X6430000Y6020000D01*
X4600000D01*
Y6610000D01*
X4800000D01*
Y6320000D01*
X4900000Y6220000D01*
X6780000D01*
X6930000Y6070000D01*
Y4310000D01*
X7620000Y3620000D01*
X8520000D01*
G02X8620000Y3520000I0J-100000D01*
G01Y1280000D01*
G37*
G36*
G01X3780000Y3250000D02*
X3410000D01*
Y3890000D01*
X3600000Y4080000D01*
X6020000D01*
X6270000Y3830000D01*
Y2920000D01*
X6060000D01*
Y3550000D01*
X5840000Y3770000D01*
X3870000D01*
X3780000Y3680000D01*
Y3250000D01*
G37*
G36*
G01X3670000Y7620000D02*
X4150000D01*
Y7480000D01*
X3808500D01*
X3798500Y7470000D01*
Y7081500D01*
X3910000Y6970000D01*
Y6870000D01*
X3913480Y6866520D01*
Y6859480D01*
X4174500D01*
Y6829520D01*
X4105710D01*
X4105690Y6829500D01*
X4089800D01*
G03X4089000Y6829520I-900J-19997D01*
G01X4064000D01*
G03X4063200Y6829500I100J-20017D01*
G01X4044800D01*
G03X4044000Y6829520I-900J-19997D01*
G01X4019000D01*
G03X4018200Y6829500I100J-20017D01*
G01X4006380D01*
X4005180Y6830210D01*
G03X3984000Y6836020I-21180J-35700D01*
G03X3961700Y6829520I5J-41519D01*
G01X3930710D01*
X3930690Y6829500D01*
X3919500D01*
X3910000Y6820000D01*
Y6710000D01*
X3800000Y6600000D01*
Y6366000D01*
X3778500Y6344500D01*
X3678500D01*
X3670000Y6353000D01*
Y7620000D01*
G37*
G36*
G01X3539210Y7051260D02*
Y7208740D01*
X3541750Y7211280D01*
X3638270D01*
X3640810Y7208740D01*
Y7051260D01*
X3638270Y7048720D01*
X3541750D01*
X3539210Y7051260D01*
G37*
G36*
G01X3969000Y6954500D02*
X3939000D01*
X3934000Y6949500D01*
Y6934500D01*
X3939000Y6929500D01*
X3994000D01*
X3999000Y6934500D01*
Y6984500D01*
X3994000Y6989500D01*
X3974000D01*
X3969000Y6984500D01*
Y6954500D01*
G37*
G36*
G01X4210000Y7620000D02*
X4878500D01*
Y7144140D01*
X4804750D01*
Y6874860D01*
X4878500D01*
Y6644140D01*
X4804750D01*
Y6374860D01*
X4878500D01*
Y6204500D01*
X4600000D01*
Y6743000D01*
X4568500Y6774500D01*
X4288500D01*
X4258500Y6804500D01*
Y6864500D01*
X4243500Y6879500D01*
X4174800D01*
G03X4174000Y6879520I-900J-19997D01*
G01X3933500D01*
Y6909480D01*
X3961700D01*
G03X3984000Y6902980I22305J35019D01*
G03X4005180Y6908790I0J41510D01*
G01X4006380Y6909500D01*
X4018200D01*
G03X4019000Y6909480I900J19997D01*
G01X4044000D01*
G03X4044800Y6909500I-100J20017D01*
G01X4063200D01*
G03X4064000Y6909480I900J19997D01*
G01X4089000D01*
G03X4089800Y6909500I-100J20017D01*
G01X4105690D01*
X4105710Y6909480D01*
X4106650D01*
X4107850Y6908770D01*
G03X4129000Y6902980I21150J35734D01*
G03X4151300Y6909480I-5J41519D01*
G01X4177290D01*
X4177310Y6909500D01*
X4458500D01*
Y7480000D01*
X4210000D01*
Y7620000D01*
G37*
G36*
G01X3969000Y6784500D02*
X3939000D01*
X3934000Y6789500D01*
Y6804500D01*
X3939000Y6809500D01*
X3994000D01*
X3999000Y6804500D01*
Y6754500D01*
X3994000Y6749500D01*
X3974000D01*
X3969000Y6754500D01*
Y6784500D01*
G37*
G36*
G01X3848920Y7429580D02*
X4408080D01*
Y7078840D01*
G02X4391530Y7070950I-10158J6D01*
G03X4388580Y7073130I-26841J-33236D01*
G02X4385810Y7087180I5688J8419D01*
G03X4390060Y7101250I-21165J14070D01*
G01Y7190150D01*
G03X4364640Y7215570I-25420J0D01*
G01X4283360D01*
G03X4257940Y7190150I0J-25420D01*
G01Y7101250D01*
G03X4262190Y7087180I25415J0D01*
G02X4259420Y7073130I-8458J-5631D01*
G03X4240680Y7039670I23937J-35384D01*
G01X4240460Y7034820D01*
X4177800D01*
G03X4161040Y7031290I-6J-41521D01*
G01X4157850Y7029880D01*
X4152810Y7034920D01*
X4095190D01*
X4090360Y7030100D01*
G02X4073020Y7037280I-7182J7184D01*
G01Y7053690D01*
G03X4072920Y7056530I-41519J-40D01*
G02X4077050Y7061870I5069J346D01*
G03X4111860Y7103850I-7908J41980D01*
G01Y7192750D01*
G03X4093080Y7228130I-42717J0D01*
G02X4090310Y7242180I5688J8419D01*
G03X4094560Y7256250I-21165J14070D01*
G01Y7345150D01*
G03X4069140Y7370570I-25420J0D01*
G01X3987860D01*
G03X3970460Y7363680I0J-25416D01*
G02X3956540I-6960J7403D01*
G03X3939140Y7370570I-17400J-18526D01*
G01X3857860D01*
G03X3854640Y7370370I-37J-25422D01*
G01X3854320Y7370320D01*
X3848920D01*
Y7429580D01*
G37*
G36*
G01X4070000Y1370000D02*
X4030000Y1410000D01*
Y1700000D01*
X4080000Y1750000D01*
X4650000D01*
X4700000Y1700000D01*
Y1400000D01*
X4670000Y1370000D01*
X4070000D01*
G37*
G36*
G01X4660000Y3690000D02*
X5483750D01*
G02X5490670Y3672400I-1J-10161D01*
G03X5392460Y3447000I209551J-225400D01*
G03X5700230Y3139230I307770J0D01*
G03X5989470Y3341830I0J307765D01*
G02X6009180Y3338360I9549J-3471D01*
G01Y2582520D01*
G02X5995830Y2572870I-10161J-3D01*
G03X5980010Y2575420I-15831J-47868D01*
G03X5943630Y2559910I0J-50421D01*
G02X5927360Y2562100I-7336J7031D01*
G03X5905010Y2575420I-22350J-12091D01*
G01X5860010D01*
G03X5834590Y2550000I0J-25420D01*
G01Y2520000D01*
G03X5841570Y2502500I25428J0D01*
G03X5834590Y2485000I18448J-17500D01*
G01Y2455000D01*
G03X5841570Y2437500I25428J0D01*
G03X5834590Y2420000I18448J-17500D01*
G01Y2390000D01*
G03X5860010Y2364580I25420J0D01*
G01X5905010D01*
G03X5927360Y2377900I0J25411D01*
G02X5943630Y2380090I8934J-4841D01*
G03X5980010Y2364580I36380J34911D01*
G03X5995830Y2367130I-11J50418D01*
G02X6009180Y2357480I3189J-9647D01*
G01Y2312490D01*
G02X5993720Y2303820I-10160J-2D01*
G03X5980450Y2307560I-13270J-21672D01*
G01X5891550D01*
G03X5866130Y2282140I0J-25420D01*
G01Y2200860D01*
G03X5891550Y2175440I25420J0D01*
G01X5980450D01*
G03X5993720Y2179180I0J25412D01*
G02X6009180Y2170510I5300J-8668D01*
G01Y1649180D01*
X6250820D01*
Y1657920D01*
G02X6256320Y1662990I5081J6D01*
G03X6259850Y1662840I3577J42568D01*
G01X6348750D01*
G03X6367800Y1667320I5J42721D01*
G03X6386850Y1662840I19045J38241D01*
G01X6628150D01*
G03X6647200Y1667320I5J42721D01*
G03X6666250Y1662840I19045J38241D01*
G01X6755150D01*
G03X6790530Y1681620I0J42717D01*
G02X6804580Y1684390I8419J-5688D01*
G03X6818650Y1680140I14070J21165D01*
G01X6907550D01*
G03X6932970Y1705560I0J25420D01*
G01Y1786840D01*
G03X6907550Y1812260I-25420J0D01*
G01X6818650D01*
G03X6804580Y1808010I0J-25415D01*
G02X6790530Y1810780I-5631J8458D01*
G03X6755150Y1829560I-35380J-23937D01*
G01X6666250D01*
G03X6647200Y1825080I-5J-42721D01*
G03X6628150Y1829560I-19045J-38241D01*
G01X6623830D01*
X6622600Y1832860D01*
G03X6613060Y1847700I-38899J-14520D01*
G01X6612350Y1848410D01*
G02X6615940Y1857080I3593J3591D01*
G01X6837700D01*
G03X6867060Y1869240I0J41524D01*
G01X6893360Y1895540D01*
G03X6904580Y1916130I-29364J29353D01*
G01X6904640D01*
G03X6932740Y1926670I0J42728D01*
G02X6949580Y1919020I6681J-7653D01*
G01Y1640880D01*
X6919120Y1610420D01*
X5809580D01*
X4500000Y2920000D01*
Y3150000D01*
X4610000Y3260000D01*
Y3640000D01*
X4660000Y3690000D01*
G37*
G36*
G01X4139000Y6954500D02*
X4169000D01*
X4174000Y6949500D01*
Y6934500D01*
X4169000Y6929500D01*
X4114000D01*
X4109000Y6934500D01*
Y6984500D01*
X4114000Y6989500D01*
X4134000D01*
X4139000Y6984500D01*
Y6954500D01*
G37*
G36*
G01Y6784500D02*
X4169000D01*
X4174000Y6789500D01*
Y6804500D01*
X4169000Y6809500D01*
X4114000D01*
X4109000Y6804500D01*
Y6754500D01*
X4114000Y6749500D01*
X4134000D01*
X4139000Y6754500D01*
Y6784500D01*
G37*
G36*
G01X4170000Y7600000D02*
X4100000D01*
Y7480000D01*
X4170000D01*
X4150000Y7500000D01*
X4170000Y7520000D01*
X4150000Y7540000D01*
X4170000Y7560000D01*
X4150000Y7580000D01*
X4170000Y7600000D01*
G37*
G36*
G01X4210000D02*
X4260000D01*
Y7480000D01*
X4210000D01*
X4190000Y7500000D01*
X4210000Y7520000D01*
X4190000Y7540000D01*
X4210000Y7560000D01*
X4190000Y7580000D01*
X4210000Y7600000D01*
G37*
G36*
G01X5740000Y680000D02*
X5660000Y600000D01*
X4860000D01*
X4790000Y670000D01*
Y1000000D01*
X4840000Y1050000D01*
X4930000D01*
X4980000Y1000000D01*
Y790000D01*
X5030000Y740000D01*
X5490000D01*
X5550000Y800000D01*
Y1320000D01*
X5790000Y1560000D01*
X6940000D01*
X7000000Y1620000D01*
Y1650000D01*
X7280000D01*
Y1380000D01*
X5860000D01*
X5740000Y1260000D01*
Y680000D01*
G37*
G36*
G01X4800000Y1390000D02*
X4780000Y1410000D01*
Y1720000D01*
X4800000Y1740000D01*
X4970000D01*
X4990000Y1720000D01*
Y1410000D01*
X4970000Y1390000D01*
X4800000D01*
G37*
G36*
G01X5280000Y8620000D02*
X7838460D01*
G02X7846670Y8603860I-4J-10160D01*
G03X7777780Y8392000I291326J-211860D01*
G03X8138000Y8031780I360220J0D01*
G03X8428920Y8179580I0J360214D01*
G01X8600000D01*
G02X8620000Y8175370I6J-49581D01*
G01Y5290000D01*
G02X8520000Y5190000I-100000J0D01*
G01X7710000D01*
G03X7610000Y5090000I0J-100000D01*
G01Y3910000D01*
G02X7510000Y3810000I-100000J0D01*
G01X7501300D01*
X6980420Y4330880D01*
Y6090880D01*
X6800880Y6270420D01*
X4928920D01*
Y6374860D01*
X5163850D01*
X5165210Y6371900D01*
G03X5188310Y6357080I23100J10593D01*
G01X5376270D01*
G03X5401690Y6382500I0J25420D01*
G01Y6636500D01*
G03X5376270Y6661920I-25420J0D01*
G01X5188310D01*
G03X5165210Y6647100I0J-25413D01*
G01X5163850Y6644140D01*
X4928920D01*
Y6874860D01*
X5163850D01*
X5165210Y6871900D01*
G03X5188310Y6857080I23100J10593D01*
G01X5376270D01*
G03X5401690Y6882500I0J25420D01*
G01Y7136500D01*
G03X5376270Y7161920I-25420J0D01*
G01X5188310D01*
G03X5165210Y7147100I0J-25413D01*
G01X5163850Y7144140D01*
X4928920D01*
Y7620000D01*
X5080000D01*
G03X5180000Y7720000I0J100000D01*
G01Y8520000D01*
G02X5280000Y8620000I100000J0D01*
G37*
G36*
G01X5929210Y2391260D02*
Y2548740D01*
X5931750Y2551280D01*
X6028270D01*
X6030810Y2548740D01*
Y2391260D01*
X6028270Y2388720D01*
X5931750D01*
X5929210Y2391260D01*
G37*
G36*
G01X5750000Y2140000D02*
Y2640000D01*
X5980000D01*
Y2590000D01*
X6020000Y2550000D01*
Y2390000D01*
X5980000Y2350000D01*
Y2140000D01*
X5750000D01*
G37*
G36*
G01X6060000Y2950000D02*
X6510000D01*
Y2810000D01*
X6218500D01*
X6198500Y2790000D01*
Y2421500D01*
X6310000Y2310000D01*
Y2210000D01*
X6313480Y2206520D01*
Y2199480D01*
X6574500D01*
Y2169520D01*
X6505710D01*
X6505690Y2169500D01*
X6489800D01*
G03X6489000Y2169520I-900J-19997D01*
G01X6464000D01*
G03X6463200Y2169500I100J-20017D01*
G01X6444800D01*
G03X6444000Y2169520I-900J-19997D01*
G01X6419000D01*
G03X6418200Y2169500I100J-20017D01*
G01X6402310D01*
X6402290Y2169520D01*
X6395720D01*
X6394980Y2169750D01*
G03X6373020I-10980J-35261D01*
G01X6372280Y2169520D01*
X6330710D01*
X6330690Y2169500D01*
X6319500D01*
X6310000Y2160000D01*
Y2050000D01*
X6200000Y1940000D01*
Y1700000D01*
X6060000D01*
Y2950000D01*
G37*
G36*
G01X6634500Y2609800D02*
X6253500D01*
Y2736800D01*
X6761500D01*
X6799600Y2698700D01*
Y2457400D01*
X6786900Y2444700D01*
X6672600D01*
X6647200Y2470100D01*
Y2597100D01*
X6634500Y2609800D01*
G37*
G36*
G01X6560820Y2759580D02*
X6808080D01*
Y2418840D01*
G02X6791530Y2410950I-10158J6D01*
G03X6788580Y2413130I-26841J-33236D01*
G02X6785810Y2427180I5688J8419D01*
G03X6790060Y2441250I-21165J14070D01*
G01Y2530150D01*
G03X6764640Y2555570I-25420J0D01*
G01X6683360D01*
G03X6657940Y2530150I0J-25420D01*
G01Y2441250D01*
G03X6662190Y2427180I25415J0D01*
G02X6659420Y2413130I-8458J-5631D01*
G03X6640680Y2379670I23937J-35384D01*
G01X6640460Y2374820D01*
X6577800D01*
G03X6561040Y2371290I-6J-41521D01*
G01X6557850Y2369880D01*
X6552810Y2374920D01*
X6495190D01*
X6490360Y2370100D01*
G02X6473020Y2377280I-7182J7184D01*
G01Y2393690D01*
G03X6472230Y2401750I-41511J0D01*
G02X6475880Y2407630I4983J980D01*
G03X6507360Y2448850I-11247J41220D01*
G01Y2537750D01*
G03X6488580Y2573130I-42717J0D01*
G02X6485810Y2587180I5688J8419D01*
G03X6490060Y2601250I-21165J14070D01*
G01Y2690150D01*
G03X6464640Y2715570I-25420J0D01*
G01X6383360D01*
G03X6365960Y2708680I0J-25416D01*
G02X6352040I-6960J7403D01*
G03X6334640Y2715570I-17400J-18526D01*
G01X6249320D01*
Y2759180D01*
X6560820D01*
Y2759580D01*
G37*
G36*
G01X6369000Y2124500D02*
X6339000D01*
X6334000Y2129500D01*
Y2144500D01*
X6339000Y2149500D01*
X6394000D01*
X6399000Y2144500D01*
Y2094500D01*
X6394000Y2089500D01*
X6374000D01*
X6369000Y2094500D01*
Y2124500D01*
G37*
G36*
G01Y2294500D02*
X6339000D01*
X6334000Y2289500D01*
Y2274500D01*
X6339000Y2269500D01*
X6394000D01*
X6399000Y2274500D01*
Y2324500D01*
X6394000Y2329500D01*
X6374000D01*
X6369000Y2324500D01*
Y2294500D01*
G37*
G36*
G01X6539000D02*
X6569000D01*
X6574000Y2289500D01*
Y2274500D01*
X6569000Y2269500D01*
X6514000D01*
X6509000Y2274500D01*
Y2324500D01*
X6514000Y2329500D01*
X6534000D01*
X6539000Y2324500D01*
Y2294500D01*
G37*
G36*
G01Y2124500D02*
X6569000D01*
X6574000Y2129500D01*
Y2144500D01*
X6569000Y2149500D01*
X6514000D01*
X6509000Y2144500D01*
Y2094500D01*
X6514000Y2089500D01*
X6534000D01*
X6539000Y2094500D01*
Y2124500D01*
G37*
G36*
G01X6570000Y2950000D02*
X7280000D01*
Y2424140D01*
X7204750D01*
Y2154860D01*
X7280000D01*
Y1924140D01*
X7204750D01*
Y1654860D01*
X7280000D01*
Y1544500D01*
X7000000D01*
Y2083000D01*
X6968500Y2114500D01*
X6688500D01*
X6658500Y2144500D01*
Y2204500D01*
X6643500Y2219500D01*
X6574800D01*
G03X6574000Y2219520I-900J-19997D01*
G01X6333500D01*
Y2249480D01*
X6402290D01*
X6402310Y2249500D01*
X6418200D01*
G03X6419000Y2249480I900J19997D01*
G01X6444000D01*
G03X6444800Y2249500I-100J20017D01*
G01X6463200D01*
G03X6464000Y2249480I900J19997D01*
G01X6489000D01*
G03X6489800Y2249500I-100J20017D01*
G01X6505690D01*
X6505710Y2249480D01*
X6506650D01*
X6507850Y2248770D01*
G03X6529000Y2242980I21150J35734D01*
G03X6551300Y2249480I-5J41519D01*
G01X6577290D01*
X6577310Y2249500D01*
X6858500D01*
Y2810000D01*
X6570000D01*
Y2950000D01*
G37*
G36*
G01X6320820Y3690000D02*
X7020000D01*
X7430000Y3280000D01*
X8150000D01*
X8310000Y3120000D01*
Y1560000D01*
X8130000Y1380000D01*
X7330420D01*
Y1654860D01*
X7563850D01*
X7565210Y1651900D01*
G03X7588310Y1637080I23100J10593D01*
G01X7776270D01*
G03X7801690Y1662500I0J25420D01*
G01Y1916500D01*
G03X7776270Y1941920I-25420J0D01*
G01X7588310D01*
G03X7565210Y1927100I0J-25413D01*
G01X7563850Y1924140D01*
X7330420D01*
Y2154860D01*
X7563850D01*
X7565210Y2151900D01*
G03X7588310Y2137080I23100J10593D01*
G01X7776270D01*
G03X7801690Y2162500I0J25420D01*
G01Y2416500D01*
G03X7776270Y2441920I-25420J0D01*
G01X7588310D01*
G03X7565210Y2427100I0J-25413D01*
G01X7563850Y2424140D01*
X7330420D01*
Y3000420D01*
X6560820D01*
Y3000820D01*
X6320820D01*
Y3690000D01*
G37*
G36*
G01X6530000Y2940000D02*
X6460000D01*
Y2820000D01*
X6530000D01*
X6510000Y2840000D01*
X6530000Y2860000D01*
X6510000Y2880000D01*
X6530000Y2900000D01*
X6510000Y2920000D01*
X6530000Y2940000D01*
G37*
G36*
G01X6570000D02*
X6620000D01*
Y2820000D01*
X6570000D01*
X6550000Y2840000D01*
X6570000Y2860000D01*
X6550000Y2880000D01*
X6570000Y2900000D01*
X6550000Y2920000D01*
X6570000Y2940000D01*
G37*
%LPC*%
G75*
G36*
G01X2545140Y2675160D02*
Y2844840D01*
G02X2570560Y2870260I25420J0D01*
G01X2785440D01*
G02X2810860Y2844840I0J-25420D01*
G01Y2675160D01*
G02X2785440Y2649740I-25420J0D01*
G01X2570560D01*
G02X2545140Y2675160I0J25420D01*
G37*
G36*
G01X3196980Y1305400D02*
Y1575400D01*
G02X3239700Y1618120I42720J0D01*
G01X3359700D01*
G02X3402420Y1575400I0J-42720D01*
G01Y1305400D01*
G02X3399260Y1289270I-42721J-5D01*
G02Y1101530I-71068J-93870D01*
G02X3402420Y1085400I-39561J-16125D01*
G01Y815400D01*
G02X3359700Y772680I-42720J0D01*
G01X3239700D01*
G02X3196980Y815400I0J42720D01*
G01Y1085400D01*
G02X3221030Y1123820I42713J0D01*
G03X3225450Y1137920I-4444J9136D01*
G02X3210470Y1195400I102752J57471D01*
G02X3225450Y1252880I117732J9D01*
G03X3221030Y1266980I-8864J4964D01*
G02X3196980Y1305400I18663J38420D01*
G37*
G36*
G01X3474480Y5570000D02*
Y5770000D01*
G02X3499900Y5795420I25420J0D01*
G01X3699900D01*
G02X3725320Y5770000I0J-25420D01*
G01Y5570000D01*
G02X3699900Y5544580I-25420J0D01*
G01X3499900D01*
G02X3474480Y5570000I0J25420D01*
G37*
G36*
G01Y3347000D02*
Y3547000D01*
G02X3499900Y3572420I25420J0D01*
G01X3699900D01*
G02X3725320Y3547000I0J-25420D01*
G01Y3347000D01*
G02X3699900Y3321580I-25420J0D01*
G01X3499900D01*
G02X3474480Y3347000I0J25420D01*
G37*
G36*
G01X5055140Y7375160D02*
Y7544840D01*
G02X5080560Y7570260I25420J0D01*
G01X5295440D01*
G02X5320860Y7544840I0J-25420D01*
G01Y7375160D01*
G02X5295440Y7349740I-25420J0D01*
G01X5080560D01*
G02X5055140Y7375160I0J25420D01*
G37*
G36*
G01X7455140Y2655160D02*
Y2824840D01*
G02X7480560Y2850260I25420J0D01*
G01X7695440D01*
G02X7720860Y2824840I0J-25420D01*
G01Y2655160D01*
G02X7695440Y2629740I-25420J0D01*
G01X7480560D01*
G02X7455140Y2655160I0J25420D01*
G37*
G54D38*
X4800050Y5670000D03*
X3999950D03*
X5200100D03*
X4800050Y3447000D03*
G54D39*
X600000Y7800000D03*
X7500000Y8300000D03*
G54D40*
X5200100Y3447000D03*
%LPD*%
G75*
G54D10*
X408000Y408000D03*
X500000Y6640000D03*
X798000Y8392000D03*
X8138000D03*
X8409000Y408000D03*
G54D11*
X60000Y140000D03*
Y640000D03*
Y540000D03*
Y440000D03*
Y740000D03*
Y340000D03*
Y240000D03*
Y1040000D03*
Y940000D03*
Y840000D03*
Y1140000D03*
Y1240000D03*
Y1340000D03*
Y1440000D03*
Y2040000D03*
Y1840000D03*
Y1740000D03*
Y1640000D03*
Y1940000D03*
Y1540000D03*
Y2740000D03*
Y2240000D03*
Y2140000D03*
Y2340000D03*
Y2440000D03*
Y2540000D03*
Y2640000D03*
Y2940000D03*
Y2840000D03*
Y3140000D03*
Y3240000D03*
Y3040000D03*
Y3340000D03*
Y3440000D03*
Y3540000D03*
Y3640000D03*
Y5340000D03*
Y5240000D03*
Y5140000D03*
Y5840000D03*
Y5740000D03*
Y5640000D03*
Y5940000D03*
Y5440000D03*
Y5540000D03*
Y6040000D03*
Y6640000D03*
Y6540000D03*
Y6440000D03*
Y6340000D03*
Y6140000D03*
Y6240000D03*
Y7040000D03*
Y6940000D03*
Y6840000D03*
Y7140000D03*
Y7240000D03*
Y7340000D03*
Y6740000D03*
Y7940000D03*
Y7640000D03*
Y7740000D03*
Y7840000D03*
Y7540000D03*
Y7440000D03*
Y8640000D03*
Y8540000D03*
Y8440000D03*
Y8340000D03*
Y8040000D03*
Y8140000D03*
Y8240000D03*
X160000Y60000D03*
X260000D03*
X360000D03*
X460000D03*
X760000D03*
X660000D03*
X560000D03*
X160000Y140000D03*
X410000Y160000D03*
X220000Y230000D03*
Y570000D03*
X160000Y410000D03*
X410000Y640000D03*
X600000Y570000D03*
X590000Y220000D03*
X640000Y410000D03*
X600000Y1200000D03*
X300000D03*
X600000Y2100000D03*
X300000D03*
X600000Y1500000D03*
X300000D03*
X600000Y1800000D03*
X300000D03*
X600000Y2400000D03*
X300000D03*
X600000Y2700000D03*
X300000D03*
Y3300000D03*
X600000D03*
X300000Y3000000D03*
X600000D03*
X300000Y3600000D03*
X600000D03*
X160000Y3740000D03*
X360000D03*
X460000D03*
X560000D03*
X660000D03*
X760000D03*
X260000D03*
X160000Y5060000D03*
X660000D03*
X760000D03*
X560000D03*
X460000D03*
X360000D03*
X260000D03*
X680900Y6450100D03*
X730900Y6640100D03*
X500900Y6390100D03*
X310900Y6460100D03*
X660000Y6240000D03*
X760000D03*
X160000D03*
X260000D03*
X360000D03*
X460000D03*
X560000D03*
X160000Y6340000D03*
X260000D03*
X760000Y6360000D03*
X160000Y6440000D03*
X300000Y7223180D03*
X600000D03*
X690900Y6800100D03*
X310900D03*
X500900Y6870100D03*
X550000Y7040000D03*
X450000D03*
X350000D03*
X250000D03*
X150000D03*
X750000D03*
X650000D03*
X150000Y6940000D03*
X250000D03*
X750000D03*
X150000Y6840000D03*
X300000Y7500000D03*
Y7800000D03*
X600000Y7500000D03*
X300000Y8100000D03*
X800000Y8630000D03*
X550000Y8400000D03*
X610000Y8220000D03*
X800000Y8150000D03*
X610000Y8560000D03*
X460000Y8640000D03*
X360000D03*
X260000D03*
X160000D03*
X460000Y8540000D03*
X360000D03*
X260000D03*
X160000D03*
X460000Y8440000D03*
X360000D03*
X260000D03*
X160000D03*
X460000Y8340000D03*
X360000D03*
X260000D03*
X160000D03*
X560000Y8640000D03*
X160000Y8740000D03*
X260000D03*
X360000D03*
X460000D03*
X560000D03*
X760000D03*
X660000D03*
X860000Y60000D03*
X960000D03*
X1040000Y460000D03*
Y560000D03*
Y660000D03*
Y760000D03*
Y160000D03*
Y260000D03*
Y360000D03*
X900000Y1200000D03*
X1200000D03*
X1340000Y1060000D03*
X1240000D03*
X1140000D03*
X1440000D03*
X1040000Y960000D03*
Y860000D03*
X900000Y1500000D03*
X1200000D03*
X918500Y2214500D03*
Y2334500D03*
Y2434500D03*
Y2534500D03*
Y2654500D03*
X900000Y3300000D03*
Y3000000D03*
X1200000Y3900000D03*
Y3600000D03*
X900000D03*
X1060000Y3840000D03*
Y3940000D03*
Y4040000D03*
X860000Y3740000D03*
X960000D03*
X1200000Y4500000D03*
Y4200000D03*
X1060000Y4340000D03*
Y4140000D03*
Y4240000D03*
Y4440000D03*
Y4540000D03*
Y4640000D03*
X1200000Y5100000D03*
Y4800000D03*
X1060000Y4940000D03*
Y4840000D03*
Y4740000D03*
X860000Y5060000D03*
X960000D03*
X1200000Y6600000D03*
Y6300000D03*
X860000Y6240000D03*
Y6360000D03*
Y6470000D03*
X900000Y7223180D03*
X1200000D03*
Y6900000D03*
X850000Y7040000D03*
Y6940000D03*
Y6830000D03*
X900000Y7500000D03*
Y7800000D03*
X1200000Y7500000D03*
Y7800000D03*
Y8100000D03*
X1030000Y8400000D03*
X980000Y8210000D03*
X990000Y8560000D03*
X860000Y8740000D03*
X960000D03*
X1260000D03*
X1160000D03*
X1060000D03*
X1360000D03*
X1500000Y1200000D03*
X1800000D03*
X2040000Y1060000D03*
X1540000D03*
X1640000D03*
X1940000D03*
X1840000D03*
X1740000D03*
X1953100Y1649100D03*
X1500000Y1500000D03*
X1800000D03*
X1808500Y2604500D03*
Y2684500D03*
X1718500D03*
X1618500D03*
X1800000Y3300000D03*
X2100000D03*
X1500000Y3900000D03*
X2100000Y3600000D03*
Y4500000D03*
X1800000D03*
X1500000D03*
X1800000Y4200000D03*
X1500000D03*
X2100000Y5100000D03*
X1800000D03*
X1500000D03*
X2100000Y4800000D03*
X1800000D03*
X1500000D03*
Y6299520D03*
Y6600000D03*
X1800000Y6299520D03*
Y6600000D03*
X2100000Y6299520D03*
Y6600000D03*
X1500000Y6900000D03*
Y7200000D03*
X1800000Y6900000D03*
Y7200000D03*
X2100000Y6900000D03*
Y7200000D03*
X1500000Y7523180D03*
Y7800000D03*
X1800000Y7523180D03*
Y7800000D03*
X2100000Y7523180D03*
Y7800000D03*
X1500000Y8100000D03*
Y8400000D03*
X1800000Y8100000D03*
Y8400000D03*
X2100000Y8100000D03*
Y8400000D03*
X1460000Y8740000D03*
X1860000D03*
X1960000D03*
X2060000D03*
X1760000D03*
X1660000D03*
X1560000D03*
X2760000Y60000D03*
X2660000D03*
X2560000Y460000D03*
Y560000D03*
Y660000D03*
Y760000D03*
Y160000D03*
Y260000D03*
Y360000D03*
X2440000Y1060000D03*
X2340000D03*
X2240000D03*
X2140000D03*
X2560000Y960000D03*
Y860000D03*
X2768500Y1614500D03*
X2678500D03*
X2768500Y1994500D03*
X2678500D03*
X2768500Y2124500D03*
X2678500D03*
X2688500Y2484500D03*
X2400000Y3300000D03*
Y3600000D03*
Y3900000D03*
X2700000D03*
Y5100000D03*
X2400000D03*
Y4800000D03*
Y6299520D03*
Y6600000D03*
X2700000Y6299520D03*
Y6600000D03*
X2400000Y6900000D03*
Y7200000D03*
X2700000Y6900000D03*
Y7200000D03*
X2400000Y7523180D03*
Y7800000D03*
X2700000Y7523180D03*
Y7800000D03*
X2400000Y8100000D03*
Y8400000D03*
X2700000Y8100000D03*
Y8400000D03*
X2160000Y8740000D03*
X2260000D03*
X2360000D03*
X2460000D03*
X2560000D03*
X2760000D03*
X2660000D03*
X2960000Y60000D03*
X3060000D03*
X3160000D03*
X2860000D03*
X3360000D03*
X3260000D03*
X2858500Y1614500D03*
Y1994500D03*
X3100000Y1900000D03*
X3400000D03*
X3100000Y1600000D03*
X2858500Y2124500D03*
X2778500Y2484500D03*
X2868500D03*
X3100000Y2500000D03*
X3400000D03*
Y2200000D03*
X3100000D03*
Y2800000D03*
X3400000D03*
X3250000Y3300000D03*
X3100000Y3240000D03*
X2950000Y3300000D03*
X3250000Y3600000D03*
X3310000Y3450000D03*
X2950000Y3600000D03*
X3100000Y3660000D03*
X2890000Y3450000D03*
X3250000Y4550000D03*
X3310000Y4400000D03*
X3250000Y4250000D03*
X2950000Y4550000D03*
X3100000Y4610000D03*
Y4190000D03*
X2950000Y4250000D03*
X2890000Y4400000D03*
X3000000Y5100000D03*
X3300000D03*
X2890000Y5670000D03*
X2950000Y5520000D03*
X3100000Y5460000D03*
X3250000Y5520000D03*
X3310000Y5670000D03*
X3250000Y5820000D03*
X3100000Y5880000D03*
X2950000Y5820000D03*
X3000000Y7800000D03*
X3300000D03*
X3000000Y8400000D03*
Y8100000D03*
X3300000Y8400000D03*
Y8100000D03*
X2860000Y8740000D03*
X3060000D03*
X3160000D03*
X3260000D03*
X2960000D03*
X3360000D03*
X3460000Y60000D03*
X3560000D03*
X3660000D03*
X4060000D03*
X3960000D03*
X3860000D03*
X3760000D03*
X3700000Y210000D03*
X3610000Y1310000D03*
X3740000D03*
Y1180000D03*
X3610000D03*
X3700000Y1900000D03*
X3610000Y1650000D03*
X3740000D03*
X3480000D03*
X3610000Y1740000D03*
X3740000D03*
X3480000D03*
X4070000Y1640000D03*
Y1560000D03*
X3700000Y2500000D03*
Y2200000D03*
X3900000Y5100000D03*
X3600000D03*
X3428500Y7304500D03*
Y7184500D03*
Y7084500D03*
Y6984500D03*
Y6864500D03*
X3500000Y7800000D03*
X3840000Y7740000D03*
X3940000D03*
X4040000D03*
X3740000Y7840000D03*
Y7940000D03*
X3500000Y8400000D03*
Y8100000D03*
X3740000Y8240000D03*
Y8140000D03*
Y8340000D03*
Y8440000D03*
Y8540000D03*
Y8640000D03*
Y8040000D03*
X3460000Y8740000D03*
X3560000D03*
X3660000D03*
X4160000Y60000D03*
X4260000D03*
X4360000D03*
X4560000D03*
X4660000D03*
X4460000D03*
X4710000Y200000D03*
X4115000Y305000D03*
X4630000Y1710000D03*
Y1640000D03*
Y1560000D03*
X4150000Y1710000D03*
X4390000D03*
X4310000D03*
X4230000D03*
X4550000D03*
X4470000D03*
X4150000Y1640000D03*
X4390000D03*
X4310000D03*
X4230000D03*
X4550000D03*
X4470000D03*
Y1560000D03*
X4550000D03*
X4230000D03*
X4310000D03*
X4390000D03*
X4150000D03*
X4600000Y3100000D03*
X4500000Y5100000D03*
X4200000D03*
X4460000Y6310000D03*
X4318500Y7254500D03*
Y7334500D03*
X4228500D03*
X4128500D03*
X4540000Y7740000D03*
X4640000D03*
X4440000D03*
X4340000D03*
X4240000D03*
X4140000D03*
X4760000Y60000D03*
X4860000D03*
X5360000D03*
X5260000D03*
X5160000D03*
X5060000D03*
X4960000D03*
X4880000Y730000D03*
X4950000Y1570000D03*
X4820000D03*
X4883660Y1570570D03*
X4950000Y1640000D03*
X4883660Y1640570D03*
X4820000Y1640000D03*
X4950000Y1710000D03*
X4883660Y1710570D03*
X4820000Y1710000D03*
X5200000Y2500000D03*
X4900000Y3100000D03*
X5200000D03*
Y2800000D03*
X4900000D03*
X5188500Y6704500D03*
X5278500D03*
X5368500D03*
X5188500Y6324500D03*
X5278500D03*
X5368500D03*
X5378500Y7194500D03*
X5288500D03*
X5198500D03*
X5188500Y6834500D03*
X5278500D03*
X5368500D03*
X5300000Y7800000D03*
X4940000Y7740000D03*
X4840000D03*
X4740000D03*
X5060000Y7840000D03*
Y7940000D03*
X5300000Y8400000D03*
Y8100000D03*
X5060000Y8640000D03*
Y8140000D03*
Y8040000D03*
Y8240000D03*
Y8340000D03*
Y8440000D03*
Y8540000D03*
X5360000Y8740000D03*
X5260000D03*
X5160000D03*
X5460000Y60000D03*
X5560000D03*
X5760000D03*
X5860000D03*
X5960000D03*
X5660000D03*
X5820000Y210000D03*
X5800000Y1900000D03*
X5818500Y2244500D03*
Y2364500D03*
Y2464500D03*
Y2564500D03*
X5848500Y2684500D03*
X5500000Y2500000D03*
Y2200000D03*
X5930000Y2890000D03*
Y2790000D03*
X5850000Y2890000D03*
Y2790000D03*
X5500000Y3100000D03*
Y2800000D03*
X5850000Y3300000D03*
X5700000Y3240000D03*
X5550000Y3300000D03*
Y3600000D03*
X5700000Y3660000D03*
X5850000Y3600000D03*
X5910000Y3450000D03*
X5490000D03*
X5550000Y4550000D03*
X5700000Y4610000D03*
X5850000Y4550000D03*
X5910000Y4400000D03*
X5850000Y4250000D03*
X5700000Y4190000D03*
X5550000Y4250000D03*
X5490000Y4400000D03*
X5550000Y5820000D03*
X5700000Y5880000D03*
X5850000Y5820000D03*
X5910000Y5670000D03*
X5850000Y5520000D03*
X5700000Y5460000D03*
X5550000Y5520000D03*
X5490000Y5670000D03*
X5900000Y6299520D03*
Y6600000D03*
X5600000Y6299520D03*
Y6600000D03*
X5900000Y6900000D03*
Y7200000D03*
X5600000Y6900000D03*
Y7200000D03*
X5900000Y7523180D03*
Y7800000D03*
X5600000Y7523180D03*
Y7800000D03*
X5900000Y8100000D03*
Y8400000D03*
X5600000Y8100000D03*
Y8400000D03*
X5460000Y8740000D03*
X5560000D03*
X5660000D03*
X5860000D03*
X5960000D03*
X5760000D03*
X6060000Y60000D03*
X6160000D03*
X6240000Y660000D03*
Y760000D03*
Y460000D03*
Y260000D03*
Y160000D03*
Y360000D03*
Y560000D03*
X6460000Y1060000D03*
X6560000D03*
X6660000D03*
X6360000D03*
X6240000Y960000D03*
Y860000D03*
X6528500Y2674500D03*
X6628500D03*
X6700000Y3100000D03*
Y3400000D03*
X6400000D03*
Y3100000D03*
Y3600000D03*
X6700000D03*
X6500000Y6299520D03*
Y6600000D03*
X6200000Y6299520D03*
Y6600000D03*
X6500000Y6900000D03*
Y7200000D03*
X6200000Y6900000D03*
Y7200000D03*
X6500000Y7523180D03*
Y7800000D03*
X6200000Y7523180D03*
Y7800000D03*
X6500000Y8100000D03*
Y8400000D03*
X6200000Y8100000D03*
Y8400000D03*
X6060000Y8740000D03*
X6160000D03*
X6660000D03*
X6560000D03*
X6460000D03*
X6360000D03*
X6260000D03*
X6760000Y1060000D03*
X7360000D03*
X6960000D03*
X7260000D03*
X7160000D03*
X7060000D03*
X6860000D03*
X6863100Y1639100D03*
X6718500Y2674500D03*
Y2594500D03*
X7300000Y3100000D03*
X7000000D03*
Y3400000D03*
Y3600000D03*
X7100000Y4500000D03*
Y5100000D03*
Y4800000D03*
Y5400000D03*
Y5700000D03*
Y6000000D03*
Y6600000D03*
Y6299520D03*
X6800000D03*
Y6600000D03*
X7100000Y7200000D03*
Y6900000D03*
X6800000D03*
Y7200000D03*
X7100000Y7800000D03*
Y7523180D03*
X6800000D03*
Y7800000D03*
X7100000Y8400000D03*
Y8100000D03*
X6800000D03*
Y8400000D03*
X6760000Y8740000D03*
X6860000D03*
X7060000D03*
X7160000D03*
X7260000D03*
X6960000D03*
X7360000D03*
X7860000Y60000D03*
X7960000D03*
X7760000Y660000D03*
Y760000D03*
Y460000D03*
Y260000D03*
Y160000D03*
Y360000D03*
Y560000D03*
X7460000Y1060000D03*
X7560000D03*
X7660000D03*
X7760000Y960000D03*
Y860000D03*
X7768500Y2114500D03*
X7678500D03*
X7588500D03*
X7768500Y1984500D03*
X7678500D03*
X7588500D03*
X7768500Y1604500D03*
X7678500D03*
X7588500D03*
X7900000Y1900000D03*
Y1600000D03*
X7598500Y2474500D03*
X7688500D03*
X7778500D03*
X7900000Y2500000D03*
Y2200000D03*
Y3100000D03*
Y2800000D03*
X7600000Y3100000D03*
X7740000Y3860000D03*
Y3960000D03*
Y4060000D03*
X7940000Y3740000D03*
X7840000D03*
X7400000Y4500000D03*
Y4200000D03*
X7740000Y4360000D03*
Y4160000D03*
Y4260000D03*
Y4460000D03*
Y4560000D03*
Y4660000D03*
X7400000Y5100000D03*
Y4800000D03*
X7740000Y4960000D03*
Y4860000D03*
Y4760000D03*
X7940000Y5060000D03*
X7840000D03*
X7700000Y5400000D03*
Y5700000D03*
Y6000000D03*
X7400000Y5400000D03*
Y5700000D03*
Y6000000D03*
X8000000D03*
Y5700000D03*
Y5400000D03*
X7700000Y6600000D03*
Y6299520D03*
X7400000Y6600000D03*
Y6299520D03*
X8000000D03*
Y6600000D03*
X7700000Y7200000D03*
Y6900000D03*
X7400000Y7200000D03*
Y6900000D03*
X8000000D03*
Y7200000D03*
X7700000Y7800000D03*
Y7523180D03*
X7400000Y7800000D03*
Y7523180D03*
X8000000D03*
Y7800000D03*
X7700000Y8400000D03*
Y8100000D03*
X7400000Y8400000D03*
Y8100000D03*
X7890000Y8400000D03*
X7950000Y8560000D03*
Y8220000D03*
X7460000Y8740000D03*
X7860000D03*
X7960000D03*
X7760000D03*
X7660000D03*
X7560000D03*
X8160000Y60000D03*
X8260000D03*
X8360000D03*
X8060000D03*
X8460000D03*
X8660000D03*
X8560000D03*
X8660000Y140000D03*
X8420000Y160000D03*
X8230000Y230000D03*
Y570000D03*
X8170000Y410000D03*
X8420000Y640000D03*
X8610000Y570000D03*
X8600000Y220000D03*
X8650000Y410000D03*
X8200000Y1900000D03*
Y1600000D03*
Y2500000D03*
Y2200000D03*
Y3100000D03*
Y2800000D03*
X8640000Y3740000D03*
X8140000D03*
X8240000D03*
X8340000D03*
X8440000D03*
X8540000D03*
X8040000D03*
X8640000Y5060000D03*
X8440000D03*
X8540000D03*
X8340000D03*
X8240000D03*
X8140000D03*
X8040000D03*
X8300000Y6000000D03*
Y5700000D03*
Y5400000D03*
X8500000Y6000000D03*
Y5700000D03*
Y5400000D03*
X8300000Y6299520D03*
Y6600000D03*
X8500000Y6299520D03*
Y6600000D03*
X8300000Y6900000D03*
Y7200000D03*
X8500000Y6900000D03*
Y7200000D03*
X8300000Y7523180D03*
Y7800000D03*
X8500000Y7523180D03*
Y7800000D03*
X8370000Y8400000D03*
X8320000Y8210000D03*
X8330000Y8560000D03*
X8140000Y8630000D03*
Y8150000D03*
X8660000Y8640000D03*
X8560000D03*
X8460000D03*
X8660000Y8530000D03*
X8560000D03*
X8660000Y8440000D03*
X8560000D03*
X8660000Y8340000D03*
X8560000D03*
X8060000Y8740000D03*
X8260000D03*
X8360000D03*
X8460000D03*
X8160000D03*
X8560000D03*
X8660000D03*
X8740000Y140000D03*
Y240000D03*
Y340000D03*
Y740000D03*
Y440000D03*
Y540000D03*
Y640000D03*
Y1440000D03*
Y1340000D03*
Y1240000D03*
Y1140000D03*
Y840000D03*
Y940000D03*
Y1040000D03*
Y1540000D03*
Y1940000D03*
Y1640000D03*
Y1740000D03*
Y1840000D03*
Y2040000D03*
Y2640000D03*
Y2540000D03*
Y2440000D03*
Y2340000D03*
Y2140000D03*
Y2240000D03*
Y2740000D03*
Y3140000D03*
Y2840000D03*
Y2940000D03*
Y3040000D03*
Y3240000D03*
Y3340000D03*
Y3640000D03*
Y3540000D03*
Y3440000D03*
Y5140000D03*
Y5240000D03*
Y5340000D03*
Y6040000D03*
Y5540000D03*
Y5440000D03*
Y5940000D03*
Y5640000D03*
Y5740000D03*
Y5840000D03*
Y6240000D03*
Y6140000D03*
Y6340000D03*
Y6440000D03*
Y6540000D03*
Y6640000D03*
Y6740000D03*
Y7340000D03*
Y7240000D03*
Y7140000D03*
Y6840000D03*
Y6940000D03*
Y7040000D03*
Y7440000D03*
Y7540000D03*
Y7840000D03*
Y7740000D03*
Y7640000D03*
Y7940000D03*
Y8240000D03*
Y8140000D03*
Y8040000D03*
Y8340000D03*
Y8440000D03*
Y8540000D03*
Y8640000D03*
G54D20*
X1544000Y2244500D03*
Y2194500D03*
X4054000Y6894500D03*
Y6844500D03*
X6454000Y2234500D03*
Y2184500D03*
G54D30*
G01X3576200Y210000D02*
X3700000D01*
G01X3900000Y7390000D02*
X3898500Y7388500D01*
G01X4710000Y200000D02*
X4586200D01*
X4576200Y210000D01*
G01X4123800D02*
Y296200D01*
X4115000Y305000D01*
G54D12*
X800000Y840000D03*
X600000Y7800000D03*
X7900000Y300000D03*
X7500000Y8300000D03*
G54D21*
X1700000Y2890000D03*
X1600000D03*
X4230000Y7540000D03*
X4130000D03*
X6590000Y2880000D03*
X6490000D03*
G54D31*
G01X1953100Y1756200D02*
Y1649100D01*
G01X3120000Y350000D02*
X3123800Y346200D01*
G01D02*
Y210000D01*
G01X3276200D02*
X3423800D01*
G01X5073200Y1470400D02*
Y1413200D01*
X5000000Y1340000D01*
Y1270000D01*
X5028300Y1241700D01*
X5084500D01*
X5113190Y1270390D01*
Y1313190D01*
X5170000Y1370000D01*
Y1875470D01*
X4177300Y2868170D01*
Y2872700D01*
X4174000Y2876000D01*
Y3272950D01*
X3999950Y3447000D01*
G01X4423800Y210000D02*
X4276200D01*
G01X4400000Y3447000D02*
X4230000Y3277000D01*
Y2890000D01*
X5222700Y1897300D01*
Y1347370D01*
X5169190Y1293860D01*
Y1129180D01*
X5073200Y1033190D01*
Y920400D01*
G01X4460000Y6310000D02*
X4463100Y6313100D01*
G01D02*
Y6406200D01*
G01X5220000Y340000D02*
X5223800Y336200D01*
G01D02*
Y210000D01*
G01X5676200D02*
X5820000D01*
G01X5376200D02*
X5523800D01*
G01X6863100Y1746200D02*
Y1639100D01*
G54D13*
X1241900Y1756200D03*
X1394300D03*
X1178400Y2251500D03*
X1026000D03*
X1521300Y1756200D03*
X1673700D03*
X1800700D03*
X1953100D03*
X3123800Y210000D03*
X3276200D03*
X3423800D03*
X3576200D03*
X3751900Y6406200D03*
X3904300D03*
X4031300D03*
X3688400Y6901500D03*
X3536000D03*
X4423800Y210000D03*
X4576200D03*
X4123800D03*
X4276200D03*
X4183700Y6406200D03*
X4310700D03*
X4463100D03*
X5223800Y210000D03*
X5376200D03*
X5523800D03*
X5676200D03*
X5936000Y2241500D03*
X6151900Y1746200D03*
X6304300D03*
X6431300D03*
X6583700D03*
X6088400Y2241500D03*
X6710700Y1746200D03*
X6863100D03*
G54D22*
X2772290Y1799500D03*
X2195710D03*
X2772290Y2299500D03*
X2195710D03*
X4705710Y6509500D03*
Y7009500D03*
X5282290Y6509500D03*
Y7009500D03*
X7105710Y1789500D03*
Y2289500D03*
X7682290Y1789500D03*
Y2289500D03*
G54D32*
G01X1474000Y2144500D02*
Y2051800D01*
X1394300Y1972100D01*
Y1756200D01*
G01X1474000Y2336900D02*
X1384000Y2426900D01*
Y2493800D01*
X1388500Y2498300D01*
G01X1566500Y2129500D02*
Y2003100D01*
X1661000Y1908600D01*
X1927700D01*
X1954000Y1934900D01*
Y2013300D01*
G01X1619000Y2100260D02*
X1705960Y2013300D01*
X1824000D01*
G01X1521500Y2129500D02*
Y1908400D01*
X1572100Y1857800D01*
X1644240D01*
X1673700Y1828340D01*
Y1756200D01*
G01X1619000Y2294500D02*
X1667800Y2343300D01*
X1814000D01*
G01X1648300Y2619800D02*
Y2416600D01*
X1625200Y2393500D01*
X1599800D01*
G01D02*
X1566500Y2360200D01*
Y2309500D01*
G01X1521500D02*
Y2403690D01*
X1514000Y2411190D01*
Y2484500D01*
G01X1518500Y2498300D02*
Y2489000D01*
X1514000Y2484500D01*
G01X1474000Y2294500D02*
Y2336900D01*
G01X1619000Y2144500D02*
Y2100260D01*
G01X4031500Y6779500D02*
Y6558400D01*
X4082100Y6507800D01*
X4154240D01*
X4183700Y6478340D01*
Y6406200D01*
G01X3984000Y6794500D02*
Y6701800D01*
X3904300Y6622100D01*
Y6406200D01*
G01X3984000Y6944500D02*
Y6996480D01*
X3961000Y7019480D01*
X3941370D01*
X3898500Y7062350D01*
Y7148300D01*
G01X4028500D02*
X4023550Y7143350D01*
G01X4031500Y6959500D02*
Y7053690D01*
X4023550Y7061640D01*
Y7143350D01*
G01X4076500Y6779500D02*
Y6653100D01*
X4171000Y6558600D01*
X4437700D01*
X4464000Y6584900D01*
Y6663300D01*
G01X4076500Y6959500D02*
Y7010200D01*
X4109800Y7043500D01*
G01D02*
X4135200D01*
X4158300Y7066600D01*
Y7269800D01*
G01X4129000Y6944500D02*
X4177800Y6993300D01*
X4324000D01*
G01X4129000Y6794500D02*
Y6750260D01*
G01D02*
X4215960Y6663300D01*
X4334000D01*
G01X6384000Y2134500D02*
Y2041800D01*
X6304300Y1962100D01*
Y1746200D01*
G01X6431500Y2119500D02*
Y1898400D01*
X6482100Y1847800D01*
X6554240D01*
X6583700Y1818340D01*
Y1746200D01*
G01X6476500Y2119500D02*
Y1993100D01*
X6571000Y1898600D01*
X6837700D01*
X6864000Y1924900D01*
Y2003300D01*
G01X6529000Y2090260D02*
X6615960Y2003300D01*
X6734000D01*
G01X6558300Y2609800D02*
Y2406600D01*
X6535200Y2383500D01*
X6509800D01*
G01D02*
X6476500Y2350200D01*
Y2299500D01*
G01X6384000Y2284500D02*
Y2326900D01*
G01D02*
X6294000Y2416900D01*
Y2493300D01*
G01X6529000Y2284500D02*
X6577800Y2333300D01*
X6724000D01*
G01X6431500Y2299500D02*
Y2393690D01*
X6424000Y2401190D01*
Y2493300D01*
G01X6529000Y2134500D02*
Y2090260D01*
G54D23*
X2678000Y2760000D03*
X2262000D03*
X4772000Y7460000D03*
X5188000D03*
X7172000Y2740000D03*
X7588000D03*
G54D14*
X1388500Y2498300D03*
Y2650700D03*
X1954000Y2013300D03*
X1824000D03*
X1814000Y2343300D03*
Y2495700D03*
X1954000Y2165700D03*
X1824000D03*
X1518500Y2498300D03*
Y2650700D03*
X3898500Y7148300D03*
Y7300700D03*
X4028500Y7148300D03*
Y7300700D03*
X4464000Y6663300D03*
X4334000D03*
X4324000Y6993300D03*
Y7145700D03*
X4464000Y6815700D03*
X4334000D03*
X6294000Y2493300D03*
Y2645700D03*
X6424000Y2493300D03*
Y2645700D03*
X6864000Y2003300D03*
X6734000D03*
X6724000Y2333300D03*
Y2485700D03*
X6864000Y2155700D03*
X6734000D03*
G54D33*
G01X4669550Y3447000D02*
X4800050D01*
G01Y3316500D02*
Y3447000D01*
G01D02*
Y3577500D01*
G01Y3447000D02*
X4930550D01*
G01X5936000Y2170360D02*
Y2241500D01*
G01D02*
Y2312640D01*
G01X5861050Y2241500D02*
X5936000D01*
G01X5882510Y2359500D02*
Y2405000D01*
G01X5829510D02*
X5882510D01*
G01X6652860Y2485700D02*
X6724000D01*
G01X6424000Y2645700D02*
Y2720650D01*
G01Y2645700D02*
X6495140D01*
G01X6863100Y1746200D02*
Y1817340D01*
G01Y1746200D02*
X6938050D01*
G01X6724000Y2485700D02*
Y2560650D01*
G01Y2485700D02*
X6795140D01*
G01X7682290Y1632000D02*
Y1789500D01*
G01D02*
Y1947000D01*
G01Y1789500D02*
X7806770D01*
G01X7682290Y2132000D02*
Y2289500D01*
G01D02*
Y2447000D01*
G01Y2289500D02*
X7806770D01*
G01X7588000Y2624660D02*
Y2740000D01*
G01D02*
Y2855340D01*
G01X7450060Y2740000D02*
X7588000D01*
G01D02*
X7725940D01*
G54D24*
X3299700Y1440400D03*
Y950400D03*
X5322700Y1440400D03*
Y950400D03*
G54D15*
G01X3898500Y7300700D02*
X4028500D01*
G01X3898500Y7388500D02*
Y7300700D01*
X1070010Y2525000D03*
Y2415000D03*
X3590010Y7185000D03*
Y7075000D03*
X5980010Y2525000D03*
Y2415000D03*
G54D34*
G01X972510Y2359500D02*
Y2405000D01*
G01X919510D02*
X972510D01*
G01X1026000Y2180360D02*
Y2251500D01*
G01D02*
Y2322640D01*
G01X951050Y2251500D02*
X1026000D01*
G01X1518500Y2650700D02*
Y2725650D01*
G01Y2650700D02*
X1589640D01*
G01X1814000Y2495700D02*
Y2570650D01*
G01X1742860Y2495700D02*
X1814000D01*
G01X2678000Y2644660D02*
Y2760000D01*
G01D02*
Y2875340D01*
G01X2540060Y2760000D02*
X2678000D01*
G01D02*
X2815940D01*
G01X2772290Y1642000D02*
Y1799500D01*
G01D02*
Y1957000D01*
G01Y1799500D02*
X2896770D01*
G01X2772290Y2142000D02*
Y2299500D01*
G01D02*
Y2457000D01*
G01Y2299500D02*
X2896770D01*
G01X3803200Y1384900D02*
Y1470400D01*
G01X3676200Y1384900D02*
Y1470400D01*
G01X3549200Y1384900D02*
Y1470400D01*
G01X3930200Y1384900D02*
Y1470400D01*
G01X3803200D02*
Y1555900D01*
G01X3676200Y1470400D02*
Y1555900D01*
G01X3549200Y1470400D02*
Y1555900D01*
G01X3478700Y1470400D02*
X3549200D01*
G01X3930200D02*
Y1555900D01*
G01X3599900Y3316500D02*
Y3447000D01*
G01D02*
Y3577500D01*
G01X3469400Y3447000D02*
X3599900D01*
G01D02*
X3730400D01*
G01X3999950Y5539500D02*
Y5670000D01*
G01D02*
Y5800500D01*
G01Y5670000D02*
X4130450D01*
G01X3599900D02*
Y5800500D01*
G01X3469400Y5670000D02*
X3599900D01*
G01D02*
X3730400D01*
G01X3492510Y7019500D02*
Y7065000D01*
G01X3439510D02*
X3492510D01*
G01X4028500Y7300700D02*
Y7375650D01*
G01Y7300700D02*
X4099640D01*
G01X3536000Y6830360D02*
Y6901500D01*
G01D02*
Y6972640D01*
G01X3461050Y6901500D02*
X3536000D01*
G01X4669550Y5670000D02*
X4800050D01*
G01X4324000Y7145700D02*
Y7220650D01*
G01X4252860Y7145700D02*
X4324000D01*
G01X4800050Y5539500D02*
Y5670000D01*
G01D02*
Y5800500D01*
G01Y5670000D02*
X4930550D01*
G01X5200100Y5539500D02*
Y5670000D01*
G01D02*
Y5800500D01*
G01X5069600Y5670000D02*
X5200100D01*
G01D02*
X5330600D01*
G01X5282290Y6352000D02*
Y6509500D01*
G01D02*
Y6667000D01*
G01Y6509500D02*
X5406770D01*
G01X5282290Y6852000D02*
Y7009500D01*
G01D02*
Y7167000D01*
G01Y7009500D02*
X5406770D01*
G01X5188000Y7344660D02*
Y7460000D01*
G01D02*
Y7575340D01*
G01X5050060Y7460000D02*
X5188000D01*
G01D02*
X5325940D01*
G54D25*
X3328200Y1195400D03*
X5294200D03*
G54D16*
X1167510Y2535000D03*
Y2470000D03*
Y2405000D03*
X972510D03*
Y2470000D03*
Y2535000D03*
X3687510Y7195000D03*
Y7130000D03*
Y7065000D03*
X3492510D03*
Y7130000D03*
Y7195000D03*
X5882510Y2405000D03*
Y2470000D03*
Y2535000D03*
X6077510D03*
Y2470000D03*
Y2405000D03*
G54D35*
G01X1394300Y1756200D02*
X1521300D01*
G01X1673700D02*
X1800700D01*
G01X3904300Y6406200D02*
X4031300D01*
G01X4183700D02*
X4310700D01*
G01X6304300Y1746200D02*
X6431300D01*
G01X6583700D02*
X6710700D01*
G54D26*
X3099770Y3447000D03*
Y4400000D03*
Y5670000D03*
X5700230Y3447000D03*
Y4400000D03*
Y5670000D03*
G54D17*
X1474000Y2294500D03*
Y2144500D03*
X3984000Y6944500D03*
Y6794500D03*
X6384000Y2284500D03*
Y2134500D03*
G54D36*
G01X0Y100000D02*
Y3700000D01*
G02X100000Y3800000I100000J0D01*
G01X900000D01*
G03X1000000Y3900000I0J100000D01*
G01Y4900000D01*
G03X900000Y5000000I-100000J0D01*
G01X100000D01*
G02X0Y5100000I0J100000D01*
G01Y8700000D01*
G02X100000Y8800000I100000J0D01*
G01X3700000D01*
G02X3800000Y8700000I0J-100000D01*
G01Y7900000D01*
G03X3900000Y7800000I100000J0D01*
G01X4900000D01*
G03X5000000Y7900000I0J100000D01*
G01Y8700000D01*
G02X5100000Y8800000I100000J0D01*
G01X8700000D01*
G02X8800000Y8700000I0J-100000D01*
G01Y5100000D01*
G02X8700000Y5000000I-100000J0D01*
G01X7900000D01*
G03X7800000Y4900000I0J-100000D01*
G01Y3900000D01*
G03X7900000Y3800000I100000J0D01*
G01X8700000D01*
G02X8800000Y3700000I0J-100000D01*
G01Y100000D01*
G02X8700000Y0I-100000J0D01*
G01X7800000D01*
G02X7700000Y100000I0J100000D01*
G01Y900000D01*
G03X7600000Y1000000I-100000J0D01*
G01X6400000D01*
G03X6300000Y900000I0J-100000D01*
G01Y100000D01*
G02X6200000Y0I-100000J0D01*
G01X2600000D01*
G02X2500000Y100000I0J100000D01*
G01Y900000D01*
G03X2400000Y1000000I-100000J0D01*
G01X1200000D01*
G03X1100000Y900000I0J-100000D01*
G01Y100000D01*
G02X1000000Y0I-100000J0D01*
G01X100000D01*
G02X0Y100000I0J100000D01*
G54D18*
X1521500Y2309500D03*
X1566500D03*
Y2129500D03*
X1521500D03*
X4031500Y6959500D03*
Y6779500D03*
X4076500Y6959500D03*
Y6779500D03*
X6431500Y2299500D03*
X6476500D03*
Y2119500D03*
X6431500D03*
G54D27*
X4057200Y920400D03*
X3549200D03*
X3676200D03*
X3803200D03*
X3930200D03*
X4057200Y1470400D03*
X3549200D03*
X3676200D03*
X3803200D03*
X3930200D03*
X4184200Y920400D03*
X4311200D03*
X4438200D03*
X4565200D03*
X4692200D03*
X4184200Y1470400D03*
X4311200D03*
X4438200D03*
X4565200D03*
X4692200D03*
X4819200Y920400D03*
X4946200D03*
X5073200D03*
X4819200Y1470400D03*
X4946200D03*
X5073200D03*
G54D28*
X3999950Y3447000D03*
Y4400000D03*
Y5670000D03*
X4400000Y3447000D03*
Y4400000D03*
Y5670000D03*
X5200100Y3447000D03*
X4800050D03*
X5200100Y4400000D03*
X4800050D03*
X5200100Y5670000D03*
X4800050D03*
G54D19*
X1619000Y2294500D03*
Y2144500D03*
X4129000Y6944500D03*
Y6794500D03*
X6529000Y2284500D03*
Y2134500D03*
G54D29*
X3599900Y3447000D03*
Y4400000D03*
Y5670000D03*
M02*
