G04 ================== begin FILE IDENTIFICATION RECORD ==================*
G04 Layout Name:  D:/0_Working/1_Hardware/42_Adaptor/2_Layout/Adaptor_V100.brd*
G04 Film Name:    ADAPTOR_ver1.0.0_SMASK_BOTTOM.art*
G04 File Format:  Gerber RS274X*
G04 File Origin:  Cadence Allegro 17.2-S052*
G04 Origin Date:  Fri Oct 04 17:12:52 2024*
G04 *
G04 Layer:  BOARD GEOMETRY/DESIGN_OUTLINE*
G04 Layer:  PIN/SOLDERMASK_BOTTOM*
G04 Layer:  VIA CLASS/SOLDERMASK_BOTTOM*
G04 Layer:  PACKAGE GEOMETRY/SOLDERMASK_BOTTOM*
G04 Layer:  BOARD GEOMETRY/SOLDERMASK_BOTTOM*
G04 *
G04 Offset:    (0.0000 0.0000)*
G04 Mirror:    No*
G04 Mode:      Positive*
G04 Rotation:  0*
G04 FullContactRelief:  No*
G04 UndefLineWidth:     0.1270*
G04 ================== end FILE IDENTIFICATION RECORD ====================*
%FSLAX25Y25*MOIN*%
%IR0*IPPOS*OFA0.00000B0.00000*MIA0B0*SFA1.00000B1.00000*%
%ADD11C,.023685*%
%ADD14C,.094488*%
%ADD12C,.066933*%
%ADD13C,.216535*%
%ADD15R,.094488X.094488*%
%ADD10C,.257874*%
%ADD16C,.005*%
G75*
%LPD*%
G75*
G36*
G01X226772Y353543D02*
X349606D01*
G02X353543Y349606I0J-3937D01*
G01Y217323D01*
G02X349606Y213386I-3937J0D01*
G03X345669Y209449I0J-3937D01*
G01Y140157D01*
G03X349606Y136220I3937J0D01*
G02X353543Y132283I0J-3937D01*
G01Y4724D01*
G02X349606Y787I-3937J0D01*
G01X226772D01*
G02X222835Y4724I0J3937D01*
G01Y8268D01*
G03X218898Y12205I-3937J0D01*
G01X144882D01*
G03X140945Y8268I0J-3937D01*
G01Y4724D01*
G02X137008Y787I-3937J0D01*
G01X4724D01*
G02X787Y4724I0J3937D01*
G01Y132283D01*
G02X4724Y136220I3937J0D01*
G03X8661Y140157I0J3937D01*
G01Y214173D01*
G03X4724Y218110I-3937J0D01*
G02X787Y222047I0J3937D01*
G01Y349606D01*
G02X4724Y353543I3937J0D01*
G01X137008D01*
G02X140945Y349606I0J-3937D01*
G01Y345669D01*
G03X144882Y341732I3937J0D01*
G01X218898D01*
G03X222835Y345669I0J3937D01*
G01Y349606D01*
G02X226772Y353543I3937J0D01*
G37*
%LPC*%
G75*
G36*
G01X226772Y345669D02*
G02X230709Y349606I3937J0D01*
G01X314961D01*
G02X318898Y345669I0J-3937D01*
G01Y329134D01*
X345669D01*
G02X349606Y325197I0J-3937D01*
G01Y221260D01*
G02X345669Y217323I-3937J0D01*
G03X341732Y213386I0J-3937D01*
G01Y136220D01*
G03X345669Y132283I3937J0D01*
G02X349606Y128346I0J-3937D01*
G01Y29921D01*
G02X345669Y25984I-3937J0D01*
G01X329134D01*
Y8661D01*
G02X325197Y4724I-3937J0D01*
G01X230709D01*
G02X226772Y8661I0J3937D01*
G01Y11811D01*
G03X222835Y15748I-3937J0D01*
G01X140945D01*
G03X137008Y11811I0J-3937D01*
G01Y8661D01*
G02X133071Y4724I-3937J0D01*
G01X28346D01*
G02X24409Y8661I0J3937D01*
G01Y24409D01*
X8661D01*
G02X4724Y28346I0J3937D01*
G01Y128346D01*
G02X8661Y132283I3937J0D01*
G03X12598Y136220I0J3937D01*
G01Y218110D01*
G03X8661Y222047I-3937J0D01*
G02X4724Y225984I0J3937D01*
G01Y249606D01*
G02X8661Y253543I3937J0D01*
G01X25984D01*
G03X29921Y257480I0J3937D01*
G01Y277953D01*
G03X25984Y281890I-3937J0D01*
G01X8661D01*
G02X4724Y285827I0J3937D01*
G01Y324409D01*
G02X8661Y328346I3937J0D01*
G01X40945D01*
Y345669D01*
G02X44882Y349606I3937J0D01*
G01X133071D01*
G02X137008Y345669I0J-3937D01*
G01Y341732D01*
G03X140945Y337795I3937J0D01*
G01X222835D01*
G03X226772Y341732I0J3937D01*
G01Y345669D01*
G37*
%LPD*%
G75*
G54D10*
X20000Y20000D03*
X15748Y267717D03*
X35354Y334331D03*
X324331D03*
X335000Y20000D03*
G54D11*
X46063Y103346D03*
Y99016D03*
X145276Y301772D03*
Y297441D03*
X239370Y103346D03*
Y99016D03*
G54D12*
X134969Y51000D03*
X212370D03*
G54D13*
X125975Y139646D03*
Y177165D03*
Y227165D03*
X228356Y139646D03*
Y177165D03*
Y227165D03*
G54D14*
X161415Y139646D03*
Y177165D03*
Y227165D03*
X177165Y139646D03*
Y177165D03*
Y227165D03*
X208665Y139646D03*
X192915D03*
X208665Y177165D03*
X192915D03*
X208665Y227165D03*
X192915D03*
G54D15*
X145665Y139646D03*
Y177165D03*
Y227165D03*
G54D16*
G01X354331Y349606D02*
Y217047D01*
G02X349606Y212323I-4724J0D01*
G03X346772Y209488I0J-2835D01*
G01Y140236D01*
G03X349606Y137402I2835J0D01*
G02X354331Y132677I0J-4724D01*
G01Y4724D01*
G02X349606Y0I-4724J0D01*
G01X226732D01*
G02X222008Y4724I0J4724D01*
G01Y6811D01*
G03X217283Y11535I-4724J0D01*
G01X146732D01*
G03X142008Y6811I0J-4724D01*
G01Y4724D01*
G02X137283Y0I-4724J0D01*
G01X4724D01*
G02X0Y4724I0J4724D01*
G01Y132598D01*
G02X4724Y137323I4724J0D01*
G03X7559Y140157I0J2835D01*
G01Y214094D01*
G03X4724Y216929I-2835J0D01*
G02X0Y221654I0J4724D01*
G01Y349606D01*
G02X4724Y354331I4724J0D01*
G01X137283D01*
G02X142008Y349606I0J-4724D01*
G01Y347480D01*
G03X146732Y342756I4724J0D01*
G01X217283D01*
G03X222008Y347480I0J4724D01*
G01Y349606D01*
G02X226732Y354331I4724J0D01*
G01X349606D01*
G02X354331Y349606I0J-4724D01*
M02*
