G04 ================== begin FILE IDENTIFICATION RECORD ==================*
G04 Layout Name:  D:/0_Working/1_Hardware/42_Adaptor/2_Layout/Adaptor_V100.brd*
G04 Film Name:    ADAPTOR_ver1.0.0_BOTTOM.art*
G04 File Format:  Gerber RS274X*
G04 File Origin:  Cadence Allegro 17.2-S052*
G04 Origin Date:  Fri Oct 04 17:12:52 2024*
G04 *
G04 Layer:  BOARD GEOMETRY/DESIGN_OUTLINE*
G04 Layer:  ETCH/BOTTOM*
G04 Layer:  PIN/BOTTOM*
G04 Layer:  VIA CLASS/BOTTOM*
G04 *
G04 Offset:    (0.0000 0.0000)*
G04 Mirror:    No*
G04 Mode:      Positive*
G04 Rotation:  0*
G04 FullContactRelief:  No*
G04 UndefLineWidth:     0.1270*
G04 ================== end FILE IDENTIFICATION RECORD ====================*
%FSLAX25Y25*MOIN*%
%IR0*IPPOS*OFA0.00000B0.00000*MIA0B0*SFA1.00000B1.00000*%
%ADD12C,.019685*%
%ADD11C,.024*%
%ADD15C,.07874*%
%ADD16R,.07874X.07874*%
%ADD14C,.208701*%
%ADD13C,.066933*%
%ADD10C,.25*%
%ADD17C,.011811*%
%ADD18C,.017087*%
%ADD19C,.026772*%
%ADD20C,.005*%
%ADD23C,.098756*%
%ADD25C,.242339*%
%ADD22C,.100575*%
%ADD24C,.112378*%
%ADD21C,.159433*%
G75*
%LPD*%
G75*
G36*
G01X349606Y353543D02*
G02X353543Y349606I0J-3937D01*
G01Y217323D01*
G02X349606Y213386I-3937J0D01*
G03X345669Y209449I0J-3937D01*
G01Y140157D01*
G03X349606Y136220I3937J0D01*
G02X353543Y132283I0J-3937D01*
G01Y4724D01*
G02X349606Y787I-3937J0D01*
G01X226772D01*
G02X222835Y4724I0J3937D01*
G01Y8268D01*
G03X218898Y12205I-3937J0D01*
G01X144882D01*
G03X140945Y8268I0J-3937D01*
G01Y4724D01*
G02X137008Y787I-3937J0D01*
G01X4724D01*
G02X787Y4724I0J3937D01*
G01Y132283D01*
G02X4724Y136220I3937J0D01*
G03X8661Y140157I0J3937D01*
G01Y214173D01*
G03X4724Y218110I-3937J0D01*
G02X787Y222047I0J3937D01*
G01Y349606D01*
G02X4724Y353543I3937J0D01*
G01X137008D01*
G02X140945Y349606I0J-3937D01*
G01Y345669D01*
G03X144882Y341732I3937J0D01*
G01X218898D01*
G03X222835Y345669I0J3937D01*
G01Y349606D01*
G02X226772Y353543I3937J0D01*
G01X349606D01*
G37*
%LPC*%
G75*
G36*
G01X226772Y341732D02*
Y345669D01*
G02X230709Y349606I3937J0D01*
G01X314961D01*
G02X318898Y345669I0J-3937D01*
G01Y342126D01*
X327165D01*
X331890Y337402D01*
Y329134D01*
X345669D01*
G02X349606Y325197I0J-3937D01*
G01Y221260D01*
G02X345669Y217323I-3937J0D01*
G03X341732Y213386I0J-3937D01*
G01Y136220D01*
G03X345669Y132283I3937J0D01*
G02X349606Y128346I0J-3937D01*
G01Y29921D01*
G02X345669Y25984I-3937J0D01*
G01X342913D01*
Y16535D01*
X338583Y12205D01*
X329134D01*
Y8661D01*
G02X325197Y4724I-3937J0D01*
G01X230709D01*
G02X226772Y8661I0J3937D01*
G01Y11811D01*
G03X222835Y15748I-3937J0D01*
G01X140945D01*
G03X137008Y11811I0J-3937D01*
G01Y8661D01*
G02X133071Y4724I-3937J0D01*
G01X116062D01*
X116048Y4722D01*
G02X115798Y4705I-250J1755D01*
G01X113336D01*
G02X113086Y4722I0J1772D01*
G01X113072Y4724D01*
X28346D01*
G02X24409Y8661I0J3937D01*
G01Y12598D01*
X16535D01*
X12992Y16142D01*
Y24409D01*
X8661D01*
G02X4724Y28346I0J3937D01*
G01Y128346D01*
G02X8661Y132283I3937J0D01*
G03X12598Y136220I0J3937D01*
G01Y218110D01*
G03X8661Y222047I-3937J0D01*
G02X4724Y225984I0J3937D01*
G01Y249606D01*
G02X8661Y253543I3937J0D01*
G01X25984D01*
G03X29921Y257480I0J3937D01*
G01Y277953D01*
G03X25984Y281890I-3937J0D01*
G01X8661D01*
G02X4724Y285827I0J3937D01*
G01Y324409D01*
G02X8661Y328346I3937J0D01*
G01X26378D01*
Y337008D01*
X31102Y341732D01*
X40945D01*
Y345669D01*
G02X44882Y349606I3937J0D01*
G01X133071D01*
G02X137008Y345669I0J-3937D01*
G01Y341732D01*
G03X140945Y337795I3937J0D01*
G01X222835D01*
G03X226772Y341732I0J3937D01*
G37*
G54D21*
X15354Y267717D03*
%LPD*%
G75*
G36*
G01X6709Y240157D02*
X164909D01*
X167306Y237761D01*
Y229630D01*
G02X166541Y229467I-400J0D01*
G03X161415Y232784I-5126J-2301D01*
G03Y221546I0J-5619D01*
G03X166541Y224864I0J5619D01*
G02X167306Y224700I365J-164D01*
G01Y222406D01*
X171619Y218094D01*
X181531D01*
X186237Y222800D01*
Y238942D01*
X186255Y238960D01*
X223175D01*
G02X223341Y238196I0J-400D01*
G03X216239Y227165I5015J-11030D01*
G03X240472I12117J0D01*
G03X233370Y238196I-12117J0D01*
G02X233536Y238960I166J364D01*
G01X238548D01*
X241716Y235792D01*
Y195653D01*
X239764Y193701D01*
X114173D01*
X112205Y191732D01*
Y122441D01*
X114173Y120472D01*
X155118D01*
X157087Y118504D01*
Y79986D01*
X155046Y77945D01*
G03X154527Y76692I1253J-1253D01*
G01Y27900D01*
X154384Y27757D01*
X125591D01*
G03X124337Y27237I0J-1772D01*
G01X114922Y17822D01*
X114828Y17831D01*
G03X114569Y17843I-261J-2870D01*
G01X114567D01*
G03X111685Y14961I0J-2882D01*
G03X113002Y12541I2882J0D01*
G02Y11869I-217J-336D01*
G03X111978Y10716I1565J-2420D01*
G01X111964Y10686D01*
X111799Y10521D01*
X111617Y10702D01*
G03X110364Y11221I-1253J-1253D01*
G01X103490D01*
X100106Y14606D01*
X100114Y14699D01*
G03X100126Y14959I-2870J261D01*
G01Y14961D01*
G03X97244Y12079I-2882J0D01*
G01X97246D01*
G03X97506Y12091I-1J2882D01*
G01X97599Y12099D01*
X101503Y8196D01*
G03X102756Y7676I1253J1253D01*
G01X109630D01*
X109914Y7392D01*
G02X109631Y6709I-283J-283D01*
G01X28346D01*
G02X27152Y7117I0J1952D01*
G02X27194Y7778I245J316D01*
G03X34182Y20000I-7194J12222D01*
G03X20000Y34182I-14182J0D01*
G03X7778Y27194I0J-14182D01*
G02X7117Y27152I-345J203D01*
G02X6709Y28346I1544J1194D01*
G01Y128346D01*
G02X8661Y130298I1952J0D01*
G03X14583Y136220I0J5922D01*
G01Y218110D01*
G03X8661Y224032I-5922J0D01*
G02X6709Y225984I0J1952D01*
G01Y240157D01*
G37*
G36*
G01X202756Y132283D02*
Y156299D01*
X209449Y162992D01*
X240157D01*
X243701Y166535D01*
Y236614D01*
X239370Y240945D01*
X185433D01*
X184252Y239764D01*
Y223622D01*
X180709Y220079D01*
X172441D01*
X169291Y223228D01*
Y238583D01*
X165354Y242520D01*
X4331D01*
X2362Y244488D01*
Y279921D01*
X3543Y281102D01*
X26772D01*
X29134Y278740D01*
Y255512D01*
X33465Y251181D01*
X250787D01*
X257087Y244882D01*
Y161417D01*
X250394Y154724D01*
X218898D01*
X212992Y148819D01*
Y132283D01*
X202756D01*
G37*
G36*
G01X256350Y157874D02*
X312598D01*
X315748Y154724D01*
Y64173D01*
X310630Y59055D01*
X301181D01*
X297244Y55118D01*
Y31496D01*
X294488Y28740D01*
X195276D01*
X193452Y30563D01*
G02X193594Y30905I141J141D01*
G01X193789D01*
X193849Y30833D01*
G03X196063Y29795I2214J1844D01*
G03Y35559I0J2882D01*
G03X193791Y34450I0J-2882D01*
G01X192860D01*
X191930Y35380D01*
Y77165D01*
G03X191411Y78419I-1772J0D01*
G01X190033Y79796D01*
G03X188780Y80315I-1253J-1253D01*
G01X163267D01*
G03X162727Y80230I1J-1772D01*
G02X162205Y80611I-122J381D01*
G01Y123622D01*
X160236Y125591D01*
X139764D01*
X138583Y126772D01*
Y156299D01*
X140157Y157874D01*
X200558D01*
G02X200841Y157191I0J-400D01*
G01X200771Y157121D01*
Y130298D01*
X214977D01*
Y147997D01*
X219720Y152739D01*
X251216D01*
X256350Y157874D01*
G37*
G36*
G01X230709Y347621D02*
X314961D01*
G02X316793Y346343I0J-1952D01*
G03X310149Y334331I7538J-12013D01*
G03X324331Y320149I14182J0D01*
G03X336559Y327149I0J14182D01*
G01X345669D01*
G02X347621Y325197I0J-1952D01*
G01Y221260D01*
G02X345669Y219308I-1952J0D01*
G03X339747Y213386I0J-5922D01*
G01Y136220D01*
G03X345669Y130298I5922J0D01*
G02X347621Y128346I0J-1952D01*
G01Y29921D01*
G02X346576Y28193I-1952J0D01*
G03X335000Y34182I-11576J-8192D01*
G03X320818Y20000I0J-14182D01*
G03X327099Y8223I14182J0D01*
G02X325197Y6709I-1902J438D01*
G01X230709D01*
G02X228757Y8661I0J1952D01*
G01Y11811D01*
G03X222835Y17733I-5922J0D01*
G01X165731D01*
X161811Y21654D01*
Y72441D01*
X166140Y76770D01*
X183860D01*
X187795Y72835D01*
Y33465D01*
X188172Y33087D01*
Y33036D01*
X194454Y26755D01*
X194505D01*
X195276Y25984D01*
X296063D01*
X299213Y29134D01*
Y30657D01*
X299229Y30674D01*
Y52772D01*
X303150Y56693D01*
X313386D01*
X319685Y62992D01*
Y159055D01*
X316929Y161811D01*
X264173D01*
X261024Y164961D01*
Y253543D01*
X37008D01*
X35039Y255512D01*
Y283071D01*
X31496Y286614D01*
X6709D01*
Y324409D01*
G02X8661Y326361I1952J0D01*
G01X23623D01*
G03X35354Y320149I11731J7969D01*
G03X49536Y334331I0J14182D01*
G03X43022Y346261I-14181J0D01*
G02X44882Y347621I1860J-592D01*
G01X133071D01*
G02X135023Y345669I0J-1952D01*
G01Y341732D01*
G03X140945Y335810I5922J0D01*
G01X222835D01*
G03X228757Y341732I0J5922D01*
G01Y345669D01*
G02X230709Y347621I1952J0D01*
G37*
%LPC*%
G75*
G36*
G01X45231Y101544D02*
G02X44078Y103346I833J1802D01*
G02X48048I1985J0D01*
G02X46896Y101544I-1985J0D01*
G03Y100818I168J-363D01*
G02X48048Y99016I-833J-1802D01*
G02X44078I-1985J0D01*
G02X45231Y100818I1985J0D01*
G03Y101544I-168J363D01*
G37*
G36*
G01X140046Y231102D02*
G02X141728Y232784I1682J0D01*
G01X149602D01*
G02X151284Y231102I0J-1682D01*
G01Y223228D01*
G02X149602Y221546I-1682J0D01*
G01X141728D01*
G02X140046Y223228I0J1682D01*
G01Y231102D01*
G37*
G36*
G01X140228Y135709D02*
Y143583D01*
G02X141728Y145083I1501J0D01*
G01X149602D01*
G02X151103Y143583I0J-1501D01*
G01Y135709D01*
G02X149602Y134208I-1501J0D01*
G01X141728D01*
G02X140228Y135709I0J1501D01*
G37*
G36*
G01X238538Y101544D02*
G02X237385Y103346I833J1802D01*
G02X241356I1985J0D01*
G02X240203Y101544I-1985J0D01*
G03Y100818I168J-363D01*
G02X241356Y99016I-833J-1802D01*
G02X237385I-1985J0D01*
G02X238538Y100818I1985J0D01*
G03Y101544I-168J363D01*
G37*
G36*
G01X144444Y299969D02*
G02X143291Y301772I833J1802D01*
G02X147261I1985J0D01*
G02X146108Y299969I-1985J0D01*
G03Y299243I168J-363D01*
G02X147261Y297441I-833J-1802D01*
G02X143291I-1985J0D01*
G02X144444Y299243I1985J0D01*
G03Y299969I-168J363D01*
G37*
G54D23*
X192915Y227165D03*
Y139646D03*
G54D25*
X125975Y227165D03*
X228356Y139646D03*
G54D22*
X134969Y51000D03*
X212370D03*
G54D24*
X208665Y227165D03*
X177165Y139646D03*
X161415D03*
%LPD*%
G75*
G54D10*
X20000Y20000D03*
X15748Y267717D03*
X35354Y334331D03*
X324331D03*
X335000Y20000D03*
G54D20*
G01X354331Y349606D02*
Y217047D01*
G02X349606Y212323I-4724J0D01*
G03X346772Y209488I0J-2835D01*
G01Y140236D01*
G03X349606Y137402I2835J0D01*
G02X354331Y132677I0J-4724D01*
G01Y4724D01*
G02X349606Y0I-4724J0D01*
G01X226732D01*
G02X222008Y4724I0J4724D01*
G01Y6811D01*
G03X217283Y11535I-4724J0D01*
G01X146732D01*
G03X142008Y6811I0J-4724D01*
G01Y4724D01*
G02X137283Y0I-4724J0D01*
G01X4724D01*
G02X0Y4724I0J4724D01*
G01Y132598D01*
G02X4724Y137323I4724J0D01*
G03X7559Y140157I0J2835D01*
G01Y214094D01*
G03X4724Y216929I-2835J0D01*
G02X0Y221654I0J4724D01*
G01Y349606D01*
G02X4724Y354331I4724J0D01*
G01X137283D01*
G02X142008Y349606I0J-4724D01*
G01Y347480D01*
G03X146732Y342756I4724J0D01*
G01X217283D01*
G03X222008Y347480I0J4724D01*
G01Y349606D01*
G02X226732Y354331I4724J0D01*
G01X349606D01*
G02X354331Y349606I0J-4724D01*
G54D11*
X2953Y5906D03*
X5906D03*
Y2953D03*
X2953Y25591D03*
Y17717D03*
Y21654D03*
Y33465D03*
Y29528D03*
Y9843D03*
Y13780D03*
X5906D03*
Y21654D03*
Y17717D03*
Y9843D03*
X7874Y43307D03*
Y55118D03*
X2953Y57087D03*
Y61024D03*
Y49213D03*
Y41339D03*
Y45276D03*
Y37402D03*
Y53150D03*
X7874Y78740D03*
Y66929D03*
X2953Y64961D03*
Y80709D03*
Y84646D03*
Y72835D03*
Y76772D03*
Y68898D03*
X7874Y102362D03*
Y90551D03*
X2953Y104331D03*
Y96457D03*
Y100394D03*
Y112205D03*
Y108268D03*
Y88583D03*
Y92520D03*
X7874Y114173D03*
X2953Y127953D03*
Y120079D03*
Y124016D03*
Y116142D03*
Y131890D03*
X5906Y133858D03*
X2953Y238189D03*
Y234252D03*
Y242126D03*
X5906Y220472D03*
X2953Y224409D03*
Y228346D03*
X8303Y260634D03*
X5941Y267720D03*
X2953Y246063D03*
Y253937D03*
Y250000D03*
Y261811D03*
X7874Y254921D03*
X4062Y257874D03*
X7874Y291339D03*
X8303Y274020D03*
X2953Y277559D03*
Y273622D03*
Y285433D03*
Y281496D03*
Y293307D03*
Y289370D03*
X6890Y279528D03*
X7874Y314961D03*
Y303150D03*
X2953Y312992D03*
Y316929D03*
Y301181D03*
Y297244D03*
Y305118D03*
Y309055D03*
Y344488D03*
Y336614D03*
Y340551D03*
Y328740D03*
Y332677D03*
Y320866D03*
Y324803D03*
X5906Y340551D03*
Y344488D03*
Y332677D03*
Y328740D03*
Y336614D03*
X2953Y348425D03*
X5906Y351378D03*
Y348425D03*
X13780Y2953D03*
X9843D03*
X21654D03*
X17717D03*
X29528D03*
X25591D03*
X33465D03*
X9843Y5906D03*
X13780D03*
X17717D03*
X21654D03*
X31496Y31496D03*
X29134Y20079D03*
X27165Y12598D03*
X27559Y26378D03*
X20079Y29134D03*
X10236Y20079D03*
X12598Y26378D03*
Y12992D03*
X20079Y10236D03*
X9843Y9843D03*
X19685Y43307D03*
X31496D03*
X19685Y55118D03*
X31496D03*
X19685Y78740D03*
Y66929D03*
X31496D03*
Y78740D03*
X19685Y102362D03*
Y90551D03*
X31496D03*
Y102362D03*
X19685Y114173D03*
Y137795D03*
Y125984D03*
X31496Y137795D03*
Y125984D03*
Y114173D03*
X9843Y136811D03*
X19685Y161417D03*
Y149606D03*
X31496Y161417D03*
Y149606D03*
X10827D03*
Y141732D03*
Y145669D03*
Y157480D03*
Y161417D03*
Y153543D03*
X19685Y173228D03*
X31496D03*
Y185039D03*
X19685D03*
X10827D03*
Y181102D03*
Y188976D03*
Y173228D03*
Y165354D03*
Y169291D03*
Y177165D03*
X31496Y196850D03*
Y208661D03*
X19685Y196850D03*
Y208661D03*
X10827Y192913D03*
Y200787D03*
Y196850D03*
Y208661D03*
Y204724D03*
Y212598D03*
Y216535D03*
X22870Y260240D03*
X24839Y267720D03*
X15783Y257878D03*
X27559Y257874D03*
X24606Y254921D03*
X19685Y291339D03*
X31496D03*
X23264Y274020D03*
X15783Y276776D03*
X24606Y279528D03*
X27559Y276575D03*
X19685Y303150D03*
Y314961D03*
X31496D03*
Y303150D03*
X35433Y343701D03*
X25591Y334646D03*
X27953Y327559D03*
X35433Y324803D03*
X27953Y340945D03*
X9843Y340551D03*
Y344488D03*
X13780Y340551D03*
Y344488D03*
X21654D03*
Y340551D03*
X17717Y344488D03*
Y340551D03*
X9843Y332677D03*
Y336614D03*
X17717Y332677D03*
X13780D03*
X17717Y336614D03*
X13780D03*
X21654D03*
Y332677D03*
X25591Y344488D03*
X21654Y351378D03*
X29528D03*
X25591D03*
X33465D03*
X13780D03*
X9843D03*
X17717D03*
X9843Y348425D03*
X13780D03*
X21654D03*
X17717D03*
X25591D03*
X29528D03*
X33465D03*
X43307Y7874D03*
X55118D03*
X53150Y2953D03*
X57087D03*
X45276D03*
X49213D03*
X37402D03*
X41339D03*
X61024D03*
X43307Y31496D03*
Y19685D03*
X55118D03*
Y31496D03*
X43307Y55118D03*
Y43307D03*
X55118D03*
Y55118D03*
X40098Y91122D03*
Y95846D03*
Y99783D03*
Y103720D03*
Y108445D03*
X43307Y137795D03*
Y161417D03*
Y149606D03*
Y173228D03*
Y185039D03*
X55118D03*
X43307Y196850D03*
Y208661D03*
X55118D03*
Y196850D03*
X43307Y291339D03*
X55118D03*
X43307Y314961D03*
Y303150D03*
X55118D03*
Y314961D03*
Y326772D03*
Y338583D03*
X44488Y334646D03*
X42520Y327165D03*
X42913Y340945D03*
X57087Y351378D03*
X61024D03*
X49213D03*
X45276D03*
X41339D03*
X37402D03*
X53150D03*
X37402Y348425D03*
X80709Y2953D03*
X84646D03*
X72835D03*
X76772D03*
X64961D03*
X68898D03*
X66929Y31496D03*
Y19685D03*
X78740Y31496D03*
X66929Y55118D03*
Y43307D03*
X78740D03*
Y55118D03*
X80831Y68862D03*
X75138Y106476D03*
Y109626D03*
X71594D03*
X67657D03*
X78740Y137795D03*
X66929D03*
Y149606D03*
X78740D03*
Y161417D03*
X66929Y208661D03*
X78740D03*
X66929Y196850D03*
X78740Y267717D03*
X66929Y279528D03*
Y291339D03*
X78740D03*
Y279528D03*
X66929Y303150D03*
Y314961D03*
X78740Y303150D03*
Y314961D03*
X66929Y326772D03*
X78740D03*
Y338583D03*
X66929D03*
X84646Y351378D03*
X80709D03*
X76772D03*
X64961D03*
X72835D03*
X68898D03*
X88583Y2953D03*
X108268D03*
X112205D03*
X100394D03*
X104331D03*
X92520D03*
X96457D03*
X97244Y14961D03*
X102362Y55118D03*
Y43307D03*
X112933Y67500D03*
X109390D03*
X112933Y82461D03*
X109390D03*
X112933Y87579D03*
X109390D03*
X109783Y101752D03*
X102362Y137795D03*
X90551D03*
Y161417D03*
X102362D03*
Y149606D03*
X90551D03*
Y173228D03*
X102362D03*
X90551Y208661D03*
X102362D03*
Y267717D03*
X90551D03*
Y291339D03*
X102362D03*
Y279528D03*
X90551D03*
Y303150D03*
Y314961D03*
X102362Y303150D03*
Y314961D03*
X90551Y326772D03*
Y338583D03*
X102362Y326772D03*
Y338583D03*
X92520Y351378D03*
X112205D03*
X100394D03*
X96457D03*
X108268D03*
X104331D03*
X88583D03*
X116142Y2953D03*
X135827D03*
X127953D03*
X131890D03*
X120079D03*
X124016D03*
X138780Y7874D03*
X114567Y9449D03*
Y14961D03*
X114173Y55118D03*
Y43307D03*
X125984Y55118D03*
Y43307D03*
X116476Y67500D03*
Y82461D03*
X125984Y78740D03*
X137795D03*
X125984Y66929D03*
X116476Y87579D03*
X113327Y101752D03*
X116870D03*
X125984Y102362D03*
X137795D03*
Y90551D03*
X125984D03*
Y114173D03*
X137795D03*
X131890Y133858D03*
X125984Y131496D03*
X120079Y133858D03*
X131890Y145669D03*
X134252Y139764D03*
X120079Y145669D03*
X125984Y148031D03*
X117717Y139764D03*
X131890Y183071D03*
X134252Y177165D03*
X131890Y171260D03*
X120079Y183071D03*
X125984Y185433D03*
Y168898D03*
X120079Y171260D03*
X117717Y177165D03*
X114173Y208661D03*
X125984D03*
X137795D03*
X117717Y227165D03*
X120079Y221260D03*
X125984Y218898D03*
X131890Y221260D03*
X134252Y227165D03*
X131890Y233071D03*
X125984Y235433D03*
X120079Y233071D03*
X114173Y267717D03*
Y291339D03*
Y279528D03*
Y303150D03*
Y314961D03*
Y326772D03*
Y338583D03*
X127953Y351378D03*
X135827D03*
X131890D03*
X120079D03*
X116142D03*
X124016D03*
X138780Y348425D03*
X139764Y12795D03*
X143701Y13780D03*
X163386D03*
X155512D03*
X159449D03*
X147638D03*
X151575D03*
X146063Y55512D03*
X151181D03*
Y50394D03*
X146063D03*
X149606Y78740D03*
X146063Y68898D03*
X151181D03*
X140945D03*
X164173Y68504D03*
Y65354D03*
X149606Y102362D03*
Y90551D03*
Y208661D03*
X161417D03*
X138917Y289154D03*
Y306476D03*
Y301752D03*
Y297815D03*
Y293878D03*
X139764Y342520D03*
X163386Y339567D03*
X155512D03*
X151575D03*
X147638D03*
X143701D03*
X159449D03*
X167323Y13780D03*
X171260D03*
X183071D03*
X187008D03*
X175197D03*
X179134D03*
X186220Y71260D03*
Y68504D03*
Y65354D03*
X167323Y71260D03*
X176772D03*
X173622D03*
X170472D03*
X183071D03*
X179921D03*
X167323Y68504D03*
X176772D03*
X173622D03*
X170472D03*
X183071D03*
X179921D03*
Y65354D03*
X183071D03*
X170472D03*
X173622D03*
X176772D03*
X167323D03*
X185039Y125984D03*
X173228Y208661D03*
X185039D03*
X179650Y266894D03*
X173957Y304508D03*
Y307657D03*
X170413D03*
X166476D03*
X187008Y339567D03*
X183071D03*
X171260D03*
X167323D03*
X179134D03*
X175197D03*
X190945Y13780D03*
X194882D03*
X198819D03*
X210630D03*
X214567D03*
X202756D03*
X206693D03*
X196063Y32677D03*
X198819Y65748D03*
X193701D03*
X196207Y65770D03*
X198819Y68504D03*
X196207Y68526D03*
X193701Y68504D03*
X198819Y71260D03*
X196207Y71282D03*
X193701Y71260D03*
X208661Y102362D03*
X196850Y125984D03*
X208661D03*
Y114173D03*
X196850D03*
Y208661D03*
X208209Y265531D03*
X211752D03*
X215295D03*
X208209Y280492D03*
X211752D03*
X215295D03*
X208209Y285610D03*
X211752D03*
X215295D03*
X215689Y299783D03*
X212146D03*
X208602D03*
X198819Y339567D03*
X206693D03*
X202756D03*
X214567D03*
X210630D03*
X190945D03*
X194882D03*
X226378Y2953D03*
X238189D03*
X242126D03*
X230315D03*
X234252D03*
X224409Y8858D03*
X218504Y13780D03*
X222441D03*
X232283Y55118D03*
Y43307D03*
Y78740D03*
Y66929D03*
X233012Y92303D03*
Y97028D03*
Y100965D03*
Y104902D03*
X234193Y109626D03*
X220472Y102362D03*
Y90551D03*
X237402Y117717D03*
Y113780D03*
X234252Y117717D03*
Y113780D03*
X220472Y125984D03*
Y114173D03*
X234252Y133858D03*
X228346Y131496D03*
X222441Y133858D03*
Y145669D03*
X228346Y148031D03*
X234252Y145669D03*
X236614Y139764D03*
X220079D03*
X222441Y183071D03*
X228346Y185433D03*
X234252Y183071D03*
X236614Y177165D03*
X234252Y171260D03*
X228346Y168898D03*
X222441Y171260D03*
X220079Y177165D03*
X222441Y233071D03*
X228346Y235433D03*
X234252Y233071D03*
X236614Y227165D03*
X234252Y221260D03*
X228346Y218898D03*
X222441Y221260D03*
X220079Y227165D03*
X232283Y267717D03*
Y279528D03*
Y291339D03*
Y314961D03*
Y303150D03*
Y338583D03*
Y326772D03*
X222441Y339567D03*
X218504D03*
X224409Y343504D03*
X234252Y351378D03*
X242126D03*
X238189D03*
X226378D03*
X230315D03*
X224409Y348425D03*
X246063Y2953D03*
X250000D03*
X253937D03*
X265748D03*
X257874D03*
X261811D03*
X244094Y55118D03*
X255906D03*
X267717D03*
Y43307D03*
X255906D03*
X244094D03*
X260965Y109232D03*
X264902D03*
X255906Y125984D03*
Y137795D03*
X267717D03*
Y125984D03*
X255906Y149606D03*
X267717D03*
X244094Y267717D03*
X255906D03*
X267717D03*
X244094Y279528D03*
Y291339D03*
X255906Y279528D03*
Y291339D03*
X267717Y279528D03*
Y291339D03*
X244094Y314961D03*
Y303150D03*
X255906Y314961D03*
Y303150D03*
X267717Y314961D03*
Y303150D03*
X244094Y338583D03*
Y326772D03*
X255906Y338583D03*
Y326772D03*
X267717Y338583D03*
Y326772D03*
X261811Y351378D03*
X257874D03*
X253937D03*
X250000D03*
X246063D03*
X265748D03*
X273622Y2953D03*
X277559D03*
X269685D03*
X281496D03*
X293307D03*
X285433D03*
X289370D03*
X274138Y68469D03*
X268445Y109232D03*
Y106083D03*
X291339Y137795D03*
X279528D03*
Y125984D03*
X291339D03*
X279528Y149606D03*
X291339D03*
X279528Y185039D03*
X291339D03*
X279528Y208661D03*
X291339D03*
X279528Y196850D03*
X291339D03*
X279528Y232283D03*
X291339D03*
X279528Y220472D03*
X291339D03*
X279528Y267717D03*
X291339D03*
X279528Y279528D03*
Y291339D03*
X291339Y279528D03*
Y291339D03*
X279528Y314961D03*
Y303150D03*
X291339Y314961D03*
Y303150D03*
X279528Y338583D03*
Y326772D03*
X291339Y338583D03*
Y326772D03*
X269685Y351378D03*
X293307D03*
X289370D03*
X277559D03*
X273622D03*
X285433D03*
X281496D03*
X301181Y2953D03*
X305118D03*
X297244D03*
X309055D03*
X312992D03*
X316929D03*
X309783Y87185D03*
X306240D03*
X302697D03*
X309783Y82067D03*
X306240D03*
X302697D03*
X309783Y67106D03*
X306240D03*
X302697D03*
X303091Y101358D03*
X306634D03*
X310177D03*
X303150Y137795D03*
Y125984D03*
Y149606D03*
Y185039D03*
Y208661D03*
Y196850D03*
Y232283D03*
Y220472D03*
Y267717D03*
X314961D03*
X303150Y291339D03*
Y279528D03*
X314961Y291339D03*
Y279528D03*
X303150Y303150D03*
Y314961D03*
X314961Y303150D03*
Y314961D03*
X316929Y327559D03*
Y340945D03*
X314567Y334646D03*
X305118Y351378D03*
X312992D03*
X309055D03*
X316929D03*
X297244D03*
X301181D03*
X328740Y2953D03*
X332677D03*
X320866D03*
X324803D03*
X336614D03*
X340551D03*
X344488D03*
Y5906D03*
X340551D03*
X332677D03*
X335433Y10236D03*
X327953Y12992D03*
Y26378D03*
X325591Y20079D03*
X335433Y29134D03*
X342913Y26378D03*
X342520Y12598D03*
X344488Y20079D03*
Y9843D03*
X343504Y135827D03*
Y143701D03*
Y159449D03*
Y163386D03*
Y151575D03*
Y155512D03*
Y147638D03*
Y139764D03*
Y183071D03*
Y175197D03*
Y179134D03*
Y187008D03*
Y167323D03*
Y171260D03*
Y206693D03*
Y198819D03*
Y202756D03*
Y194882D03*
Y210630D03*
Y190945D03*
X345472Y214567D03*
X326772Y267717D03*
X338583D03*
X326772Y291339D03*
Y279528D03*
X338583Y291339D03*
Y279528D03*
X326772Y303150D03*
Y314961D03*
X338583Y303150D03*
Y314961D03*
X324409Y324803D03*
Y343701D03*
X331890Y340945D03*
X331496Y327165D03*
X333465Y334646D03*
X344488Y336614D03*
Y332677D03*
Y340551D03*
X340551Y336614D03*
Y332677D03*
Y340551D03*
Y344488D03*
X344488D03*
X336614D03*
X340551Y351378D03*
X344488Y348425D03*
Y351378D03*
X332677D03*
X328740D03*
X324803D03*
X320866D03*
X336614D03*
X332677Y348425D03*
X328740D03*
X336614D03*
X340551D03*
X324803D03*
X348425Y2953D03*
X351575Y5906D03*
X348425D03*
X351575Y9843D03*
Y17717D03*
Y25591D03*
Y21654D03*
Y33465D03*
Y29528D03*
Y13780D03*
X348425Y9843D03*
Y13780D03*
Y17717D03*
Y21654D03*
X351575Y41339D03*
Y37402D03*
Y57087D03*
Y61024D03*
Y49213D03*
Y45276D03*
Y53150D03*
Y80709D03*
Y64961D03*
Y72835D03*
Y68898D03*
Y76772D03*
Y84646D03*
Y92520D03*
Y88583D03*
Y108268D03*
Y112205D03*
Y100394D03*
Y96457D03*
Y104331D03*
Y131890D03*
Y116142D03*
Y124016D03*
Y120079D03*
Y127953D03*
X347441Y133858D03*
X351575Y222441D03*
Y218504D03*
Y238189D03*
Y242126D03*
Y230315D03*
Y226378D03*
Y234252D03*
X349409Y216535D03*
X351575Y261811D03*
Y246063D03*
Y253937D03*
Y250000D03*
Y257874D03*
Y265748D03*
Y269685D03*
Y277559D03*
Y285433D03*
Y281496D03*
Y293307D03*
Y289370D03*
Y273622D03*
Y301181D03*
Y297244D03*
Y316929D03*
Y309055D03*
Y305118D03*
Y312992D03*
Y320866D03*
Y340551D03*
Y324803D03*
Y332677D03*
Y328740D03*
Y336614D03*
Y344488D03*
X348425D03*
Y336614D03*
Y332677D03*
Y340551D03*
X351575Y348425D03*
X348425D03*
Y351378D03*
G54D12*
X46063Y103346D03*
Y99016D03*
X145276Y301772D03*
Y297441D03*
X239370Y103346D03*
Y99016D03*
G54D13*
X134969Y51000D03*
X212370D03*
G54D14*
X125975Y139646D03*
Y177165D03*
Y227165D03*
X228356Y139646D03*
Y177165D03*
Y227165D03*
G54D15*
X161415Y139646D03*
Y177165D03*
Y227165D03*
X177165Y139646D03*
Y177165D03*
Y227165D03*
X208665Y139646D03*
X192915D03*
X208665Y177165D03*
X192915D03*
X208665Y227165D03*
X192915D03*
G54D16*
X145665Y139646D03*
Y177165D03*
Y227165D03*
G54D17*
G01X162598Y22047D02*
X161024Y20472D01*
X129793D01*
X115798Y6477D01*
X113336D01*
X110364Y9449D01*
X102756D01*
X97244Y14961D01*
G01X162992Y81102D02*
X160709D01*
X156299Y76692D01*
Y27165D01*
X155118Y25984D01*
X125591D01*
X114567Y14961D01*
G01Y9449D02*
X127953Y22835D01*
X157874D01*
X159055Y24016D01*
Y74330D01*
X163267Y78543D01*
X188780D01*
X190157Y77165D01*
Y34646D01*
X192126Y32677D01*
X196063D01*
G54D18*
G01X145276Y301772D02*
Y303957D01*
G01X143091Y301772D02*
X145276D01*
G01D02*
X147461D01*
G01X145276Y295256D02*
Y297441D01*
G01X143091D02*
X145276D01*
G01D02*
X147461D01*
G54D19*
G01X46063Y96831D02*
Y99016D01*
G01X43878D02*
X46063D01*
G01D02*
X48248D01*
G01X46063Y103346D02*
Y105531D01*
G01X43878Y103346D02*
X46063D01*
G01D02*
X48248D01*
G01X187778Y139646D02*
X192915D01*
G01X187778Y227165D02*
X192915D01*
G01Y134508D02*
Y139646D01*
G01D02*
Y144783D01*
G01Y139646D02*
X198053D01*
G01X192915Y222028D02*
Y227165D01*
G01D02*
Y232303D01*
G01Y227165D02*
X198053D01*
G01X239370Y96831D02*
Y99016D01*
G01X237185D02*
X239370D01*
G01D02*
X241556D01*
G01X239370Y103346D02*
Y105531D01*
G01X237185Y103346D02*
X239370D01*
G01D02*
X241556D01*
M02*
